%TF.GenerationSoftware,KiCad,Pcbnew,9.0.8*%
%TF.CreationDate,2026-07-10T12:41:50-04:00*%
%TF.ProjectId,PortableRAM-8MB,506f7274-6162-46c6-9552-414d2d384d42,2.0*%
%TF.SameCoordinates,Original*%
%TF.FileFunction,Legend,Bot*%
%TF.FilePolarity,Positive*%
%FSLAX46Y46*%
G04 Gerber Fmt 4.6, Leading zero omitted, Abs format (unit mm)*
G04 Created by KiCad (PCBNEW 9.0.8) date 2026-07-10 12:41:50*
%MOMM*%
%LPD*%
G01*
G04 APERTURE LIST*
%ADD10C,0.100000*%
%ADD11C,0.200000*%
%ADD12C,0.150000*%
%ADD13C,0.120000*%
G04 APERTURE END LIST*
D10*
X176007738Y-125857419D02*
X176007738Y-124857419D01*
X176007738Y-124857419D02*
X175769643Y-124857419D01*
X175769643Y-124857419D02*
X175626786Y-124905038D01*
X175626786Y-124905038D02*
X175531548Y-125000276D01*
X175531548Y-125000276D02*
X175483929Y-125095514D01*
X175483929Y-125095514D02*
X175436310Y-125285990D01*
X175436310Y-125285990D02*
X175436310Y-125428847D01*
X175436310Y-125428847D02*
X175483929Y-125619323D01*
X175483929Y-125619323D02*
X175531548Y-125714561D01*
X175531548Y-125714561D02*
X175626786Y-125809800D01*
X175626786Y-125809800D02*
X175769643Y-125857419D01*
X175769643Y-125857419D02*
X176007738Y-125857419D01*
X174626786Y-125809800D02*
X174722024Y-125857419D01*
X174722024Y-125857419D02*
X174912500Y-125857419D01*
X174912500Y-125857419D02*
X175007738Y-125809800D01*
X175007738Y-125809800D02*
X175055357Y-125714561D01*
X175055357Y-125714561D02*
X175055357Y-125333609D01*
X175055357Y-125333609D02*
X175007738Y-125238371D01*
X175007738Y-125238371D02*
X174912500Y-125190752D01*
X174912500Y-125190752D02*
X174722024Y-125190752D01*
X174722024Y-125190752D02*
X174626786Y-125238371D01*
X174626786Y-125238371D02*
X174579167Y-125333609D01*
X174579167Y-125333609D02*
X174579167Y-125428847D01*
X174579167Y-125428847D02*
X175055357Y-125524085D01*
X174198214Y-125809800D02*
X174102976Y-125857419D01*
X174102976Y-125857419D02*
X173912500Y-125857419D01*
X173912500Y-125857419D02*
X173817262Y-125809800D01*
X173817262Y-125809800D02*
X173769643Y-125714561D01*
X173769643Y-125714561D02*
X173769643Y-125666942D01*
X173769643Y-125666942D02*
X173817262Y-125571704D01*
X173817262Y-125571704D02*
X173912500Y-125524085D01*
X173912500Y-125524085D02*
X174055357Y-125524085D01*
X174055357Y-125524085D02*
X174150595Y-125476466D01*
X174150595Y-125476466D02*
X174198214Y-125381228D01*
X174198214Y-125381228D02*
X174198214Y-125333609D01*
X174198214Y-125333609D02*
X174150595Y-125238371D01*
X174150595Y-125238371D02*
X174055357Y-125190752D01*
X174055357Y-125190752D02*
X173912500Y-125190752D01*
X173912500Y-125190752D02*
X173817262Y-125238371D01*
X173341071Y-125857419D02*
X173341071Y-125190752D01*
X173341071Y-124857419D02*
X173388690Y-124905038D01*
X173388690Y-124905038D02*
X173341071Y-124952657D01*
X173341071Y-124952657D02*
X173293452Y-124905038D01*
X173293452Y-124905038D02*
X173341071Y-124857419D01*
X173341071Y-124857419D02*
X173341071Y-124952657D01*
X172436310Y-125190752D02*
X172436310Y-126000276D01*
X172436310Y-126000276D02*
X172483929Y-126095514D01*
X172483929Y-126095514D02*
X172531548Y-126143133D01*
X172531548Y-126143133D02*
X172626786Y-126190752D01*
X172626786Y-126190752D02*
X172769643Y-126190752D01*
X172769643Y-126190752D02*
X172864881Y-126143133D01*
X172436310Y-125809800D02*
X172531548Y-125857419D01*
X172531548Y-125857419D02*
X172722024Y-125857419D01*
X172722024Y-125857419D02*
X172817262Y-125809800D01*
X172817262Y-125809800D02*
X172864881Y-125762180D01*
X172864881Y-125762180D02*
X172912500Y-125666942D01*
X172912500Y-125666942D02*
X172912500Y-125381228D01*
X172912500Y-125381228D02*
X172864881Y-125285990D01*
X172864881Y-125285990D02*
X172817262Y-125238371D01*
X172817262Y-125238371D02*
X172722024Y-125190752D01*
X172722024Y-125190752D02*
X172531548Y-125190752D01*
X172531548Y-125190752D02*
X172436310Y-125238371D01*
X171960119Y-125190752D02*
X171960119Y-125857419D01*
X171960119Y-125285990D02*
X171912500Y-125238371D01*
X171912500Y-125238371D02*
X171817262Y-125190752D01*
X171817262Y-125190752D02*
X171674405Y-125190752D01*
X171674405Y-125190752D02*
X171579167Y-125238371D01*
X171579167Y-125238371D02*
X171531548Y-125333609D01*
X171531548Y-125333609D02*
X171531548Y-125857419D01*
X170674405Y-125809800D02*
X170769643Y-125857419D01*
X170769643Y-125857419D02*
X170960119Y-125857419D01*
X170960119Y-125857419D02*
X171055357Y-125809800D01*
X171055357Y-125809800D02*
X171102976Y-125714561D01*
X171102976Y-125714561D02*
X171102976Y-125333609D01*
X171102976Y-125333609D02*
X171055357Y-125238371D01*
X171055357Y-125238371D02*
X170960119Y-125190752D01*
X170960119Y-125190752D02*
X170769643Y-125190752D01*
X170769643Y-125190752D02*
X170674405Y-125238371D01*
X170674405Y-125238371D02*
X170626786Y-125333609D01*
X170626786Y-125333609D02*
X170626786Y-125428847D01*
X170626786Y-125428847D02*
X171102976Y-125524085D01*
X169769643Y-125857419D02*
X169769643Y-124857419D01*
X169769643Y-125809800D02*
X169864881Y-125857419D01*
X169864881Y-125857419D02*
X170055357Y-125857419D01*
X170055357Y-125857419D02*
X170150595Y-125809800D01*
X170150595Y-125809800D02*
X170198214Y-125762180D01*
X170198214Y-125762180D02*
X170245833Y-125666942D01*
X170245833Y-125666942D02*
X170245833Y-125381228D01*
X170245833Y-125381228D02*
X170198214Y-125285990D01*
X170198214Y-125285990D02*
X170150595Y-125238371D01*
X170150595Y-125238371D02*
X170055357Y-125190752D01*
X170055357Y-125190752D02*
X169864881Y-125190752D01*
X169864881Y-125190752D02*
X169769643Y-125238371D01*
X168531547Y-125857419D02*
X168531547Y-125190752D01*
X168531547Y-124857419D02*
X168579166Y-124905038D01*
X168579166Y-124905038D02*
X168531547Y-124952657D01*
X168531547Y-124952657D02*
X168483928Y-124905038D01*
X168483928Y-124905038D02*
X168531547Y-124857419D01*
X168531547Y-124857419D02*
X168531547Y-124952657D01*
X168055357Y-125190752D02*
X168055357Y-125857419D01*
X168055357Y-125285990D02*
X168007738Y-125238371D01*
X168007738Y-125238371D02*
X167912500Y-125190752D01*
X167912500Y-125190752D02*
X167769643Y-125190752D01*
X167769643Y-125190752D02*
X167674405Y-125238371D01*
X167674405Y-125238371D02*
X167626786Y-125333609D01*
X167626786Y-125333609D02*
X167626786Y-125857419D01*
X166388690Y-125857419D02*
X166388690Y-124857419D01*
X166388690Y-124857419D02*
X165817262Y-125857419D01*
X165817262Y-125857419D02*
X165817262Y-124857419D01*
X165198214Y-125857419D02*
X165293452Y-125809800D01*
X165293452Y-125809800D02*
X165341071Y-125762180D01*
X165341071Y-125762180D02*
X165388690Y-125666942D01*
X165388690Y-125666942D02*
X165388690Y-125381228D01*
X165388690Y-125381228D02*
X165341071Y-125285990D01*
X165341071Y-125285990D02*
X165293452Y-125238371D01*
X165293452Y-125238371D02*
X165198214Y-125190752D01*
X165198214Y-125190752D02*
X165055357Y-125190752D01*
X165055357Y-125190752D02*
X164960119Y-125238371D01*
X164960119Y-125238371D02*
X164912500Y-125285990D01*
X164912500Y-125285990D02*
X164864881Y-125381228D01*
X164864881Y-125381228D02*
X164864881Y-125666942D01*
X164864881Y-125666942D02*
X164912500Y-125762180D01*
X164912500Y-125762180D02*
X164960119Y-125809800D01*
X164960119Y-125809800D02*
X165055357Y-125857419D01*
X165055357Y-125857419D02*
X165198214Y-125857419D01*
X164436309Y-125857419D02*
X164436309Y-125190752D01*
X164436309Y-125381228D02*
X164388690Y-125285990D01*
X164388690Y-125285990D02*
X164341071Y-125238371D01*
X164341071Y-125238371D02*
X164245833Y-125190752D01*
X164245833Y-125190752D02*
X164150595Y-125190752D01*
X163960118Y-125190752D02*
X163579166Y-125190752D01*
X163817261Y-124857419D02*
X163817261Y-125714561D01*
X163817261Y-125714561D02*
X163769642Y-125809800D01*
X163769642Y-125809800D02*
X163674404Y-125857419D01*
X163674404Y-125857419D02*
X163579166Y-125857419D01*
X163245832Y-125857419D02*
X163245832Y-124857419D01*
X162817261Y-125857419D02*
X162817261Y-125333609D01*
X162817261Y-125333609D02*
X162864880Y-125238371D01*
X162864880Y-125238371D02*
X162960118Y-125190752D01*
X162960118Y-125190752D02*
X163102975Y-125190752D01*
X163102975Y-125190752D02*
X163198213Y-125238371D01*
X163198213Y-125238371D02*
X163245832Y-125285990D01*
X161007737Y-125762180D02*
X161055356Y-125809800D01*
X161055356Y-125809800D02*
X161198213Y-125857419D01*
X161198213Y-125857419D02*
X161293451Y-125857419D01*
X161293451Y-125857419D02*
X161436308Y-125809800D01*
X161436308Y-125809800D02*
X161531546Y-125714561D01*
X161531546Y-125714561D02*
X161579165Y-125619323D01*
X161579165Y-125619323D02*
X161626784Y-125428847D01*
X161626784Y-125428847D02*
X161626784Y-125285990D01*
X161626784Y-125285990D02*
X161579165Y-125095514D01*
X161579165Y-125095514D02*
X161531546Y-125000276D01*
X161531546Y-125000276D02*
X161436308Y-124905038D01*
X161436308Y-124905038D02*
X161293451Y-124857419D01*
X161293451Y-124857419D02*
X161198213Y-124857419D01*
X161198213Y-124857419D02*
X161055356Y-124905038D01*
X161055356Y-124905038D02*
X161007737Y-124952657D01*
X160150594Y-125857419D02*
X160150594Y-125333609D01*
X160150594Y-125333609D02*
X160198213Y-125238371D01*
X160198213Y-125238371D02*
X160293451Y-125190752D01*
X160293451Y-125190752D02*
X160483927Y-125190752D01*
X160483927Y-125190752D02*
X160579165Y-125238371D01*
X160150594Y-125809800D02*
X160245832Y-125857419D01*
X160245832Y-125857419D02*
X160483927Y-125857419D01*
X160483927Y-125857419D02*
X160579165Y-125809800D01*
X160579165Y-125809800D02*
X160626784Y-125714561D01*
X160626784Y-125714561D02*
X160626784Y-125619323D01*
X160626784Y-125619323D02*
X160579165Y-125524085D01*
X160579165Y-125524085D02*
X160483927Y-125476466D01*
X160483927Y-125476466D02*
X160245832Y-125476466D01*
X160245832Y-125476466D02*
X160150594Y-125428847D01*
X159674403Y-125857419D02*
X159674403Y-125190752D01*
X159674403Y-125381228D02*
X159626784Y-125285990D01*
X159626784Y-125285990D02*
X159579165Y-125238371D01*
X159579165Y-125238371D02*
X159483927Y-125190752D01*
X159483927Y-125190752D02*
X159388689Y-125190752D01*
X158912498Y-125857419D02*
X159007736Y-125809800D01*
X159007736Y-125809800D02*
X159055355Y-125762180D01*
X159055355Y-125762180D02*
X159102974Y-125666942D01*
X159102974Y-125666942D02*
X159102974Y-125381228D01*
X159102974Y-125381228D02*
X159055355Y-125285990D01*
X159055355Y-125285990D02*
X159007736Y-125238371D01*
X159007736Y-125238371D02*
X158912498Y-125190752D01*
X158912498Y-125190752D02*
X158769641Y-125190752D01*
X158769641Y-125190752D02*
X158674403Y-125238371D01*
X158674403Y-125238371D02*
X158626784Y-125285990D01*
X158626784Y-125285990D02*
X158579165Y-125381228D01*
X158579165Y-125381228D02*
X158579165Y-125666942D01*
X158579165Y-125666942D02*
X158626784Y-125762180D01*
X158626784Y-125762180D02*
X158674403Y-125809800D01*
X158674403Y-125809800D02*
X158769641Y-125857419D01*
X158769641Y-125857419D02*
X158912498Y-125857419D01*
X158007736Y-125857419D02*
X158102974Y-125809800D01*
X158102974Y-125809800D02*
X158150593Y-125714561D01*
X158150593Y-125714561D02*
X158150593Y-124857419D01*
X157626783Y-125857419D02*
X157626783Y-125190752D01*
X157626783Y-124857419D02*
X157674402Y-124905038D01*
X157674402Y-124905038D02*
X157626783Y-124952657D01*
X157626783Y-124952657D02*
X157579164Y-124905038D01*
X157579164Y-124905038D02*
X157626783Y-124857419D01*
X157626783Y-124857419D02*
X157626783Y-124952657D01*
X157150593Y-125190752D02*
X157150593Y-125857419D01*
X157150593Y-125285990D02*
X157102974Y-125238371D01*
X157102974Y-125238371D02*
X157007736Y-125190752D01*
X157007736Y-125190752D02*
X156864879Y-125190752D01*
X156864879Y-125190752D02*
X156769641Y-125238371D01*
X156769641Y-125238371D02*
X156722022Y-125333609D01*
X156722022Y-125333609D02*
X156722022Y-125857419D01*
X155817260Y-125857419D02*
X155817260Y-125333609D01*
X155817260Y-125333609D02*
X155864879Y-125238371D01*
X155864879Y-125238371D02*
X155960117Y-125190752D01*
X155960117Y-125190752D02*
X156150593Y-125190752D01*
X156150593Y-125190752D02*
X156245831Y-125238371D01*
X155817260Y-125809800D02*
X155912498Y-125857419D01*
X155912498Y-125857419D02*
X156150593Y-125857419D01*
X156150593Y-125857419D02*
X156245831Y-125809800D01*
X156245831Y-125809800D02*
X156293450Y-125714561D01*
X156293450Y-125714561D02*
X156293450Y-125619323D01*
X156293450Y-125619323D02*
X156245831Y-125524085D01*
X156245831Y-125524085D02*
X156150593Y-125476466D01*
X156150593Y-125476466D02*
X155912498Y-125476466D01*
X155912498Y-125476466D02*
X155817260Y-125428847D01*
X174364881Y-128109800D02*
X174460119Y-128157419D01*
X174460119Y-128157419D02*
X174650595Y-128157419D01*
X174650595Y-128157419D02*
X174745833Y-128109800D01*
X174745833Y-128109800D02*
X174793452Y-128062180D01*
X174793452Y-128062180D02*
X174841071Y-127966942D01*
X174841071Y-127966942D02*
X174841071Y-127681228D01*
X174841071Y-127681228D02*
X174793452Y-127585990D01*
X174793452Y-127585990D02*
X174745833Y-127538371D01*
X174745833Y-127538371D02*
X174650595Y-127490752D01*
X174650595Y-127490752D02*
X174460119Y-127490752D01*
X174460119Y-127490752D02*
X174364881Y-127538371D01*
X173507738Y-128157419D02*
X173507738Y-127633609D01*
X173507738Y-127633609D02*
X173555357Y-127538371D01*
X173555357Y-127538371D02*
X173650595Y-127490752D01*
X173650595Y-127490752D02*
X173841071Y-127490752D01*
X173841071Y-127490752D02*
X173936309Y-127538371D01*
X173507738Y-128109800D02*
X173602976Y-128157419D01*
X173602976Y-128157419D02*
X173841071Y-128157419D01*
X173841071Y-128157419D02*
X173936309Y-128109800D01*
X173936309Y-128109800D02*
X173983928Y-128014561D01*
X173983928Y-128014561D02*
X173983928Y-127919323D01*
X173983928Y-127919323D02*
X173936309Y-127824085D01*
X173936309Y-127824085D02*
X173841071Y-127776466D01*
X173841071Y-127776466D02*
X173602976Y-127776466D01*
X173602976Y-127776466D02*
X173507738Y-127728847D01*
X173031547Y-128157419D02*
X173031547Y-127490752D01*
X173031547Y-127585990D02*
X172983928Y-127538371D01*
X172983928Y-127538371D02*
X172888690Y-127490752D01*
X172888690Y-127490752D02*
X172745833Y-127490752D01*
X172745833Y-127490752D02*
X172650595Y-127538371D01*
X172650595Y-127538371D02*
X172602976Y-127633609D01*
X172602976Y-127633609D02*
X172602976Y-128157419D01*
X172602976Y-127633609D02*
X172555357Y-127538371D01*
X172555357Y-127538371D02*
X172460119Y-127490752D01*
X172460119Y-127490752D02*
X172317262Y-127490752D01*
X172317262Y-127490752D02*
X172222023Y-127538371D01*
X172222023Y-127538371D02*
X172174404Y-127633609D01*
X172174404Y-127633609D02*
X172174404Y-128157419D01*
X171698214Y-127490752D02*
X171698214Y-128490752D01*
X171698214Y-127538371D02*
X171602976Y-127490752D01*
X171602976Y-127490752D02*
X171412500Y-127490752D01*
X171412500Y-127490752D02*
X171317262Y-127538371D01*
X171317262Y-127538371D02*
X171269643Y-127585990D01*
X171269643Y-127585990D02*
X171222024Y-127681228D01*
X171222024Y-127681228D02*
X171222024Y-127966942D01*
X171222024Y-127966942D02*
X171269643Y-128062180D01*
X171269643Y-128062180D02*
X171317262Y-128109800D01*
X171317262Y-128109800D02*
X171412500Y-128157419D01*
X171412500Y-128157419D02*
X171602976Y-128157419D01*
X171602976Y-128157419D02*
X171698214Y-128109800D01*
X170793452Y-128157419D02*
X170793452Y-127157419D01*
X170793452Y-127538371D02*
X170698214Y-127490752D01*
X170698214Y-127490752D02*
X170507738Y-127490752D01*
X170507738Y-127490752D02*
X170412500Y-127538371D01*
X170412500Y-127538371D02*
X170364881Y-127585990D01*
X170364881Y-127585990D02*
X170317262Y-127681228D01*
X170317262Y-127681228D02*
X170317262Y-127966942D01*
X170317262Y-127966942D02*
X170364881Y-128062180D01*
X170364881Y-128062180D02*
X170412500Y-128109800D01*
X170412500Y-128109800D02*
X170507738Y-128157419D01*
X170507738Y-128157419D02*
X170698214Y-128157419D01*
X170698214Y-128157419D02*
X170793452Y-128109800D01*
X169507738Y-128109800D02*
X169602976Y-128157419D01*
X169602976Y-128157419D02*
X169793452Y-128157419D01*
X169793452Y-128157419D02*
X169888690Y-128109800D01*
X169888690Y-128109800D02*
X169936309Y-128014561D01*
X169936309Y-128014561D02*
X169936309Y-127633609D01*
X169936309Y-127633609D02*
X169888690Y-127538371D01*
X169888690Y-127538371D02*
X169793452Y-127490752D01*
X169793452Y-127490752D02*
X169602976Y-127490752D01*
X169602976Y-127490752D02*
X169507738Y-127538371D01*
X169507738Y-127538371D02*
X169460119Y-127633609D01*
X169460119Y-127633609D02*
X169460119Y-127728847D01*
X169460119Y-127728847D02*
X169936309Y-127824085D01*
X168888690Y-128157419D02*
X168983928Y-128109800D01*
X168983928Y-128109800D02*
X169031547Y-128014561D01*
X169031547Y-128014561D02*
X169031547Y-127157419D01*
X168364880Y-128157419D02*
X168460118Y-128109800D01*
X168460118Y-128109800D02*
X168507737Y-128014561D01*
X168507737Y-128014561D02*
X168507737Y-127157419D01*
X167555356Y-128157419D02*
X167555356Y-127633609D01*
X167555356Y-127633609D02*
X167602975Y-127538371D01*
X167602975Y-127538371D02*
X167698213Y-127490752D01*
X167698213Y-127490752D02*
X167888689Y-127490752D01*
X167888689Y-127490752D02*
X167983927Y-127538371D01*
X167555356Y-128109800D02*
X167650594Y-128157419D01*
X167650594Y-128157419D02*
X167888689Y-128157419D01*
X167888689Y-128157419D02*
X167983927Y-128109800D01*
X167983927Y-128109800D02*
X168031546Y-128014561D01*
X168031546Y-128014561D02*
X168031546Y-127919323D01*
X168031546Y-127919323D02*
X167983927Y-127824085D01*
X167983927Y-127824085D02*
X167888689Y-127776466D01*
X167888689Y-127776466D02*
X167650594Y-127776466D01*
X167650594Y-127776466D02*
X167555356Y-127728847D01*
X167126784Y-128109800D02*
X167031546Y-128157419D01*
X167031546Y-128157419D02*
X166841070Y-128157419D01*
X166841070Y-128157419D02*
X166745832Y-128109800D01*
X166745832Y-128109800D02*
X166698213Y-128014561D01*
X166698213Y-128014561D02*
X166698213Y-127966942D01*
X166698213Y-127966942D02*
X166745832Y-127871704D01*
X166745832Y-127871704D02*
X166841070Y-127824085D01*
X166841070Y-127824085D02*
X166983927Y-127824085D01*
X166983927Y-127824085D02*
X167079165Y-127776466D01*
X167079165Y-127776466D02*
X167126784Y-127681228D01*
X167126784Y-127681228D02*
X167126784Y-127633609D01*
X167126784Y-127633609D02*
X167079165Y-127538371D01*
X167079165Y-127538371D02*
X166983927Y-127490752D01*
X166983927Y-127490752D02*
X166841070Y-127490752D01*
X166841070Y-127490752D02*
X166745832Y-127538371D01*
X166269641Y-128157419D02*
X166269641Y-127157419D01*
X165841070Y-128157419D02*
X165841070Y-127633609D01*
X165841070Y-127633609D02*
X165888689Y-127538371D01*
X165888689Y-127538371D02*
X165983927Y-127490752D01*
X165983927Y-127490752D02*
X166126784Y-127490752D01*
X166126784Y-127490752D02*
X166222022Y-127538371D01*
X166222022Y-127538371D02*
X166269641Y-127585990D01*
X164983927Y-128109800D02*
X165079165Y-128157419D01*
X165079165Y-128157419D02*
X165269641Y-128157419D01*
X165269641Y-128157419D02*
X165364879Y-128109800D01*
X165364879Y-128109800D02*
X165412498Y-128014561D01*
X165412498Y-128014561D02*
X165412498Y-127633609D01*
X165412498Y-127633609D02*
X165364879Y-127538371D01*
X165364879Y-127538371D02*
X165269641Y-127490752D01*
X165269641Y-127490752D02*
X165079165Y-127490752D01*
X165079165Y-127490752D02*
X164983927Y-127538371D01*
X164983927Y-127538371D02*
X164936308Y-127633609D01*
X164936308Y-127633609D02*
X164936308Y-127728847D01*
X164936308Y-127728847D02*
X165412498Y-127824085D01*
X163888689Y-127681228D02*
X163936308Y-127633609D01*
X163936308Y-127633609D02*
X164031546Y-127585990D01*
X164031546Y-127585990D02*
X164126784Y-127585990D01*
X164126784Y-127585990D02*
X164222022Y-127633609D01*
X164222022Y-127633609D02*
X164269641Y-127681228D01*
X164269641Y-127681228D02*
X164317260Y-127776466D01*
X164317260Y-127776466D02*
X164317260Y-127871704D01*
X164317260Y-127871704D02*
X164269641Y-127966942D01*
X164269641Y-127966942D02*
X164222022Y-128014561D01*
X164222022Y-128014561D02*
X164126784Y-128062180D01*
X164126784Y-128062180D02*
X164031546Y-128062180D01*
X164031546Y-128062180D02*
X163936308Y-128014561D01*
X163936308Y-128014561D02*
X163888689Y-127966942D01*
X163888689Y-127585990D02*
X163888689Y-127966942D01*
X163888689Y-127966942D02*
X163841070Y-128014561D01*
X163841070Y-128014561D02*
X163793451Y-128014561D01*
X163793451Y-128014561D02*
X163698212Y-127966942D01*
X163698212Y-127966942D02*
X163650593Y-127871704D01*
X163650593Y-127871704D02*
X163650593Y-127633609D01*
X163650593Y-127633609D02*
X163745832Y-127490752D01*
X163745832Y-127490752D02*
X163888689Y-127395514D01*
X163888689Y-127395514D02*
X164079165Y-127347895D01*
X164079165Y-127347895D02*
X164269641Y-127395514D01*
X164269641Y-127395514D02*
X164412498Y-127490752D01*
X164412498Y-127490752D02*
X164507736Y-127633609D01*
X164507736Y-127633609D02*
X164555355Y-127824085D01*
X164555355Y-127824085D02*
X164507736Y-128014561D01*
X164507736Y-128014561D02*
X164412498Y-128157419D01*
X164412498Y-128157419D02*
X164269641Y-128252657D01*
X164269641Y-128252657D02*
X164079165Y-128300276D01*
X164079165Y-128300276D02*
X163888689Y-128252657D01*
X163888689Y-128252657D02*
X163745832Y-128157419D01*
X163222022Y-128157419D02*
X163222022Y-127490752D01*
X163222022Y-127585990D02*
X163174403Y-127538371D01*
X163174403Y-127538371D02*
X163079165Y-127490752D01*
X163079165Y-127490752D02*
X162936308Y-127490752D01*
X162936308Y-127490752D02*
X162841070Y-127538371D01*
X162841070Y-127538371D02*
X162793451Y-127633609D01*
X162793451Y-127633609D02*
X162793451Y-128157419D01*
X162793451Y-127633609D02*
X162745832Y-127538371D01*
X162745832Y-127538371D02*
X162650594Y-127490752D01*
X162650594Y-127490752D02*
X162507737Y-127490752D01*
X162507737Y-127490752D02*
X162412498Y-127538371D01*
X162412498Y-127538371D02*
X162364879Y-127633609D01*
X162364879Y-127633609D02*
X162364879Y-128157419D01*
X161460118Y-128157419D02*
X161460118Y-127633609D01*
X161460118Y-127633609D02*
X161507737Y-127538371D01*
X161507737Y-127538371D02*
X161602975Y-127490752D01*
X161602975Y-127490752D02*
X161793451Y-127490752D01*
X161793451Y-127490752D02*
X161888689Y-127538371D01*
X161460118Y-128109800D02*
X161555356Y-128157419D01*
X161555356Y-128157419D02*
X161793451Y-128157419D01*
X161793451Y-128157419D02*
X161888689Y-128109800D01*
X161888689Y-128109800D02*
X161936308Y-128014561D01*
X161936308Y-128014561D02*
X161936308Y-127919323D01*
X161936308Y-127919323D02*
X161888689Y-127824085D01*
X161888689Y-127824085D02*
X161793451Y-127776466D01*
X161793451Y-127776466D02*
X161555356Y-127776466D01*
X161555356Y-127776466D02*
X161460118Y-127728847D01*
X160555356Y-128109800D02*
X160650594Y-128157419D01*
X160650594Y-128157419D02*
X160841070Y-128157419D01*
X160841070Y-128157419D02*
X160936308Y-128109800D01*
X160936308Y-128109800D02*
X160983927Y-128062180D01*
X160983927Y-128062180D02*
X161031546Y-127966942D01*
X161031546Y-127966942D02*
X161031546Y-127681228D01*
X161031546Y-127681228D02*
X160983927Y-127585990D01*
X160983927Y-127585990D02*
X160936308Y-127538371D01*
X160936308Y-127538371D02*
X160841070Y-127490752D01*
X160841070Y-127490752D02*
X160650594Y-127490752D01*
X160650594Y-127490752D02*
X160555356Y-127538371D01*
X160126784Y-128062180D02*
X160079165Y-128109800D01*
X160079165Y-128109800D02*
X160126784Y-128157419D01*
X160126784Y-128157419D02*
X160174403Y-128109800D01*
X160174403Y-128109800D02*
X160126784Y-128062180D01*
X160126784Y-128062180D02*
X160126784Y-128157419D01*
X159222023Y-128109800D02*
X159317261Y-128157419D01*
X159317261Y-128157419D02*
X159507737Y-128157419D01*
X159507737Y-128157419D02*
X159602975Y-128109800D01*
X159602975Y-128109800D02*
X159650594Y-128062180D01*
X159650594Y-128062180D02*
X159698213Y-127966942D01*
X159698213Y-127966942D02*
X159698213Y-127681228D01*
X159698213Y-127681228D02*
X159650594Y-127585990D01*
X159650594Y-127585990D02*
X159602975Y-127538371D01*
X159602975Y-127538371D02*
X159507737Y-127490752D01*
X159507737Y-127490752D02*
X159317261Y-127490752D01*
X159317261Y-127490752D02*
X159222023Y-127538371D01*
X158650594Y-128157419D02*
X158745832Y-128109800D01*
X158745832Y-128109800D02*
X158793451Y-128062180D01*
X158793451Y-128062180D02*
X158841070Y-127966942D01*
X158841070Y-127966942D02*
X158841070Y-127681228D01*
X158841070Y-127681228D02*
X158793451Y-127585990D01*
X158793451Y-127585990D02*
X158745832Y-127538371D01*
X158745832Y-127538371D02*
X158650594Y-127490752D01*
X158650594Y-127490752D02*
X158507737Y-127490752D01*
X158507737Y-127490752D02*
X158412499Y-127538371D01*
X158412499Y-127538371D02*
X158364880Y-127585990D01*
X158364880Y-127585990D02*
X158317261Y-127681228D01*
X158317261Y-127681228D02*
X158317261Y-127966942D01*
X158317261Y-127966942D02*
X158364880Y-128062180D01*
X158364880Y-128062180D02*
X158412499Y-128109800D01*
X158412499Y-128109800D02*
X158507737Y-128157419D01*
X158507737Y-128157419D02*
X158650594Y-128157419D01*
X157888689Y-128157419D02*
X157888689Y-127490752D01*
X157888689Y-127585990D02*
X157841070Y-127538371D01*
X157841070Y-127538371D02*
X157745832Y-127490752D01*
X157745832Y-127490752D02*
X157602975Y-127490752D01*
X157602975Y-127490752D02*
X157507737Y-127538371D01*
X157507737Y-127538371D02*
X157460118Y-127633609D01*
X157460118Y-127633609D02*
X157460118Y-128157419D01*
X157460118Y-127633609D02*
X157412499Y-127538371D01*
X157412499Y-127538371D02*
X157317261Y-127490752D01*
X157317261Y-127490752D02*
X157174404Y-127490752D01*
X157174404Y-127490752D02*
X157079165Y-127538371D01*
X157079165Y-127538371D02*
X157031546Y-127633609D01*
X157031546Y-127633609D02*
X157031546Y-128157419D01*
D11*
X186102977Y-123414838D02*
X186102977Y-121414838D01*
X186102977Y-121414838D02*
X185436310Y-122843409D01*
X185436310Y-122843409D02*
X184769644Y-121414838D01*
X184769644Y-121414838D02*
X184769644Y-123414838D01*
X182960120Y-123414838D02*
X182960120Y-122367219D01*
X182960120Y-122367219D02*
X183055358Y-122176742D01*
X183055358Y-122176742D02*
X183245834Y-122081504D01*
X183245834Y-122081504D02*
X183626787Y-122081504D01*
X183626787Y-122081504D02*
X183817263Y-122176742D01*
X182960120Y-123319600D02*
X183150596Y-123414838D01*
X183150596Y-123414838D02*
X183626787Y-123414838D01*
X183626787Y-123414838D02*
X183817263Y-123319600D01*
X183817263Y-123319600D02*
X183912501Y-123129123D01*
X183912501Y-123129123D02*
X183912501Y-122938647D01*
X183912501Y-122938647D02*
X183817263Y-122748171D01*
X183817263Y-122748171D02*
X183626787Y-122652933D01*
X183626787Y-122652933D02*
X183150596Y-122652933D01*
X183150596Y-122652933D02*
X182960120Y-122557695D01*
X181150596Y-123319600D02*
X181341072Y-123414838D01*
X181341072Y-123414838D02*
X181722025Y-123414838D01*
X181722025Y-123414838D02*
X181912501Y-123319600D01*
X181912501Y-123319600D02*
X182007739Y-123224361D01*
X182007739Y-123224361D02*
X182102977Y-123033885D01*
X182102977Y-123033885D02*
X182102977Y-122462457D01*
X182102977Y-122462457D02*
X182007739Y-122271980D01*
X182007739Y-122271980D02*
X181912501Y-122176742D01*
X181912501Y-122176742D02*
X181722025Y-122081504D01*
X181722025Y-122081504D02*
X181341072Y-122081504D01*
X181341072Y-122081504D02*
X181150596Y-122176742D01*
X178769643Y-123414838D02*
X178769643Y-121414838D01*
X178769643Y-121414838D02*
X178007738Y-121414838D01*
X178007738Y-121414838D02*
X177817262Y-121510076D01*
X177817262Y-121510076D02*
X177722024Y-121605314D01*
X177722024Y-121605314D02*
X177626786Y-121795790D01*
X177626786Y-121795790D02*
X177626786Y-122081504D01*
X177626786Y-122081504D02*
X177722024Y-122271980D01*
X177722024Y-122271980D02*
X177817262Y-122367219D01*
X177817262Y-122367219D02*
X178007738Y-122462457D01*
X178007738Y-122462457D02*
X178769643Y-122462457D01*
X176483929Y-123414838D02*
X176674405Y-123319600D01*
X176674405Y-123319600D02*
X176769643Y-123224361D01*
X176769643Y-123224361D02*
X176864881Y-123033885D01*
X176864881Y-123033885D02*
X176864881Y-122462457D01*
X176864881Y-122462457D02*
X176769643Y-122271980D01*
X176769643Y-122271980D02*
X176674405Y-122176742D01*
X176674405Y-122176742D02*
X176483929Y-122081504D01*
X176483929Y-122081504D02*
X176198214Y-122081504D01*
X176198214Y-122081504D02*
X176007738Y-122176742D01*
X176007738Y-122176742D02*
X175912500Y-122271980D01*
X175912500Y-122271980D02*
X175817262Y-122462457D01*
X175817262Y-122462457D02*
X175817262Y-123033885D01*
X175817262Y-123033885D02*
X175912500Y-123224361D01*
X175912500Y-123224361D02*
X176007738Y-123319600D01*
X176007738Y-123319600D02*
X176198214Y-123414838D01*
X176198214Y-123414838D02*
X176483929Y-123414838D01*
X174960119Y-123414838D02*
X174960119Y-122081504D01*
X174960119Y-122462457D02*
X174864881Y-122271980D01*
X174864881Y-122271980D02*
X174769643Y-122176742D01*
X174769643Y-122176742D02*
X174579167Y-122081504D01*
X174579167Y-122081504D02*
X174388690Y-122081504D01*
X174007738Y-122081504D02*
X173245834Y-122081504D01*
X173722024Y-121414838D02*
X173722024Y-123129123D01*
X173722024Y-123129123D02*
X173626786Y-123319600D01*
X173626786Y-123319600D02*
X173436310Y-123414838D01*
X173436310Y-123414838D02*
X173245834Y-123414838D01*
X171722024Y-123414838D02*
X171722024Y-122367219D01*
X171722024Y-122367219D02*
X171817262Y-122176742D01*
X171817262Y-122176742D02*
X172007738Y-122081504D01*
X172007738Y-122081504D02*
X172388691Y-122081504D01*
X172388691Y-122081504D02*
X172579167Y-122176742D01*
X171722024Y-123319600D02*
X171912500Y-123414838D01*
X171912500Y-123414838D02*
X172388691Y-123414838D01*
X172388691Y-123414838D02*
X172579167Y-123319600D01*
X172579167Y-123319600D02*
X172674405Y-123129123D01*
X172674405Y-123129123D02*
X172674405Y-122938647D01*
X172674405Y-122938647D02*
X172579167Y-122748171D01*
X172579167Y-122748171D02*
X172388691Y-122652933D01*
X172388691Y-122652933D02*
X171912500Y-122652933D01*
X171912500Y-122652933D02*
X171722024Y-122557695D01*
X170769643Y-123414838D02*
X170769643Y-121414838D01*
X170769643Y-122176742D02*
X170579167Y-122081504D01*
X170579167Y-122081504D02*
X170198214Y-122081504D01*
X170198214Y-122081504D02*
X170007738Y-122176742D01*
X170007738Y-122176742D02*
X169912500Y-122271980D01*
X169912500Y-122271980D02*
X169817262Y-122462457D01*
X169817262Y-122462457D02*
X169817262Y-123033885D01*
X169817262Y-123033885D02*
X169912500Y-123224361D01*
X169912500Y-123224361D02*
X170007738Y-123319600D01*
X170007738Y-123319600D02*
X170198214Y-123414838D01*
X170198214Y-123414838D02*
X170579167Y-123414838D01*
X170579167Y-123414838D02*
X170769643Y-123319600D01*
X168674405Y-123414838D02*
X168864881Y-123319600D01*
X168864881Y-123319600D02*
X168960119Y-123129123D01*
X168960119Y-123129123D02*
X168960119Y-121414838D01*
X167150595Y-123319600D02*
X167341071Y-123414838D01*
X167341071Y-123414838D02*
X167722024Y-123414838D01*
X167722024Y-123414838D02*
X167912500Y-123319600D01*
X167912500Y-123319600D02*
X168007738Y-123129123D01*
X168007738Y-123129123D02*
X168007738Y-122367219D01*
X168007738Y-122367219D02*
X167912500Y-122176742D01*
X167912500Y-122176742D02*
X167722024Y-122081504D01*
X167722024Y-122081504D02*
X167341071Y-122081504D01*
X167341071Y-122081504D02*
X167150595Y-122176742D01*
X167150595Y-122176742D02*
X167055357Y-122367219D01*
X167055357Y-122367219D02*
X167055357Y-122557695D01*
X167055357Y-122557695D02*
X168007738Y-122748171D01*
X164388690Y-122271980D02*
X164579166Y-122176742D01*
X164579166Y-122176742D02*
X164674404Y-122081504D01*
X164674404Y-122081504D02*
X164769642Y-121891028D01*
X164769642Y-121891028D02*
X164769642Y-121795790D01*
X164769642Y-121795790D02*
X164674404Y-121605314D01*
X164674404Y-121605314D02*
X164579166Y-121510076D01*
X164579166Y-121510076D02*
X164388690Y-121414838D01*
X164388690Y-121414838D02*
X164007737Y-121414838D01*
X164007737Y-121414838D02*
X163817261Y-121510076D01*
X163817261Y-121510076D02*
X163722023Y-121605314D01*
X163722023Y-121605314D02*
X163626785Y-121795790D01*
X163626785Y-121795790D02*
X163626785Y-121891028D01*
X163626785Y-121891028D02*
X163722023Y-122081504D01*
X163722023Y-122081504D02*
X163817261Y-122176742D01*
X163817261Y-122176742D02*
X164007737Y-122271980D01*
X164007737Y-122271980D02*
X164388690Y-122271980D01*
X164388690Y-122271980D02*
X164579166Y-122367219D01*
X164579166Y-122367219D02*
X164674404Y-122462457D01*
X164674404Y-122462457D02*
X164769642Y-122652933D01*
X164769642Y-122652933D02*
X164769642Y-123033885D01*
X164769642Y-123033885D02*
X164674404Y-123224361D01*
X164674404Y-123224361D02*
X164579166Y-123319600D01*
X164579166Y-123319600D02*
X164388690Y-123414838D01*
X164388690Y-123414838D02*
X164007737Y-123414838D01*
X164007737Y-123414838D02*
X163817261Y-123319600D01*
X163817261Y-123319600D02*
X163722023Y-123224361D01*
X163722023Y-123224361D02*
X163626785Y-123033885D01*
X163626785Y-123033885D02*
X163626785Y-122652933D01*
X163626785Y-122652933D02*
X163722023Y-122462457D01*
X163722023Y-122462457D02*
X163817261Y-122367219D01*
X163817261Y-122367219D02*
X164007737Y-122271980D01*
X162769642Y-123414838D02*
X162769642Y-121414838D01*
X162769642Y-121414838D02*
X162102975Y-122843409D01*
X162102975Y-122843409D02*
X161436309Y-121414838D01*
X161436309Y-121414838D02*
X161436309Y-123414838D01*
X159817261Y-122367219D02*
X159531547Y-122462457D01*
X159531547Y-122462457D02*
X159436309Y-122557695D01*
X159436309Y-122557695D02*
X159341071Y-122748171D01*
X159341071Y-122748171D02*
X159341071Y-123033885D01*
X159341071Y-123033885D02*
X159436309Y-123224361D01*
X159436309Y-123224361D02*
X159531547Y-123319600D01*
X159531547Y-123319600D02*
X159722023Y-123414838D01*
X159722023Y-123414838D02*
X160483928Y-123414838D01*
X160483928Y-123414838D02*
X160483928Y-121414838D01*
X160483928Y-121414838D02*
X159817261Y-121414838D01*
X159817261Y-121414838D02*
X159626785Y-121510076D01*
X159626785Y-121510076D02*
X159531547Y-121605314D01*
X159531547Y-121605314D02*
X159436309Y-121795790D01*
X159436309Y-121795790D02*
X159436309Y-121986266D01*
X159436309Y-121986266D02*
X159531547Y-122176742D01*
X159531547Y-122176742D02*
X159626785Y-122271980D01*
X159626785Y-122271980D02*
X159817261Y-122367219D01*
X159817261Y-122367219D02*
X160483928Y-122367219D01*
X155817261Y-123414838D02*
X156483928Y-122462457D01*
X156960118Y-123414838D02*
X156960118Y-121414838D01*
X156960118Y-121414838D02*
X156198213Y-121414838D01*
X156198213Y-121414838D02*
X156007737Y-121510076D01*
X156007737Y-121510076D02*
X155912499Y-121605314D01*
X155912499Y-121605314D02*
X155817261Y-121795790D01*
X155817261Y-121795790D02*
X155817261Y-122081504D01*
X155817261Y-122081504D02*
X155912499Y-122271980D01*
X155912499Y-122271980D02*
X156007737Y-122367219D01*
X156007737Y-122367219D02*
X156198213Y-122462457D01*
X156198213Y-122462457D02*
X156960118Y-122462457D01*
X155055356Y-122843409D02*
X154102975Y-122843409D01*
X155245832Y-123414838D02*
X154579166Y-121414838D01*
X154579166Y-121414838D02*
X153912499Y-123414838D01*
X153245832Y-123414838D02*
X153245832Y-121414838D01*
X153245832Y-121414838D02*
X152579165Y-122843409D01*
X152579165Y-122843409D02*
X151912499Y-121414838D01*
X151912499Y-121414838D02*
X151912499Y-123414838D01*
X148293451Y-123224361D02*
X148388689Y-123319600D01*
X148388689Y-123319600D02*
X148674403Y-123414838D01*
X148674403Y-123414838D02*
X148864879Y-123414838D01*
X148864879Y-123414838D02*
X149150594Y-123319600D01*
X149150594Y-123319600D02*
X149341070Y-123129123D01*
X149341070Y-123129123D02*
X149436308Y-122938647D01*
X149436308Y-122938647D02*
X149531546Y-122557695D01*
X149531546Y-122557695D02*
X149531546Y-122271980D01*
X149531546Y-122271980D02*
X149436308Y-121891028D01*
X149436308Y-121891028D02*
X149341070Y-121700552D01*
X149341070Y-121700552D02*
X149150594Y-121510076D01*
X149150594Y-121510076D02*
X148864879Y-121414838D01*
X148864879Y-121414838D02*
X148674403Y-121414838D01*
X148674403Y-121414838D02*
X148388689Y-121510076D01*
X148388689Y-121510076D02*
X148293451Y-121605314D01*
X146579165Y-123414838D02*
X146579165Y-122367219D01*
X146579165Y-122367219D02*
X146674403Y-122176742D01*
X146674403Y-122176742D02*
X146864879Y-122081504D01*
X146864879Y-122081504D02*
X147245832Y-122081504D01*
X147245832Y-122081504D02*
X147436308Y-122176742D01*
X146579165Y-123319600D02*
X146769641Y-123414838D01*
X146769641Y-123414838D02*
X147245832Y-123414838D01*
X147245832Y-123414838D02*
X147436308Y-123319600D01*
X147436308Y-123319600D02*
X147531546Y-123129123D01*
X147531546Y-123129123D02*
X147531546Y-122938647D01*
X147531546Y-122938647D02*
X147436308Y-122748171D01*
X147436308Y-122748171D02*
X147245832Y-122652933D01*
X147245832Y-122652933D02*
X146769641Y-122652933D01*
X146769641Y-122652933D02*
X146579165Y-122557695D01*
X145626784Y-123414838D02*
X145626784Y-122081504D01*
X145626784Y-122462457D02*
X145531546Y-122271980D01*
X145531546Y-122271980D02*
X145436308Y-122176742D01*
X145436308Y-122176742D02*
X145245832Y-122081504D01*
X145245832Y-122081504D02*
X145055355Y-122081504D01*
X143531546Y-123414838D02*
X143531546Y-121414838D01*
X143531546Y-123319600D02*
X143722022Y-123414838D01*
X143722022Y-123414838D02*
X144102975Y-123414838D01*
X144102975Y-123414838D02*
X144293451Y-123319600D01*
X144293451Y-123319600D02*
X144388689Y-123224361D01*
X144388689Y-123224361D02*
X144483927Y-123033885D01*
X144483927Y-123033885D02*
X144483927Y-122462457D01*
X144483927Y-122462457D02*
X144388689Y-122271980D01*
X144388689Y-122271980D02*
X144293451Y-122176742D01*
X144293451Y-122176742D02*
X144102975Y-122081504D01*
X144102975Y-122081504D02*
X143722022Y-122081504D01*
X143722022Y-122081504D02*
X143531546Y-122176742D01*
X141245831Y-122081504D02*
X140769641Y-123414838D01*
X140769641Y-123414838D02*
X140293450Y-122081504D01*
X139626783Y-121605314D02*
X139531545Y-121510076D01*
X139531545Y-121510076D02*
X139341069Y-121414838D01*
X139341069Y-121414838D02*
X138864878Y-121414838D01*
X138864878Y-121414838D02*
X138674402Y-121510076D01*
X138674402Y-121510076D02*
X138579164Y-121605314D01*
X138579164Y-121605314D02*
X138483926Y-121795790D01*
X138483926Y-121795790D02*
X138483926Y-121986266D01*
X138483926Y-121986266D02*
X138579164Y-122271980D01*
X138579164Y-122271980D02*
X139722021Y-123414838D01*
X139722021Y-123414838D02*
X138483926Y-123414838D01*
X137626783Y-123224361D02*
X137531545Y-123319600D01*
X137531545Y-123319600D02*
X137626783Y-123414838D01*
X137626783Y-123414838D02*
X137722021Y-123319600D01*
X137722021Y-123319600D02*
X137626783Y-123224361D01*
X137626783Y-123224361D02*
X137626783Y-123414838D01*
X136293450Y-121414838D02*
X136102973Y-121414838D01*
X136102973Y-121414838D02*
X135912497Y-121510076D01*
X135912497Y-121510076D02*
X135817259Y-121605314D01*
X135817259Y-121605314D02*
X135722021Y-121795790D01*
X135722021Y-121795790D02*
X135626783Y-122176742D01*
X135626783Y-122176742D02*
X135626783Y-122652933D01*
X135626783Y-122652933D02*
X135722021Y-123033885D01*
X135722021Y-123033885D02*
X135817259Y-123224361D01*
X135817259Y-123224361D02*
X135912497Y-123319600D01*
X135912497Y-123319600D02*
X136102973Y-123414838D01*
X136102973Y-123414838D02*
X136293450Y-123414838D01*
X136293450Y-123414838D02*
X136483926Y-123319600D01*
X136483926Y-123319600D02*
X136579164Y-123224361D01*
X136579164Y-123224361D02*
X136674402Y-123033885D01*
X136674402Y-123033885D02*
X136769640Y-122652933D01*
X136769640Y-122652933D02*
X136769640Y-122176742D01*
X136769640Y-122176742D02*
X136674402Y-121795790D01*
X136674402Y-121795790D02*
X136579164Y-121605314D01*
X136579164Y-121605314D02*
X136483926Y-121510076D01*
X136483926Y-121510076D02*
X136293450Y-121414838D01*
D12*
X97142857Y-134179580D02*
X97190476Y-134227200D01*
X97190476Y-134227200D02*
X97333333Y-134274819D01*
X97333333Y-134274819D02*
X97428571Y-134274819D01*
X97428571Y-134274819D02*
X97571428Y-134227200D01*
X97571428Y-134227200D02*
X97666666Y-134131961D01*
X97666666Y-134131961D02*
X97714285Y-134036723D01*
X97714285Y-134036723D02*
X97761904Y-133846247D01*
X97761904Y-133846247D02*
X97761904Y-133703390D01*
X97761904Y-133703390D02*
X97714285Y-133512914D01*
X97714285Y-133512914D02*
X97666666Y-133417676D01*
X97666666Y-133417676D02*
X97571428Y-133322438D01*
X97571428Y-133322438D02*
X97428571Y-133274819D01*
X97428571Y-133274819D02*
X97333333Y-133274819D01*
X97333333Y-133274819D02*
X97190476Y-133322438D01*
X97190476Y-133322438D02*
X97142857Y-133370057D01*
X96190476Y-134274819D02*
X96761904Y-134274819D01*
X96476190Y-134274819D02*
X96476190Y-133274819D01*
X96476190Y-133274819D02*
X96571428Y-133417676D01*
X96571428Y-133417676D02*
X96666666Y-133512914D01*
X96666666Y-133512914D02*
X96761904Y-133560533D01*
X95714285Y-134274819D02*
X95523809Y-134274819D01*
X95523809Y-134274819D02*
X95428571Y-134227200D01*
X95428571Y-134227200D02*
X95380952Y-134179580D01*
X95380952Y-134179580D02*
X95285714Y-134036723D01*
X95285714Y-134036723D02*
X95238095Y-133846247D01*
X95238095Y-133846247D02*
X95238095Y-133465295D01*
X95238095Y-133465295D02*
X95285714Y-133370057D01*
X95285714Y-133370057D02*
X95333333Y-133322438D01*
X95333333Y-133322438D02*
X95428571Y-133274819D01*
X95428571Y-133274819D02*
X95619047Y-133274819D01*
X95619047Y-133274819D02*
X95714285Y-133322438D01*
X95714285Y-133322438D02*
X95761904Y-133370057D01*
X95761904Y-133370057D02*
X95809523Y-133465295D01*
X95809523Y-133465295D02*
X95809523Y-133703390D01*
X95809523Y-133703390D02*
X95761904Y-133798628D01*
X95761904Y-133798628D02*
X95714285Y-133846247D01*
X95714285Y-133846247D02*
X95619047Y-133893866D01*
X95619047Y-133893866D02*
X95428571Y-133893866D01*
X95428571Y-133893866D02*
X95333333Y-133846247D01*
X95333333Y-133846247D02*
X95285714Y-133798628D01*
X95285714Y-133798628D02*
X95238095Y-133703390D01*
X97414285Y-137542295D02*
X97871428Y-137542295D01*
X97642856Y-137542295D02*
X97642856Y-136742295D01*
X97642856Y-136742295D02*
X97719047Y-136856580D01*
X97719047Y-136856580D02*
X97795237Y-136932771D01*
X97795237Y-136932771D02*
X97871428Y-136970866D01*
X96919046Y-136742295D02*
X96842856Y-136742295D01*
X96842856Y-136742295D02*
X96766665Y-136780390D01*
X96766665Y-136780390D02*
X96728570Y-136818485D01*
X96728570Y-136818485D02*
X96690475Y-136894676D01*
X96690475Y-136894676D02*
X96652380Y-137047057D01*
X96652380Y-137047057D02*
X96652380Y-137237533D01*
X96652380Y-137237533D02*
X96690475Y-137389914D01*
X96690475Y-137389914D02*
X96728570Y-137466104D01*
X96728570Y-137466104D02*
X96766665Y-137504200D01*
X96766665Y-137504200D02*
X96842856Y-137542295D01*
X96842856Y-137542295D02*
X96919046Y-137542295D01*
X96919046Y-137542295D02*
X96995237Y-137504200D01*
X96995237Y-137504200D02*
X97033332Y-137466104D01*
X97033332Y-137466104D02*
X97071427Y-137389914D01*
X97071427Y-137389914D02*
X97109523Y-137237533D01*
X97109523Y-137237533D02*
X97109523Y-137047057D01*
X97109523Y-137047057D02*
X97071427Y-136894676D01*
X97071427Y-136894676D02*
X97033332Y-136818485D01*
X97033332Y-136818485D02*
X96995237Y-136780390D01*
X96995237Y-136780390D02*
X96919046Y-136742295D01*
X96309522Y-137008961D02*
X96309522Y-137808961D01*
X95928570Y-137428009D02*
X95890475Y-137504200D01*
X95890475Y-137504200D02*
X95814284Y-137542295D01*
X96309522Y-137428009D02*
X96271427Y-137504200D01*
X96271427Y-137504200D02*
X96195237Y-137542295D01*
X96195237Y-137542295D02*
X96042856Y-137542295D01*
X96042856Y-137542295D02*
X95966665Y-137504200D01*
X95966665Y-137504200D02*
X95928570Y-137428009D01*
X95928570Y-137428009D02*
X95928570Y-137008961D01*
X95204761Y-137123247D02*
X95471427Y-137123247D01*
X95471427Y-137542295D02*
X95471427Y-136742295D01*
X95471427Y-136742295D02*
X95090475Y-136742295D01*
X184359580Y-129857142D02*
X184407200Y-129809523D01*
X184407200Y-129809523D02*
X184454819Y-129666666D01*
X184454819Y-129666666D02*
X184454819Y-129571428D01*
X184454819Y-129571428D02*
X184407200Y-129428571D01*
X184407200Y-129428571D02*
X184311961Y-129333333D01*
X184311961Y-129333333D02*
X184216723Y-129285714D01*
X184216723Y-129285714D02*
X184026247Y-129238095D01*
X184026247Y-129238095D02*
X183883390Y-129238095D01*
X183883390Y-129238095D02*
X183692914Y-129285714D01*
X183692914Y-129285714D02*
X183597676Y-129333333D01*
X183597676Y-129333333D02*
X183502438Y-129428571D01*
X183502438Y-129428571D02*
X183454819Y-129571428D01*
X183454819Y-129571428D02*
X183454819Y-129666666D01*
X183454819Y-129666666D02*
X183502438Y-129809523D01*
X183502438Y-129809523D02*
X183550057Y-129857142D01*
X184454819Y-130809523D02*
X184454819Y-130238095D01*
X184454819Y-130523809D02*
X183454819Y-130523809D01*
X183454819Y-130523809D02*
X183597676Y-130428571D01*
X183597676Y-130428571D02*
X183692914Y-130333333D01*
X183692914Y-130333333D02*
X183740533Y-130238095D01*
X183883390Y-131380952D02*
X183835771Y-131285714D01*
X183835771Y-131285714D02*
X183788152Y-131238095D01*
X183788152Y-131238095D02*
X183692914Y-131190476D01*
X183692914Y-131190476D02*
X183645295Y-131190476D01*
X183645295Y-131190476D02*
X183550057Y-131238095D01*
X183550057Y-131238095D02*
X183502438Y-131285714D01*
X183502438Y-131285714D02*
X183454819Y-131380952D01*
X183454819Y-131380952D02*
X183454819Y-131571428D01*
X183454819Y-131571428D02*
X183502438Y-131666666D01*
X183502438Y-131666666D02*
X183550057Y-131714285D01*
X183550057Y-131714285D02*
X183645295Y-131761904D01*
X183645295Y-131761904D02*
X183692914Y-131761904D01*
X183692914Y-131761904D02*
X183788152Y-131714285D01*
X183788152Y-131714285D02*
X183835771Y-131666666D01*
X183835771Y-131666666D02*
X183883390Y-131571428D01*
X183883390Y-131571428D02*
X183883390Y-131380952D01*
X183883390Y-131380952D02*
X183931009Y-131285714D01*
X183931009Y-131285714D02*
X183978628Y-131238095D01*
X183978628Y-131238095D02*
X184073866Y-131190476D01*
X184073866Y-131190476D02*
X184264342Y-131190476D01*
X184264342Y-131190476D02*
X184359580Y-131238095D01*
X184359580Y-131238095D02*
X184407200Y-131285714D01*
X184407200Y-131285714D02*
X184454819Y-131380952D01*
X184454819Y-131380952D02*
X184454819Y-131571428D01*
X184454819Y-131571428D02*
X184407200Y-131666666D01*
X184407200Y-131666666D02*
X184359580Y-131714285D01*
X184359580Y-131714285D02*
X184264342Y-131761904D01*
X184264342Y-131761904D02*
X184073866Y-131761904D01*
X184073866Y-131761904D02*
X183978628Y-131714285D01*
X183978628Y-131714285D02*
X183931009Y-131666666D01*
X183931009Y-131666666D02*
X183883390Y-131571428D01*
X185862295Y-129261904D02*
X185862295Y-128804761D01*
X185862295Y-129033333D02*
X185062295Y-129033333D01*
X185062295Y-129033333D02*
X185176580Y-128957142D01*
X185176580Y-128957142D02*
X185252771Y-128880952D01*
X185252771Y-128880952D02*
X185290866Y-128804761D01*
X185062295Y-129757143D02*
X185062295Y-129833333D01*
X185062295Y-129833333D02*
X185100390Y-129909524D01*
X185100390Y-129909524D02*
X185138485Y-129947619D01*
X185138485Y-129947619D02*
X185214676Y-129985714D01*
X185214676Y-129985714D02*
X185367057Y-130023809D01*
X185367057Y-130023809D02*
X185557533Y-130023809D01*
X185557533Y-130023809D02*
X185709914Y-129985714D01*
X185709914Y-129985714D02*
X185786104Y-129947619D01*
X185786104Y-129947619D02*
X185824200Y-129909524D01*
X185824200Y-129909524D02*
X185862295Y-129833333D01*
X185862295Y-129833333D02*
X185862295Y-129757143D01*
X185862295Y-129757143D02*
X185824200Y-129680952D01*
X185824200Y-129680952D02*
X185786104Y-129642857D01*
X185786104Y-129642857D02*
X185709914Y-129604762D01*
X185709914Y-129604762D02*
X185557533Y-129566666D01*
X185557533Y-129566666D02*
X185367057Y-129566666D01*
X185367057Y-129566666D02*
X185214676Y-129604762D01*
X185214676Y-129604762D02*
X185138485Y-129642857D01*
X185138485Y-129642857D02*
X185100390Y-129680952D01*
X185100390Y-129680952D02*
X185062295Y-129757143D01*
X185062295Y-130519048D02*
X185062295Y-130595238D01*
X185062295Y-130595238D02*
X185100390Y-130671429D01*
X185100390Y-130671429D02*
X185138485Y-130709524D01*
X185138485Y-130709524D02*
X185214676Y-130747619D01*
X185214676Y-130747619D02*
X185367057Y-130785714D01*
X185367057Y-130785714D02*
X185557533Y-130785714D01*
X185557533Y-130785714D02*
X185709914Y-130747619D01*
X185709914Y-130747619D02*
X185786104Y-130709524D01*
X185786104Y-130709524D02*
X185824200Y-130671429D01*
X185824200Y-130671429D02*
X185862295Y-130595238D01*
X185862295Y-130595238D02*
X185862295Y-130519048D01*
X185862295Y-130519048D02*
X185824200Y-130442857D01*
X185824200Y-130442857D02*
X185786104Y-130404762D01*
X185786104Y-130404762D02*
X185709914Y-130366667D01*
X185709914Y-130366667D02*
X185557533Y-130328571D01*
X185557533Y-130328571D02*
X185367057Y-130328571D01*
X185367057Y-130328571D02*
X185214676Y-130366667D01*
X185214676Y-130366667D02*
X185138485Y-130404762D01*
X185138485Y-130404762D02*
X185100390Y-130442857D01*
X185100390Y-130442857D02*
X185062295Y-130519048D01*
X185328961Y-131128572D02*
X185862295Y-131128572D01*
X185405152Y-131128572D02*
X185367057Y-131166667D01*
X185367057Y-131166667D02*
X185328961Y-131242857D01*
X185328961Y-131242857D02*
X185328961Y-131357143D01*
X185328961Y-131357143D02*
X185367057Y-131433334D01*
X185367057Y-131433334D02*
X185443247Y-131471429D01*
X185443247Y-131471429D02*
X185862295Y-131471429D01*
X185443247Y-132119048D02*
X185443247Y-131852382D01*
X185862295Y-131852382D02*
X185062295Y-131852382D01*
X185062295Y-131852382D02*
X185062295Y-132233334D01*
X183142857Y-137359580D02*
X183190476Y-137407200D01*
X183190476Y-137407200D02*
X183333333Y-137454819D01*
X183333333Y-137454819D02*
X183428571Y-137454819D01*
X183428571Y-137454819D02*
X183571428Y-137407200D01*
X183571428Y-137407200D02*
X183666666Y-137311961D01*
X183666666Y-137311961D02*
X183714285Y-137216723D01*
X183714285Y-137216723D02*
X183761904Y-137026247D01*
X183761904Y-137026247D02*
X183761904Y-136883390D01*
X183761904Y-136883390D02*
X183714285Y-136692914D01*
X183714285Y-136692914D02*
X183666666Y-136597676D01*
X183666666Y-136597676D02*
X183571428Y-136502438D01*
X183571428Y-136502438D02*
X183428571Y-136454819D01*
X183428571Y-136454819D02*
X183333333Y-136454819D01*
X183333333Y-136454819D02*
X183190476Y-136502438D01*
X183190476Y-136502438D02*
X183142857Y-136550057D01*
X182190476Y-137454819D02*
X182761904Y-137454819D01*
X182476190Y-137454819D02*
X182476190Y-136454819D01*
X182476190Y-136454819D02*
X182571428Y-136597676D01*
X182571428Y-136597676D02*
X182666666Y-136692914D01*
X182666666Y-136692914D02*
X182761904Y-136740533D01*
X181857142Y-136454819D02*
X181190476Y-136454819D01*
X181190476Y-136454819D02*
X181619047Y-137454819D01*
X183738095Y-139362295D02*
X184195238Y-139362295D01*
X183966666Y-139362295D02*
X183966666Y-138562295D01*
X183966666Y-138562295D02*
X184042857Y-138676580D01*
X184042857Y-138676580D02*
X184119047Y-138752771D01*
X184119047Y-138752771D02*
X184195238Y-138790866D01*
X183242856Y-138562295D02*
X183166666Y-138562295D01*
X183166666Y-138562295D02*
X183090475Y-138600390D01*
X183090475Y-138600390D02*
X183052380Y-138638485D01*
X183052380Y-138638485D02*
X183014285Y-138714676D01*
X183014285Y-138714676D02*
X182976190Y-138867057D01*
X182976190Y-138867057D02*
X182976190Y-139057533D01*
X182976190Y-139057533D02*
X183014285Y-139209914D01*
X183014285Y-139209914D02*
X183052380Y-139286104D01*
X183052380Y-139286104D02*
X183090475Y-139324200D01*
X183090475Y-139324200D02*
X183166666Y-139362295D01*
X183166666Y-139362295D02*
X183242856Y-139362295D01*
X183242856Y-139362295D02*
X183319047Y-139324200D01*
X183319047Y-139324200D02*
X183357142Y-139286104D01*
X183357142Y-139286104D02*
X183395237Y-139209914D01*
X183395237Y-139209914D02*
X183433333Y-139057533D01*
X183433333Y-139057533D02*
X183433333Y-138867057D01*
X183433333Y-138867057D02*
X183395237Y-138714676D01*
X183395237Y-138714676D02*
X183357142Y-138638485D01*
X183357142Y-138638485D02*
X183319047Y-138600390D01*
X183319047Y-138600390D02*
X183242856Y-138562295D01*
X182480951Y-138562295D02*
X182404761Y-138562295D01*
X182404761Y-138562295D02*
X182328570Y-138600390D01*
X182328570Y-138600390D02*
X182290475Y-138638485D01*
X182290475Y-138638485D02*
X182252380Y-138714676D01*
X182252380Y-138714676D02*
X182214285Y-138867057D01*
X182214285Y-138867057D02*
X182214285Y-139057533D01*
X182214285Y-139057533D02*
X182252380Y-139209914D01*
X182252380Y-139209914D02*
X182290475Y-139286104D01*
X182290475Y-139286104D02*
X182328570Y-139324200D01*
X182328570Y-139324200D02*
X182404761Y-139362295D01*
X182404761Y-139362295D02*
X182480951Y-139362295D01*
X182480951Y-139362295D02*
X182557142Y-139324200D01*
X182557142Y-139324200D02*
X182595237Y-139286104D01*
X182595237Y-139286104D02*
X182633332Y-139209914D01*
X182633332Y-139209914D02*
X182671428Y-139057533D01*
X182671428Y-139057533D02*
X182671428Y-138867057D01*
X182671428Y-138867057D02*
X182633332Y-138714676D01*
X182633332Y-138714676D02*
X182595237Y-138638485D01*
X182595237Y-138638485D02*
X182557142Y-138600390D01*
X182557142Y-138600390D02*
X182480951Y-138562295D01*
X181871427Y-138828961D02*
X181871427Y-139362295D01*
X181871427Y-138905152D02*
X181833332Y-138867057D01*
X181833332Y-138867057D02*
X181757142Y-138828961D01*
X181757142Y-138828961D02*
X181642856Y-138828961D01*
X181642856Y-138828961D02*
X181566665Y-138867057D01*
X181566665Y-138867057D02*
X181528570Y-138943247D01*
X181528570Y-138943247D02*
X181528570Y-139362295D01*
X180880951Y-138943247D02*
X181147617Y-138943247D01*
X181147617Y-139362295D02*
X181147617Y-138562295D01*
X181147617Y-138562295D02*
X180766665Y-138562295D01*
X78912857Y-114859580D02*
X78960476Y-114907200D01*
X78960476Y-114907200D02*
X79103333Y-114954819D01*
X79103333Y-114954819D02*
X79198571Y-114954819D01*
X79198571Y-114954819D02*
X79341428Y-114907200D01*
X79341428Y-114907200D02*
X79436666Y-114811961D01*
X79436666Y-114811961D02*
X79484285Y-114716723D01*
X79484285Y-114716723D02*
X79531904Y-114526247D01*
X79531904Y-114526247D02*
X79531904Y-114383390D01*
X79531904Y-114383390D02*
X79484285Y-114192914D01*
X79484285Y-114192914D02*
X79436666Y-114097676D01*
X79436666Y-114097676D02*
X79341428Y-114002438D01*
X79341428Y-114002438D02*
X79198571Y-113954819D01*
X79198571Y-113954819D02*
X79103333Y-113954819D01*
X79103333Y-113954819D02*
X78960476Y-114002438D01*
X78960476Y-114002438D02*
X78912857Y-114050057D01*
X77960476Y-114954819D02*
X78531904Y-114954819D01*
X78246190Y-114954819D02*
X78246190Y-113954819D01*
X78246190Y-113954819D02*
X78341428Y-114097676D01*
X78341428Y-114097676D02*
X78436666Y-114192914D01*
X78436666Y-114192914D02*
X78531904Y-114240533D01*
X77579523Y-114050057D02*
X77531904Y-114002438D01*
X77531904Y-114002438D02*
X77436666Y-113954819D01*
X77436666Y-113954819D02*
X77198571Y-113954819D01*
X77198571Y-113954819D02*
X77103333Y-114002438D01*
X77103333Y-114002438D02*
X77055714Y-114050057D01*
X77055714Y-114050057D02*
X77008095Y-114145295D01*
X77008095Y-114145295D02*
X77008095Y-114240533D01*
X77008095Y-114240533D02*
X77055714Y-114383390D01*
X77055714Y-114383390D02*
X77627142Y-114954819D01*
X77627142Y-114954819D02*
X77008095Y-114954819D01*
X79238095Y-117362295D02*
X79695238Y-117362295D01*
X79466666Y-117362295D02*
X79466666Y-116562295D01*
X79466666Y-116562295D02*
X79542857Y-116676580D01*
X79542857Y-116676580D02*
X79619047Y-116752771D01*
X79619047Y-116752771D02*
X79695238Y-116790866D01*
X78742856Y-116562295D02*
X78666666Y-116562295D01*
X78666666Y-116562295D02*
X78590475Y-116600390D01*
X78590475Y-116600390D02*
X78552380Y-116638485D01*
X78552380Y-116638485D02*
X78514285Y-116714676D01*
X78514285Y-116714676D02*
X78476190Y-116867057D01*
X78476190Y-116867057D02*
X78476190Y-117057533D01*
X78476190Y-117057533D02*
X78514285Y-117209914D01*
X78514285Y-117209914D02*
X78552380Y-117286104D01*
X78552380Y-117286104D02*
X78590475Y-117324200D01*
X78590475Y-117324200D02*
X78666666Y-117362295D01*
X78666666Y-117362295D02*
X78742856Y-117362295D01*
X78742856Y-117362295D02*
X78819047Y-117324200D01*
X78819047Y-117324200D02*
X78857142Y-117286104D01*
X78857142Y-117286104D02*
X78895237Y-117209914D01*
X78895237Y-117209914D02*
X78933333Y-117057533D01*
X78933333Y-117057533D02*
X78933333Y-116867057D01*
X78933333Y-116867057D02*
X78895237Y-116714676D01*
X78895237Y-116714676D02*
X78857142Y-116638485D01*
X78857142Y-116638485D02*
X78819047Y-116600390D01*
X78819047Y-116600390D02*
X78742856Y-116562295D01*
X77980951Y-116562295D02*
X77904761Y-116562295D01*
X77904761Y-116562295D02*
X77828570Y-116600390D01*
X77828570Y-116600390D02*
X77790475Y-116638485D01*
X77790475Y-116638485D02*
X77752380Y-116714676D01*
X77752380Y-116714676D02*
X77714285Y-116867057D01*
X77714285Y-116867057D02*
X77714285Y-117057533D01*
X77714285Y-117057533D02*
X77752380Y-117209914D01*
X77752380Y-117209914D02*
X77790475Y-117286104D01*
X77790475Y-117286104D02*
X77828570Y-117324200D01*
X77828570Y-117324200D02*
X77904761Y-117362295D01*
X77904761Y-117362295D02*
X77980951Y-117362295D01*
X77980951Y-117362295D02*
X78057142Y-117324200D01*
X78057142Y-117324200D02*
X78095237Y-117286104D01*
X78095237Y-117286104D02*
X78133332Y-117209914D01*
X78133332Y-117209914D02*
X78171428Y-117057533D01*
X78171428Y-117057533D02*
X78171428Y-116867057D01*
X78171428Y-116867057D02*
X78133332Y-116714676D01*
X78133332Y-116714676D02*
X78095237Y-116638485D01*
X78095237Y-116638485D02*
X78057142Y-116600390D01*
X78057142Y-116600390D02*
X77980951Y-116562295D01*
X77371427Y-116828961D02*
X77371427Y-117362295D01*
X77371427Y-116905152D02*
X77333332Y-116867057D01*
X77333332Y-116867057D02*
X77257142Y-116828961D01*
X77257142Y-116828961D02*
X77142856Y-116828961D01*
X77142856Y-116828961D02*
X77066665Y-116867057D01*
X77066665Y-116867057D02*
X77028570Y-116943247D01*
X77028570Y-116943247D02*
X77028570Y-117362295D01*
X76380951Y-116943247D02*
X76647617Y-116943247D01*
X76647617Y-117362295D02*
X76647617Y-116562295D01*
X76647617Y-116562295D02*
X76266665Y-116562295D01*
X170772080Y-86333333D02*
X170819700Y-86285714D01*
X170819700Y-86285714D02*
X170867319Y-86142857D01*
X170867319Y-86142857D02*
X170867319Y-86047619D01*
X170867319Y-86047619D02*
X170819700Y-85904762D01*
X170819700Y-85904762D02*
X170724461Y-85809524D01*
X170724461Y-85809524D02*
X170629223Y-85761905D01*
X170629223Y-85761905D02*
X170438747Y-85714286D01*
X170438747Y-85714286D02*
X170295890Y-85714286D01*
X170295890Y-85714286D02*
X170105414Y-85761905D01*
X170105414Y-85761905D02*
X170010176Y-85809524D01*
X170010176Y-85809524D02*
X169914938Y-85904762D01*
X169914938Y-85904762D02*
X169867319Y-86047619D01*
X169867319Y-86047619D02*
X169867319Y-86142857D01*
X169867319Y-86142857D02*
X169914938Y-86285714D01*
X169914938Y-86285714D02*
X169962557Y-86333333D01*
X170867319Y-87285714D02*
X170867319Y-86714286D01*
X170867319Y-87000000D02*
X169867319Y-87000000D01*
X169867319Y-87000000D02*
X170010176Y-86904762D01*
X170010176Y-86904762D02*
X170105414Y-86809524D01*
X170105414Y-86809524D02*
X170153033Y-86714286D01*
X172862295Y-85761904D02*
X172862295Y-85304761D01*
X172862295Y-85533333D02*
X172062295Y-85533333D01*
X172062295Y-85533333D02*
X172176580Y-85457142D01*
X172176580Y-85457142D02*
X172252771Y-85380952D01*
X172252771Y-85380952D02*
X172290866Y-85304761D01*
X172062295Y-86257143D02*
X172062295Y-86333333D01*
X172062295Y-86333333D02*
X172100390Y-86409524D01*
X172100390Y-86409524D02*
X172138485Y-86447619D01*
X172138485Y-86447619D02*
X172214676Y-86485714D01*
X172214676Y-86485714D02*
X172367057Y-86523809D01*
X172367057Y-86523809D02*
X172557533Y-86523809D01*
X172557533Y-86523809D02*
X172709914Y-86485714D01*
X172709914Y-86485714D02*
X172786104Y-86447619D01*
X172786104Y-86447619D02*
X172824200Y-86409524D01*
X172824200Y-86409524D02*
X172862295Y-86333333D01*
X172862295Y-86333333D02*
X172862295Y-86257143D01*
X172862295Y-86257143D02*
X172824200Y-86180952D01*
X172824200Y-86180952D02*
X172786104Y-86142857D01*
X172786104Y-86142857D02*
X172709914Y-86104762D01*
X172709914Y-86104762D02*
X172557533Y-86066666D01*
X172557533Y-86066666D02*
X172367057Y-86066666D01*
X172367057Y-86066666D02*
X172214676Y-86104762D01*
X172214676Y-86104762D02*
X172138485Y-86142857D01*
X172138485Y-86142857D02*
X172100390Y-86180952D01*
X172100390Y-86180952D02*
X172062295Y-86257143D01*
X172062295Y-87019048D02*
X172062295Y-87095238D01*
X172062295Y-87095238D02*
X172100390Y-87171429D01*
X172100390Y-87171429D02*
X172138485Y-87209524D01*
X172138485Y-87209524D02*
X172214676Y-87247619D01*
X172214676Y-87247619D02*
X172367057Y-87285714D01*
X172367057Y-87285714D02*
X172557533Y-87285714D01*
X172557533Y-87285714D02*
X172709914Y-87247619D01*
X172709914Y-87247619D02*
X172786104Y-87209524D01*
X172786104Y-87209524D02*
X172824200Y-87171429D01*
X172824200Y-87171429D02*
X172862295Y-87095238D01*
X172862295Y-87095238D02*
X172862295Y-87019048D01*
X172862295Y-87019048D02*
X172824200Y-86942857D01*
X172824200Y-86942857D02*
X172786104Y-86904762D01*
X172786104Y-86904762D02*
X172709914Y-86866667D01*
X172709914Y-86866667D02*
X172557533Y-86828571D01*
X172557533Y-86828571D02*
X172367057Y-86828571D01*
X172367057Y-86828571D02*
X172214676Y-86866667D01*
X172214676Y-86866667D02*
X172138485Y-86904762D01*
X172138485Y-86904762D02*
X172100390Y-86942857D01*
X172100390Y-86942857D02*
X172062295Y-87019048D01*
X172328961Y-87628572D02*
X172862295Y-87628572D01*
X172405152Y-87628572D02*
X172367057Y-87666667D01*
X172367057Y-87666667D02*
X172328961Y-87742857D01*
X172328961Y-87742857D02*
X172328961Y-87857143D01*
X172328961Y-87857143D02*
X172367057Y-87933334D01*
X172367057Y-87933334D02*
X172443247Y-87971429D01*
X172443247Y-87971429D02*
X172862295Y-87971429D01*
X172443247Y-88619048D02*
X172443247Y-88352382D01*
X172862295Y-88352382D02*
X172062295Y-88352382D01*
X172062295Y-88352382D02*
X172062295Y-88733334D01*
X176859580Y-135357142D02*
X176907200Y-135309523D01*
X176907200Y-135309523D02*
X176954819Y-135166666D01*
X176954819Y-135166666D02*
X176954819Y-135071428D01*
X176954819Y-135071428D02*
X176907200Y-134928571D01*
X176907200Y-134928571D02*
X176811961Y-134833333D01*
X176811961Y-134833333D02*
X176716723Y-134785714D01*
X176716723Y-134785714D02*
X176526247Y-134738095D01*
X176526247Y-134738095D02*
X176383390Y-134738095D01*
X176383390Y-134738095D02*
X176192914Y-134785714D01*
X176192914Y-134785714D02*
X176097676Y-134833333D01*
X176097676Y-134833333D02*
X176002438Y-134928571D01*
X176002438Y-134928571D02*
X175954819Y-135071428D01*
X175954819Y-135071428D02*
X175954819Y-135166666D01*
X175954819Y-135166666D02*
X176002438Y-135309523D01*
X176002438Y-135309523D02*
X176050057Y-135357142D01*
X176954819Y-136309523D02*
X176954819Y-135738095D01*
X176954819Y-136023809D02*
X175954819Y-136023809D01*
X175954819Y-136023809D02*
X176097676Y-135928571D01*
X176097676Y-135928571D02*
X176192914Y-135833333D01*
X176192914Y-135833333D02*
X176240533Y-135738095D01*
X175954819Y-136928571D02*
X175954819Y-137023809D01*
X175954819Y-137023809D02*
X176002438Y-137119047D01*
X176002438Y-137119047D02*
X176050057Y-137166666D01*
X176050057Y-137166666D02*
X176145295Y-137214285D01*
X176145295Y-137214285D02*
X176335771Y-137261904D01*
X176335771Y-137261904D02*
X176573866Y-137261904D01*
X176573866Y-137261904D02*
X176764342Y-137214285D01*
X176764342Y-137214285D02*
X176859580Y-137166666D01*
X176859580Y-137166666D02*
X176907200Y-137119047D01*
X176907200Y-137119047D02*
X176954819Y-137023809D01*
X176954819Y-137023809D02*
X176954819Y-136928571D01*
X176954819Y-136928571D02*
X176907200Y-136833333D01*
X176907200Y-136833333D02*
X176859580Y-136785714D01*
X176859580Y-136785714D02*
X176764342Y-136738095D01*
X176764342Y-136738095D02*
X176573866Y-136690476D01*
X176573866Y-136690476D02*
X176335771Y-136690476D01*
X176335771Y-136690476D02*
X176145295Y-136738095D01*
X176145295Y-136738095D02*
X176050057Y-136785714D01*
X176050057Y-136785714D02*
X176002438Y-136833333D01*
X176002438Y-136833333D02*
X175954819Y-136928571D01*
X175362295Y-134761904D02*
X175362295Y-134304761D01*
X175362295Y-134533333D02*
X174562295Y-134533333D01*
X174562295Y-134533333D02*
X174676580Y-134457142D01*
X174676580Y-134457142D02*
X174752771Y-134380952D01*
X174752771Y-134380952D02*
X174790866Y-134304761D01*
X174562295Y-135257143D02*
X174562295Y-135333333D01*
X174562295Y-135333333D02*
X174600390Y-135409524D01*
X174600390Y-135409524D02*
X174638485Y-135447619D01*
X174638485Y-135447619D02*
X174714676Y-135485714D01*
X174714676Y-135485714D02*
X174867057Y-135523809D01*
X174867057Y-135523809D02*
X175057533Y-135523809D01*
X175057533Y-135523809D02*
X175209914Y-135485714D01*
X175209914Y-135485714D02*
X175286104Y-135447619D01*
X175286104Y-135447619D02*
X175324200Y-135409524D01*
X175324200Y-135409524D02*
X175362295Y-135333333D01*
X175362295Y-135333333D02*
X175362295Y-135257143D01*
X175362295Y-135257143D02*
X175324200Y-135180952D01*
X175324200Y-135180952D02*
X175286104Y-135142857D01*
X175286104Y-135142857D02*
X175209914Y-135104762D01*
X175209914Y-135104762D02*
X175057533Y-135066666D01*
X175057533Y-135066666D02*
X174867057Y-135066666D01*
X174867057Y-135066666D02*
X174714676Y-135104762D01*
X174714676Y-135104762D02*
X174638485Y-135142857D01*
X174638485Y-135142857D02*
X174600390Y-135180952D01*
X174600390Y-135180952D02*
X174562295Y-135257143D01*
X174562295Y-136019048D02*
X174562295Y-136095238D01*
X174562295Y-136095238D02*
X174600390Y-136171429D01*
X174600390Y-136171429D02*
X174638485Y-136209524D01*
X174638485Y-136209524D02*
X174714676Y-136247619D01*
X174714676Y-136247619D02*
X174867057Y-136285714D01*
X174867057Y-136285714D02*
X175057533Y-136285714D01*
X175057533Y-136285714D02*
X175209914Y-136247619D01*
X175209914Y-136247619D02*
X175286104Y-136209524D01*
X175286104Y-136209524D02*
X175324200Y-136171429D01*
X175324200Y-136171429D02*
X175362295Y-136095238D01*
X175362295Y-136095238D02*
X175362295Y-136019048D01*
X175362295Y-136019048D02*
X175324200Y-135942857D01*
X175324200Y-135942857D02*
X175286104Y-135904762D01*
X175286104Y-135904762D02*
X175209914Y-135866667D01*
X175209914Y-135866667D02*
X175057533Y-135828571D01*
X175057533Y-135828571D02*
X174867057Y-135828571D01*
X174867057Y-135828571D02*
X174714676Y-135866667D01*
X174714676Y-135866667D02*
X174638485Y-135904762D01*
X174638485Y-135904762D02*
X174600390Y-135942857D01*
X174600390Y-135942857D02*
X174562295Y-136019048D01*
X174828961Y-136628572D02*
X175362295Y-136628572D01*
X174905152Y-136628572D02*
X174867057Y-136666667D01*
X174867057Y-136666667D02*
X174828961Y-136742857D01*
X174828961Y-136742857D02*
X174828961Y-136857143D01*
X174828961Y-136857143D02*
X174867057Y-136933334D01*
X174867057Y-136933334D02*
X174943247Y-136971429D01*
X174943247Y-136971429D02*
X175362295Y-136971429D01*
X174943247Y-137619048D02*
X174943247Y-137352382D01*
X175362295Y-137352382D02*
X174562295Y-137352382D01*
X174562295Y-137352382D02*
X174562295Y-137733334D01*
X170772080Y-107333333D02*
X170819700Y-107285714D01*
X170819700Y-107285714D02*
X170867319Y-107142857D01*
X170867319Y-107142857D02*
X170867319Y-107047619D01*
X170867319Y-107047619D02*
X170819700Y-106904762D01*
X170819700Y-106904762D02*
X170724461Y-106809524D01*
X170724461Y-106809524D02*
X170629223Y-106761905D01*
X170629223Y-106761905D02*
X170438747Y-106714286D01*
X170438747Y-106714286D02*
X170295890Y-106714286D01*
X170295890Y-106714286D02*
X170105414Y-106761905D01*
X170105414Y-106761905D02*
X170010176Y-106809524D01*
X170010176Y-106809524D02*
X169914938Y-106904762D01*
X169914938Y-106904762D02*
X169867319Y-107047619D01*
X169867319Y-107047619D02*
X169867319Y-107142857D01*
X169867319Y-107142857D02*
X169914938Y-107285714D01*
X169914938Y-107285714D02*
X169962557Y-107333333D01*
X169867319Y-108238095D02*
X169867319Y-107761905D01*
X169867319Y-107761905D02*
X170343509Y-107714286D01*
X170343509Y-107714286D02*
X170295890Y-107761905D01*
X170295890Y-107761905D02*
X170248271Y-107857143D01*
X170248271Y-107857143D02*
X170248271Y-108095238D01*
X170248271Y-108095238D02*
X170295890Y-108190476D01*
X170295890Y-108190476D02*
X170343509Y-108238095D01*
X170343509Y-108238095D02*
X170438747Y-108285714D01*
X170438747Y-108285714D02*
X170676842Y-108285714D01*
X170676842Y-108285714D02*
X170772080Y-108238095D01*
X170772080Y-108238095D02*
X170819700Y-108190476D01*
X170819700Y-108190476D02*
X170867319Y-108095238D01*
X170867319Y-108095238D02*
X170867319Y-107857143D01*
X170867319Y-107857143D02*
X170819700Y-107761905D01*
X170819700Y-107761905D02*
X170772080Y-107714286D01*
X172362295Y-106761904D02*
X172362295Y-106304761D01*
X172362295Y-106533333D02*
X171562295Y-106533333D01*
X171562295Y-106533333D02*
X171676580Y-106457142D01*
X171676580Y-106457142D02*
X171752771Y-106380952D01*
X171752771Y-106380952D02*
X171790866Y-106304761D01*
X171562295Y-107257143D02*
X171562295Y-107333333D01*
X171562295Y-107333333D02*
X171600390Y-107409524D01*
X171600390Y-107409524D02*
X171638485Y-107447619D01*
X171638485Y-107447619D02*
X171714676Y-107485714D01*
X171714676Y-107485714D02*
X171867057Y-107523809D01*
X171867057Y-107523809D02*
X172057533Y-107523809D01*
X172057533Y-107523809D02*
X172209914Y-107485714D01*
X172209914Y-107485714D02*
X172286104Y-107447619D01*
X172286104Y-107447619D02*
X172324200Y-107409524D01*
X172324200Y-107409524D02*
X172362295Y-107333333D01*
X172362295Y-107333333D02*
X172362295Y-107257143D01*
X172362295Y-107257143D02*
X172324200Y-107180952D01*
X172324200Y-107180952D02*
X172286104Y-107142857D01*
X172286104Y-107142857D02*
X172209914Y-107104762D01*
X172209914Y-107104762D02*
X172057533Y-107066666D01*
X172057533Y-107066666D02*
X171867057Y-107066666D01*
X171867057Y-107066666D02*
X171714676Y-107104762D01*
X171714676Y-107104762D02*
X171638485Y-107142857D01*
X171638485Y-107142857D02*
X171600390Y-107180952D01*
X171600390Y-107180952D02*
X171562295Y-107257143D01*
X171562295Y-108019048D02*
X171562295Y-108095238D01*
X171562295Y-108095238D02*
X171600390Y-108171429D01*
X171600390Y-108171429D02*
X171638485Y-108209524D01*
X171638485Y-108209524D02*
X171714676Y-108247619D01*
X171714676Y-108247619D02*
X171867057Y-108285714D01*
X171867057Y-108285714D02*
X172057533Y-108285714D01*
X172057533Y-108285714D02*
X172209914Y-108247619D01*
X172209914Y-108247619D02*
X172286104Y-108209524D01*
X172286104Y-108209524D02*
X172324200Y-108171429D01*
X172324200Y-108171429D02*
X172362295Y-108095238D01*
X172362295Y-108095238D02*
X172362295Y-108019048D01*
X172362295Y-108019048D02*
X172324200Y-107942857D01*
X172324200Y-107942857D02*
X172286104Y-107904762D01*
X172286104Y-107904762D02*
X172209914Y-107866667D01*
X172209914Y-107866667D02*
X172057533Y-107828571D01*
X172057533Y-107828571D02*
X171867057Y-107828571D01*
X171867057Y-107828571D02*
X171714676Y-107866667D01*
X171714676Y-107866667D02*
X171638485Y-107904762D01*
X171638485Y-107904762D02*
X171600390Y-107942857D01*
X171600390Y-107942857D02*
X171562295Y-108019048D01*
X171828961Y-108628572D02*
X172362295Y-108628572D01*
X171905152Y-108628572D02*
X171867057Y-108666667D01*
X171867057Y-108666667D02*
X171828961Y-108742857D01*
X171828961Y-108742857D02*
X171828961Y-108857143D01*
X171828961Y-108857143D02*
X171867057Y-108933334D01*
X171867057Y-108933334D02*
X171943247Y-108971429D01*
X171943247Y-108971429D02*
X172362295Y-108971429D01*
X171943247Y-109619048D02*
X171943247Y-109352382D01*
X172362295Y-109352382D02*
X171562295Y-109352382D01*
X171562295Y-109352382D02*
X171562295Y-109733334D01*
X148772080Y-86333333D02*
X148819700Y-86285714D01*
X148819700Y-86285714D02*
X148867319Y-86142857D01*
X148867319Y-86142857D02*
X148867319Y-86047619D01*
X148867319Y-86047619D02*
X148819700Y-85904762D01*
X148819700Y-85904762D02*
X148724461Y-85809524D01*
X148724461Y-85809524D02*
X148629223Y-85761905D01*
X148629223Y-85761905D02*
X148438747Y-85714286D01*
X148438747Y-85714286D02*
X148295890Y-85714286D01*
X148295890Y-85714286D02*
X148105414Y-85761905D01*
X148105414Y-85761905D02*
X148010176Y-85809524D01*
X148010176Y-85809524D02*
X147914938Y-85904762D01*
X147914938Y-85904762D02*
X147867319Y-86047619D01*
X147867319Y-86047619D02*
X147867319Y-86142857D01*
X147867319Y-86142857D02*
X147914938Y-86285714D01*
X147914938Y-86285714D02*
X147962557Y-86333333D01*
X147962557Y-86714286D02*
X147914938Y-86761905D01*
X147914938Y-86761905D02*
X147867319Y-86857143D01*
X147867319Y-86857143D02*
X147867319Y-87095238D01*
X147867319Y-87095238D02*
X147914938Y-87190476D01*
X147914938Y-87190476D02*
X147962557Y-87238095D01*
X147962557Y-87238095D02*
X148057795Y-87285714D01*
X148057795Y-87285714D02*
X148153033Y-87285714D01*
X148153033Y-87285714D02*
X148295890Y-87238095D01*
X148295890Y-87238095D02*
X148867319Y-86666667D01*
X148867319Y-86666667D02*
X148867319Y-87285714D01*
X150862295Y-86261904D02*
X150862295Y-85804761D01*
X150862295Y-86033333D02*
X150062295Y-86033333D01*
X150062295Y-86033333D02*
X150176580Y-85957142D01*
X150176580Y-85957142D02*
X150252771Y-85880952D01*
X150252771Y-85880952D02*
X150290866Y-85804761D01*
X150062295Y-86757143D02*
X150062295Y-86833333D01*
X150062295Y-86833333D02*
X150100390Y-86909524D01*
X150100390Y-86909524D02*
X150138485Y-86947619D01*
X150138485Y-86947619D02*
X150214676Y-86985714D01*
X150214676Y-86985714D02*
X150367057Y-87023809D01*
X150367057Y-87023809D02*
X150557533Y-87023809D01*
X150557533Y-87023809D02*
X150709914Y-86985714D01*
X150709914Y-86985714D02*
X150786104Y-86947619D01*
X150786104Y-86947619D02*
X150824200Y-86909524D01*
X150824200Y-86909524D02*
X150862295Y-86833333D01*
X150862295Y-86833333D02*
X150862295Y-86757143D01*
X150862295Y-86757143D02*
X150824200Y-86680952D01*
X150824200Y-86680952D02*
X150786104Y-86642857D01*
X150786104Y-86642857D02*
X150709914Y-86604762D01*
X150709914Y-86604762D02*
X150557533Y-86566666D01*
X150557533Y-86566666D02*
X150367057Y-86566666D01*
X150367057Y-86566666D02*
X150214676Y-86604762D01*
X150214676Y-86604762D02*
X150138485Y-86642857D01*
X150138485Y-86642857D02*
X150100390Y-86680952D01*
X150100390Y-86680952D02*
X150062295Y-86757143D01*
X150062295Y-87519048D02*
X150062295Y-87595238D01*
X150062295Y-87595238D02*
X150100390Y-87671429D01*
X150100390Y-87671429D02*
X150138485Y-87709524D01*
X150138485Y-87709524D02*
X150214676Y-87747619D01*
X150214676Y-87747619D02*
X150367057Y-87785714D01*
X150367057Y-87785714D02*
X150557533Y-87785714D01*
X150557533Y-87785714D02*
X150709914Y-87747619D01*
X150709914Y-87747619D02*
X150786104Y-87709524D01*
X150786104Y-87709524D02*
X150824200Y-87671429D01*
X150824200Y-87671429D02*
X150862295Y-87595238D01*
X150862295Y-87595238D02*
X150862295Y-87519048D01*
X150862295Y-87519048D02*
X150824200Y-87442857D01*
X150824200Y-87442857D02*
X150786104Y-87404762D01*
X150786104Y-87404762D02*
X150709914Y-87366667D01*
X150709914Y-87366667D02*
X150557533Y-87328571D01*
X150557533Y-87328571D02*
X150367057Y-87328571D01*
X150367057Y-87328571D02*
X150214676Y-87366667D01*
X150214676Y-87366667D02*
X150138485Y-87404762D01*
X150138485Y-87404762D02*
X150100390Y-87442857D01*
X150100390Y-87442857D02*
X150062295Y-87519048D01*
X150328961Y-88128572D02*
X150862295Y-88128572D01*
X150405152Y-88128572D02*
X150367057Y-88166667D01*
X150367057Y-88166667D02*
X150328961Y-88242857D01*
X150328961Y-88242857D02*
X150328961Y-88357143D01*
X150328961Y-88357143D02*
X150367057Y-88433334D01*
X150367057Y-88433334D02*
X150443247Y-88471429D01*
X150443247Y-88471429D02*
X150862295Y-88471429D01*
X150443247Y-89119048D02*
X150443247Y-88852382D01*
X150862295Y-88852382D02*
X150062295Y-88852382D01*
X150062295Y-88852382D02*
X150062295Y-89233334D01*
X94142857Y-141859580D02*
X94190476Y-141907200D01*
X94190476Y-141907200D02*
X94333333Y-141954819D01*
X94333333Y-141954819D02*
X94428571Y-141954819D01*
X94428571Y-141954819D02*
X94571428Y-141907200D01*
X94571428Y-141907200D02*
X94666666Y-141811961D01*
X94666666Y-141811961D02*
X94714285Y-141716723D01*
X94714285Y-141716723D02*
X94761904Y-141526247D01*
X94761904Y-141526247D02*
X94761904Y-141383390D01*
X94761904Y-141383390D02*
X94714285Y-141192914D01*
X94714285Y-141192914D02*
X94666666Y-141097676D01*
X94666666Y-141097676D02*
X94571428Y-141002438D01*
X94571428Y-141002438D02*
X94428571Y-140954819D01*
X94428571Y-140954819D02*
X94333333Y-140954819D01*
X94333333Y-140954819D02*
X94190476Y-141002438D01*
X94190476Y-141002438D02*
X94142857Y-141050057D01*
X93190476Y-141954819D02*
X93761904Y-141954819D01*
X93476190Y-141954819D02*
X93476190Y-140954819D01*
X93476190Y-140954819D02*
X93571428Y-141097676D01*
X93571428Y-141097676D02*
X93666666Y-141192914D01*
X93666666Y-141192914D02*
X93761904Y-141240533D01*
X92857142Y-140954819D02*
X92238095Y-140954819D01*
X92238095Y-140954819D02*
X92571428Y-141335771D01*
X92571428Y-141335771D02*
X92428571Y-141335771D01*
X92428571Y-141335771D02*
X92333333Y-141383390D01*
X92333333Y-141383390D02*
X92285714Y-141431009D01*
X92285714Y-141431009D02*
X92238095Y-141526247D01*
X92238095Y-141526247D02*
X92238095Y-141764342D01*
X92238095Y-141764342D02*
X92285714Y-141859580D01*
X92285714Y-141859580D02*
X92333333Y-141907200D01*
X92333333Y-141907200D02*
X92428571Y-141954819D01*
X92428571Y-141954819D02*
X92714285Y-141954819D01*
X92714285Y-141954819D02*
X92809523Y-141907200D01*
X92809523Y-141907200D02*
X92857142Y-141859580D01*
X94414285Y-143862295D02*
X94871428Y-143862295D01*
X94642856Y-143862295D02*
X94642856Y-143062295D01*
X94642856Y-143062295D02*
X94719047Y-143176580D01*
X94719047Y-143176580D02*
X94795237Y-143252771D01*
X94795237Y-143252771D02*
X94871428Y-143290866D01*
X93919046Y-143062295D02*
X93842856Y-143062295D01*
X93842856Y-143062295D02*
X93766665Y-143100390D01*
X93766665Y-143100390D02*
X93728570Y-143138485D01*
X93728570Y-143138485D02*
X93690475Y-143214676D01*
X93690475Y-143214676D02*
X93652380Y-143367057D01*
X93652380Y-143367057D02*
X93652380Y-143557533D01*
X93652380Y-143557533D02*
X93690475Y-143709914D01*
X93690475Y-143709914D02*
X93728570Y-143786104D01*
X93728570Y-143786104D02*
X93766665Y-143824200D01*
X93766665Y-143824200D02*
X93842856Y-143862295D01*
X93842856Y-143862295D02*
X93919046Y-143862295D01*
X93919046Y-143862295D02*
X93995237Y-143824200D01*
X93995237Y-143824200D02*
X94033332Y-143786104D01*
X94033332Y-143786104D02*
X94071427Y-143709914D01*
X94071427Y-143709914D02*
X94109523Y-143557533D01*
X94109523Y-143557533D02*
X94109523Y-143367057D01*
X94109523Y-143367057D02*
X94071427Y-143214676D01*
X94071427Y-143214676D02*
X94033332Y-143138485D01*
X94033332Y-143138485D02*
X93995237Y-143100390D01*
X93995237Y-143100390D02*
X93919046Y-143062295D01*
X93309522Y-143328961D02*
X93309522Y-144128961D01*
X92928570Y-143748009D02*
X92890475Y-143824200D01*
X92890475Y-143824200D02*
X92814284Y-143862295D01*
X93309522Y-143748009D02*
X93271427Y-143824200D01*
X93271427Y-143824200D02*
X93195237Y-143862295D01*
X93195237Y-143862295D02*
X93042856Y-143862295D01*
X93042856Y-143862295D02*
X92966665Y-143824200D01*
X92966665Y-143824200D02*
X92928570Y-143748009D01*
X92928570Y-143748009D02*
X92928570Y-143328961D01*
X92204761Y-143443247D02*
X92471427Y-143443247D01*
X92471427Y-143862295D02*
X92471427Y-143062295D01*
X92471427Y-143062295D02*
X92090475Y-143062295D01*
X78412857Y-91359580D02*
X78460476Y-91407200D01*
X78460476Y-91407200D02*
X78603333Y-91454819D01*
X78603333Y-91454819D02*
X78698571Y-91454819D01*
X78698571Y-91454819D02*
X78841428Y-91407200D01*
X78841428Y-91407200D02*
X78936666Y-91311961D01*
X78936666Y-91311961D02*
X78984285Y-91216723D01*
X78984285Y-91216723D02*
X79031904Y-91026247D01*
X79031904Y-91026247D02*
X79031904Y-90883390D01*
X79031904Y-90883390D02*
X78984285Y-90692914D01*
X78984285Y-90692914D02*
X78936666Y-90597676D01*
X78936666Y-90597676D02*
X78841428Y-90502438D01*
X78841428Y-90502438D02*
X78698571Y-90454819D01*
X78698571Y-90454819D02*
X78603333Y-90454819D01*
X78603333Y-90454819D02*
X78460476Y-90502438D01*
X78460476Y-90502438D02*
X78412857Y-90550057D01*
X77460476Y-91454819D02*
X78031904Y-91454819D01*
X77746190Y-91454819D02*
X77746190Y-90454819D01*
X77746190Y-90454819D02*
X77841428Y-90597676D01*
X77841428Y-90597676D02*
X77936666Y-90692914D01*
X77936666Y-90692914D02*
X78031904Y-90740533D01*
X76508095Y-91454819D02*
X77079523Y-91454819D01*
X76793809Y-91454819D02*
X76793809Y-90454819D01*
X76793809Y-90454819D02*
X76889047Y-90597676D01*
X76889047Y-90597676D02*
X76984285Y-90692914D01*
X76984285Y-90692914D02*
X77079523Y-90740533D01*
X78738095Y-93362295D02*
X79195238Y-93362295D01*
X78966666Y-93362295D02*
X78966666Y-92562295D01*
X78966666Y-92562295D02*
X79042857Y-92676580D01*
X79042857Y-92676580D02*
X79119047Y-92752771D01*
X79119047Y-92752771D02*
X79195238Y-92790866D01*
X78242856Y-92562295D02*
X78166666Y-92562295D01*
X78166666Y-92562295D02*
X78090475Y-92600390D01*
X78090475Y-92600390D02*
X78052380Y-92638485D01*
X78052380Y-92638485D02*
X78014285Y-92714676D01*
X78014285Y-92714676D02*
X77976190Y-92867057D01*
X77976190Y-92867057D02*
X77976190Y-93057533D01*
X77976190Y-93057533D02*
X78014285Y-93209914D01*
X78014285Y-93209914D02*
X78052380Y-93286104D01*
X78052380Y-93286104D02*
X78090475Y-93324200D01*
X78090475Y-93324200D02*
X78166666Y-93362295D01*
X78166666Y-93362295D02*
X78242856Y-93362295D01*
X78242856Y-93362295D02*
X78319047Y-93324200D01*
X78319047Y-93324200D02*
X78357142Y-93286104D01*
X78357142Y-93286104D02*
X78395237Y-93209914D01*
X78395237Y-93209914D02*
X78433333Y-93057533D01*
X78433333Y-93057533D02*
X78433333Y-92867057D01*
X78433333Y-92867057D02*
X78395237Y-92714676D01*
X78395237Y-92714676D02*
X78357142Y-92638485D01*
X78357142Y-92638485D02*
X78319047Y-92600390D01*
X78319047Y-92600390D02*
X78242856Y-92562295D01*
X77480951Y-92562295D02*
X77404761Y-92562295D01*
X77404761Y-92562295D02*
X77328570Y-92600390D01*
X77328570Y-92600390D02*
X77290475Y-92638485D01*
X77290475Y-92638485D02*
X77252380Y-92714676D01*
X77252380Y-92714676D02*
X77214285Y-92867057D01*
X77214285Y-92867057D02*
X77214285Y-93057533D01*
X77214285Y-93057533D02*
X77252380Y-93209914D01*
X77252380Y-93209914D02*
X77290475Y-93286104D01*
X77290475Y-93286104D02*
X77328570Y-93324200D01*
X77328570Y-93324200D02*
X77404761Y-93362295D01*
X77404761Y-93362295D02*
X77480951Y-93362295D01*
X77480951Y-93362295D02*
X77557142Y-93324200D01*
X77557142Y-93324200D02*
X77595237Y-93286104D01*
X77595237Y-93286104D02*
X77633332Y-93209914D01*
X77633332Y-93209914D02*
X77671428Y-93057533D01*
X77671428Y-93057533D02*
X77671428Y-92867057D01*
X77671428Y-92867057D02*
X77633332Y-92714676D01*
X77633332Y-92714676D02*
X77595237Y-92638485D01*
X77595237Y-92638485D02*
X77557142Y-92600390D01*
X77557142Y-92600390D02*
X77480951Y-92562295D01*
X76871427Y-92828961D02*
X76871427Y-93362295D01*
X76871427Y-92905152D02*
X76833332Y-92867057D01*
X76833332Y-92867057D02*
X76757142Y-92828961D01*
X76757142Y-92828961D02*
X76642856Y-92828961D01*
X76642856Y-92828961D02*
X76566665Y-92867057D01*
X76566665Y-92867057D02*
X76528570Y-92943247D01*
X76528570Y-92943247D02*
X76528570Y-93362295D01*
X75880951Y-92943247D02*
X76147617Y-92943247D01*
X76147617Y-93362295D02*
X76147617Y-92562295D01*
X76147617Y-92562295D02*
X75766665Y-92562295D01*
X148772080Y-107333333D02*
X148819700Y-107285714D01*
X148819700Y-107285714D02*
X148867319Y-107142857D01*
X148867319Y-107142857D02*
X148867319Y-107047619D01*
X148867319Y-107047619D02*
X148819700Y-106904762D01*
X148819700Y-106904762D02*
X148724461Y-106809524D01*
X148724461Y-106809524D02*
X148629223Y-106761905D01*
X148629223Y-106761905D02*
X148438747Y-106714286D01*
X148438747Y-106714286D02*
X148295890Y-106714286D01*
X148295890Y-106714286D02*
X148105414Y-106761905D01*
X148105414Y-106761905D02*
X148010176Y-106809524D01*
X148010176Y-106809524D02*
X147914938Y-106904762D01*
X147914938Y-106904762D02*
X147867319Y-107047619D01*
X147867319Y-107047619D02*
X147867319Y-107142857D01*
X147867319Y-107142857D02*
X147914938Y-107285714D01*
X147914938Y-107285714D02*
X147962557Y-107333333D01*
X147867319Y-108190476D02*
X147867319Y-108000000D01*
X147867319Y-108000000D02*
X147914938Y-107904762D01*
X147914938Y-107904762D02*
X147962557Y-107857143D01*
X147962557Y-107857143D02*
X148105414Y-107761905D01*
X148105414Y-107761905D02*
X148295890Y-107714286D01*
X148295890Y-107714286D02*
X148676842Y-107714286D01*
X148676842Y-107714286D02*
X148772080Y-107761905D01*
X148772080Y-107761905D02*
X148819700Y-107809524D01*
X148819700Y-107809524D02*
X148867319Y-107904762D01*
X148867319Y-107904762D02*
X148867319Y-108095238D01*
X148867319Y-108095238D02*
X148819700Y-108190476D01*
X148819700Y-108190476D02*
X148772080Y-108238095D01*
X148772080Y-108238095D02*
X148676842Y-108285714D01*
X148676842Y-108285714D02*
X148438747Y-108285714D01*
X148438747Y-108285714D02*
X148343509Y-108238095D01*
X148343509Y-108238095D02*
X148295890Y-108190476D01*
X148295890Y-108190476D02*
X148248271Y-108095238D01*
X148248271Y-108095238D02*
X148248271Y-107904762D01*
X148248271Y-107904762D02*
X148295890Y-107809524D01*
X148295890Y-107809524D02*
X148343509Y-107761905D01*
X148343509Y-107761905D02*
X148438747Y-107714286D01*
X150862295Y-106761904D02*
X150862295Y-106304761D01*
X150862295Y-106533333D02*
X150062295Y-106533333D01*
X150062295Y-106533333D02*
X150176580Y-106457142D01*
X150176580Y-106457142D02*
X150252771Y-106380952D01*
X150252771Y-106380952D02*
X150290866Y-106304761D01*
X150062295Y-107257143D02*
X150062295Y-107333333D01*
X150062295Y-107333333D02*
X150100390Y-107409524D01*
X150100390Y-107409524D02*
X150138485Y-107447619D01*
X150138485Y-107447619D02*
X150214676Y-107485714D01*
X150214676Y-107485714D02*
X150367057Y-107523809D01*
X150367057Y-107523809D02*
X150557533Y-107523809D01*
X150557533Y-107523809D02*
X150709914Y-107485714D01*
X150709914Y-107485714D02*
X150786104Y-107447619D01*
X150786104Y-107447619D02*
X150824200Y-107409524D01*
X150824200Y-107409524D02*
X150862295Y-107333333D01*
X150862295Y-107333333D02*
X150862295Y-107257143D01*
X150862295Y-107257143D02*
X150824200Y-107180952D01*
X150824200Y-107180952D02*
X150786104Y-107142857D01*
X150786104Y-107142857D02*
X150709914Y-107104762D01*
X150709914Y-107104762D02*
X150557533Y-107066666D01*
X150557533Y-107066666D02*
X150367057Y-107066666D01*
X150367057Y-107066666D02*
X150214676Y-107104762D01*
X150214676Y-107104762D02*
X150138485Y-107142857D01*
X150138485Y-107142857D02*
X150100390Y-107180952D01*
X150100390Y-107180952D02*
X150062295Y-107257143D01*
X150062295Y-108019048D02*
X150062295Y-108095238D01*
X150062295Y-108095238D02*
X150100390Y-108171429D01*
X150100390Y-108171429D02*
X150138485Y-108209524D01*
X150138485Y-108209524D02*
X150214676Y-108247619D01*
X150214676Y-108247619D02*
X150367057Y-108285714D01*
X150367057Y-108285714D02*
X150557533Y-108285714D01*
X150557533Y-108285714D02*
X150709914Y-108247619D01*
X150709914Y-108247619D02*
X150786104Y-108209524D01*
X150786104Y-108209524D02*
X150824200Y-108171429D01*
X150824200Y-108171429D02*
X150862295Y-108095238D01*
X150862295Y-108095238D02*
X150862295Y-108019048D01*
X150862295Y-108019048D02*
X150824200Y-107942857D01*
X150824200Y-107942857D02*
X150786104Y-107904762D01*
X150786104Y-107904762D02*
X150709914Y-107866667D01*
X150709914Y-107866667D02*
X150557533Y-107828571D01*
X150557533Y-107828571D02*
X150367057Y-107828571D01*
X150367057Y-107828571D02*
X150214676Y-107866667D01*
X150214676Y-107866667D02*
X150138485Y-107904762D01*
X150138485Y-107904762D02*
X150100390Y-107942857D01*
X150100390Y-107942857D02*
X150062295Y-108019048D01*
X150328961Y-108628572D02*
X150862295Y-108628572D01*
X150405152Y-108628572D02*
X150367057Y-108666667D01*
X150367057Y-108666667D02*
X150328961Y-108742857D01*
X150328961Y-108742857D02*
X150328961Y-108857143D01*
X150328961Y-108857143D02*
X150367057Y-108933334D01*
X150367057Y-108933334D02*
X150443247Y-108971429D01*
X150443247Y-108971429D02*
X150862295Y-108971429D01*
X150443247Y-109619048D02*
X150443247Y-109352382D01*
X150862295Y-109352382D02*
X150062295Y-109352382D01*
X150062295Y-109352382D02*
X150062295Y-109733334D01*
X181454819Y-147833333D02*
X180978628Y-147500000D01*
X181454819Y-147261905D02*
X180454819Y-147261905D01*
X180454819Y-147261905D02*
X180454819Y-147642857D01*
X180454819Y-147642857D02*
X180502438Y-147738095D01*
X180502438Y-147738095D02*
X180550057Y-147785714D01*
X180550057Y-147785714D02*
X180645295Y-147833333D01*
X180645295Y-147833333D02*
X180788152Y-147833333D01*
X180788152Y-147833333D02*
X180883390Y-147785714D01*
X180883390Y-147785714D02*
X180931009Y-147738095D01*
X180931009Y-147738095D02*
X180978628Y-147642857D01*
X180978628Y-147642857D02*
X180978628Y-147261905D01*
X180550057Y-148214286D02*
X180502438Y-148261905D01*
X180502438Y-148261905D02*
X180454819Y-148357143D01*
X180454819Y-148357143D02*
X180454819Y-148595238D01*
X180454819Y-148595238D02*
X180502438Y-148690476D01*
X180502438Y-148690476D02*
X180550057Y-148738095D01*
X180550057Y-148738095D02*
X180645295Y-148785714D01*
X180645295Y-148785714D02*
X180740533Y-148785714D01*
X180740533Y-148785714D02*
X180883390Y-148738095D01*
X180883390Y-148738095D02*
X181454819Y-148166667D01*
X181454819Y-148166667D02*
X181454819Y-148785714D01*
X127272080Y-106833333D02*
X127319700Y-106785714D01*
X127319700Y-106785714D02*
X127367319Y-106642857D01*
X127367319Y-106642857D02*
X127367319Y-106547619D01*
X127367319Y-106547619D02*
X127319700Y-106404762D01*
X127319700Y-106404762D02*
X127224461Y-106309524D01*
X127224461Y-106309524D02*
X127129223Y-106261905D01*
X127129223Y-106261905D02*
X126938747Y-106214286D01*
X126938747Y-106214286D02*
X126795890Y-106214286D01*
X126795890Y-106214286D02*
X126605414Y-106261905D01*
X126605414Y-106261905D02*
X126510176Y-106309524D01*
X126510176Y-106309524D02*
X126414938Y-106404762D01*
X126414938Y-106404762D02*
X126367319Y-106547619D01*
X126367319Y-106547619D02*
X126367319Y-106642857D01*
X126367319Y-106642857D02*
X126414938Y-106785714D01*
X126414938Y-106785714D02*
X126462557Y-106833333D01*
X126367319Y-107166667D02*
X126367319Y-107833333D01*
X126367319Y-107833333D02*
X127367319Y-107404762D01*
X129362295Y-106261904D02*
X129362295Y-105804761D01*
X129362295Y-106033333D02*
X128562295Y-106033333D01*
X128562295Y-106033333D02*
X128676580Y-105957142D01*
X128676580Y-105957142D02*
X128752771Y-105880952D01*
X128752771Y-105880952D02*
X128790866Y-105804761D01*
X128562295Y-106757143D02*
X128562295Y-106833333D01*
X128562295Y-106833333D02*
X128600390Y-106909524D01*
X128600390Y-106909524D02*
X128638485Y-106947619D01*
X128638485Y-106947619D02*
X128714676Y-106985714D01*
X128714676Y-106985714D02*
X128867057Y-107023809D01*
X128867057Y-107023809D02*
X129057533Y-107023809D01*
X129057533Y-107023809D02*
X129209914Y-106985714D01*
X129209914Y-106985714D02*
X129286104Y-106947619D01*
X129286104Y-106947619D02*
X129324200Y-106909524D01*
X129324200Y-106909524D02*
X129362295Y-106833333D01*
X129362295Y-106833333D02*
X129362295Y-106757143D01*
X129362295Y-106757143D02*
X129324200Y-106680952D01*
X129324200Y-106680952D02*
X129286104Y-106642857D01*
X129286104Y-106642857D02*
X129209914Y-106604762D01*
X129209914Y-106604762D02*
X129057533Y-106566666D01*
X129057533Y-106566666D02*
X128867057Y-106566666D01*
X128867057Y-106566666D02*
X128714676Y-106604762D01*
X128714676Y-106604762D02*
X128638485Y-106642857D01*
X128638485Y-106642857D02*
X128600390Y-106680952D01*
X128600390Y-106680952D02*
X128562295Y-106757143D01*
X128562295Y-107519048D02*
X128562295Y-107595238D01*
X128562295Y-107595238D02*
X128600390Y-107671429D01*
X128600390Y-107671429D02*
X128638485Y-107709524D01*
X128638485Y-107709524D02*
X128714676Y-107747619D01*
X128714676Y-107747619D02*
X128867057Y-107785714D01*
X128867057Y-107785714D02*
X129057533Y-107785714D01*
X129057533Y-107785714D02*
X129209914Y-107747619D01*
X129209914Y-107747619D02*
X129286104Y-107709524D01*
X129286104Y-107709524D02*
X129324200Y-107671429D01*
X129324200Y-107671429D02*
X129362295Y-107595238D01*
X129362295Y-107595238D02*
X129362295Y-107519048D01*
X129362295Y-107519048D02*
X129324200Y-107442857D01*
X129324200Y-107442857D02*
X129286104Y-107404762D01*
X129286104Y-107404762D02*
X129209914Y-107366667D01*
X129209914Y-107366667D02*
X129057533Y-107328571D01*
X129057533Y-107328571D02*
X128867057Y-107328571D01*
X128867057Y-107328571D02*
X128714676Y-107366667D01*
X128714676Y-107366667D02*
X128638485Y-107404762D01*
X128638485Y-107404762D02*
X128600390Y-107442857D01*
X128600390Y-107442857D02*
X128562295Y-107519048D01*
X128828961Y-108128572D02*
X129362295Y-108128572D01*
X128905152Y-108128572D02*
X128867057Y-108166667D01*
X128867057Y-108166667D02*
X128828961Y-108242857D01*
X128828961Y-108242857D02*
X128828961Y-108357143D01*
X128828961Y-108357143D02*
X128867057Y-108433334D01*
X128867057Y-108433334D02*
X128943247Y-108471429D01*
X128943247Y-108471429D02*
X129362295Y-108471429D01*
X128943247Y-109119048D02*
X128943247Y-108852382D01*
X129362295Y-108852382D02*
X128562295Y-108852382D01*
X128562295Y-108852382D02*
X128562295Y-109233334D01*
X106272080Y-107333333D02*
X106319700Y-107285714D01*
X106319700Y-107285714D02*
X106367319Y-107142857D01*
X106367319Y-107142857D02*
X106367319Y-107047619D01*
X106367319Y-107047619D02*
X106319700Y-106904762D01*
X106319700Y-106904762D02*
X106224461Y-106809524D01*
X106224461Y-106809524D02*
X106129223Y-106761905D01*
X106129223Y-106761905D02*
X105938747Y-106714286D01*
X105938747Y-106714286D02*
X105795890Y-106714286D01*
X105795890Y-106714286D02*
X105605414Y-106761905D01*
X105605414Y-106761905D02*
X105510176Y-106809524D01*
X105510176Y-106809524D02*
X105414938Y-106904762D01*
X105414938Y-106904762D02*
X105367319Y-107047619D01*
X105367319Y-107047619D02*
X105367319Y-107142857D01*
X105367319Y-107142857D02*
X105414938Y-107285714D01*
X105414938Y-107285714D02*
X105462557Y-107333333D01*
X105795890Y-107904762D02*
X105748271Y-107809524D01*
X105748271Y-107809524D02*
X105700652Y-107761905D01*
X105700652Y-107761905D02*
X105605414Y-107714286D01*
X105605414Y-107714286D02*
X105557795Y-107714286D01*
X105557795Y-107714286D02*
X105462557Y-107761905D01*
X105462557Y-107761905D02*
X105414938Y-107809524D01*
X105414938Y-107809524D02*
X105367319Y-107904762D01*
X105367319Y-107904762D02*
X105367319Y-108095238D01*
X105367319Y-108095238D02*
X105414938Y-108190476D01*
X105414938Y-108190476D02*
X105462557Y-108238095D01*
X105462557Y-108238095D02*
X105557795Y-108285714D01*
X105557795Y-108285714D02*
X105605414Y-108285714D01*
X105605414Y-108285714D02*
X105700652Y-108238095D01*
X105700652Y-108238095D02*
X105748271Y-108190476D01*
X105748271Y-108190476D02*
X105795890Y-108095238D01*
X105795890Y-108095238D02*
X105795890Y-107904762D01*
X105795890Y-107904762D02*
X105843509Y-107809524D01*
X105843509Y-107809524D02*
X105891128Y-107761905D01*
X105891128Y-107761905D02*
X105986366Y-107714286D01*
X105986366Y-107714286D02*
X106176842Y-107714286D01*
X106176842Y-107714286D02*
X106272080Y-107761905D01*
X106272080Y-107761905D02*
X106319700Y-107809524D01*
X106319700Y-107809524D02*
X106367319Y-107904762D01*
X106367319Y-107904762D02*
X106367319Y-108095238D01*
X106367319Y-108095238D02*
X106319700Y-108190476D01*
X106319700Y-108190476D02*
X106272080Y-108238095D01*
X106272080Y-108238095D02*
X106176842Y-108285714D01*
X106176842Y-108285714D02*
X105986366Y-108285714D01*
X105986366Y-108285714D02*
X105891128Y-108238095D01*
X105891128Y-108238095D02*
X105843509Y-108190476D01*
X105843509Y-108190476D02*
X105795890Y-108095238D01*
X107862295Y-107261904D02*
X107862295Y-106804761D01*
X107862295Y-107033333D02*
X107062295Y-107033333D01*
X107062295Y-107033333D02*
X107176580Y-106957142D01*
X107176580Y-106957142D02*
X107252771Y-106880952D01*
X107252771Y-106880952D02*
X107290866Y-106804761D01*
X107062295Y-107757143D02*
X107062295Y-107833333D01*
X107062295Y-107833333D02*
X107100390Y-107909524D01*
X107100390Y-107909524D02*
X107138485Y-107947619D01*
X107138485Y-107947619D02*
X107214676Y-107985714D01*
X107214676Y-107985714D02*
X107367057Y-108023809D01*
X107367057Y-108023809D02*
X107557533Y-108023809D01*
X107557533Y-108023809D02*
X107709914Y-107985714D01*
X107709914Y-107985714D02*
X107786104Y-107947619D01*
X107786104Y-107947619D02*
X107824200Y-107909524D01*
X107824200Y-107909524D02*
X107862295Y-107833333D01*
X107862295Y-107833333D02*
X107862295Y-107757143D01*
X107862295Y-107757143D02*
X107824200Y-107680952D01*
X107824200Y-107680952D02*
X107786104Y-107642857D01*
X107786104Y-107642857D02*
X107709914Y-107604762D01*
X107709914Y-107604762D02*
X107557533Y-107566666D01*
X107557533Y-107566666D02*
X107367057Y-107566666D01*
X107367057Y-107566666D02*
X107214676Y-107604762D01*
X107214676Y-107604762D02*
X107138485Y-107642857D01*
X107138485Y-107642857D02*
X107100390Y-107680952D01*
X107100390Y-107680952D02*
X107062295Y-107757143D01*
X107062295Y-108519048D02*
X107062295Y-108595238D01*
X107062295Y-108595238D02*
X107100390Y-108671429D01*
X107100390Y-108671429D02*
X107138485Y-108709524D01*
X107138485Y-108709524D02*
X107214676Y-108747619D01*
X107214676Y-108747619D02*
X107367057Y-108785714D01*
X107367057Y-108785714D02*
X107557533Y-108785714D01*
X107557533Y-108785714D02*
X107709914Y-108747619D01*
X107709914Y-108747619D02*
X107786104Y-108709524D01*
X107786104Y-108709524D02*
X107824200Y-108671429D01*
X107824200Y-108671429D02*
X107862295Y-108595238D01*
X107862295Y-108595238D02*
X107862295Y-108519048D01*
X107862295Y-108519048D02*
X107824200Y-108442857D01*
X107824200Y-108442857D02*
X107786104Y-108404762D01*
X107786104Y-108404762D02*
X107709914Y-108366667D01*
X107709914Y-108366667D02*
X107557533Y-108328571D01*
X107557533Y-108328571D02*
X107367057Y-108328571D01*
X107367057Y-108328571D02*
X107214676Y-108366667D01*
X107214676Y-108366667D02*
X107138485Y-108404762D01*
X107138485Y-108404762D02*
X107100390Y-108442857D01*
X107100390Y-108442857D02*
X107062295Y-108519048D01*
X107328961Y-109128572D02*
X107862295Y-109128572D01*
X107405152Y-109128572D02*
X107367057Y-109166667D01*
X107367057Y-109166667D02*
X107328961Y-109242857D01*
X107328961Y-109242857D02*
X107328961Y-109357143D01*
X107328961Y-109357143D02*
X107367057Y-109433334D01*
X107367057Y-109433334D02*
X107443247Y-109471429D01*
X107443247Y-109471429D02*
X107862295Y-109471429D01*
X107443247Y-110119048D02*
X107443247Y-109852382D01*
X107862295Y-109852382D02*
X107062295Y-109852382D01*
X107062295Y-109852382D02*
X107062295Y-110233334D01*
X184454819Y-147833333D02*
X183978628Y-147500000D01*
X184454819Y-147261905D02*
X183454819Y-147261905D01*
X183454819Y-147261905D02*
X183454819Y-147642857D01*
X183454819Y-147642857D02*
X183502438Y-147738095D01*
X183502438Y-147738095D02*
X183550057Y-147785714D01*
X183550057Y-147785714D02*
X183645295Y-147833333D01*
X183645295Y-147833333D02*
X183788152Y-147833333D01*
X183788152Y-147833333D02*
X183883390Y-147785714D01*
X183883390Y-147785714D02*
X183931009Y-147738095D01*
X183931009Y-147738095D02*
X183978628Y-147642857D01*
X183978628Y-147642857D02*
X183978628Y-147261905D01*
X183788152Y-148690476D02*
X184454819Y-148690476D01*
X183407200Y-148452381D02*
X184121485Y-148214286D01*
X184121485Y-148214286D02*
X184121485Y-148833333D01*
X149555357Y-100859580D02*
X149602976Y-100907200D01*
X149602976Y-100907200D02*
X149745833Y-100954819D01*
X149745833Y-100954819D02*
X149841071Y-100954819D01*
X149841071Y-100954819D02*
X149983928Y-100907200D01*
X149983928Y-100907200D02*
X150079166Y-100811961D01*
X150079166Y-100811961D02*
X150126785Y-100716723D01*
X150126785Y-100716723D02*
X150174404Y-100526247D01*
X150174404Y-100526247D02*
X150174404Y-100383390D01*
X150174404Y-100383390D02*
X150126785Y-100192914D01*
X150126785Y-100192914D02*
X150079166Y-100097676D01*
X150079166Y-100097676D02*
X149983928Y-100002438D01*
X149983928Y-100002438D02*
X149841071Y-99954819D01*
X149841071Y-99954819D02*
X149745833Y-99954819D01*
X149745833Y-99954819D02*
X149602976Y-100002438D01*
X149602976Y-100002438D02*
X149555357Y-100050057D01*
X148602976Y-100954819D02*
X149174404Y-100954819D01*
X148888690Y-100954819D02*
X148888690Y-99954819D01*
X148888690Y-99954819D02*
X148983928Y-100097676D01*
X148983928Y-100097676D02*
X149079166Y-100192914D01*
X149079166Y-100192914D02*
X149174404Y-100240533D01*
X147698214Y-99954819D02*
X148174404Y-99954819D01*
X148174404Y-99954819D02*
X148222023Y-100431009D01*
X148222023Y-100431009D02*
X148174404Y-100383390D01*
X148174404Y-100383390D02*
X148079166Y-100335771D01*
X148079166Y-100335771D02*
X147841071Y-100335771D01*
X147841071Y-100335771D02*
X147745833Y-100383390D01*
X147745833Y-100383390D02*
X147698214Y-100431009D01*
X147698214Y-100431009D02*
X147650595Y-100526247D01*
X147650595Y-100526247D02*
X147650595Y-100764342D01*
X147650595Y-100764342D02*
X147698214Y-100859580D01*
X147698214Y-100859580D02*
X147745833Y-100907200D01*
X147745833Y-100907200D02*
X147841071Y-100954819D01*
X147841071Y-100954819D02*
X148079166Y-100954819D01*
X148079166Y-100954819D02*
X148174404Y-100907200D01*
X148174404Y-100907200D02*
X148222023Y-100859580D01*
X149914285Y-102862295D02*
X150371428Y-102862295D01*
X150142856Y-102862295D02*
X150142856Y-102062295D01*
X150142856Y-102062295D02*
X150219047Y-102176580D01*
X150219047Y-102176580D02*
X150295237Y-102252771D01*
X150295237Y-102252771D02*
X150371428Y-102290866D01*
X149419046Y-102062295D02*
X149342856Y-102062295D01*
X149342856Y-102062295D02*
X149266665Y-102100390D01*
X149266665Y-102100390D02*
X149228570Y-102138485D01*
X149228570Y-102138485D02*
X149190475Y-102214676D01*
X149190475Y-102214676D02*
X149152380Y-102367057D01*
X149152380Y-102367057D02*
X149152380Y-102557533D01*
X149152380Y-102557533D02*
X149190475Y-102709914D01*
X149190475Y-102709914D02*
X149228570Y-102786104D01*
X149228570Y-102786104D02*
X149266665Y-102824200D01*
X149266665Y-102824200D02*
X149342856Y-102862295D01*
X149342856Y-102862295D02*
X149419046Y-102862295D01*
X149419046Y-102862295D02*
X149495237Y-102824200D01*
X149495237Y-102824200D02*
X149533332Y-102786104D01*
X149533332Y-102786104D02*
X149571427Y-102709914D01*
X149571427Y-102709914D02*
X149609523Y-102557533D01*
X149609523Y-102557533D02*
X149609523Y-102367057D01*
X149609523Y-102367057D02*
X149571427Y-102214676D01*
X149571427Y-102214676D02*
X149533332Y-102138485D01*
X149533332Y-102138485D02*
X149495237Y-102100390D01*
X149495237Y-102100390D02*
X149419046Y-102062295D01*
X148809522Y-102328961D02*
X148809522Y-103128961D01*
X148428570Y-102748009D02*
X148390475Y-102824200D01*
X148390475Y-102824200D02*
X148314284Y-102862295D01*
X148809522Y-102748009D02*
X148771427Y-102824200D01*
X148771427Y-102824200D02*
X148695237Y-102862295D01*
X148695237Y-102862295D02*
X148542856Y-102862295D01*
X148542856Y-102862295D02*
X148466665Y-102824200D01*
X148466665Y-102824200D02*
X148428570Y-102748009D01*
X148428570Y-102748009D02*
X148428570Y-102328961D01*
X147704761Y-102443247D02*
X147971427Y-102443247D01*
X147971427Y-102862295D02*
X147971427Y-102062295D01*
X147971427Y-102062295D02*
X147590475Y-102062295D01*
X178666666Y-130359580D02*
X178714285Y-130407200D01*
X178714285Y-130407200D02*
X178857142Y-130454819D01*
X178857142Y-130454819D02*
X178952380Y-130454819D01*
X178952380Y-130454819D02*
X179095237Y-130407200D01*
X179095237Y-130407200D02*
X179190475Y-130311961D01*
X179190475Y-130311961D02*
X179238094Y-130216723D01*
X179238094Y-130216723D02*
X179285713Y-130026247D01*
X179285713Y-130026247D02*
X179285713Y-129883390D01*
X179285713Y-129883390D02*
X179238094Y-129692914D01*
X179238094Y-129692914D02*
X179190475Y-129597676D01*
X179190475Y-129597676D02*
X179095237Y-129502438D01*
X179095237Y-129502438D02*
X178952380Y-129454819D01*
X178952380Y-129454819D02*
X178857142Y-129454819D01*
X178857142Y-129454819D02*
X178714285Y-129502438D01*
X178714285Y-129502438D02*
X178666666Y-129550057D01*
X178190475Y-130454819D02*
X177999999Y-130454819D01*
X177999999Y-130454819D02*
X177904761Y-130407200D01*
X177904761Y-130407200D02*
X177857142Y-130359580D01*
X177857142Y-130359580D02*
X177761904Y-130216723D01*
X177761904Y-130216723D02*
X177714285Y-130026247D01*
X177714285Y-130026247D02*
X177714285Y-129645295D01*
X177714285Y-129645295D02*
X177761904Y-129550057D01*
X177761904Y-129550057D02*
X177809523Y-129502438D01*
X177809523Y-129502438D02*
X177904761Y-129454819D01*
X177904761Y-129454819D02*
X178095237Y-129454819D01*
X178095237Y-129454819D02*
X178190475Y-129502438D01*
X178190475Y-129502438D02*
X178238094Y-129550057D01*
X178238094Y-129550057D02*
X178285713Y-129645295D01*
X178285713Y-129645295D02*
X178285713Y-129883390D01*
X178285713Y-129883390D02*
X178238094Y-129978628D01*
X178238094Y-129978628D02*
X178190475Y-130026247D01*
X178190475Y-130026247D02*
X178095237Y-130073866D01*
X178095237Y-130073866D02*
X177904761Y-130073866D01*
X177904761Y-130073866D02*
X177809523Y-130026247D01*
X177809523Y-130026247D02*
X177761904Y-129978628D01*
X177761904Y-129978628D02*
X177714285Y-129883390D01*
X179738095Y-128862295D02*
X180195238Y-128862295D01*
X179966666Y-128862295D02*
X179966666Y-128062295D01*
X179966666Y-128062295D02*
X180042857Y-128176580D01*
X180042857Y-128176580D02*
X180119047Y-128252771D01*
X180119047Y-128252771D02*
X180195238Y-128290866D01*
X179242856Y-128062295D02*
X179166666Y-128062295D01*
X179166666Y-128062295D02*
X179090475Y-128100390D01*
X179090475Y-128100390D02*
X179052380Y-128138485D01*
X179052380Y-128138485D02*
X179014285Y-128214676D01*
X179014285Y-128214676D02*
X178976190Y-128367057D01*
X178976190Y-128367057D02*
X178976190Y-128557533D01*
X178976190Y-128557533D02*
X179014285Y-128709914D01*
X179014285Y-128709914D02*
X179052380Y-128786104D01*
X179052380Y-128786104D02*
X179090475Y-128824200D01*
X179090475Y-128824200D02*
X179166666Y-128862295D01*
X179166666Y-128862295D02*
X179242856Y-128862295D01*
X179242856Y-128862295D02*
X179319047Y-128824200D01*
X179319047Y-128824200D02*
X179357142Y-128786104D01*
X179357142Y-128786104D02*
X179395237Y-128709914D01*
X179395237Y-128709914D02*
X179433333Y-128557533D01*
X179433333Y-128557533D02*
X179433333Y-128367057D01*
X179433333Y-128367057D02*
X179395237Y-128214676D01*
X179395237Y-128214676D02*
X179357142Y-128138485D01*
X179357142Y-128138485D02*
X179319047Y-128100390D01*
X179319047Y-128100390D02*
X179242856Y-128062295D01*
X178480951Y-128062295D02*
X178404761Y-128062295D01*
X178404761Y-128062295D02*
X178328570Y-128100390D01*
X178328570Y-128100390D02*
X178290475Y-128138485D01*
X178290475Y-128138485D02*
X178252380Y-128214676D01*
X178252380Y-128214676D02*
X178214285Y-128367057D01*
X178214285Y-128367057D02*
X178214285Y-128557533D01*
X178214285Y-128557533D02*
X178252380Y-128709914D01*
X178252380Y-128709914D02*
X178290475Y-128786104D01*
X178290475Y-128786104D02*
X178328570Y-128824200D01*
X178328570Y-128824200D02*
X178404761Y-128862295D01*
X178404761Y-128862295D02*
X178480951Y-128862295D01*
X178480951Y-128862295D02*
X178557142Y-128824200D01*
X178557142Y-128824200D02*
X178595237Y-128786104D01*
X178595237Y-128786104D02*
X178633332Y-128709914D01*
X178633332Y-128709914D02*
X178671428Y-128557533D01*
X178671428Y-128557533D02*
X178671428Y-128367057D01*
X178671428Y-128367057D02*
X178633332Y-128214676D01*
X178633332Y-128214676D02*
X178595237Y-128138485D01*
X178595237Y-128138485D02*
X178557142Y-128100390D01*
X178557142Y-128100390D02*
X178480951Y-128062295D01*
X177871427Y-128328961D02*
X177871427Y-128862295D01*
X177871427Y-128405152D02*
X177833332Y-128367057D01*
X177833332Y-128367057D02*
X177757142Y-128328961D01*
X177757142Y-128328961D02*
X177642856Y-128328961D01*
X177642856Y-128328961D02*
X177566665Y-128367057D01*
X177566665Y-128367057D02*
X177528570Y-128443247D01*
X177528570Y-128443247D02*
X177528570Y-128862295D01*
X176880951Y-128443247D02*
X177147617Y-128443247D01*
X177147617Y-128862295D02*
X177147617Y-128062295D01*
X177147617Y-128062295D02*
X176766665Y-128062295D01*
X105055357Y-100859580D02*
X105102976Y-100907200D01*
X105102976Y-100907200D02*
X105245833Y-100954819D01*
X105245833Y-100954819D02*
X105341071Y-100954819D01*
X105341071Y-100954819D02*
X105483928Y-100907200D01*
X105483928Y-100907200D02*
X105579166Y-100811961D01*
X105579166Y-100811961D02*
X105626785Y-100716723D01*
X105626785Y-100716723D02*
X105674404Y-100526247D01*
X105674404Y-100526247D02*
X105674404Y-100383390D01*
X105674404Y-100383390D02*
X105626785Y-100192914D01*
X105626785Y-100192914D02*
X105579166Y-100097676D01*
X105579166Y-100097676D02*
X105483928Y-100002438D01*
X105483928Y-100002438D02*
X105341071Y-99954819D01*
X105341071Y-99954819D02*
X105245833Y-99954819D01*
X105245833Y-99954819D02*
X105102976Y-100002438D01*
X105102976Y-100002438D02*
X105055357Y-100050057D01*
X104102976Y-100954819D02*
X104674404Y-100954819D01*
X104388690Y-100954819D02*
X104388690Y-99954819D01*
X104388690Y-99954819D02*
X104483928Y-100097676D01*
X104483928Y-100097676D02*
X104579166Y-100192914D01*
X104579166Y-100192914D02*
X104674404Y-100240533D01*
X103245833Y-99954819D02*
X103436309Y-99954819D01*
X103436309Y-99954819D02*
X103531547Y-100002438D01*
X103531547Y-100002438D02*
X103579166Y-100050057D01*
X103579166Y-100050057D02*
X103674404Y-100192914D01*
X103674404Y-100192914D02*
X103722023Y-100383390D01*
X103722023Y-100383390D02*
X103722023Y-100764342D01*
X103722023Y-100764342D02*
X103674404Y-100859580D01*
X103674404Y-100859580D02*
X103626785Y-100907200D01*
X103626785Y-100907200D02*
X103531547Y-100954819D01*
X103531547Y-100954819D02*
X103341071Y-100954819D01*
X103341071Y-100954819D02*
X103245833Y-100907200D01*
X103245833Y-100907200D02*
X103198214Y-100859580D01*
X103198214Y-100859580D02*
X103150595Y-100764342D01*
X103150595Y-100764342D02*
X103150595Y-100526247D01*
X103150595Y-100526247D02*
X103198214Y-100431009D01*
X103198214Y-100431009D02*
X103245833Y-100383390D01*
X103245833Y-100383390D02*
X103341071Y-100335771D01*
X103341071Y-100335771D02*
X103531547Y-100335771D01*
X103531547Y-100335771D02*
X103626785Y-100383390D01*
X103626785Y-100383390D02*
X103674404Y-100431009D01*
X103674404Y-100431009D02*
X103722023Y-100526247D01*
X104914285Y-102362295D02*
X105371428Y-102362295D01*
X105142856Y-102362295D02*
X105142856Y-101562295D01*
X105142856Y-101562295D02*
X105219047Y-101676580D01*
X105219047Y-101676580D02*
X105295237Y-101752771D01*
X105295237Y-101752771D02*
X105371428Y-101790866D01*
X104419046Y-101562295D02*
X104342856Y-101562295D01*
X104342856Y-101562295D02*
X104266665Y-101600390D01*
X104266665Y-101600390D02*
X104228570Y-101638485D01*
X104228570Y-101638485D02*
X104190475Y-101714676D01*
X104190475Y-101714676D02*
X104152380Y-101867057D01*
X104152380Y-101867057D02*
X104152380Y-102057533D01*
X104152380Y-102057533D02*
X104190475Y-102209914D01*
X104190475Y-102209914D02*
X104228570Y-102286104D01*
X104228570Y-102286104D02*
X104266665Y-102324200D01*
X104266665Y-102324200D02*
X104342856Y-102362295D01*
X104342856Y-102362295D02*
X104419046Y-102362295D01*
X104419046Y-102362295D02*
X104495237Y-102324200D01*
X104495237Y-102324200D02*
X104533332Y-102286104D01*
X104533332Y-102286104D02*
X104571427Y-102209914D01*
X104571427Y-102209914D02*
X104609523Y-102057533D01*
X104609523Y-102057533D02*
X104609523Y-101867057D01*
X104609523Y-101867057D02*
X104571427Y-101714676D01*
X104571427Y-101714676D02*
X104533332Y-101638485D01*
X104533332Y-101638485D02*
X104495237Y-101600390D01*
X104495237Y-101600390D02*
X104419046Y-101562295D01*
X103809522Y-101828961D02*
X103809522Y-102628961D01*
X103428570Y-102248009D02*
X103390475Y-102324200D01*
X103390475Y-102324200D02*
X103314284Y-102362295D01*
X103809522Y-102248009D02*
X103771427Y-102324200D01*
X103771427Y-102324200D02*
X103695237Y-102362295D01*
X103695237Y-102362295D02*
X103542856Y-102362295D01*
X103542856Y-102362295D02*
X103466665Y-102324200D01*
X103466665Y-102324200D02*
X103428570Y-102248009D01*
X103428570Y-102248009D02*
X103428570Y-101828961D01*
X102704761Y-101943247D02*
X102971427Y-101943247D01*
X102971427Y-102362295D02*
X102971427Y-101562295D01*
X102971427Y-101562295D02*
X102590475Y-101562295D01*
X105772080Y-86283333D02*
X105819700Y-86235714D01*
X105819700Y-86235714D02*
X105867319Y-86092857D01*
X105867319Y-86092857D02*
X105867319Y-85997619D01*
X105867319Y-85997619D02*
X105819700Y-85854762D01*
X105819700Y-85854762D02*
X105724461Y-85759524D01*
X105724461Y-85759524D02*
X105629223Y-85711905D01*
X105629223Y-85711905D02*
X105438747Y-85664286D01*
X105438747Y-85664286D02*
X105295890Y-85664286D01*
X105295890Y-85664286D02*
X105105414Y-85711905D01*
X105105414Y-85711905D02*
X105010176Y-85759524D01*
X105010176Y-85759524D02*
X104914938Y-85854762D01*
X104914938Y-85854762D02*
X104867319Y-85997619D01*
X104867319Y-85997619D02*
X104867319Y-86092857D01*
X104867319Y-86092857D02*
X104914938Y-86235714D01*
X104914938Y-86235714D02*
X104962557Y-86283333D01*
X105200652Y-87140476D02*
X105867319Y-87140476D01*
X104819700Y-86902381D02*
X105533985Y-86664286D01*
X105533985Y-86664286D02*
X105533985Y-87283333D01*
X107862295Y-85761904D02*
X107862295Y-85304761D01*
X107862295Y-85533333D02*
X107062295Y-85533333D01*
X107062295Y-85533333D02*
X107176580Y-85457142D01*
X107176580Y-85457142D02*
X107252771Y-85380952D01*
X107252771Y-85380952D02*
X107290866Y-85304761D01*
X107062295Y-86257143D02*
X107062295Y-86333333D01*
X107062295Y-86333333D02*
X107100390Y-86409524D01*
X107100390Y-86409524D02*
X107138485Y-86447619D01*
X107138485Y-86447619D02*
X107214676Y-86485714D01*
X107214676Y-86485714D02*
X107367057Y-86523809D01*
X107367057Y-86523809D02*
X107557533Y-86523809D01*
X107557533Y-86523809D02*
X107709914Y-86485714D01*
X107709914Y-86485714D02*
X107786104Y-86447619D01*
X107786104Y-86447619D02*
X107824200Y-86409524D01*
X107824200Y-86409524D02*
X107862295Y-86333333D01*
X107862295Y-86333333D02*
X107862295Y-86257143D01*
X107862295Y-86257143D02*
X107824200Y-86180952D01*
X107824200Y-86180952D02*
X107786104Y-86142857D01*
X107786104Y-86142857D02*
X107709914Y-86104762D01*
X107709914Y-86104762D02*
X107557533Y-86066666D01*
X107557533Y-86066666D02*
X107367057Y-86066666D01*
X107367057Y-86066666D02*
X107214676Y-86104762D01*
X107214676Y-86104762D02*
X107138485Y-86142857D01*
X107138485Y-86142857D02*
X107100390Y-86180952D01*
X107100390Y-86180952D02*
X107062295Y-86257143D01*
X107062295Y-87019048D02*
X107062295Y-87095238D01*
X107062295Y-87095238D02*
X107100390Y-87171429D01*
X107100390Y-87171429D02*
X107138485Y-87209524D01*
X107138485Y-87209524D02*
X107214676Y-87247619D01*
X107214676Y-87247619D02*
X107367057Y-87285714D01*
X107367057Y-87285714D02*
X107557533Y-87285714D01*
X107557533Y-87285714D02*
X107709914Y-87247619D01*
X107709914Y-87247619D02*
X107786104Y-87209524D01*
X107786104Y-87209524D02*
X107824200Y-87171429D01*
X107824200Y-87171429D02*
X107862295Y-87095238D01*
X107862295Y-87095238D02*
X107862295Y-87019048D01*
X107862295Y-87019048D02*
X107824200Y-86942857D01*
X107824200Y-86942857D02*
X107786104Y-86904762D01*
X107786104Y-86904762D02*
X107709914Y-86866667D01*
X107709914Y-86866667D02*
X107557533Y-86828571D01*
X107557533Y-86828571D02*
X107367057Y-86828571D01*
X107367057Y-86828571D02*
X107214676Y-86866667D01*
X107214676Y-86866667D02*
X107138485Y-86904762D01*
X107138485Y-86904762D02*
X107100390Y-86942857D01*
X107100390Y-86942857D02*
X107062295Y-87019048D01*
X107328961Y-87628572D02*
X107862295Y-87628572D01*
X107405152Y-87628572D02*
X107367057Y-87666667D01*
X107367057Y-87666667D02*
X107328961Y-87742857D01*
X107328961Y-87742857D02*
X107328961Y-87857143D01*
X107328961Y-87857143D02*
X107367057Y-87933334D01*
X107367057Y-87933334D02*
X107443247Y-87971429D01*
X107443247Y-87971429D02*
X107862295Y-87971429D01*
X107443247Y-88619048D02*
X107443247Y-88352382D01*
X107862295Y-88352382D02*
X107062295Y-88352382D01*
X107062295Y-88352382D02*
X107062295Y-88733334D01*
X178454819Y-147833333D02*
X177978628Y-147500000D01*
X178454819Y-147261905D02*
X177454819Y-147261905D01*
X177454819Y-147261905D02*
X177454819Y-147642857D01*
X177454819Y-147642857D02*
X177502438Y-147738095D01*
X177502438Y-147738095D02*
X177550057Y-147785714D01*
X177550057Y-147785714D02*
X177645295Y-147833333D01*
X177645295Y-147833333D02*
X177788152Y-147833333D01*
X177788152Y-147833333D02*
X177883390Y-147785714D01*
X177883390Y-147785714D02*
X177931009Y-147738095D01*
X177931009Y-147738095D02*
X177978628Y-147642857D01*
X177978628Y-147642857D02*
X177978628Y-147261905D01*
X177454819Y-148166667D02*
X177454819Y-148785714D01*
X177454819Y-148785714D02*
X177835771Y-148452381D01*
X177835771Y-148452381D02*
X177835771Y-148595238D01*
X177835771Y-148595238D02*
X177883390Y-148690476D01*
X177883390Y-148690476D02*
X177931009Y-148738095D01*
X177931009Y-148738095D02*
X178026247Y-148785714D01*
X178026247Y-148785714D02*
X178264342Y-148785714D01*
X178264342Y-148785714D02*
X178359580Y-148738095D01*
X178359580Y-148738095D02*
X178407200Y-148690476D01*
X178407200Y-148690476D02*
X178454819Y-148595238D01*
X178454819Y-148595238D02*
X178454819Y-148309524D01*
X178454819Y-148309524D02*
X178407200Y-148214286D01*
X178407200Y-148214286D02*
X178359580Y-148166667D01*
X161642857Y-145859580D02*
X161690476Y-145907200D01*
X161690476Y-145907200D02*
X161833333Y-145954819D01*
X161833333Y-145954819D02*
X161928571Y-145954819D01*
X161928571Y-145954819D02*
X162071428Y-145907200D01*
X162071428Y-145907200D02*
X162166666Y-145811961D01*
X162166666Y-145811961D02*
X162214285Y-145716723D01*
X162214285Y-145716723D02*
X162261904Y-145526247D01*
X162261904Y-145526247D02*
X162261904Y-145383390D01*
X162261904Y-145383390D02*
X162214285Y-145192914D01*
X162214285Y-145192914D02*
X162166666Y-145097676D01*
X162166666Y-145097676D02*
X162071428Y-145002438D01*
X162071428Y-145002438D02*
X161928571Y-144954819D01*
X161928571Y-144954819D02*
X161833333Y-144954819D01*
X161833333Y-144954819D02*
X161690476Y-145002438D01*
X161690476Y-145002438D02*
X161642857Y-145050057D01*
X160690476Y-145954819D02*
X161261904Y-145954819D01*
X160976190Y-145954819D02*
X160976190Y-144954819D01*
X160976190Y-144954819D02*
X161071428Y-145097676D01*
X161071428Y-145097676D02*
X161166666Y-145192914D01*
X161166666Y-145192914D02*
X161261904Y-145240533D01*
X159833333Y-145288152D02*
X159833333Y-145954819D01*
X160071428Y-144907200D02*
X160309523Y-145621485D01*
X160309523Y-145621485D02*
X159690476Y-145621485D01*
X158414285Y-145362295D02*
X158871428Y-145362295D01*
X158642856Y-145362295D02*
X158642856Y-144562295D01*
X158642856Y-144562295D02*
X158719047Y-144676580D01*
X158719047Y-144676580D02*
X158795237Y-144752771D01*
X158795237Y-144752771D02*
X158871428Y-144790866D01*
X157919046Y-144562295D02*
X157842856Y-144562295D01*
X157842856Y-144562295D02*
X157766665Y-144600390D01*
X157766665Y-144600390D02*
X157728570Y-144638485D01*
X157728570Y-144638485D02*
X157690475Y-144714676D01*
X157690475Y-144714676D02*
X157652380Y-144867057D01*
X157652380Y-144867057D02*
X157652380Y-145057533D01*
X157652380Y-145057533D02*
X157690475Y-145209914D01*
X157690475Y-145209914D02*
X157728570Y-145286104D01*
X157728570Y-145286104D02*
X157766665Y-145324200D01*
X157766665Y-145324200D02*
X157842856Y-145362295D01*
X157842856Y-145362295D02*
X157919046Y-145362295D01*
X157919046Y-145362295D02*
X157995237Y-145324200D01*
X157995237Y-145324200D02*
X158033332Y-145286104D01*
X158033332Y-145286104D02*
X158071427Y-145209914D01*
X158071427Y-145209914D02*
X158109523Y-145057533D01*
X158109523Y-145057533D02*
X158109523Y-144867057D01*
X158109523Y-144867057D02*
X158071427Y-144714676D01*
X158071427Y-144714676D02*
X158033332Y-144638485D01*
X158033332Y-144638485D02*
X157995237Y-144600390D01*
X157995237Y-144600390D02*
X157919046Y-144562295D01*
X157309522Y-144828961D02*
X157309522Y-145628961D01*
X156928570Y-145248009D02*
X156890475Y-145324200D01*
X156890475Y-145324200D02*
X156814284Y-145362295D01*
X157309522Y-145248009D02*
X157271427Y-145324200D01*
X157271427Y-145324200D02*
X157195237Y-145362295D01*
X157195237Y-145362295D02*
X157042856Y-145362295D01*
X157042856Y-145362295D02*
X156966665Y-145324200D01*
X156966665Y-145324200D02*
X156928570Y-145248009D01*
X156928570Y-145248009D02*
X156928570Y-144828961D01*
X156204761Y-144943247D02*
X156471427Y-144943247D01*
X156471427Y-145362295D02*
X156471427Y-144562295D01*
X156471427Y-144562295D02*
X156090475Y-144562295D01*
X127272080Y-86333333D02*
X127319700Y-86285714D01*
X127319700Y-86285714D02*
X127367319Y-86142857D01*
X127367319Y-86142857D02*
X127367319Y-86047619D01*
X127367319Y-86047619D02*
X127319700Y-85904762D01*
X127319700Y-85904762D02*
X127224461Y-85809524D01*
X127224461Y-85809524D02*
X127129223Y-85761905D01*
X127129223Y-85761905D02*
X126938747Y-85714286D01*
X126938747Y-85714286D02*
X126795890Y-85714286D01*
X126795890Y-85714286D02*
X126605414Y-85761905D01*
X126605414Y-85761905D02*
X126510176Y-85809524D01*
X126510176Y-85809524D02*
X126414938Y-85904762D01*
X126414938Y-85904762D02*
X126367319Y-86047619D01*
X126367319Y-86047619D02*
X126367319Y-86142857D01*
X126367319Y-86142857D02*
X126414938Y-86285714D01*
X126414938Y-86285714D02*
X126462557Y-86333333D01*
X126367319Y-86666667D02*
X126367319Y-87285714D01*
X126367319Y-87285714D02*
X126748271Y-86952381D01*
X126748271Y-86952381D02*
X126748271Y-87095238D01*
X126748271Y-87095238D02*
X126795890Y-87190476D01*
X126795890Y-87190476D02*
X126843509Y-87238095D01*
X126843509Y-87238095D02*
X126938747Y-87285714D01*
X126938747Y-87285714D02*
X127176842Y-87285714D01*
X127176842Y-87285714D02*
X127272080Y-87238095D01*
X127272080Y-87238095D02*
X127319700Y-87190476D01*
X127319700Y-87190476D02*
X127367319Y-87095238D01*
X127367319Y-87095238D02*
X127367319Y-86809524D01*
X127367319Y-86809524D02*
X127319700Y-86714286D01*
X127319700Y-86714286D02*
X127272080Y-86666667D01*
X128862295Y-85761904D02*
X128862295Y-85304761D01*
X128862295Y-85533333D02*
X128062295Y-85533333D01*
X128062295Y-85533333D02*
X128176580Y-85457142D01*
X128176580Y-85457142D02*
X128252771Y-85380952D01*
X128252771Y-85380952D02*
X128290866Y-85304761D01*
X128062295Y-86257143D02*
X128062295Y-86333333D01*
X128062295Y-86333333D02*
X128100390Y-86409524D01*
X128100390Y-86409524D02*
X128138485Y-86447619D01*
X128138485Y-86447619D02*
X128214676Y-86485714D01*
X128214676Y-86485714D02*
X128367057Y-86523809D01*
X128367057Y-86523809D02*
X128557533Y-86523809D01*
X128557533Y-86523809D02*
X128709914Y-86485714D01*
X128709914Y-86485714D02*
X128786104Y-86447619D01*
X128786104Y-86447619D02*
X128824200Y-86409524D01*
X128824200Y-86409524D02*
X128862295Y-86333333D01*
X128862295Y-86333333D02*
X128862295Y-86257143D01*
X128862295Y-86257143D02*
X128824200Y-86180952D01*
X128824200Y-86180952D02*
X128786104Y-86142857D01*
X128786104Y-86142857D02*
X128709914Y-86104762D01*
X128709914Y-86104762D02*
X128557533Y-86066666D01*
X128557533Y-86066666D02*
X128367057Y-86066666D01*
X128367057Y-86066666D02*
X128214676Y-86104762D01*
X128214676Y-86104762D02*
X128138485Y-86142857D01*
X128138485Y-86142857D02*
X128100390Y-86180952D01*
X128100390Y-86180952D02*
X128062295Y-86257143D01*
X128062295Y-87019048D02*
X128062295Y-87095238D01*
X128062295Y-87095238D02*
X128100390Y-87171429D01*
X128100390Y-87171429D02*
X128138485Y-87209524D01*
X128138485Y-87209524D02*
X128214676Y-87247619D01*
X128214676Y-87247619D02*
X128367057Y-87285714D01*
X128367057Y-87285714D02*
X128557533Y-87285714D01*
X128557533Y-87285714D02*
X128709914Y-87247619D01*
X128709914Y-87247619D02*
X128786104Y-87209524D01*
X128786104Y-87209524D02*
X128824200Y-87171429D01*
X128824200Y-87171429D02*
X128862295Y-87095238D01*
X128862295Y-87095238D02*
X128862295Y-87019048D01*
X128862295Y-87019048D02*
X128824200Y-86942857D01*
X128824200Y-86942857D02*
X128786104Y-86904762D01*
X128786104Y-86904762D02*
X128709914Y-86866667D01*
X128709914Y-86866667D02*
X128557533Y-86828571D01*
X128557533Y-86828571D02*
X128367057Y-86828571D01*
X128367057Y-86828571D02*
X128214676Y-86866667D01*
X128214676Y-86866667D02*
X128138485Y-86904762D01*
X128138485Y-86904762D02*
X128100390Y-86942857D01*
X128100390Y-86942857D02*
X128062295Y-87019048D01*
X128328961Y-87628572D02*
X128862295Y-87628572D01*
X128405152Y-87628572D02*
X128367057Y-87666667D01*
X128367057Y-87666667D02*
X128328961Y-87742857D01*
X128328961Y-87742857D02*
X128328961Y-87857143D01*
X128328961Y-87857143D02*
X128367057Y-87933334D01*
X128367057Y-87933334D02*
X128443247Y-87971429D01*
X128443247Y-87971429D02*
X128862295Y-87971429D01*
X128443247Y-88619048D02*
X128443247Y-88352382D01*
X128862295Y-88352382D02*
X128062295Y-88352382D01*
X128062295Y-88352382D02*
X128062295Y-88733334D01*
D13*
%TO.C,C19*%
X96761252Y-134765000D02*
X96238748Y-134765000D01*
X96761252Y-136235000D02*
X96238748Y-136235000D01*
%TO.C,C18*%
X182765000Y-133238748D02*
X182765000Y-133761252D01*
X184235000Y-133238748D02*
X184235000Y-133761252D01*
%TO.C,C17*%
X179261252Y-135765000D02*
X178738748Y-135765000D01*
X179261252Y-137235000D02*
X178738748Y-137235000D01*
%TO.C,C12*%
X74531252Y-113265000D02*
X74008748Y-113265000D01*
X74531252Y-114735000D02*
X74008748Y-114735000D01*
%TO.C,C1*%
X169677500Y-89738748D02*
X169677500Y-90261252D01*
X171147500Y-89738748D02*
X171147500Y-90261252D01*
%TO.C,C10*%
X176265000Y-132761252D02*
X176265000Y-132238748D01*
X177735000Y-132761252D02*
X177735000Y-132238748D01*
%TO.C,C5*%
X169677500Y-110738748D02*
X169677500Y-111261252D01*
X171147500Y-110738748D02*
X171147500Y-111261252D01*
%TO.C,C2*%
X147677500Y-89738748D02*
X147677500Y-90261252D01*
X149147500Y-89738748D02*
X149147500Y-90261252D01*
%TO.C,C13*%
X89761252Y-140765000D02*
X89238748Y-140765000D01*
X89761252Y-142235000D02*
X89238748Y-142235000D01*
%TO.C,C11*%
X74531252Y-90265000D02*
X74008748Y-90265000D01*
X74531252Y-91735000D02*
X74008748Y-91735000D01*
%TO.C,C6*%
X147677500Y-110738748D02*
X147677500Y-111261252D01*
X149147500Y-110738748D02*
X149147500Y-111261252D01*
%TO.C,R2*%
X180265000Y-144389564D02*
X180265000Y-143935436D01*
X181735000Y-144389564D02*
X181735000Y-143935436D01*
%TO.C,C7*%
X126177500Y-110738748D02*
X126177500Y-111261252D01*
X127647500Y-110738748D02*
X127647500Y-111261252D01*
%TO.C,C8*%
X104677500Y-110738748D02*
X104677500Y-111261252D01*
X106147500Y-110738748D02*
X106147500Y-111261252D01*
%TO.C,R4*%
X183265000Y-144389564D02*
X183265000Y-143935436D01*
X184735000Y-144389564D02*
X184735000Y-143935436D01*
%TO.C,C15*%
X145173752Y-99765000D02*
X144651248Y-99765000D01*
X145173752Y-101235000D02*
X144651248Y-101235000D01*
%TO.C,C9*%
X180738748Y-129265000D02*
X181261252Y-129265000D01*
X180738748Y-130735000D02*
X181261252Y-130735000D01*
%TO.C,C16*%
X100673752Y-99765000D02*
X100151248Y-99765000D01*
X100673752Y-101235000D02*
X100151248Y-101235000D01*
%TO.C,C4*%
X104677500Y-89688748D02*
X104677500Y-90211252D01*
X106147500Y-89688748D02*
X106147500Y-90211252D01*
%TO.C,R3*%
X177265000Y-143935436D02*
X177265000Y-144389564D01*
X178735000Y-143935436D02*
X178735000Y-144389564D01*
%TO.C,C14*%
X160738748Y-146765000D02*
X161261252Y-146765000D01*
X160738748Y-148235000D02*
X161261252Y-148235000D01*
%TO.C,C3*%
X126177500Y-89738748D02*
X126177500Y-90261252D01*
X127647500Y-89738748D02*
X127647500Y-90261252D01*
%TD*%
M02*
