M48
; DRILL file {KiCad 9.0.8} date 2026-07-10T12:56:19-0400
; FORMAT={-:-/ absolute / metric / decimal}
; #@! TF.CreationDate,2026-07-10T12:56:19-04:00
; #@! TF.GenerationSoftware,Kicad,Pcbnew,9.0.8
; #@! TF.FileFunction,Plated,1,4,PTH
FMAT,2
METRIC
; #@! TA.AperFunction,Plated,PTH,ViaDrill
T1C0.300
; #@! TA.AperFunction,Plated,PTH,ComponentDrill
T2C0.710
; #@! TA.AperFunction,Plated,PTH,ComponentDrill
T3C1.000
; #@! TA.AperFunction,Plated,PTH,ComponentDrill
T4C1.200
%
G90
G05
T1
X72.27Y-91.0
X72.27Y-114.0
X75.27Y-115.5
X76.77Y-89.5
X80.942Y-102.339
X82.183Y-102.351
X83.653Y-102.351
X84.54Y-102.351
X85.81Y-102.345
X87.467Y-137.05
X87.5Y-141.5
X88.77Y-102.5
X88.77Y-125.5
X89.628Y-105.906
X89.899Y-94.214
X91.5Y-141.5
X92.913Y-91.2
X93.387Y-134.102
X94.5Y-135.5
X95.11Y-145.602
X95.114Y-132.737
X95.5Y-137.5
X95.812Y-131.304
X98.412Y-100.5
X98.688Y-135.111
X100.234Y-110.229
X100.327Y-135.676
X102.412Y-100.5
X102.484Y-81.6
X103.291Y-123.414
X103.469Y-113.264
X103.739Y-114.676
X103.971Y-84.441
X104.36Y-110.838
X104.504Y-83.833
X104.874Y-114.053
X104.882Y-118.908
X105.219Y-86.444
X105.621Y-87.962
X105.722Y-85.083
X106.02Y-86.242
X106.112Y-114.68
X106.134Y-104.466
X106.179Y-105.509
X106.412Y-89.5
X106.412Y-90.5
X106.534Y-82.4
X106.538Y-87.085
X106.65Y-110.5
X106.65Y-111.5
X106.759Y-101.996
X107.735Y-122.325
X109.108Y-84.947
X109.114Y-103.271
X109.273Y-109.0
X109.625Y-119.384
X109.626Y-104.2
X109.685Y-117.26
X110.122Y-144.955
X110.239Y-99.942
X110.275Y-105.475
X110.525Y-112.364
X110.612Y-115.764
X111.171Y-118.444
X111.325Y-114.072
X111.408Y-140.483
X111.41Y-92.601
X111.418Y-111.29
X111.501Y-104.978
X111.829Y-117.386
X112.284Y-85.845
X112.55Y-116.997
X113.015Y-93.033
X113.136Y-111.281
X113.307Y-124.724
X113.374Y-112.087
X113.435Y-88.8
X113.568Y-83.939
X113.743Y-123.334
X114.044Y-93.784
X114.142Y-89.838
X114.404Y-106.732
X114.44Y-104.381
X114.474Y-110.428
X114.558Y-111.253
X114.777Y-139.565
X114.828Y-106.019
X114.864Y-88.0
X114.918Y-116.381
X114.933Y-122.316
X115.018Y-117.988
X115.08Y-113.266
X115.185Y-137.138
X115.241Y-94.386
X115.283Y-96.594
X115.468Y-118.921
X115.565Y-97.398
X115.82Y-117.754
X115.824Y-113.657
X116.045Y-105.906
X116.207Y-109.563
X116.272Y-120.595
X116.667Y-86.982
X117.024Y-117.96
X117.104Y-125.23
X117.136Y-119.621
X117.171Y-114.121
X117.5Y-84.5
X117.5Y-89.5
X117.5Y-90.5
X117.5Y-106.0
X117.5Y-110.5
X117.5Y-111.5
X117.597Y-81.262
X117.717Y-108.601
X120.183Y-133.5
X120.267Y-88.8
X120.268Y-131.304
X120.27Y-104.331
X120.363Y-109.377
X120.448Y-103.45
X120.674Y-129.514
X120.681Y-89.603
X120.768Y-111.587
X120.772Y-135.111
X120.823Y-92.0
X120.825Y-94.4
X120.845Y-83.388
X121.581Y-112.2
X122.052Y-127.654
X122.08Y-85.6
X122.28Y-108.497
X122.614Y-114.295
X122.954Y-85.596
X122.955Y-109.791
X123.088Y-128.508
X123.966Y-84.171
X124.787Y-105.355
X124.862Y-86.036
X125.267Y-97.6
X125.343Y-115.833
X125.354Y-99.614
X125.537Y-90.215
X126.394Y-119.123
X126.945Y-95.2
X127.133Y-87.207
X127.606Y-106.588
X127.606Y-107.781
X127.616Y-115.51
X127.621Y-117.0
X127.774Y-102.021
X127.911Y-87.988
X127.912Y-89.5
X127.912Y-90.5
X127.912Y-110.5
X127.912Y-111.5
X127.936Y-118.681
X128.041Y-82.347
X128.051Y-105.8
X128.052Y-119.725
X128.056Y-112.595
X129.92Y-127.064
X130.592Y-95.2
X130.596Y-83.579
X130.604Y-93.153
X130.607Y-81.816
X130.628Y-90.705
X130.652Y-86.557
X130.797Y-115.454
X130.831Y-105.02
X131.028Y-108.343
X131.123Y-106.432
X131.145Y-96.726
X131.251Y-113.045
X131.589Y-88.584
X131.814Y-105.232
X131.836Y-97.416
X131.899Y-116.939
X132.478Y-105.895
X132.682Y-100.177
X133.976Y-81.579
X134.375Y-104.341
X134.377Y-106.911
X135.057Y-137.357
X135.391Y-108.744
X135.537Y-84.548
X135.874Y-110.893
X135.915Y-89.185
X135.917Y-98.4
X136.661Y-108.733
X136.843Y-101.904
X136.932Y-100.124
X137.103Y-100.974
X137.501Y-114.988
X137.999Y-92.0
X138.964Y-105.182
X139.0Y-84.5
X139.0Y-89.5
X139.0Y-90.5
X139.0Y-106.0
X139.0Y-110.5
X139.0Y-111.5
X139.195Y-94.4
X139.218Y-116.875
X139.22Y-91.307
X139.223Y-82.4
X139.229Y-95.85
X139.231Y-96.8
X139.235Y-88.65
X139.438Y-99.007
X140.283Y-99.754
X141.783Y-92.0
X142.186Y-88.589
X142.214Y-84.624
X142.221Y-93.84
X142.226Y-90.698
X142.51Y-146.731
X142.912Y-100.5
X143.217Y-87.343
X143.427Y-93.279
X143.437Y-94.4
X143.733Y-91.305
X144.831Y-112.2
X144.901Y-113.121
X145.199Y-104.2
X145.684Y-103.4
X145.979Y-86.295
X146.536Y-116.538
X146.912Y-100.5
X146.986Y-106.178
X147.235Y-118.28
X147.4Y-86.697
X147.477Y-120.281
X147.636Y-104.259
X147.775Y-109.0
X147.786Y-116.2
X147.792Y-114.993
X148.505Y-82.182
X148.541Y-86.697
X149.016Y-99.381
X149.036Y-96.8
X149.05Y-118.682
X149.147Y-115.596
X149.229Y-107.753
X149.284Y-120.234
X149.412Y-89.5
X149.412Y-90.5
X149.412Y-110.5
X149.412Y-111.5
X149.466Y-119.4
X149.52Y-82.4
X149.526Y-86.467
X149.558Y-96.0
X149.838Y-99.212
X150.613Y-101.699
X152.091Y-112.2
X152.119Y-84.789
X152.12Y-109.0
X152.127Y-116.2
X152.128Y-102.475
X152.148Y-83.988
X152.528Y-112.985
X152.528Y-104.244
X152.682Y-118.109
X152.713Y-81.941
X152.813Y-119.102
X153.234Y-115.497
X153.888Y-88.002
X153.91Y-103.571
X154.035Y-97.052
X154.194Y-91.174
X154.388Y-92.0
X154.404Y-120.757
X154.42Y-98.295
X154.637Y-99.825
X154.772Y-118.651
X155.072Y-104.095
X155.243Y-102.416
X155.571Y-88.8
X156.028Y-98.871
X156.814Y-118.249
X157.418Y-105.303
X157.529Y-116.978
X157.685Y-83.535
X157.876Y-84.738
X158.059Y-122.117
X158.087Y-109.8
X158.213Y-117.647
X158.857Y-105.91
X158.892Y-83.535
X159.0Y-147.5
X159.694Y-83.535
X160.137Y-119.712
X160.5Y-84.5
X160.5Y-89.5
X160.5Y-90.5
X160.5Y-105.5
X160.5Y-110.5
X160.5Y-111.5
X160.701Y-85.647
X160.732Y-106.739
X160.732Y-114.728
X160.802Y-141.828
X161.661Y-101.6
X163.136Y-99.724
X163.265Y-117.855
X163.35Y-107.44
X163.411Y-116.572
X163.466Y-84.8
X163.5Y-147.5
X163.583Y-93.288
X163.709Y-90.353
X163.816Y-89.305
X163.897Y-81.575
X164.135Y-88.0
X164.136Y-92.365
X164.705Y-99.424
X165.407Y-84.063
X165.507Y-93.528
X165.899Y-85.599
X165.995Y-117.985
X166.364Y-95.255
X166.431Y-82.311
X166.647Y-106.41
X166.712Y-98.4
X166.746Y-96.008
X167.28Y-97.43
X167.327Y-113.0
X167.348Y-92.41
X167.436Y-109.8
X167.872Y-112.2
X168.253Y-83.334
X168.254Y-90.266
X168.353Y-99.123
X168.41Y-96.793
X168.424Y-119.784
X168.581Y-109.0
X168.658Y-91.71
X168.853Y-90.903
X168.911Y-88.65
X168.99Y-106.089
X169.364Y-99.804
X169.368Y-117.254
X169.38Y-101.038
X170.213Y-82.401
X170.619Y-105.8
X170.619Y-120.811
X170.641Y-104.997
X170.642Y-106.889
X171.298Y-99.992
X171.412Y-89.5
X171.412Y-90.5
X171.412Y-110.5
X171.512Y-111.4
X171.515Y-117.6
X171.541Y-94.4
X171.546Y-86.2
X171.558Y-87.1
X171.581Y-120.111
X171.643Y-100.781
X172.205Y-100.209
X172.5Y-139.5
X172.5Y-148.5
X174.091Y-83.822
X174.111Y-104.953
X174.115Y-109.501
X174.119Y-112.038
X174.12Y-92.0
X174.257Y-124.122
X174.269Y-94.4
X174.3Y-114.646
X174.361Y-125.029
X174.454Y-115.481
X174.46Y-88.8
X174.474Y-91.2
X174.487Y-87.977
X174.725Y-117.549
X175.096Y-125.839
X175.378Y-139.428
X175.395Y-96.379
X175.452Y-81.6
X175.5Y-73.5
X175.858Y-87.362
X176.0Y-131.0
X176.0Y-134.5
X176.406Y-117.202
X176.922Y-102.709
X176.963Y-140.41
X177.018Y-130.424
X177.04Y-129.188
X177.122Y-107.007
X177.703Y-115.709
X177.948Y-96.8
X177.981Y-112.242
X178.0Y-146.5
X178.022Y-113.044
X178.399Y-109.911
X178.5Y-138.0
X178.956Y-110.488
X179.099Y-118.24
X179.141Y-114.977
X179.5Y-129.0
X179.5Y-138.0
X179.585Y-131.651
X179.772Y-106.6
X179.871Y-103.908
X180.401Y-117.8
X180.407Y-115.947
X180.41Y-115.038
X180.451Y-140.425
X180.963Y-126.58
X181.0Y-146.5
X182.198Y-126.575
X182.255Y-96.217
X182.308Y-85.318
X182.5Y-84.5
X182.5Y-89.5
X182.5Y-90.5
X182.5Y-105.5
X182.5Y-110.5
X182.5Y-111.5
X182.5Y-138.0
X182.724Y-95.202
X182.917Y-99.005
X183.001Y-129.002
X184.0Y-146.5
X184.5Y-133.0
X184.5Y-134.5
X184.718Y-120.18
X184.759Y-126.762
X184.972Y-139.16
X185.279Y-84.0
X185.281Y-116.098
X185.287Y-118.6
X185.559Y-110.95
X186.912Y-104.2
X187.074Y-131.219
X187.453Y-127.172
X187.532Y-105.55
T2
X95.52Y-139.565
X95.52Y-147.435
X98.06Y-139.565
X98.06Y-147.435
X100.6Y-139.565
X100.6Y-147.435
X103.14Y-139.565
X103.14Y-147.435
X105.68Y-139.565
X105.68Y-147.435
X108.22Y-139.565
X108.22Y-147.435
X110.76Y-139.565
X110.76Y-147.435
X113.3Y-139.565
X113.3Y-147.435
X115.84Y-139.565
X115.84Y-147.435
X118.38Y-139.565
X118.38Y-147.435
X120.92Y-139.565
X120.92Y-147.435
X123.46Y-139.565
X123.46Y-147.435
X126.0Y-139.565
X126.0Y-147.435
X128.54Y-139.565
X128.54Y-147.435
X131.08Y-139.565
X131.08Y-147.435
X133.62Y-139.565
X133.62Y-147.435
X136.16Y-139.565
X136.16Y-147.435
X138.7Y-139.565
X138.7Y-147.435
X141.24Y-139.565
X141.24Y-147.435
X143.78Y-139.565
X143.78Y-147.435
X146.32Y-139.565
X146.32Y-147.435
X148.86Y-139.565
X148.86Y-147.435
X151.4Y-139.565
X151.4Y-147.435
X153.94Y-139.565
X153.94Y-147.435
X156.48Y-139.565
X156.48Y-147.435
T3
X143.8Y-130.0
X146.34Y-130.0
X148.88Y-130.0
X151.42Y-130.0
X153.96Y-130.0
X156.5Y-130.0
X183.5Y-73.5
X186.04Y-73.5
T4
X71.0Y-125.0
M30
