%TF.GenerationSoftware,KiCad,Pcbnew,9.0.8*%
%TF.CreationDate,2026-07-10T12:56:16-04:00*%
%TF.ProjectId,PortableRAM-8MB,506f7274-6162-46c6-9552-414d2d384d42,2.0*%
%TF.SameCoordinates,Original*%
%TF.FileFunction,Legend,Top*%
%TF.FilePolarity,Positive*%
%FSLAX46Y46*%
G04 Gerber Fmt 4.6, Leading zero omitted, Abs format (unit mm)*
G04 Created by KiCad (PCBNEW 9.0.8) date 2026-07-10 12:56:16*
%MOMM*%
%LPD*%
G01*
G04 APERTURE LIST*
%ADD10C,0.200000*%
%ADD11C,0.120000*%
%ADD12C,0.150000*%
%ADD13C,0.250000*%
%ADD14C,0.180000*%
%ADD15C,0.300000*%
G04 APERTURE END LIST*
D10*
X104750000Y-79500000D02*
X186250000Y-79500000D01*
X186250000Y-123500000D01*
X104750000Y-123500000D01*
X104750000Y-79500000D01*
X105750000Y-80000000D02*
X142250000Y-80000000D01*
X142250000Y-123000000D01*
X105750000Y-123000000D01*
X105750000Y-80000000D01*
D11*
X131242856Y-121563855D02*
X131242856Y-122135283D01*
X131242856Y-122135283D02*
X131204761Y-122249569D01*
X131204761Y-122249569D02*
X131128570Y-122325760D01*
X131128570Y-122325760D02*
X131014285Y-122363855D01*
X131014285Y-122363855D02*
X130938094Y-122363855D01*
X131623809Y-122363855D02*
X131623809Y-121563855D01*
X131623809Y-121563855D02*
X131928571Y-121563855D01*
X131928571Y-121563855D02*
X132004761Y-121601950D01*
X132004761Y-121601950D02*
X132042856Y-121640045D01*
X132042856Y-121640045D02*
X132080952Y-121716236D01*
X132080952Y-121716236D02*
X132080952Y-121830521D01*
X132080952Y-121830521D02*
X132042856Y-121906712D01*
X132042856Y-121906712D02*
X132004761Y-121944807D01*
X132004761Y-121944807D02*
X131928571Y-121982902D01*
X131928571Y-121982902D02*
X131623809Y-121982902D01*
X132842856Y-122363855D02*
X132385713Y-122363855D01*
X132614285Y-122363855D02*
X132614285Y-121563855D01*
X132614285Y-121563855D02*
X132538094Y-121678140D01*
X132538094Y-121678140D02*
X132461904Y-121754331D01*
X132461904Y-121754331D02*
X132385713Y-121792426D01*
X134252381Y-122287664D02*
X134214285Y-122325760D01*
X134214285Y-122325760D02*
X134100000Y-122363855D01*
X134100000Y-122363855D02*
X134023809Y-122363855D01*
X134023809Y-122363855D02*
X133909523Y-122325760D01*
X133909523Y-122325760D02*
X133833333Y-122249569D01*
X133833333Y-122249569D02*
X133795238Y-122173379D01*
X133795238Y-122173379D02*
X133757142Y-122020998D01*
X133757142Y-122020998D02*
X133757142Y-121906712D01*
X133757142Y-121906712D02*
X133795238Y-121754331D01*
X133795238Y-121754331D02*
X133833333Y-121678140D01*
X133833333Y-121678140D02*
X133909523Y-121601950D01*
X133909523Y-121601950D02*
X134023809Y-121563855D01*
X134023809Y-121563855D02*
X134100000Y-121563855D01*
X134100000Y-121563855D02*
X134214285Y-121601950D01*
X134214285Y-121601950D02*
X134252381Y-121640045D01*
X134976190Y-122363855D02*
X134595238Y-122363855D01*
X134595238Y-122363855D02*
X134595238Y-121563855D01*
X135395238Y-121563855D02*
X135547619Y-121563855D01*
X135547619Y-121563855D02*
X135623809Y-121601950D01*
X135623809Y-121601950D02*
X135700000Y-121678140D01*
X135700000Y-121678140D02*
X135738095Y-121830521D01*
X135738095Y-121830521D02*
X135738095Y-122097188D01*
X135738095Y-122097188D02*
X135700000Y-122249569D01*
X135700000Y-122249569D02*
X135623809Y-122325760D01*
X135623809Y-122325760D02*
X135547619Y-122363855D01*
X135547619Y-122363855D02*
X135395238Y-122363855D01*
X135395238Y-122363855D02*
X135319047Y-122325760D01*
X135319047Y-122325760D02*
X135242857Y-122249569D01*
X135242857Y-122249569D02*
X135204761Y-122097188D01*
X135204761Y-122097188D02*
X135204761Y-121830521D01*
X135204761Y-121830521D02*
X135242857Y-121678140D01*
X135242857Y-121678140D02*
X135319047Y-121601950D01*
X135319047Y-121601950D02*
X135395238Y-121563855D01*
X136042856Y-122325760D02*
X136157142Y-122363855D01*
X136157142Y-122363855D02*
X136347618Y-122363855D01*
X136347618Y-122363855D02*
X136423809Y-122325760D01*
X136423809Y-122325760D02*
X136461904Y-122287664D01*
X136461904Y-122287664D02*
X136499999Y-122211474D01*
X136499999Y-122211474D02*
X136499999Y-122135283D01*
X136499999Y-122135283D02*
X136461904Y-122059093D01*
X136461904Y-122059093D02*
X136423809Y-122020998D01*
X136423809Y-122020998D02*
X136347618Y-121982902D01*
X136347618Y-121982902D02*
X136195237Y-121944807D01*
X136195237Y-121944807D02*
X136119047Y-121906712D01*
X136119047Y-121906712D02*
X136080952Y-121868617D01*
X136080952Y-121868617D02*
X136042856Y-121792426D01*
X136042856Y-121792426D02*
X136042856Y-121716236D01*
X136042856Y-121716236D02*
X136080952Y-121640045D01*
X136080952Y-121640045D02*
X136119047Y-121601950D01*
X136119047Y-121601950D02*
X136195237Y-121563855D01*
X136195237Y-121563855D02*
X136385714Y-121563855D01*
X136385714Y-121563855D02*
X136499999Y-121601950D01*
X136842857Y-121944807D02*
X137109523Y-121944807D01*
X137223809Y-122363855D02*
X136842857Y-122363855D01*
X136842857Y-122363855D02*
X136842857Y-121563855D01*
X136842857Y-121563855D02*
X137223809Y-121563855D01*
X137566667Y-122363855D02*
X137566667Y-121563855D01*
X137566667Y-121563855D02*
X137757143Y-121563855D01*
X137757143Y-121563855D02*
X137871429Y-121601950D01*
X137871429Y-121601950D02*
X137947619Y-121678140D01*
X137947619Y-121678140D02*
X137985714Y-121754331D01*
X137985714Y-121754331D02*
X138023810Y-121906712D01*
X138023810Y-121906712D02*
X138023810Y-122020998D01*
X138023810Y-122020998D02*
X137985714Y-122173379D01*
X137985714Y-122173379D02*
X137947619Y-122249569D01*
X137947619Y-122249569D02*
X137871429Y-122325760D01*
X137871429Y-122325760D02*
X137757143Y-122363855D01*
X137757143Y-122363855D02*
X137566667Y-122363855D01*
X143390476Y-132601950D02*
X143314286Y-132563855D01*
X143314286Y-132563855D02*
X143200000Y-132563855D01*
X143200000Y-132563855D02*
X143085714Y-132601950D01*
X143085714Y-132601950D02*
X143009524Y-132678140D01*
X143009524Y-132678140D02*
X142971429Y-132754331D01*
X142971429Y-132754331D02*
X142933333Y-132906712D01*
X142933333Y-132906712D02*
X142933333Y-133020998D01*
X142933333Y-133020998D02*
X142971429Y-133173379D01*
X142971429Y-133173379D02*
X143009524Y-133249569D01*
X143009524Y-133249569D02*
X143085714Y-133325760D01*
X143085714Y-133325760D02*
X143200000Y-133363855D01*
X143200000Y-133363855D02*
X143276191Y-133363855D01*
X143276191Y-133363855D02*
X143390476Y-133325760D01*
X143390476Y-133325760D02*
X143428572Y-133287664D01*
X143428572Y-133287664D02*
X143428572Y-133020998D01*
X143428572Y-133020998D02*
X143276191Y-133020998D01*
X143771429Y-133363855D02*
X143771429Y-132563855D01*
X143771429Y-132563855D02*
X144228572Y-133363855D01*
X144228572Y-133363855D02*
X144228572Y-132563855D01*
X144609524Y-133363855D02*
X144609524Y-132563855D01*
X144609524Y-132563855D02*
X144800000Y-132563855D01*
X144800000Y-132563855D02*
X144914286Y-132601950D01*
X144914286Y-132601950D02*
X144990476Y-132678140D01*
X144990476Y-132678140D02*
X145028571Y-132754331D01*
X145028571Y-132754331D02*
X145066667Y-132906712D01*
X145066667Y-132906712D02*
X145066667Y-133020998D01*
X145066667Y-133020998D02*
X145028571Y-133173379D01*
X145028571Y-133173379D02*
X144990476Y-133249569D01*
X144990476Y-133249569D02*
X144914286Y-133325760D01*
X144914286Y-133325760D02*
X144800000Y-133363855D01*
X144800000Y-133363855D02*
X144609524Y-133363855D01*
X145433333Y-132563855D02*
X145700000Y-133363855D01*
X145700000Y-133363855D02*
X145966666Y-132563855D01*
X146690476Y-133287664D02*
X146652380Y-133325760D01*
X146652380Y-133325760D02*
X146538095Y-133363855D01*
X146538095Y-133363855D02*
X146461904Y-133363855D01*
X146461904Y-133363855D02*
X146347618Y-133325760D01*
X146347618Y-133325760D02*
X146271428Y-133249569D01*
X146271428Y-133249569D02*
X146233333Y-133173379D01*
X146233333Y-133173379D02*
X146195237Y-133020998D01*
X146195237Y-133020998D02*
X146195237Y-132906712D01*
X146195237Y-132906712D02*
X146233333Y-132754331D01*
X146233333Y-132754331D02*
X146271428Y-132678140D01*
X146271428Y-132678140D02*
X146347618Y-132601950D01*
X146347618Y-132601950D02*
X146461904Y-132563855D01*
X146461904Y-132563855D02*
X146538095Y-132563855D01*
X146538095Y-132563855D02*
X146652380Y-132601950D01*
X146652380Y-132601950D02*
X146690476Y-132640045D01*
X147490476Y-133287664D02*
X147452380Y-133325760D01*
X147452380Y-133325760D02*
X147338095Y-133363855D01*
X147338095Y-133363855D02*
X147261904Y-133363855D01*
X147261904Y-133363855D02*
X147147618Y-133325760D01*
X147147618Y-133325760D02*
X147071428Y-133249569D01*
X147071428Y-133249569D02*
X147033333Y-133173379D01*
X147033333Y-133173379D02*
X146995237Y-133020998D01*
X146995237Y-133020998D02*
X146995237Y-132906712D01*
X146995237Y-132906712D02*
X147033333Y-132754331D01*
X147033333Y-132754331D02*
X147071428Y-132678140D01*
X147071428Y-132678140D02*
X147147618Y-132601950D01*
X147147618Y-132601950D02*
X147261904Y-132563855D01*
X147261904Y-132563855D02*
X147338095Y-132563855D01*
X147338095Y-132563855D02*
X147452380Y-132601950D01*
X147452380Y-132601950D02*
X147490476Y-132640045D01*
X147952381Y-132563855D02*
X148409524Y-132563855D01*
X148180952Y-133363855D02*
X148180952Y-132563855D01*
X148676191Y-133363855D02*
X148676191Y-132563855D01*
X148676191Y-132563855D02*
X148866667Y-132563855D01*
X148866667Y-132563855D02*
X148980953Y-132601950D01*
X148980953Y-132601950D02*
X149057143Y-132678140D01*
X149057143Y-132678140D02*
X149095238Y-132754331D01*
X149095238Y-132754331D02*
X149133334Y-132906712D01*
X149133334Y-132906712D02*
X149133334Y-133020998D01*
X149133334Y-133020998D02*
X149095238Y-133173379D01*
X149095238Y-133173379D02*
X149057143Y-133249569D01*
X149057143Y-133249569D02*
X148980953Y-133325760D01*
X148980953Y-133325760D02*
X148866667Y-133363855D01*
X148866667Y-133363855D02*
X148676191Y-133363855D01*
X149628572Y-132563855D02*
X149780953Y-132563855D01*
X149780953Y-132563855D02*
X149857143Y-132601950D01*
X149857143Y-132601950D02*
X149933334Y-132678140D01*
X149933334Y-132678140D02*
X149971429Y-132830521D01*
X149971429Y-132830521D02*
X149971429Y-133097188D01*
X149971429Y-133097188D02*
X149933334Y-133249569D01*
X149933334Y-133249569D02*
X149857143Y-133325760D01*
X149857143Y-133325760D02*
X149780953Y-133363855D01*
X149780953Y-133363855D02*
X149628572Y-133363855D01*
X149628572Y-133363855D02*
X149552381Y-133325760D01*
X149552381Y-133325760D02*
X149476191Y-133249569D01*
X149476191Y-133249569D02*
X149438095Y-133097188D01*
X149438095Y-133097188D02*
X149438095Y-132830521D01*
X149438095Y-132830521D02*
X149476191Y-132678140D01*
X149476191Y-132678140D02*
X149552381Y-132601950D01*
X149552381Y-132601950D02*
X149628572Y-132563855D01*
X150680952Y-132563855D02*
X151138095Y-132563855D01*
X150909523Y-133363855D02*
X150909523Y-132563855D01*
X151404762Y-133363855D02*
X151404762Y-132563855D01*
X151404762Y-132563855D02*
X151595238Y-132563855D01*
X151595238Y-132563855D02*
X151709524Y-132601950D01*
X151709524Y-132601950D02*
X151785714Y-132678140D01*
X151785714Y-132678140D02*
X151823809Y-132754331D01*
X151823809Y-132754331D02*
X151861905Y-132906712D01*
X151861905Y-132906712D02*
X151861905Y-133020998D01*
X151861905Y-133020998D02*
X151823809Y-133173379D01*
X151823809Y-133173379D02*
X151785714Y-133249569D01*
X151785714Y-133249569D02*
X151709524Y-133325760D01*
X151709524Y-133325760D02*
X151595238Y-133363855D01*
X151595238Y-133363855D02*
X151404762Y-133363855D01*
X152204762Y-133363855D02*
X152204762Y-132563855D01*
X152933333Y-132563855D02*
X153390476Y-132563855D01*
X153161904Y-133363855D02*
X153161904Y-132563855D01*
X153657143Y-133363855D02*
X153657143Y-132563855D01*
X153657143Y-132563855D02*
X153923809Y-133135283D01*
X153923809Y-133135283D02*
X154190476Y-132563855D01*
X154190476Y-132563855D02*
X154190476Y-133363855D01*
X154533333Y-133325760D02*
X154647619Y-133363855D01*
X154647619Y-133363855D02*
X154838095Y-133363855D01*
X154838095Y-133363855D02*
X154914286Y-133325760D01*
X154914286Y-133325760D02*
X154952381Y-133287664D01*
X154952381Y-133287664D02*
X154990476Y-133211474D01*
X154990476Y-133211474D02*
X154990476Y-133135283D01*
X154990476Y-133135283D02*
X154952381Y-133059093D01*
X154952381Y-133059093D02*
X154914286Y-133020998D01*
X154914286Y-133020998D02*
X154838095Y-132982902D01*
X154838095Y-132982902D02*
X154685714Y-132944807D01*
X154685714Y-132944807D02*
X154609524Y-132906712D01*
X154609524Y-132906712D02*
X154571429Y-132868617D01*
X154571429Y-132868617D02*
X154533333Y-132792426D01*
X154533333Y-132792426D02*
X154533333Y-132716236D01*
X154533333Y-132716236D02*
X154571429Y-132640045D01*
X154571429Y-132640045D02*
X154609524Y-132601950D01*
X154609524Y-132601950D02*
X154685714Y-132563855D01*
X154685714Y-132563855D02*
X154876191Y-132563855D01*
X154876191Y-132563855D02*
X154990476Y-132601950D01*
X156728571Y-132163855D02*
X156271428Y-132163855D01*
X156500000Y-132163855D02*
X156500000Y-131363855D01*
X156500000Y-131363855D02*
X156423809Y-131478140D01*
X156423809Y-131478140D02*
X156347619Y-131554331D01*
X156347619Y-131554331D02*
X156271428Y-131592426D01*
X155471428Y-132763855D02*
X155928571Y-132763855D01*
X155699999Y-133563855D02*
X155699999Y-132763855D01*
X156652381Y-133487664D02*
X156614285Y-133525760D01*
X156614285Y-133525760D02*
X156500000Y-133563855D01*
X156500000Y-133563855D02*
X156423809Y-133563855D01*
X156423809Y-133563855D02*
X156309523Y-133525760D01*
X156309523Y-133525760D02*
X156233333Y-133449569D01*
X156233333Y-133449569D02*
X156195238Y-133373379D01*
X156195238Y-133373379D02*
X156157142Y-133220998D01*
X156157142Y-133220998D02*
X156157142Y-133106712D01*
X156157142Y-133106712D02*
X156195238Y-132954331D01*
X156195238Y-132954331D02*
X156233333Y-132878140D01*
X156233333Y-132878140D02*
X156309523Y-132801950D01*
X156309523Y-132801950D02*
X156423809Y-132763855D01*
X156423809Y-132763855D02*
X156500000Y-132763855D01*
X156500000Y-132763855D02*
X156614285Y-132801950D01*
X156614285Y-132801950D02*
X156652381Y-132840045D01*
X156995238Y-133563855D02*
X156995238Y-132763855D01*
X157452381Y-133563855D02*
X157109523Y-133106712D01*
X157452381Y-132763855D02*
X156995238Y-133220998D01*
X175928571Y-121563855D02*
X175928571Y-122135283D01*
X175928571Y-122135283D02*
X175890476Y-122249569D01*
X175890476Y-122249569D02*
X175814285Y-122325760D01*
X175814285Y-122325760D02*
X175700000Y-122363855D01*
X175700000Y-122363855D02*
X175623809Y-122363855D01*
X176309524Y-122363855D02*
X176309524Y-121563855D01*
X176309524Y-121563855D02*
X176614286Y-121563855D01*
X176614286Y-121563855D02*
X176690476Y-121601950D01*
X176690476Y-121601950D02*
X176728571Y-121640045D01*
X176728571Y-121640045D02*
X176766667Y-121716236D01*
X176766667Y-121716236D02*
X176766667Y-121830521D01*
X176766667Y-121830521D02*
X176728571Y-121906712D01*
X176728571Y-121906712D02*
X176690476Y-121944807D01*
X176690476Y-121944807D02*
X176614286Y-121982902D01*
X176614286Y-121982902D02*
X176309524Y-121982902D01*
X177528571Y-122363855D02*
X177071428Y-122363855D01*
X177300000Y-122363855D02*
X177300000Y-121563855D01*
X177300000Y-121563855D02*
X177223809Y-121678140D01*
X177223809Y-121678140D02*
X177147619Y-121754331D01*
X177147619Y-121754331D02*
X177071428Y-121792426D01*
X178633334Y-121563855D02*
X178785715Y-121563855D01*
X178785715Y-121563855D02*
X178861905Y-121601950D01*
X178861905Y-121601950D02*
X178938096Y-121678140D01*
X178938096Y-121678140D02*
X178976191Y-121830521D01*
X178976191Y-121830521D02*
X178976191Y-122097188D01*
X178976191Y-122097188D02*
X178938096Y-122249569D01*
X178938096Y-122249569D02*
X178861905Y-122325760D01*
X178861905Y-122325760D02*
X178785715Y-122363855D01*
X178785715Y-122363855D02*
X178633334Y-122363855D01*
X178633334Y-122363855D02*
X178557143Y-122325760D01*
X178557143Y-122325760D02*
X178480953Y-122249569D01*
X178480953Y-122249569D02*
X178442857Y-122097188D01*
X178442857Y-122097188D02*
X178442857Y-121830521D01*
X178442857Y-121830521D02*
X178480953Y-121678140D01*
X178480953Y-121678140D02*
X178557143Y-121601950D01*
X178557143Y-121601950D02*
X178633334Y-121563855D01*
X179319048Y-122363855D02*
X179319048Y-121563855D01*
X179319048Y-121563855D02*
X179623810Y-121563855D01*
X179623810Y-121563855D02*
X179700000Y-121601950D01*
X179700000Y-121601950D02*
X179738095Y-121640045D01*
X179738095Y-121640045D02*
X179776191Y-121716236D01*
X179776191Y-121716236D02*
X179776191Y-121830521D01*
X179776191Y-121830521D02*
X179738095Y-121906712D01*
X179738095Y-121906712D02*
X179700000Y-121944807D01*
X179700000Y-121944807D02*
X179623810Y-121982902D01*
X179623810Y-121982902D02*
X179319048Y-121982902D01*
X180119048Y-121944807D02*
X180385714Y-121944807D01*
X180500000Y-122363855D02*
X180119048Y-122363855D01*
X180119048Y-122363855D02*
X180119048Y-121563855D01*
X180119048Y-121563855D02*
X180500000Y-121563855D01*
X180842858Y-122363855D02*
X180842858Y-121563855D01*
X180842858Y-121563855D02*
X181300001Y-122363855D01*
X181300001Y-122363855D02*
X181300001Y-121563855D01*
D12*
X111436309Y-97888152D02*
X111436309Y-98554819D01*
X111198214Y-97507200D02*
X110960119Y-98221485D01*
X110960119Y-98221485D02*
X111579166Y-98221485D01*
X111960119Y-98173866D02*
X112722024Y-98173866D01*
X112341071Y-98554819D02*
X112341071Y-97792914D01*
X113341071Y-97983390D02*
X113245833Y-97935771D01*
X113245833Y-97935771D02*
X113198214Y-97888152D01*
X113198214Y-97888152D02*
X113150595Y-97792914D01*
X113150595Y-97792914D02*
X113150595Y-97745295D01*
X113150595Y-97745295D02*
X113198214Y-97650057D01*
X113198214Y-97650057D02*
X113245833Y-97602438D01*
X113245833Y-97602438D02*
X113341071Y-97554819D01*
X113341071Y-97554819D02*
X113531547Y-97554819D01*
X113531547Y-97554819D02*
X113626785Y-97602438D01*
X113626785Y-97602438D02*
X113674404Y-97650057D01*
X113674404Y-97650057D02*
X113722023Y-97745295D01*
X113722023Y-97745295D02*
X113722023Y-97792914D01*
X113722023Y-97792914D02*
X113674404Y-97888152D01*
X113674404Y-97888152D02*
X113626785Y-97935771D01*
X113626785Y-97935771D02*
X113531547Y-97983390D01*
X113531547Y-97983390D02*
X113341071Y-97983390D01*
X113341071Y-97983390D02*
X113245833Y-98031009D01*
X113245833Y-98031009D02*
X113198214Y-98078628D01*
X113198214Y-98078628D02*
X113150595Y-98173866D01*
X113150595Y-98173866D02*
X113150595Y-98364342D01*
X113150595Y-98364342D02*
X113198214Y-98459580D01*
X113198214Y-98459580D02*
X113245833Y-98507200D01*
X113245833Y-98507200D02*
X113341071Y-98554819D01*
X113341071Y-98554819D02*
X113531547Y-98554819D01*
X113531547Y-98554819D02*
X113626785Y-98507200D01*
X113626785Y-98507200D02*
X113674404Y-98459580D01*
X113674404Y-98459580D02*
X113722023Y-98364342D01*
X113722023Y-98364342D02*
X113722023Y-98173866D01*
X113722023Y-98173866D02*
X113674404Y-98078628D01*
X113674404Y-98078628D02*
X113626785Y-98031009D01*
X113626785Y-98031009D02*
X113531547Y-97983390D01*
X114150595Y-98554819D02*
X114150595Y-97554819D01*
X114150595Y-97554819D02*
X114483928Y-98269104D01*
X114483928Y-98269104D02*
X114817261Y-97554819D01*
X114817261Y-97554819D02*
X114817261Y-98554819D01*
X115626785Y-98031009D02*
X115769642Y-98078628D01*
X115769642Y-98078628D02*
X115817261Y-98126247D01*
X115817261Y-98126247D02*
X115864880Y-98221485D01*
X115864880Y-98221485D02*
X115864880Y-98364342D01*
X115864880Y-98364342D02*
X115817261Y-98459580D01*
X115817261Y-98459580D02*
X115769642Y-98507200D01*
X115769642Y-98507200D02*
X115674404Y-98554819D01*
X115674404Y-98554819D02*
X115293452Y-98554819D01*
X115293452Y-98554819D02*
X115293452Y-97554819D01*
X115293452Y-97554819D02*
X115626785Y-97554819D01*
X115626785Y-97554819D02*
X115722023Y-97602438D01*
X115722023Y-97602438D02*
X115769642Y-97650057D01*
X115769642Y-97650057D02*
X115817261Y-97745295D01*
X115817261Y-97745295D02*
X115817261Y-97840533D01*
X115817261Y-97840533D02*
X115769642Y-97935771D01*
X115769642Y-97935771D02*
X115722023Y-97983390D01*
X115722023Y-97983390D02*
X115626785Y-98031009D01*
X115626785Y-98031009D02*
X115293452Y-98031009D01*
X111436309Y-102688152D02*
X111436309Y-103354819D01*
X111198214Y-102307200D02*
X110960119Y-103021485D01*
X110960119Y-103021485D02*
X111579166Y-103021485D01*
X111960119Y-102973866D02*
X112722024Y-102973866D01*
X112341071Y-103354819D02*
X112341071Y-102592914D01*
X113341071Y-102783390D02*
X113245833Y-102735771D01*
X113245833Y-102735771D02*
X113198214Y-102688152D01*
X113198214Y-102688152D02*
X113150595Y-102592914D01*
X113150595Y-102592914D02*
X113150595Y-102545295D01*
X113150595Y-102545295D02*
X113198214Y-102450057D01*
X113198214Y-102450057D02*
X113245833Y-102402438D01*
X113245833Y-102402438D02*
X113341071Y-102354819D01*
X113341071Y-102354819D02*
X113531547Y-102354819D01*
X113531547Y-102354819D02*
X113626785Y-102402438D01*
X113626785Y-102402438D02*
X113674404Y-102450057D01*
X113674404Y-102450057D02*
X113722023Y-102545295D01*
X113722023Y-102545295D02*
X113722023Y-102592914D01*
X113722023Y-102592914D02*
X113674404Y-102688152D01*
X113674404Y-102688152D02*
X113626785Y-102735771D01*
X113626785Y-102735771D02*
X113531547Y-102783390D01*
X113531547Y-102783390D02*
X113341071Y-102783390D01*
X113341071Y-102783390D02*
X113245833Y-102831009D01*
X113245833Y-102831009D02*
X113198214Y-102878628D01*
X113198214Y-102878628D02*
X113150595Y-102973866D01*
X113150595Y-102973866D02*
X113150595Y-103164342D01*
X113150595Y-103164342D02*
X113198214Y-103259580D01*
X113198214Y-103259580D02*
X113245833Y-103307200D01*
X113245833Y-103307200D02*
X113341071Y-103354819D01*
X113341071Y-103354819D02*
X113531547Y-103354819D01*
X113531547Y-103354819D02*
X113626785Y-103307200D01*
X113626785Y-103307200D02*
X113674404Y-103259580D01*
X113674404Y-103259580D02*
X113722023Y-103164342D01*
X113722023Y-103164342D02*
X113722023Y-102973866D01*
X113722023Y-102973866D02*
X113674404Y-102878628D01*
X113674404Y-102878628D02*
X113626785Y-102831009D01*
X113626785Y-102831009D02*
X113531547Y-102783390D01*
X114150595Y-103354819D02*
X114150595Y-102354819D01*
X114150595Y-102354819D02*
X114483928Y-103069104D01*
X114483928Y-103069104D02*
X114817261Y-102354819D01*
X114817261Y-102354819D02*
X114817261Y-103354819D01*
X115626785Y-102831009D02*
X115769642Y-102878628D01*
X115769642Y-102878628D02*
X115817261Y-102926247D01*
X115817261Y-102926247D02*
X115864880Y-103021485D01*
X115864880Y-103021485D02*
X115864880Y-103164342D01*
X115864880Y-103164342D02*
X115817261Y-103259580D01*
X115817261Y-103259580D02*
X115769642Y-103307200D01*
X115769642Y-103307200D02*
X115674404Y-103354819D01*
X115674404Y-103354819D02*
X115293452Y-103354819D01*
X115293452Y-103354819D02*
X115293452Y-102354819D01*
X115293452Y-102354819D02*
X115626785Y-102354819D01*
X115626785Y-102354819D02*
X115722023Y-102402438D01*
X115722023Y-102402438D02*
X115769642Y-102450057D01*
X115769642Y-102450057D02*
X115817261Y-102545295D01*
X115817261Y-102545295D02*
X115817261Y-102640533D01*
X115817261Y-102640533D02*
X115769642Y-102735771D01*
X115769642Y-102735771D02*
X115722023Y-102783390D01*
X115722023Y-102783390D02*
X115626785Y-102831009D01*
X115626785Y-102831009D02*
X115293452Y-102831009D01*
X132936309Y-97888152D02*
X132936309Y-98554819D01*
X132698214Y-97507200D02*
X132460119Y-98221485D01*
X132460119Y-98221485D02*
X133079166Y-98221485D01*
X133460119Y-98173866D02*
X134222024Y-98173866D01*
X133841071Y-98554819D02*
X133841071Y-97792914D01*
X134841071Y-97983390D02*
X134745833Y-97935771D01*
X134745833Y-97935771D02*
X134698214Y-97888152D01*
X134698214Y-97888152D02*
X134650595Y-97792914D01*
X134650595Y-97792914D02*
X134650595Y-97745295D01*
X134650595Y-97745295D02*
X134698214Y-97650057D01*
X134698214Y-97650057D02*
X134745833Y-97602438D01*
X134745833Y-97602438D02*
X134841071Y-97554819D01*
X134841071Y-97554819D02*
X135031547Y-97554819D01*
X135031547Y-97554819D02*
X135126785Y-97602438D01*
X135126785Y-97602438D02*
X135174404Y-97650057D01*
X135174404Y-97650057D02*
X135222023Y-97745295D01*
X135222023Y-97745295D02*
X135222023Y-97792914D01*
X135222023Y-97792914D02*
X135174404Y-97888152D01*
X135174404Y-97888152D02*
X135126785Y-97935771D01*
X135126785Y-97935771D02*
X135031547Y-97983390D01*
X135031547Y-97983390D02*
X134841071Y-97983390D01*
X134841071Y-97983390D02*
X134745833Y-98031009D01*
X134745833Y-98031009D02*
X134698214Y-98078628D01*
X134698214Y-98078628D02*
X134650595Y-98173866D01*
X134650595Y-98173866D02*
X134650595Y-98364342D01*
X134650595Y-98364342D02*
X134698214Y-98459580D01*
X134698214Y-98459580D02*
X134745833Y-98507200D01*
X134745833Y-98507200D02*
X134841071Y-98554819D01*
X134841071Y-98554819D02*
X135031547Y-98554819D01*
X135031547Y-98554819D02*
X135126785Y-98507200D01*
X135126785Y-98507200D02*
X135174404Y-98459580D01*
X135174404Y-98459580D02*
X135222023Y-98364342D01*
X135222023Y-98364342D02*
X135222023Y-98173866D01*
X135222023Y-98173866D02*
X135174404Y-98078628D01*
X135174404Y-98078628D02*
X135126785Y-98031009D01*
X135126785Y-98031009D02*
X135031547Y-97983390D01*
X135650595Y-98554819D02*
X135650595Y-97554819D01*
X135650595Y-97554819D02*
X135983928Y-98269104D01*
X135983928Y-98269104D02*
X136317261Y-97554819D01*
X136317261Y-97554819D02*
X136317261Y-98554819D01*
X137126785Y-98031009D02*
X137269642Y-98078628D01*
X137269642Y-98078628D02*
X137317261Y-98126247D01*
X137317261Y-98126247D02*
X137364880Y-98221485D01*
X137364880Y-98221485D02*
X137364880Y-98364342D01*
X137364880Y-98364342D02*
X137317261Y-98459580D01*
X137317261Y-98459580D02*
X137269642Y-98507200D01*
X137269642Y-98507200D02*
X137174404Y-98554819D01*
X137174404Y-98554819D02*
X136793452Y-98554819D01*
X136793452Y-98554819D02*
X136793452Y-97554819D01*
X136793452Y-97554819D02*
X137126785Y-97554819D01*
X137126785Y-97554819D02*
X137222023Y-97602438D01*
X137222023Y-97602438D02*
X137269642Y-97650057D01*
X137269642Y-97650057D02*
X137317261Y-97745295D01*
X137317261Y-97745295D02*
X137317261Y-97840533D01*
X137317261Y-97840533D02*
X137269642Y-97935771D01*
X137269642Y-97935771D02*
X137222023Y-97983390D01*
X137222023Y-97983390D02*
X137126785Y-98031009D01*
X137126785Y-98031009D02*
X136793452Y-98031009D01*
X132936309Y-102688152D02*
X132936309Y-103354819D01*
X132698214Y-102307200D02*
X132460119Y-103021485D01*
X132460119Y-103021485D02*
X133079166Y-103021485D01*
X133460119Y-102973866D02*
X134222024Y-102973866D01*
X133841071Y-103354819D02*
X133841071Y-102592914D01*
X134841071Y-102783390D02*
X134745833Y-102735771D01*
X134745833Y-102735771D02*
X134698214Y-102688152D01*
X134698214Y-102688152D02*
X134650595Y-102592914D01*
X134650595Y-102592914D02*
X134650595Y-102545295D01*
X134650595Y-102545295D02*
X134698214Y-102450057D01*
X134698214Y-102450057D02*
X134745833Y-102402438D01*
X134745833Y-102402438D02*
X134841071Y-102354819D01*
X134841071Y-102354819D02*
X135031547Y-102354819D01*
X135031547Y-102354819D02*
X135126785Y-102402438D01*
X135126785Y-102402438D02*
X135174404Y-102450057D01*
X135174404Y-102450057D02*
X135222023Y-102545295D01*
X135222023Y-102545295D02*
X135222023Y-102592914D01*
X135222023Y-102592914D02*
X135174404Y-102688152D01*
X135174404Y-102688152D02*
X135126785Y-102735771D01*
X135126785Y-102735771D02*
X135031547Y-102783390D01*
X135031547Y-102783390D02*
X134841071Y-102783390D01*
X134841071Y-102783390D02*
X134745833Y-102831009D01*
X134745833Y-102831009D02*
X134698214Y-102878628D01*
X134698214Y-102878628D02*
X134650595Y-102973866D01*
X134650595Y-102973866D02*
X134650595Y-103164342D01*
X134650595Y-103164342D02*
X134698214Y-103259580D01*
X134698214Y-103259580D02*
X134745833Y-103307200D01*
X134745833Y-103307200D02*
X134841071Y-103354819D01*
X134841071Y-103354819D02*
X135031547Y-103354819D01*
X135031547Y-103354819D02*
X135126785Y-103307200D01*
X135126785Y-103307200D02*
X135174404Y-103259580D01*
X135174404Y-103259580D02*
X135222023Y-103164342D01*
X135222023Y-103164342D02*
X135222023Y-102973866D01*
X135222023Y-102973866D02*
X135174404Y-102878628D01*
X135174404Y-102878628D02*
X135126785Y-102831009D01*
X135126785Y-102831009D02*
X135031547Y-102783390D01*
X135650595Y-103354819D02*
X135650595Y-102354819D01*
X135650595Y-102354819D02*
X135983928Y-103069104D01*
X135983928Y-103069104D02*
X136317261Y-102354819D01*
X136317261Y-102354819D02*
X136317261Y-103354819D01*
X137126785Y-102831009D02*
X137269642Y-102878628D01*
X137269642Y-102878628D02*
X137317261Y-102926247D01*
X137317261Y-102926247D02*
X137364880Y-103021485D01*
X137364880Y-103021485D02*
X137364880Y-103164342D01*
X137364880Y-103164342D02*
X137317261Y-103259580D01*
X137317261Y-103259580D02*
X137269642Y-103307200D01*
X137269642Y-103307200D02*
X137174404Y-103354819D01*
X137174404Y-103354819D02*
X136793452Y-103354819D01*
X136793452Y-103354819D02*
X136793452Y-102354819D01*
X136793452Y-102354819D02*
X137126785Y-102354819D01*
X137126785Y-102354819D02*
X137222023Y-102402438D01*
X137222023Y-102402438D02*
X137269642Y-102450057D01*
X137269642Y-102450057D02*
X137317261Y-102545295D01*
X137317261Y-102545295D02*
X137317261Y-102640533D01*
X137317261Y-102640533D02*
X137269642Y-102735771D01*
X137269642Y-102735771D02*
X137222023Y-102783390D01*
X137222023Y-102783390D02*
X137126785Y-102831009D01*
X137126785Y-102831009D02*
X136793452Y-102831009D01*
X153317261Y-97983390D02*
X153222023Y-97935771D01*
X153222023Y-97935771D02*
X153174404Y-97888152D01*
X153174404Y-97888152D02*
X153126785Y-97792914D01*
X153126785Y-97792914D02*
X153126785Y-97745295D01*
X153126785Y-97745295D02*
X153174404Y-97650057D01*
X153174404Y-97650057D02*
X153222023Y-97602438D01*
X153222023Y-97602438D02*
X153317261Y-97554819D01*
X153317261Y-97554819D02*
X153507737Y-97554819D01*
X153507737Y-97554819D02*
X153602975Y-97602438D01*
X153602975Y-97602438D02*
X153650594Y-97650057D01*
X153650594Y-97650057D02*
X153698213Y-97745295D01*
X153698213Y-97745295D02*
X153698213Y-97792914D01*
X153698213Y-97792914D02*
X153650594Y-97888152D01*
X153650594Y-97888152D02*
X153602975Y-97935771D01*
X153602975Y-97935771D02*
X153507737Y-97983390D01*
X153507737Y-97983390D02*
X153317261Y-97983390D01*
X153317261Y-97983390D02*
X153222023Y-98031009D01*
X153222023Y-98031009D02*
X153174404Y-98078628D01*
X153174404Y-98078628D02*
X153126785Y-98173866D01*
X153126785Y-98173866D02*
X153126785Y-98364342D01*
X153126785Y-98364342D02*
X153174404Y-98459580D01*
X153174404Y-98459580D02*
X153222023Y-98507200D01*
X153222023Y-98507200D02*
X153317261Y-98554819D01*
X153317261Y-98554819D02*
X153507737Y-98554819D01*
X153507737Y-98554819D02*
X153602975Y-98507200D01*
X153602975Y-98507200D02*
X153650594Y-98459580D01*
X153650594Y-98459580D02*
X153698213Y-98364342D01*
X153698213Y-98364342D02*
X153698213Y-98173866D01*
X153698213Y-98173866D02*
X153650594Y-98078628D01*
X153650594Y-98078628D02*
X153602975Y-98031009D01*
X153602975Y-98031009D02*
X153507737Y-97983390D01*
X154126785Y-98554819D02*
X154126785Y-97554819D01*
X154126785Y-97554819D02*
X154460118Y-98269104D01*
X154460118Y-98269104D02*
X154793451Y-97554819D01*
X154793451Y-97554819D02*
X154793451Y-98554819D01*
X155602975Y-98031009D02*
X155745832Y-98078628D01*
X155745832Y-98078628D02*
X155793451Y-98126247D01*
X155793451Y-98126247D02*
X155841070Y-98221485D01*
X155841070Y-98221485D02*
X155841070Y-98364342D01*
X155841070Y-98364342D02*
X155793451Y-98459580D01*
X155793451Y-98459580D02*
X155745832Y-98507200D01*
X155745832Y-98507200D02*
X155650594Y-98554819D01*
X155650594Y-98554819D02*
X155269642Y-98554819D01*
X155269642Y-98554819D02*
X155269642Y-97554819D01*
X155269642Y-97554819D02*
X155602975Y-97554819D01*
X155602975Y-97554819D02*
X155698213Y-97602438D01*
X155698213Y-97602438D02*
X155745832Y-97650057D01*
X155745832Y-97650057D02*
X155793451Y-97745295D01*
X155793451Y-97745295D02*
X155793451Y-97840533D01*
X155793451Y-97840533D02*
X155745832Y-97935771D01*
X155745832Y-97935771D02*
X155698213Y-97983390D01*
X155698213Y-97983390D02*
X155602975Y-98031009D01*
X155602975Y-98031009D02*
X155269642Y-98031009D01*
X157174404Y-98554819D02*
X157079166Y-98507200D01*
X157079166Y-98507200D02*
X157031547Y-98459580D01*
X157031547Y-98459580D02*
X156983928Y-98364342D01*
X156983928Y-98364342D02*
X156983928Y-98078628D01*
X156983928Y-98078628D02*
X157031547Y-97983390D01*
X157031547Y-97983390D02*
X157079166Y-97935771D01*
X157079166Y-97935771D02*
X157174404Y-97888152D01*
X157174404Y-97888152D02*
X157317261Y-97888152D01*
X157317261Y-97888152D02*
X157412499Y-97935771D01*
X157412499Y-97935771D02*
X157460118Y-97983390D01*
X157460118Y-97983390D02*
X157507737Y-98078628D01*
X157507737Y-98078628D02*
X157507737Y-98364342D01*
X157507737Y-98364342D02*
X157460118Y-98459580D01*
X157460118Y-98459580D02*
X157412499Y-98507200D01*
X157412499Y-98507200D02*
X157317261Y-98554819D01*
X157317261Y-98554819D02*
X157174404Y-98554819D01*
X157936309Y-97888152D02*
X157936309Y-98554819D01*
X157936309Y-97983390D02*
X157983928Y-97935771D01*
X157983928Y-97935771D02*
X158079166Y-97888152D01*
X158079166Y-97888152D02*
X158222023Y-97888152D01*
X158222023Y-97888152D02*
X158317261Y-97935771D01*
X158317261Y-97935771D02*
X158364880Y-98031009D01*
X158364880Y-98031009D02*
X158364880Y-98554819D01*
X158983928Y-98554819D02*
X158888690Y-98507200D01*
X158888690Y-98507200D02*
X158841071Y-98411961D01*
X158841071Y-98411961D02*
X158841071Y-97554819D01*
X159269643Y-97888152D02*
X159507738Y-98554819D01*
X159745833Y-97888152D02*
X159507738Y-98554819D01*
X159507738Y-98554819D02*
X159412500Y-98792914D01*
X159412500Y-98792914D02*
X159364881Y-98840533D01*
X159364881Y-98840533D02*
X159269643Y-98888152D01*
X153317261Y-102783390D02*
X153222023Y-102735771D01*
X153222023Y-102735771D02*
X153174404Y-102688152D01*
X153174404Y-102688152D02*
X153126785Y-102592914D01*
X153126785Y-102592914D02*
X153126785Y-102545295D01*
X153126785Y-102545295D02*
X153174404Y-102450057D01*
X153174404Y-102450057D02*
X153222023Y-102402438D01*
X153222023Y-102402438D02*
X153317261Y-102354819D01*
X153317261Y-102354819D02*
X153507737Y-102354819D01*
X153507737Y-102354819D02*
X153602975Y-102402438D01*
X153602975Y-102402438D02*
X153650594Y-102450057D01*
X153650594Y-102450057D02*
X153698213Y-102545295D01*
X153698213Y-102545295D02*
X153698213Y-102592914D01*
X153698213Y-102592914D02*
X153650594Y-102688152D01*
X153650594Y-102688152D02*
X153602975Y-102735771D01*
X153602975Y-102735771D02*
X153507737Y-102783390D01*
X153507737Y-102783390D02*
X153317261Y-102783390D01*
X153317261Y-102783390D02*
X153222023Y-102831009D01*
X153222023Y-102831009D02*
X153174404Y-102878628D01*
X153174404Y-102878628D02*
X153126785Y-102973866D01*
X153126785Y-102973866D02*
X153126785Y-103164342D01*
X153126785Y-103164342D02*
X153174404Y-103259580D01*
X153174404Y-103259580D02*
X153222023Y-103307200D01*
X153222023Y-103307200D02*
X153317261Y-103354819D01*
X153317261Y-103354819D02*
X153507737Y-103354819D01*
X153507737Y-103354819D02*
X153602975Y-103307200D01*
X153602975Y-103307200D02*
X153650594Y-103259580D01*
X153650594Y-103259580D02*
X153698213Y-103164342D01*
X153698213Y-103164342D02*
X153698213Y-102973866D01*
X153698213Y-102973866D02*
X153650594Y-102878628D01*
X153650594Y-102878628D02*
X153602975Y-102831009D01*
X153602975Y-102831009D02*
X153507737Y-102783390D01*
X154126785Y-103354819D02*
X154126785Y-102354819D01*
X154126785Y-102354819D02*
X154460118Y-103069104D01*
X154460118Y-103069104D02*
X154793451Y-102354819D01*
X154793451Y-102354819D02*
X154793451Y-103354819D01*
X155602975Y-102831009D02*
X155745832Y-102878628D01*
X155745832Y-102878628D02*
X155793451Y-102926247D01*
X155793451Y-102926247D02*
X155841070Y-103021485D01*
X155841070Y-103021485D02*
X155841070Y-103164342D01*
X155841070Y-103164342D02*
X155793451Y-103259580D01*
X155793451Y-103259580D02*
X155745832Y-103307200D01*
X155745832Y-103307200D02*
X155650594Y-103354819D01*
X155650594Y-103354819D02*
X155269642Y-103354819D01*
X155269642Y-103354819D02*
X155269642Y-102354819D01*
X155269642Y-102354819D02*
X155602975Y-102354819D01*
X155602975Y-102354819D02*
X155698213Y-102402438D01*
X155698213Y-102402438D02*
X155745832Y-102450057D01*
X155745832Y-102450057D02*
X155793451Y-102545295D01*
X155793451Y-102545295D02*
X155793451Y-102640533D01*
X155793451Y-102640533D02*
X155745832Y-102735771D01*
X155745832Y-102735771D02*
X155698213Y-102783390D01*
X155698213Y-102783390D02*
X155602975Y-102831009D01*
X155602975Y-102831009D02*
X155269642Y-102831009D01*
X157174404Y-103354819D02*
X157079166Y-103307200D01*
X157079166Y-103307200D02*
X157031547Y-103259580D01*
X157031547Y-103259580D02*
X156983928Y-103164342D01*
X156983928Y-103164342D02*
X156983928Y-102878628D01*
X156983928Y-102878628D02*
X157031547Y-102783390D01*
X157031547Y-102783390D02*
X157079166Y-102735771D01*
X157079166Y-102735771D02*
X157174404Y-102688152D01*
X157174404Y-102688152D02*
X157317261Y-102688152D01*
X157317261Y-102688152D02*
X157412499Y-102735771D01*
X157412499Y-102735771D02*
X157460118Y-102783390D01*
X157460118Y-102783390D02*
X157507737Y-102878628D01*
X157507737Y-102878628D02*
X157507737Y-103164342D01*
X157507737Y-103164342D02*
X157460118Y-103259580D01*
X157460118Y-103259580D02*
X157412499Y-103307200D01*
X157412499Y-103307200D02*
X157317261Y-103354819D01*
X157317261Y-103354819D02*
X157174404Y-103354819D01*
X157936309Y-102688152D02*
X157936309Y-103354819D01*
X157936309Y-102783390D02*
X157983928Y-102735771D01*
X157983928Y-102735771D02*
X158079166Y-102688152D01*
X158079166Y-102688152D02*
X158222023Y-102688152D01*
X158222023Y-102688152D02*
X158317261Y-102735771D01*
X158317261Y-102735771D02*
X158364880Y-102831009D01*
X158364880Y-102831009D02*
X158364880Y-103354819D01*
X158983928Y-103354819D02*
X158888690Y-103307200D01*
X158888690Y-103307200D02*
X158841071Y-103211961D01*
X158841071Y-103211961D02*
X158841071Y-102354819D01*
X159269643Y-102688152D02*
X159507738Y-103354819D01*
X159745833Y-102688152D02*
X159507738Y-103354819D01*
X159507738Y-103354819D02*
X159412500Y-103592914D01*
X159412500Y-103592914D02*
X159364881Y-103640533D01*
X159364881Y-103640533D02*
X159269643Y-103688152D01*
X175317261Y-97983390D02*
X175222023Y-97935771D01*
X175222023Y-97935771D02*
X175174404Y-97888152D01*
X175174404Y-97888152D02*
X175126785Y-97792914D01*
X175126785Y-97792914D02*
X175126785Y-97745295D01*
X175126785Y-97745295D02*
X175174404Y-97650057D01*
X175174404Y-97650057D02*
X175222023Y-97602438D01*
X175222023Y-97602438D02*
X175317261Y-97554819D01*
X175317261Y-97554819D02*
X175507737Y-97554819D01*
X175507737Y-97554819D02*
X175602975Y-97602438D01*
X175602975Y-97602438D02*
X175650594Y-97650057D01*
X175650594Y-97650057D02*
X175698213Y-97745295D01*
X175698213Y-97745295D02*
X175698213Y-97792914D01*
X175698213Y-97792914D02*
X175650594Y-97888152D01*
X175650594Y-97888152D02*
X175602975Y-97935771D01*
X175602975Y-97935771D02*
X175507737Y-97983390D01*
X175507737Y-97983390D02*
X175317261Y-97983390D01*
X175317261Y-97983390D02*
X175222023Y-98031009D01*
X175222023Y-98031009D02*
X175174404Y-98078628D01*
X175174404Y-98078628D02*
X175126785Y-98173866D01*
X175126785Y-98173866D02*
X175126785Y-98364342D01*
X175126785Y-98364342D02*
X175174404Y-98459580D01*
X175174404Y-98459580D02*
X175222023Y-98507200D01*
X175222023Y-98507200D02*
X175317261Y-98554819D01*
X175317261Y-98554819D02*
X175507737Y-98554819D01*
X175507737Y-98554819D02*
X175602975Y-98507200D01*
X175602975Y-98507200D02*
X175650594Y-98459580D01*
X175650594Y-98459580D02*
X175698213Y-98364342D01*
X175698213Y-98364342D02*
X175698213Y-98173866D01*
X175698213Y-98173866D02*
X175650594Y-98078628D01*
X175650594Y-98078628D02*
X175602975Y-98031009D01*
X175602975Y-98031009D02*
X175507737Y-97983390D01*
X176126785Y-98554819D02*
X176126785Y-97554819D01*
X176126785Y-97554819D02*
X176460118Y-98269104D01*
X176460118Y-98269104D02*
X176793451Y-97554819D01*
X176793451Y-97554819D02*
X176793451Y-98554819D01*
X177602975Y-98031009D02*
X177745832Y-98078628D01*
X177745832Y-98078628D02*
X177793451Y-98126247D01*
X177793451Y-98126247D02*
X177841070Y-98221485D01*
X177841070Y-98221485D02*
X177841070Y-98364342D01*
X177841070Y-98364342D02*
X177793451Y-98459580D01*
X177793451Y-98459580D02*
X177745832Y-98507200D01*
X177745832Y-98507200D02*
X177650594Y-98554819D01*
X177650594Y-98554819D02*
X177269642Y-98554819D01*
X177269642Y-98554819D02*
X177269642Y-97554819D01*
X177269642Y-97554819D02*
X177602975Y-97554819D01*
X177602975Y-97554819D02*
X177698213Y-97602438D01*
X177698213Y-97602438D02*
X177745832Y-97650057D01*
X177745832Y-97650057D02*
X177793451Y-97745295D01*
X177793451Y-97745295D02*
X177793451Y-97840533D01*
X177793451Y-97840533D02*
X177745832Y-97935771D01*
X177745832Y-97935771D02*
X177698213Y-97983390D01*
X177698213Y-97983390D02*
X177602975Y-98031009D01*
X177602975Y-98031009D02*
X177269642Y-98031009D01*
X179174404Y-98554819D02*
X179079166Y-98507200D01*
X179079166Y-98507200D02*
X179031547Y-98459580D01*
X179031547Y-98459580D02*
X178983928Y-98364342D01*
X178983928Y-98364342D02*
X178983928Y-98078628D01*
X178983928Y-98078628D02*
X179031547Y-97983390D01*
X179031547Y-97983390D02*
X179079166Y-97935771D01*
X179079166Y-97935771D02*
X179174404Y-97888152D01*
X179174404Y-97888152D02*
X179317261Y-97888152D01*
X179317261Y-97888152D02*
X179412499Y-97935771D01*
X179412499Y-97935771D02*
X179460118Y-97983390D01*
X179460118Y-97983390D02*
X179507737Y-98078628D01*
X179507737Y-98078628D02*
X179507737Y-98364342D01*
X179507737Y-98364342D02*
X179460118Y-98459580D01*
X179460118Y-98459580D02*
X179412499Y-98507200D01*
X179412499Y-98507200D02*
X179317261Y-98554819D01*
X179317261Y-98554819D02*
X179174404Y-98554819D01*
X179936309Y-97888152D02*
X179936309Y-98554819D01*
X179936309Y-97983390D02*
X179983928Y-97935771D01*
X179983928Y-97935771D02*
X180079166Y-97888152D01*
X180079166Y-97888152D02*
X180222023Y-97888152D01*
X180222023Y-97888152D02*
X180317261Y-97935771D01*
X180317261Y-97935771D02*
X180364880Y-98031009D01*
X180364880Y-98031009D02*
X180364880Y-98554819D01*
X180983928Y-98554819D02*
X180888690Y-98507200D01*
X180888690Y-98507200D02*
X180841071Y-98411961D01*
X180841071Y-98411961D02*
X180841071Y-97554819D01*
X181269643Y-97888152D02*
X181507738Y-98554819D01*
X181745833Y-97888152D02*
X181507738Y-98554819D01*
X181507738Y-98554819D02*
X181412500Y-98792914D01*
X181412500Y-98792914D02*
X181364881Y-98840533D01*
X181364881Y-98840533D02*
X181269643Y-98888152D01*
X175317261Y-102783390D02*
X175222023Y-102735771D01*
X175222023Y-102735771D02*
X175174404Y-102688152D01*
X175174404Y-102688152D02*
X175126785Y-102592914D01*
X175126785Y-102592914D02*
X175126785Y-102545295D01*
X175126785Y-102545295D02*
X175174404Y-102450057D01*
X175174404Y-102450057D02*
X175222023Y-102402438D01*
X175222023Y-102402438D02*
X175317261Y-102354819D01*
X175317261Y-102354819D02*
X175507737Y-102354819D01*
X175507737Y-102354819D02*
X175602975Y-102402438D01*
X175602975Y-102402438D02*
X175650594Y-102450057D01*
X175650594Y-102450057D02*
X175698213Y-102545295D01*
X175698213Y-102545295D02*
X175698213Y-102592914D01*
X175698213Y-102592914D02*
X175650594Y-102688152D01*
X175650594Y-102688152D02*
X175602975Y-102735771D01*
X175602975Y-102735771D02*
X175507737Y-102783390D01*
X175507737Y-102783390D02*
X175317261Y-102783390D01*
X175317261Y-102783390D02*
X175222023Y-102831009D01*
X175222023Y-102831009D02*
X175174404Y-102878628D01*
X175174404Y-102878628D02*
X175126785Y-102973866D01*
X175126785Y-102973866D02*
X175126785Y-103164342D01*
X175126785Y-103164342D02*
X175174404Y-103259580D01*
X175174404Y-103259580D02*
X175222023Y-103307200D01*
X175222023Y-103307200D02*
X175317261Y-103354819D01*
X175317261Y-103354819D02*
X175507737Y-103354819D01*
X175507737Y-103354819D02*
X175602975Y-103307200D01*
X175602975Y-103307200D02*
X175650594Y-103259580D01*
X175650594Y-103259580D02*
X175698213Y-103164342D01*
X175698213Y-103164342D02*
X175698213Y-102973866D01*
X175698213Y-102973866D02*
X175650594Y-102878628D01*
X175650594Y-102878628D02*
X175602975Y-102831009D01*
X175602975Y-102831009D02*
X175507737Y-102783390D01*
X176126785Y-103354819D02*
X176126785Y-102354819D01*
X176126785Y-102354819D02*
X176460118Y-103069104D01*
X176460118Y-103069104D02*
X176793451Y-102354819D01*
X176793451Y-102354819D02*
X176793451Y-103354819D01*
X177602975Y-102831009D02*
X177745832Y-102878628D01*
X177745832Y-102878628D02*
X177793451Y-102926247D01*
X177793451Y-102926247D02*
X177841070Y-103021485D01*
X177841070Y-103021485D02*
X177841070Y-103164342D01*
X177841070Y-103164342D02*
X177793451Y-103259580D01*
X177793451Y-103259580D02*
X177745832Y-103307200D01*
X177745832Y-103307200D02*
X177650594Y-103354819D01*
X177650594Y-103354819D02*
X177269642Y-103354819D01*
X177269642Y-103354819D02*
X177269642Y-102354819D01*
X177269642Y-102354819D02*
X177602975Y-102354819D01*
X177602975Y-102354819D02*
X177698213Y-102402438D01*
X177698213Y-102402438D02*
X177745832Y-102450057D01*
X177745832Y-102450057D02*
X177793451Y-102545295D01*
X177793451Y-102545295D02*
X177793451Y-102640533D01*
X177793451Y-102640533D02*
X177745832Y-102735771D01*
X177745832Y-102735771D02*
X177698213Y-102783390D01*
X177698213Y-102783390D02*
X177602975Y-102831009D01*
X177602975Y-102831009D02*
X177269642Y-102831009D01*
X179174404Y-103354819D02*
X179079166Y-103307200D01*
X179079166Y-103307200D02*
X179031547Y-103259580D01*
X179031547Y-103259580D02*
X178983928Y-103164342D01*
X178983928Y-103164342D02*
X178983928Y-102878628D01*
X178983928Y-102878628D02*
X179031547Y-102783390D01*
X179031547Y-102783390D02*
X179079166Y-102735771D01*
X179079166Y-102735771D02*
X179174404Y-102688152D01*
X179174404Y-102688152D02*
X179317261Y-102688152D01*
X179317261Y-102688152D02*
X179412499Y-102735771D01*
X179412499Y-102735771D02*
X179460118Y-102783390D01*
X179460118Y-102783390D02*
X179507737Y-102878628D01*
X179507737Y-102878628D02*
X179507737Y-103164342D01*
X179507737Y-103164342D02*
X179460118Y-103259580D01*
X179460118Y-103259580D02*
X179412499Y-103307200D01*
X179412499Y-103307200D02*
X179317261Y-103354819D01*
X179317261Y-103354819D02*
X179174404Y-103354819D01*
X179936309Y-102688152D02*
X179936309Y-103354819D01*
X179936309Y-102783390D02*
X179983928Y-102735771D01*
X179983928Y-102735771D02*
X180079166Y-102688152D01*
X180079166Y-102688152D02*
X180222023Y-102688152D01*
X180222023Y-102688152D02*
X180317261Y-102735771D01*
X180317261Y-102735771D02*
X180364880Y-102831009D01*
X180364880Y-102831009D02*
X180364880Y-103354819D01*
X180983928Y-103354819D02*
X180888690Y-103307200D01*
X180888690Y-103307200D02*
X180841071Y-103211961D01*
X180841071Y-103211961D02*
X180841071Y-102354819D01*
X181269643Y-102688152D02*
X181507738Y-103354819D01*
X181745833Y-102688152D02*
X181507738Y-103354819D01*
X181507738Y-103354819D02*
X181412500Y-103592914D01*
X181412500Y-103592914D02*
X181364881Y-103640533D01*
X181364881Y-103640533D02*
X181269643Y-103688152D01*
D13*
X160831139Y-138197952D02*
X160831139Y-138864619D01*
X160593044Y-137817000D02*
X160354949Y-138531285D01*
X160354949Y-138531285D02*
X160973996Y-138531285D01*
X161402568Y-138864619D02*
X161593044Y-138864619D01*
X161593044Y-138864619D02*
X161688282Y-138817000D01*
X161688282Y-138817000D02*
X161735901Y-138769380D01*
X161735901Y-138769380D02*
X161831139Y-138626523D01*
X161831139Y-138626523D02*
X161878758Y-138436047D01*
X161878758Y-138436047D02*
X161878758Y-138055095D01*
X161878758Y-138055095D02*
X161831139Y-137959857D01*
X161831139Y-137959857D02*
X161783520Y-137912238D01*
X161783520Y-137912238D02*
X161688282Y-137864619D01*
X161688282Y-137864619D02*
X161497806Y-137864619D01*
X161497806Y-137864619D02*
X161402568Y-137912238D01*
X161402568Y-137912238D02*
X161354949Y-137959857D01*
X161354949Y-137959857D02*
X161307330Y-138055095D01*
X161307330Y-138055095D02*
X161307330Y-138293190D01*
X161307330Y-138293190D02*
X161354949Y-138388428D01*
X161354949Y-138388428D02*
X161402568Y-138436047D01*
X161402568Y-138436047D02*
X161497806Y-138483666D01*
X161497806Y-138483666D02*
X161688282Y-138483666D01*
X161688282Y-138483666D02*
X161783520Y-138436047D01*
X161783520Y-138436047D02*
X161831139Y-138388428D01*
X161831139Y-138388428D02*
X161878758Y-138293190D01*
D14*
X127442857Y-121745782D02*
X127442857Y-122545782D01*
X127157142Y-121288640D02*
X126871428Y-122145782D01*
X126871428Y-122145782D02*
X127614285Y-122145782D01*
X128071428Y-122545782D02*
X128071428Y-121345782D01*
X128071428Y-121345782D02*
X128471428Y-122202925D01*
X128471428Y-122202925D02*
X128871428Y-121345782D01*
X128871428Y-121345782D02*
X128871428Y-122545782D01*
X129842857Y-121917211D02*
X130014285Y-121974354D01*
X130014285Y-121974354D02*
X130071428Y-122031497D01*
X130071428Y-122031497D02*
X130128571Y-122145782D01*
X130128571Y-122145782D02*
X130128571Y-122317211D01*
X130128571Y-122317211D02*
X130071428Y-122431497D01*
X130071428Y-122431497D02*
X130014285Y-122488640D01*
X130014285Y-122488640D02*
X129900000Y-122545782D01*
X129900000Y-122545782D02*
X129442857Y-122545782D01*
X129442857Y-122545782D02*
X129442857Y-121345782D01*
X129442857Y-121345782D02*
X129842857Y-121345782D01*
X129842857Y-121345782D02*
X129957143Y-121402925D01*
X129957143Y-121402925D02*
X130014285Y-121460068D01*
X130014285Y-121460068D02*
X130071428Y-121574354D01*
X130071428Y-121574354D02*
X130071428Y-121688640D01*
X130071428Y-121688640D02*
X130014285Y-121802925D01*
X130014285Y-121802925D02*
X129957143Y-121860068D01*
X129957143Y-121860068D02*
X129842857Y-121917211D01*
X129842857Y-121917211D02*
X129442857Y-121917211D01*
X171099999Y-121860068D02*
X170985714Y-121802925D01*
X170985714Y-121802925D02*
X170928571Y-121745782D01*
X170928571Y-121745782D02*
X170871428Y-121631497D01*
X170871428Y-121631497D02*
X170871428Y-121574354D01*
X170871428Y-121574354D02*
X170928571Y-121460068D01*
X170928571Y-121460068D02*
X170985714Y-121402925D01*
X170985714Y-121402925D02*
X171099999Y-121345782D01*
X171099999Y-121345782D02*
X171328571Y-121345782D01*
X171328571Y-121345782D02*
X171442857Y-121402925D01*
X171442857Y-121402925D02*
X171499999Y-121460068D01*
X171499999Y-121460068D02*
X171557142Y-121574354D01*
X171557142Y-121574354D02*
X171557142Y-121631497D01*
X171557142Y-121631497D02*
X171499999Y-121745782D01*
X171499999Y-121745782D02*
X171442857Y-121802925D01*
X171442857Y-121802925D02*
X171328571Y-121860068D01*
X171328571Y-121860068D02*
X171099999Y-121860068D01*
X171099999Y-121860068D02*
X170985714Y-121917211D01*
X170985714Y-121917211D02*
X170928571Y-121974354D01*
X170928571Y-121974354D02*
X170871428Y-122088640D01*
X170871428Y-122088640D02*
X170871428Y-122317211D01*
X170871428Y-122317211D02*
X170928571Y-122431497D01*
X170928571Y-122431497D02*
X170985714Y-122488640D01*
X170985714Y-122488640D02*
X171099999Y-122545782D01*
X171099999Y-122545782D02*
X171328571Y-122545782D01*
X171328571Y-122545782D02*
X171442857Y-122488640D01*
X171442857Y-122488640D02*
X171499999Y-122431497D01*
X171499999Y-122431497D02*
X171557142Y-122317211D01*
X171557142Y-122317211D02*
X171557142Y-122088640D01*
X171557142Y-122088640D02*
X171499999Y-121974354D01*
X171499999Y-121974354D02*
X171442857Y-121917211D01*
X171442857Y-121917211D02*
X171328571Y-121860068D01*
X172071428Y-122545782D02*
X172071428Y-121345782D01*
X172071428Y-121345782D02*
X172471428Y-122202925D01*
X172471428Y-122202925D02*
X172871428Y-121345782D01*
X172871428Y-121345782D02*
X172871428Y-122545782D01*
X173842857Y-121917211D02*
X174014285Y-121974354D01*
X174014285Y-121974354D02*
X174071428Y-122031497D01*
X174071428Y-122031497D02*
X174128571Y-122145782D01*
X174128571Y-122145782D02*
X174128571Y-122317211D01*
X174128571Y-122317211D02*
X174071428Y-122431497D01*
X174071428Y-122431497D02*
X174014285Y-122488640D01*
X174014285Y-122488640D02*
X173900000Y-122545782D01*
X173900000Y-122545782D02*
X173442857Y-122545782D01*
X173442857Y-122545782D02*
X173442857Y-121345782D01*
X173442857Y-121345782D02*
X173842857Y-121345782D01*
X173842857Y-121345782D02*
X173957143Y-121402925D01*
X173957143Y-121402925D02*
X174014285Y-121460068D01*
X174014285Y-121460068D02*
X174071428Y-121574354D01*
X174071428Y-121574354D02*
X174071428Y-121688640D01*
X174071428Y-121688640D02*
X174014285Y-121802925D01*
X174014285Y-121802925D02*
X173957143Y-121860068D01*
X173957143Y-121860068D02*
X173842857Y-121917211D01*
X173842857Y-121917211D02*
X173442857Y-121917211D01*
D15*
X91340225Y-139800828D02*
X90483082Y-139800828D01*
X90911653Y-139800828D02*
X90911653Y-138300828D01*
X90911653Y-138300828D02*
X90768796Y-138515114D01*
X90768796Y-138515114D02*
X90625939Y-138657971D01*
X90625939Y-138657971D02*
X90483082Y-138729400D01*
D12*
X115785714Y-143907200D02*
X115928571Y-143954819D01*
X115928571Y-143954819D02*
X116166666Y-143954819D01*
X116166666Y-143954819D02*
X116261904Y-143907200D01*
X116261904Y-143907200D02*
X116309523Y-143859580D01*
X116309523Y-143859580D02*
X116357142Y-143764342D01*
X116357142Y-143764342D02*
X116357142Y-143669104D01*
X116357142Y-143669104D02*
X116309523Y-143573866D01*
X116309523Y-143573866D02*
X116261904Y-143526247D01*
X116261904Y-143526247D02*
X116166666Y-143478628D01*
X116166666Y-143478628D02*
X115976190Y-143431009D01*
X115976190Y-143431009D02*
X115880952Y-143383390D01*
X115880952Y-143383390D02*
X115833333Y-143335771D01*
X115833333Y-143335771D02*
X115785714Y-143240533D01*
X115785714Y-143240533D02*
X115785714Y-143145295D01*
X115785714Y-143145295D02*
X115833333Y-143050057D01*
X115833333Y-143050057D02*
X115880952Y-143002438D01*
X115880952Y-143002438D02*
X115976190Y-142954819D01*
X115976190Y-142954819D02*
X116214285Y-142954819D01*
X116214285Y-142954819D02*
X116357142Y-143002438D01*
X117214285Y-143954819D02*
X117214285Y-143431009D01*
X117214285Y-143431009D02*
X117166666Y-143335771D01*
X117166666Y-143335771D02*
X117071428Y-143288152D01*
X117071428Y-143288152D02*
X116880952Y-143288152D01*
X116880952Y-143288152D02*
X116785714Y-143335771D01*
X117214285Y-143907200D02*
X117119047Y-143954819D01*
X117119047Y-143954819D02*
X116880952Y-143954819D01*
X116880952Y-143954819D02*
X116785714Y-143907200D01*
X116785714Y-143907200D02*
X116738095Y-143811961D01*
X116738095Y-143811961D02*
X116738095Y-143716723D01*
X116738095Y-143716723D02*
X116785714Y-143621485D01*
X116785714Y-143621485D02*
X116880952Y-143573866D01*
X116880952Y-143573866D02*
X117119047Y-143573866D01*
X117119047Y-143573866D02*
X117214285Y-143526247D01*
X117690476Y-143954819D02*
X117690476Y-143288152D01*
X117690476Y-143383390D02*
X117738095Y-143335771D01*
X117738095Y-143335771D02*
X117833333Y-143288152D01*
X117833333Y-143288152D02*
X117976190Y-143288152D01*
X117976190Y-143288152D02*
X118071428Y-143335771D01*
X118071428Y-143335771D02*
X118119047Y-143431009D01*
X118119047Y-143431009D02*
X118119047Y-143954819D01*
X118119047Y-143431009D02*
X118166666Y-143335771D01*
X118166666Y-143335771D02*
X118261904Y-143288152D01*
X118261904Y-143288152D02*
X118404761Y-143288152D01*
X118404761Y-143288152D02*
X118500000Y-143335771D01*
X118500000Y-143335771D02*
X118547619Y-143431009D01*
X118547619Y-143431009D02*
X118547619Y-143954819D01*
X118880952Y-143288152D02*
X119261904Y-143288152D01*
X119023809Y-142954819D02*
X119023809Y-143811961D01*
X119023809Y-143811961D02*
X119071428Y-143907200D01*
X119071428Y-143907200D02*
X119166666Y-143954819D01*
X119166666Y-143954819D02*
X119261904Y-143954819D01*
X119976190Y-143907200D02*
X119880952Y-143954819D01*
X119880952Y-143954819D02*
X119690476Y-143954819D01*
X119690476Y-143954819D02*
X119595238Y-143907200D01*
X119595238Y-143907200D02*
X119547619Y-143811961D01*
X119547619Y-143811961D02*
X119547619Y-143431009D01*
X119547619Y-143431009D02*
X119595238Y-143335771D01*
X119595238Y-143335771D02*
X119690476Y-143288152D01*
X119690476Y-143288152D02*
X119880952Y-143288152D01*
X119880952Y-143288152D02*
X119976190Y-143335771D01*
X119976190Y-143335771D02*
X120023809Y-143431009D01*
X120023809Y-143431009D02*
X120023809Y-143526247D01*
X120023809Y-143526247D02*
X119547619Y-143621485D01*
X120880952Y-143907200D02*
X120785714Y-143954819D01*
X120785714Y-143954819D02*
X120595238Y-143954819D01*
X120595238Y-143954819D02*
X120500000Y-143907200D01*
X120500000Y-143907200D02*
X120452381Y-143859580D01*
X120452381Y-143859580D02*
X120404762Y-143764342D01*
X120404762Y-143764342D02*
X120404762Y-143478628D01*
X120404762Y-143478628D02*
X120452381Y-143383390D01*
X120452381Y-143383390D02*
X120500000Y-143335771D01*
X120500000Y-143335771D02*
X120595238Y-143288152D01*
X120595238Y-143288152D02*
X120785714Y-143288152D01*
X120785714Y-143288152D02*
X120880952Y-143335771D01*
X122404762Y-143431009D02*
X122547619Y-143478628D01*
X122547619Y-143478628D02*
X122595238Y-143526247D01*
X122595238Y-143526247D02*
X122642857Y-143621485D01*
X122642857Y-143621485D02*
X122642857Y-143764342D01*
X122642857Y-143764342D02*
X122595238Y-143859580D01*
X122595238Y-143859580D02*
X122547619Y-143907200D01*
X122547619Y-143907200D02*
X122452381Y-143954819D01*
X122452381Y-143954819D02*
X122071429Y-143954819D01*
X122071429Y-143954819D02*
X122071429Y-142954819D01*
X122071429Y-142954819D02*
X122404762Y-142954819D01*
X122404762Y-142954819D02*
X122500000Y-143002438D01*
X122500000Y-143002438D02*
X122547619Y-143050057D01*
X122547619Y-143050057D02*
X122595238Y-143145295D01*
X122595238Y-143145295D02*
X122595238Y-143240533D01*
X122595238Y-143240533D02*
X122547619Y-143335771D01*
X122547619Y-143335771D02*
X122500000Y-143383390D01*
X122500000Y-143383390D02*
X122404762Y-143431009D01*
X122404762Y-143431009D02*
X122071429Y-143431009D01*
X123642857Y-143859580D02*
X123595238Y-143907200D01*
X123595238Y-143907200D02*
X123452381Y-143954819D01*
X123452381Y-143954819D02*
X123357143Y-143954819D01*
X123357143Y-143954819D02*
X123214286Y-143907200D01*
X123214286Y-143907200D02*
X123119048Y-143811961D01*
X123119048Y-143811961D02*
X123071429Y-143716723D01*
X123071429Y-143716723D02*
X123023810Y-143526247D01*
X123023810Y-143526247D02*
X123023810Y-143383390D01*
X123023810Y-143383390D02*
X123071429Y-143192914D01*
X123071429Y-143192914D02*
X123119048Y-143097676D01*
X123119048Y-143097676D02*
X123214286Y-143002438D01*
X123214286Y-143002438D02*
X123357143Y-142954819D01*
X123357143Y-142954819D02*
X123452381Y-142954819D01*
X123452381Y-142954819D02*
X123595238Y-143002438D01*
X123595238Y-143002438D02*
X123642857Y-143050057D01*
X124023810Y-143907200D02*
X124166667Y-143954819D01*
X124166667Y-143954819D02*
X124404762Y-143954819D01*
X124404762Y-143954819D02*
X124500000Y-143907200D01*
X124500000Y-143907200D02*
X124547619Y-143859580D01*
X124547619Y-143859580D02*
X124595238Y-143764342D01*
X124595238Y-143764342D02*
X124595238Y-143669104D01*
X124595238Y-143669104D02*
X124547619Y-143573866D01*
X124547619Y-143573866D02*
X124500000Y-143526247D01*
X124500000Y-143526247D02*
X124404762Y-143478628D01*
X124404762Y-143478628D02*
X124214286Y-143431009D01*
X124214286Y-143431009D02*
X124119048Y-143383390D01*
X124119048Y-143383390D02*
X124071429Y-143335771D01*
X124071429Y-143335771D02*
X124023810Y-143240533D01*
X124023810Y-143240533D02*
X124023810Y-143145295D01*
X124023810Y-143145295D02*
X124071429Y-143050057D01*
X124071429Y-143050057D02*
X124119048Y-143002438D01*
X124119048Y-143002438D02*
X124214286Y-142954819D01*
X124214286Y-142954819D02*
X124452381Y-142954819D01*
X124452381Y-142954819D02*
X124595238Y-143002438D01*
X125023810Y-143573866D02*
X125785715Y-143573866D01*
X126785714Y-143954819D02*
X126214286Y-143954819D01*
X126500000Y-143954819D02*
X126500000Y-142954819D01*
X126500000Y-142954819D02*
X126404762Y-143097676D01*
X126404762Y-143097676D02*
X126309524Y-143192914D01*
X126309524Y-143192914D02*
X126214286Y-143240533D01*
X127166667Y-143050057D02*
X127214286Y-143002438D01*
X127214286Y-143002438D02*
X127309524Y-142954819D01*
X127309524Y-142954819D02*
X127547619Y-142954819D01*
X127547619Y-142954819D02*
X127642857Y-143002438D01*
X127642857Y-143002438D02*
X127690476Y-143050057D01*
X127690476Y-143050057D02*
X127738095Y-143145295D01*
X127738095Y-143145295D02*
X127738095Y-143240533D01*
X127738095Y-143240533D02*
X127690476Y-143383390D01*
X127690476Y-143383390D02*
X127119048Y-143954819D01*
X127119048Y-143954819D02*
X127738095Y-143954819D01*
X128642857Y-142954819D02*
X128166667Y-142954819D01*
X128166667Y-142954819D02*
X128119048Y-143431009D01*
X128119048Y-143431009D02*
X128166667Y-143383390D01*
X128166667Y-143383390D02*
X128261905Y-143335771D01*
X128261905Y-143335771D02*
X128500000Y-143335771D01*
X128500000Y-143335771D02*
X128595238Y-143383390D01*
X128595238Y-143383390D02*
X128642857Y-143431009D01*
X128642857Y-143431009D02*
X128690476Y-143526247D01*
X128690476Y-143526247D02*
X128690476Y-143764342D01*
X128690476Y-143764342D02*
X128642857Y-143859580D01*
X128642857Y-143859580D02*
X128595238Y-143907200D01*
X128595238Y-143907200D02*
X128500000Y-143954819D01*
X128500000Y-143954819D02*
X128261905Y-143954819D01*
X128261905Y-143954819D02*
X128166667Y-143907200D01*
X128166667Y-143907200D02*
X128119048Y-143859580D01*
X129119048Y-143573866D02*
X129880953Y-143573866D01*
X130690476Y-143431009D02*
X130357143Y-143431009D01*
X130357143Y-143954819D02*
X130357143Y-142954819D01*
X130357143Y-142954819D02*
X130833333Y-142954819D01*
X131214286Y-143573866D02*
X131976191Y-143573866D01*
X132452381Y-143954819D02*
X132452381Y-142954819D01*
X132452381Y-142954819D02*
X132690476Y-142954819D01*
X132690476Y-142954819D02*
X132833333Y-143002438D01*
X132833333Y-143002438D02*
X132928571Y-143097676D01*
X132928571Y-143097676D02*
X132976190Y-143192914D01*
X132976190Y-143192914D02*
X133023809Y-143383390D01*
X133023809Y-143383390D02*
X133023809Y-143526247D01*
X133023809Y-143526247D02*
X132976190Y-143716723D01*
X132976190Y-143716723D02*
X132928571Y-143811961D01*
X132928571Y-143811961D02*
X132833333Y-143907200D01*
X132833333Y-143907200D02*
X132690476Y-143954819D01*
X132690476Y-143954819D02*
X132452381Y-143954819D01*
X133452381Y-143573866D02*
X134214286Y-143573866D01*
X134690476Y-143954819D02*
X134690476Y-142954819D01*
X134690476Y-143431009D02*
X135261904Y-143431009D01*
X135261904Y-143954819D02*
X135261904Y-142954819D01*
X135738095Y-143431009D02*
X136071428Y-143431009D01*
X136214285Y-143954819D02*
X135738095Y-143954819D01*
X135738095Y-143954819D02*
X135738095Y-142954819D01*
X135738095Y-142954819D02*
X136214285Y-142954819D01*
X112650595Y-100294819D02*
X112650595Y-101104342D01*
X112650595Y-101104342D02*
X112698214Y-101199580D01*
X112698214Y-101199580D02*
X112745833Y-101247200D01*
X112745833Y-101247200D02*
X112841071Y-101294819D01*
X112841071Y-101294819D02*
X113031547Y-101294819D01*
X113031547Y-101294819D02*
X113126785Y-101247200D01*
X113126785Y-101247200D02*
X113174404Y-101199580D01*
X113174404Y-101199580D02*
X113222023Y-101104342D01*
X113222023Y-101104342D02*
X113222023Y-100294819D01*
X114126785Y-100294819D02*
X113936309Y-100294819D01*
X113936309Y-100294819D02*
X113841071Y-100342438D01*
X113841071Y-100342438D02*
X113793452Y-100390057D01*
X113793452Y-100390057D02*
X113698214Y-100532914D01*
X113698214Y-100532914D02*
X113650595Y-100723390D01*
X113650595Y-100723390D02*
X113650595Y-101104342D01*
X113650595Y-101104342D02*
X113698214Y-101199580D01*
X113698214Y-101199580D02*
X113745833Y-101247200D01*
X113745833Y-101247200D02*
X113841071Y-101294819D01*
X113841071Y-101294819D02*
X114031547Y-101294819D01*
X114031547Y-101294819D02*
X114126785Y-101247200D01*
X114126785Y-101247200D02*
X114174404Y-101199580D01*
X114174404Y-101199580D02*
X114222023Y-101104342D01*
X114222023Y-101104342D02*
X114222023Y-100866247D01*
X114222023Y-100866247D02*
X114174404Y-100771009D01*
X114174404Y-100771009D02*
X114126785Y-100723390D01*
X114126785Y-100723390D02*
X114031547Y-100675771D01*
X114031547Y-100675771D02*
X113841071Y-100675771D01*
X113841071Y-100675771D02*
X113745833Y-100723390D01*
X113745833Y-100723390D02*
X113698214Y-100771009D01*
X113698214Y-100771009D02*
X113650595Y-100866247D01*
X69738095Y-121454819D02*
X70309523Y-121454819D01*
X70023809Y-122454819D02*
X70023809Y-121454819D01*
X70642857Y-122454819D02*
X70642857Y-121454819D01*
X70642857Y-121454819D02*
X71023809Y-121454819D01*
X71023809Y-121454819D02*
X71119047Y-121502438D01*
X71119047Y-121502438D02*
X71166666Y-121550057D01*
X71166666Y-121550057D02*
X71214285Y-121645295D01*
X71214285Y-121645295D02*
X71214285Y-121788152D01*
X71214285Y-121788152D02*
X71166666Y-121883390D01*
X71166666Y-121883390D02*
X71119047Y-121931009D01*
X71119047Y-121931009D02*
X71023809Y-121978628D01*
X71023809Y-121978628D02*
X70642857Y-121978628D01*
X72166666Y-122454819D02*
X71595238Y-122454819D01*
X71880952Y-122454819D02*
X71880952Y-121454819D01*
X71880952Y-121454819D02*
X71785714Y-121597676D01*
X71785714Y-121597676D02*
X71690476Y-121692914D01*
X71690476Y-121692914D02*
X71595238Y-121740533D01*
D10*
X70085714Y-127601885D02*
X69971429Y-127544742D01*
X69971429Y-127544742D02*
X69800000Y-127544742D01*
X69800000Y-127544742D02*
X69628571Y-127601885D01*
X69628571Y-127601885D02*
X69514286Y-127716171D01*
X69514286Y-127716171D02*
X69457143Y-127830457D01*
X69457143Y-127830457D02*
X69400000Y-128059028D01*
X69400000Y-128059028D02*
X69400000Y-128230457D01*
X69400000Y-128230457D02*
X69457143Y-128459028D01*
X69457143Y-128459028D02*
X69514286Y-128573314D01*
X69514286Y-128573314D02*
X69628571Y-128687600D01*
X69628571Y-128687600D02*
X69800000Y-128744742D01*
X69800000Y-128744742D02*
X69914286Y-128744742D01*
X69914286Y-128744742D02*
X70085714Y-128687600D01*
X70085714Y-128687600D02*
X70142857Y-128630457D01*
X70142857Y-128630457D02*
X70142857Y-128230457D01*
X70142857Y-128230457D02*
X69914286Y-128230457D01*
X70657143Y-128744742D02*
X70657143Y-127544742D01*
X70657143Y-127544742D02*
X71342857Y-128744742D01*
X71342857Y-128744742D02*
X71342857Y-127544742D01*
X71914286Y-128744742D02*
X71914286Y-127544742D01*
X71914286Y-127544742D02*
X72200000Y-127544742D01*
X72200000Y-127544742D02*
X72371429Y-127601885D01*
X72371429Y-127601885D02*
X72485714Y-127716171D01*
X72485714Y-127716171D02*
X72542857Y-127830457D01*
X72542857Y-127830457D02*
X72600000Y-128059028D01*
X72600000Y-128059028D02*
X72600000Y-128230457D01*
X72600000Y-128230457D02*
X72542857Y-128459028D01*
X72542857Y-128459028D02*
X72485714Y-128573314D01*
X72485714Y-128573314D02*
X72371429Y-128687600D01*
X72371429Y-128687600D02*
X72200000Y-128744742D01*
X72200000Y-128744742D02*
X71914286Y-128744742D01*
D12*
X149816666Y-126454819D02*
X149816666Y-127169104D01*
X149816666Y-127169104D02*
X149769047Y-127311961D01*
X149769047Y-127311961D02*
X149673809Y-127407200D01*
X149673809Y-127407200D02*
X149530952Y-127454819D01*
X149530952Y-127454819D02*
X149435714Y-127454819D01*
X150245238Y-126550057D02*
X150292857Y-126502438D01*
X150292857Y-126502438D02*
X150388095Y-126454819D01*
X150388095Y-126454819D02*
X150626190Y-126454819D01*
X150626190Y-126454819D02*
X150721428Y-126502438D01*
X150721428Y-126502438D02*
X150769047Y-126550057D01*
X150769047Y-126550057D02*
X150816666Y-126645295D01*
X150816666Y-126645295D02*
X150816666Y-126740533D01*
X150816666Y-126740533D02*
X150769047Y-126883390D01*
X150769047Y-126883390D02*
X150197619Y-127454819D01*
X150197619Y-127454819D02*
X150816666Y-127454819D01*
X74779819Y-120388094D02*
X75589342Y-120388094D01*
X75589342Y-120388094D02*
X75684580Y-120340475D01*
X75684580Y-120340475D02*
X75732200Y-120292856D01*
X75732200Y-120292856D02*
X75779819Y-120197618D01*
X75779819Y-120197618D02*
X75779819Y-120007142D01*
X75779819Y-120007142D02*
X75732200Y-119911904D01*
X75732200Y-119911904D02*
X75684580Y-119864285D01*
X75684580Y-119864285D02*
X75589342Y-119816666D01*
X75589342Y-119816666D02*
X74779819Y-119816666D01*
X75779819Y-118816666D02*
X75779819Y-119388094D01*
X75779819Y-119102380D02*
X74779819Y-119102380D01*
X74779819Y-119102380D02*
X74922676Y-119197618D01*
X74922676Y-119197618D02*
X75017914Y-119292856D01*
X75017914Y-119292856D02*
X75065533Y-119388094D01*
X74875057Y-118435713D02*
X74827438Y-118388094D01*
X74827438Y-118388094D02*
X74779819Y-118292856D01*
X74779819Y-118292856D02*
X74779819Y-118054761D01*
X74779819Y-118054761D02*
X74827438Y-117959523D01*
X74827438Y-117959523D02*
X74875057Y-117911904D01*
X74875057Y-117911904D02*
X74970295Y-117864285D01*
X74970295Y-117864285D02*
X75065533Y-117864285D01*
X75065533Y-117864285D02*
X75208390Y-117911904D01*
X75208390Y-117911904D02*
X75779819Y-118483332D01*
X75779819Y-118483332D02*
X75779819Y-117864285D01*
X85129819Y-122411904D02*
X85129819Y-121745238D01*
X85129819Y-121745238D02*
X86129819Y-122173809D01*
X85463152Y-120935714D02*
X86129819Y-120935714D01*
X85082200Y-121173809D02*
X85796485Y-121411904D01*
X85796485Y-121411904D02*
X85796485Y-120792857D01*
X86129819Y-120411904D02*
X85129819Y-120411904D01*
X85606009Y-120411904D02*
X85606009Y-119840476D01*
X86129819Y-119840476D02*
X85129819Y-119840476D01*
X86034580Y-118792857D02*
X86082200Y-118840476D01*
X86082200Y-118840476D02*
X86129819Y-118983333D01*
X86129819Y-118983333D02*
X86129819Y-119078571D01*
X86129819Y-119078571D02*
X86082200Y-119221428D01*
X86082200Y-119221428D02*
X85986961Y-119316666D01*
X85986961Y-119316666D02*
X85891723Y-119364285D01*
X85891723Y-119364285D02*
X85701247Y-119411904D01*
X85701247Y-119411904D02*
X85558390Y-119411904D01*
X85558390Y-119411904D02*
X85367914Y-119364285D01*
X85367914Y-119364285D02*
X85272676Y-119316666D01*
X85272676Y-119316666D02*
X85177438Y-119221428D01*
X85177438Y-119221428D02*
X85129819Y-119078571D01*
X85129819Y-119078571D02*
X85129819Y-118983333D01*
X85129819Y-118983333D02*
X85177438Y-118840476D01*
X85177438Y-118840476D02*
X85225057Y-118792857D01*
X85225057Y-118411904D02*
X85177438Y-118364285D01*
X85177438Y-118364285D02*
X85129819Y-118269047D01*
X85129819Y-118269047D02*
X85129819Y-118030952D01*
X85129819Y-118030952D02*
X85177438Y-117935714D01*
X85177438Y-117935714D02*
X85225057Y-117888095D01*
X85225057Y-117888095D02*
X85320295Y-117840476D01*
X85320295Y-117840476D02*
X85415533Y-117840476D01*
X85415533Y-117840476D02*
X85558390Y-117888095D01*
X85558390Y-117888095D02*
X86129819Y-118459523D01*
X86129819Y-118459523D02*
X86129819Y-117840476D01*
X85463152Y-116983333D02*
X86129819Y-116983333D01*
X85082200Y-117221428D02*
X85796485Y-117459523D01*
X85796485Y-117459523D02*
X85796485Y-116840476D01*
X85129819Y-115983333D02*
X85129819Y-116459523D01*
X85129819Y-116459523D02*
X85606009Y-116507142D01*
X85606009Y-116507142D02*
X85558390Y-116459523D01*
X85558390Y-116459523D02*
X85510771Y-116364285D01*
X85510771Y-116364285D02*
X85510771Y-116126190D01*
X85510771Y-116126190D02*
X85558390Y-116030952D01*
X85558390Y-116030952D02*
X85606009Y-115983333D01*
X85606009Y-115983333D02*
X85701247Y-115935714D01*
X85701247Y-115935714D02*
X85939342Y-115935714D01*
X85939342Y-115935714D02*
X86034580Y-115983333D01*
X86034580Y-115983333D02*
X86082200Y-116030952D01*
X86082200Y-116030952D02*
X86129819Y-116126190D01*
X86129819Y-116126190D02*
X86129819Y-116364285D01*
X86129819Y-116364285D02*
X86082200Y-116459523D01*
X86082200Y-116459523D02*
X86034580Y-116507142D01*
X171954819Y-137761904D02*
X172764342Y-137761904D01*
X172764342Y-137761904D02*
X172859580Y-137714285D01*
X172859580Y-137714285D02*
X172907200Y-137666666D01*
X172907200Y-137666666D02*
X172954819Y-137571428D01*
X172954819Y-137571428D02*
X172954819Y-137380952D01*
X172954819Y-137380952D02*
X172907200Y-137285714D01*
X172907200Y-137285714D02*
X172859580Y-137238095D01*
X172859580Y-137238095D02*
X172764342Y-137190476D01*
X172764342Y-137190476D02*
X171954819Y-137190476D01*
X172954819Y-136190476D02*
X172954819Y-136761904D01*
X172954819Y-136476190D02*
X171954819Y-136476190D01*
X171954819Y-136476190D02*
X172097676Y-136571428D01*
X172097676Y-136571428D02*
X172192914Y-136666666D01*
X172192914Y-136666666D02*
X172240533Y-136761904D01*
X177831604Y-137261904D02*
X177831604Y-136785714D01*
X178117319Y-137357142D02*
X177117319Y-137023809D01*
X177117319Y-137023809D02*
X178117319Y-136690476D01*
X177117319Y-136499999D02*
X177117319Y-135928571D01*
X178117319Y-136214285D02*
X177117319Y-136214285D01*
X177593509Y-135261904D02*
X177593509Y-135595237D01*
X178117319Y-135595237D02*
X177117319Y-135595237D01*
X177117319Y-135595237D02*
X177117319Y-135119047D01*
X178117319Y-134214285D02*
X178117319Y-134785713D01*
X178117319Y-134499999D02*
X177117319Y-134499999D01*
X177117319Y-134499999D02*
X177260176Y-134595237D01*
X177260176Y-134595237D02*
X177355414Y-134690475D01*
X177355414Y-134690475D02*
X177403033Y-134785713D01*
X177117319Y-133309523D02*
X177117319Y-133785713D01*
X177117319Y-133785713D02*
X177593509Y-133833332D01*
X177593509Y-133833332D02*
X177545890Y-133785713D01*
X177545890Y-133785713D02*
X177498271Y-133690475D01*
X177498271Y-133690475D02*
X177498271Y-133452380D01*
X177498271Y-133452380D02*
X177545890Y-133357142D01*
X177545890Y-133357142D02*
X177593509Y-133309523D01*
X177593509Y-133309523D02*
X177688747Y-133261904D01*
X177688747Y-133261904D02*
X177926842Y-133261904D01*
X177926842Y-133261904D02*
X178022080Y-133309523D01*
X178022080Y-133309523D02*
X178069700Y-133357142D01*
X178069700Y-133357142D02*
X178117319Y-133452380D01*
X178117319Y-133452380D02*
X178117319Y-133690475D01*
X178117319Y-133690475D02*
X178069700Y-133785713D01*
X178069700Y-133785713D02*
X178022080Y-133833332D01*
X177117319Y-132642856D02*
X177117319Y-132547618D01*
X177117319Y-132547618D02*
X177164938Y-132452380D01*
X177164938Y-132452380D02*
X177212557Y-132404761D01*
X177212557Y-132404761D02*
X177307795Y-132357142D01*
X177307795Y-132357142D02*
X177498271Y-132309523D01*
X177498271Y-132309523D02*
X177736366Y-132309523D01*
X177736366Y-132309523D02*
X177926842Y-132357142D01*
X177926842Y-132357142D02*
X178022080Y-132404761D01*
X178022080Y-132404761D02*
X178069700Y-132452380D01*
X178069700Y-132452380D02*
X178117319Y-132547618D01*
X178117319Y-132547618D02*
X178117319Y-132642856D01*
X178117319Y-132642856D02*
X178069700Y-132738094D01*
X178069700Y-132738094D02*
X178022080Y-132785713D01*
X178022080Y-132785713D02*
X177926842Y-132833332D01*
X177926842Y-132833332D02*
X177736366Y-132880951D01*
X177736366Y-132880951D02*
X177498271Y-132880951D01*
X177498271Y-132880951D02*
X177307795Y-132833332D01*
X177307795Y-132833332D02*
X177212557Y-132785713D01*
X177212557Y-132785713D02*
X177164938Y-132738094D01*
X177164938Y-132738094D02*
X177117319Y-132642856D01*
X177212557Y-131928570D02*
X177164938Y-131880951D01*
X177164938Y-131880951D02*
X177117319Y-131785713D01*
X177117319Y-131785713D02*
X177117319Y-131547618D01*
X177117319Y-131547618D02*
X177164938Y-131452380D01*
X177164938Y-131452380D02*
X177212557Y-131404761D01*
X177212557Y-131404761D02*
X177307795Y-131357142D01*
X177307795Y-131357142D02*
X177403033Y-131357142D01*
X177403033Y-131357142D02*
X177545890Y-131404761D01*
X177545890Y-131404761D02*
X178117319Y-131976189D01*
X178117319Y-131976189D02*
X178117319Y-131357142D01*
X177831604Y-130976189D02*
X177831604Y-130499999D01*
X178117319Y-131071427D02*
X177117319Y-130738094D01*
X177117319Y-130738094D02*
X178117319Y-130404761D01*
X178069700Y-130119046D02*
X178117319Y-129976189D01*
X178117319Y-129976189D02*
X178117319Y-129738094D01*
X178117319Y-129738094D02*
X178069700Y-129642856D01*
X178069700Y-129642856D02*
X178022080Y-129595237D01*
X178022080Y-129595237D02*
X177926842Y-129547618D01*
X177926842Y-129547618D02*
X177831604Y-129547618D01*
X177831604Y-129547618D02*
X177736366Y-129595237D01*
X177736366Y-129595237D02*
X177688747Y-129642856D01*
X177688747Y-129642856D02*
X177641128Y-129738094D01*
X177641128Y-129738094D02*
X177593509Y-129928570D01*
X177593509Y-129928570D02*
X177545890Y-130023808D01*
X177545890Y-130023808D02*
X177498271Y-130071427D01*
X177498271Y-130071427D02*
X177403033Y-130119046D01*
X177403033Y-130119046D02*
X177307795Y-130119046D01*
X177307795Y-130119046D02*
X177212557Y-130071427D01*
X177212557Y-130071427D02*
X177164938Y-130023808D01*
X177164938Y-130023808D02*
X177117319Y-129928570D01*
X177117319Y-129928570D02*
X177117319Y-129690475D01*
X177117319Y-129690475D02*
X177164938Y-129547618D01*
X178117319Y-128642856D02*
X178117319Y-129119046D01*
X178117319Y-129119046D02*
X177117319Y-129119046D01*
X112650595Y-77954819D02*
X112650595Y-78764342D01*
X112650595Y-78764342D02*
X112698214Y-78859580D01*
X112698214Y-78859580D02*
X112745833Y-78907200D01*
X112745833Y-78907200D02*
X112841071Y-78954819D01*
X112841071Y-78954819D02*
X113031547Y-78954819D01*
X113031547Y-78954819D02*
X113126785Y-78907200D01*
X113126785Y-78907200D02*
X113174404Y-78859580D01*
X113174404Y-78859580D02*
X113222023Y-78764342D01*
X113222023Y-78764342D02*
X113222023Y-77954819D01*
X113650595Y-78050057D02*
X113698214Y-78002438D01*
X113698214Y-78002438D02*
X113793452Y-77954819D01*
X113793452Y-77954819D02*
X114031547Y-77954819D01*
X114031547Y-77954819D02*
X114126785Y-78002438D01*
X114126785Y-78002438D02*
X114174404Y-78050057D01*
X114174404Y-78050057D02*
X114222023Y-78145295D01*
X114222023Y-78145295D02*
X114222023Y-78240533D01*
X114222023Y-78240533D02*
X114174404Y-78383390D01*
X114174404Y-78383390D02*
X113602976Y-78954819D01*
X113602976Y-78954819D02*
X114222023Y-78954819D01*
X111081604Y-96404761D02*
X111081604Y-95928571D01*
X111367319Y-96499999D02*
X110367319Y-96166666D01*
X110367319Y-96166666D02*
X111367319Y-95833333D01*
X111319700Y-95547618D02*
X111367319Y-95404761D01*
X111367319Y-95404761D02*
X111367319Y-95166666D01*
X111367319Y-95166666D02*
X111319700Y-95071428D01*
X111319700Y-95071428D02*
X111272080Y-95023809D01*
X111272080Y-95023809D02*
X111176842Y-94976190D01*
X111176842Y-94976190D02*
X111081604Y-94976190D01*
X111081604Y-94976190D02*
X110986366Y-95023809D01*
X110986366Y-95023809D02*
X110938747Y-95071428D01*
X110938747Y-95071428D02*
X110891128Y-95166666D01*
X110891128Y-95166666D02*
X110843509Y-95357142D01*
X110843509Y-95357142D02*
X110795890Y-95452380D01*
X110795890Y-95452380D02*
X110748271Y-95499999D01*
X110748271Y-95499999D02*
X110653033Y-95547618D01*
X110653033Y-95547618D02*
X110557795Y-95547618D01*
X110557795Y-95547618D02*
X110462557Y-95499999D01*
X110462557Y-95499999D02*
X110414938Y-95452380D01*
X110414938Y-95452380D02*
X110367319Y-95357142D01*
X110367319Y-95357142D02*
X110367319Y-95119047D01*
X110367319Y-95119047D02*
X110414938Y-94976190D01*
X110367319Y-94119047D02*
X110367319Y-94309523D01*
X110367319Y-94309523D02*
X110414938Y-94404761D01*
X110414938Y-94404761D02*
X110462557Y-94452380D01*
X110462557Y-94452380D02*
X110605414Y-94547618D01*
X110605414Y-94547618D02*
X110795890Y-94595237D01*
X110795890Y-94595237D02*
X111176842Y-94595237D01*
X111176842Y-94595237D02*
X111272080Y-94547618D01*
X111272080Y-94547618D02*
X111319700Y-94499999D01*
X111319700Y-94499999D02*
X111367319Y-94404761D01*
X111367319Y-94404761D02*
X111367319Y-94214285D01*
X111367319Y-94214285D02*
X111319700Y-94119047D01*
X111319700Y-94119047D02*
X111272080Y-94071428D01*
X111272080Y-94071428D02*
X111176842Y-94023809D01*
X111176842Y-94023809D02*
X110938747Y-94023809D01*
X110938747Y-94023809D02*
X110843509Y-94071428D01*
X110843509Y-94071428D02*
X110795890Y-94119047D01*
X110795890Y-94119047D02*
X110748271Y-94214285D01*
X110748271Y-94214285D02*
X110748271Y-94404761D01*
X110748271Y-94404761D02*
X110795890Y-94499999D01*
X110795890Y-94499999D02*
X110843509Y-94547618D01*
X110843509Y-94547618D02*
X110938747Y-94595237D01*
X111272080Y-93023809D02*
X111319700Y-93071428D01*
X111319700Y-93071428D02*
X111367319Y-93214285D01*
X111367319Y-93214285D02*
X111367319Y-93309523D01*
X111367319Y-93309523D02*
X111319700Y-93452380D01*
X111319700Y-93452380D02*
X111224461Y-93547618D01*
X111224461Y-93547618D02*
X111129223Y-93595237D01*
X111129223Y-93595237D02*
X110938747Y-93642856D01*
X110938747Y-93642856D02*
X110795890Y-93642856D01*
X110795890Y-93642856D02*
X110605414Y-93595237D01*
X110605414Y-93595237D02*
X110510176Y-93547618D01*
X110510176Y-93547618D02*
X110414938Y-93452380D01*
X110414938Y-93452380D02*
X110367319Y-93309523D01*
X110367319Y-93309523D02*
X110367319Y-93214285D01*
X110367319Y-93214285D02*
X110414938Y-93071428D01*
X110414938Y-93071428D02*
X110462557Y-93023809D01*
X110795890Y-92452380D02*
X110748271Y-92547618D01*
X110748271Y-92547618D02*
X110700652Y-92595237D01*
X110700652Y-92595237D02*
X110605414Y-92642856D01*
X110605414Y-92642856D02*
X110557795Y-92642856D01*
X110557795Y-92642856D02*
X110462557Y-92595237D01*
X110462557Y-92595237D02*
X110414938Y-92547618D01*
X110414938Y-92547618D02*
X110367319Y-92452380D01*
X110367319Y-92452380D02*
X110367319Y-92261904D01*
X110367319Y-92261904D02*
X110414938Y-92166666D01*
X110414938Y-92166666D02*
X110462557Y-92119047D01*
X110462557Y-92119047D02*
X110557795Y-92071428D01*
X110557795Y-92071428D02*
X110605414Y-92071428D01*
X110605414Y-92071428D02*
X110700652Y-92119047D01*
X110700652Y-92119047D02*
X110748271Y-92166666D01*
X110748271Y-92166666D02*
X110795890Y-92261904D01*
X110795890Y-92261904D02*
X110795890Y-92452380D01*
X110795890Y-92452380D02*
X110843509Y-92547618D01*
X110843509Y-92547618D02*
X110891128Y-92595237D01*
X110891128Y-92595237D02*
X110986366Y-92642856D01*
X110986366Y-92642856D02*
X111176842Y-92642856D01*
X111176842Y-92642856D02*
X111272080Y-92595237D01*
X111272080Y-92595237D02*
X111319700Y-92547618D01*
X111319700Y-92547618D02*
X111367319Y-92452380D01*
X111367319Y-92452380D02*
X111367319Y-92261904D01*
X111367319Y-92261904D02*
X111319700Y-92166666D01*
X111319700Y-92166666D02*
X111272080Y-92119047D01*
X111272080Y-92119047D02*
X111176842Y-92071428D01*
X111176842Y-92071428D02*
X110986366Y-92071428D01*
X110986366Y-92071428D02*
X110891128Y-92119047D01*
X110891128Y-92119047D02*
X110843509Y-92166666D01*
X110843509Y-92166666D02*
X110795890Y-92261904D01*
X110367319Y-91452380D02*
X110367319Y-91357142D01*
X110367319Y-91357142D02*
X110414938Y-91261904D01*
X110414938Y-91261904D02*
X110462557Y-91214285D01*
X110462557Y-91214285D02*
X110557795Y-91166666D01*
X110557795Y-91166666D02*
X110748271Y-91119047D01*
X110748271Y-91119047D02*
X110986366Y-91119047D01*
X110986366Y-91119047D02*
X111176842Y-91166666D01*
X111176842Y-91166666D02*
X111272080Y-91214285D01*
X111272080Y-91214285D02*
X111319700Y-91261904D01*
X111319700Y-91261904D02*
X111367319Y-91357142D01*
X111367319Y-91357142D02*
X111367319Y-91452380D01*
X111367319Y-91452380D02*
X111319700Y-91547618D01*
X111319700Y-91547618D02*
X111272080Y-91595237D01*
X111272080Y-91595237D02*
X111176842Y-91642856D01*
X111176842Y-91642856D02*
X110986366Y-91690475D01*
X110986366Y-91690475D02*
X110748271Y-91690475D01*
X110748271Y-91690475D02*
X110557795Y-91642856D01*
X110557795Y-91642856D02*
X110462557Y-91595237D01*
X110462557Y-91595237D02*
X110414938Y-91547618D01*
X110414938Y-91547618D02*
X110367319Y-91452380D01*
X110367319Y-90499999D02*
X110367319Y-90404761D01*
X110367319Y-90404761D02*
X110414938Y-90309523D01*
X110414938Y-90309523D02*
X110462557Y-90261904D01*
X110462557Y-90261904D02*
X110557795Y-90214285D01*
X110557795Y-90214285D02*
X110748271Y-90166666D01*
X110748271Y-90166666D02*
X110986366Y-90166666D01*
X110986366Y-90166666D02*
X111176842Y-90214285D01*
X111176842Y-90214285D02*
X111272080Y-90261904D01*
X111272080Y-90261904D02*
X111319700Y-90309523D01*
X111319700Y-90309523D02*
X111367319Y-90404761D01*
X111367319Y-90404761D02*
X111367319Y-90499999D01*
X111367319Y-90499999D02*
X111319700Y-90595237D01*
X111319700Y-90595237D02*
X111272080Y-90642856D01*
X111272080Y-90642856D02*
X111176842Y-90690475D01*
X111176842Y-90690475D02*
X110986366Y-90738094D01*
X110986366Y-90738094D02*
X110748271Y-90738094D01*
X110748271Y-90738094D02*
X110557795Y-90690475D01*
X110557795Y-90690475D02*
X110462557Y-90642856D01*
X110462557Y-90642856D02*
X110414938Y-90595237D01*
X110414938Y-90595237D02*
X110367319Y-90499999D01*
X110795890Y-89595237D02*
X110748271Y-89690475D01*
X110748271Y-89690475D02*
X110700652Y-89738094D01*
X110700652Y-89738094D02*
X110605414Y-89785713D01*
X110605414Y-89785713D02*
X110557795Y-89785713D01*
X110557795Y-89785713D02*
X110462557Y-89738094D01*
X110462557Y-89738094D02*
X110414938Y-89690475D01*
X110414938Y-89690475D02*
X110367319Y-89595237D01*
X110367319Y-89595237D02*
X110367319Y-89404761D01*
X110367319Y-89404761D02*
X110414938Y-89309523D01*
X110414938Y-89309523D02*
X110462557Y-89261904D01*
X110462557Y-89261904D02*
X110557795Y-89214285D01*
X110557795Y-89214285D02*
X110605414Y-89214285D01*
X110605414Y-89214285D02*
X110700652Y-89261904D01*
X110700652Y-89261904D02*
X110748271Y-89309523D01*
X110748271Y-89309523D02*
X110795890Y-89404761D01*
X110795890Y-89404761D02*
X110795890Y-89595237D01*
X110795890Y-89595237D02*
X110843509Y-89690475D01*
X110843509Y-89690475D02*
X110891128Y-89738094D01*
X110891128Y-89738094D02*
X110986366Y-89785713D01*
X110986366Y-89785713D02*
X111176842Y-89785713D01*
X111176842Y-89785713D02*
X111272080Y-89738094D01*
X111272080Y-89738094D02*
X111319700Y-89690475D01*
X111319700Y-89690475D02*
X111367319Y-89595237D01*
X111367319Y-89595237D02*
X111367319Y-89404761D01*
X111367319Y-89404761D02*
X111319700Y-89309523D01*
X111319700Y-89309523D02*
X111272080Y-89261904D01*
X111272080Y-89261904D02*
X111176842Y-89214285D01*
X111176842Y-89214285D02*
X110986366Y-89214285D01*
X110986366Y-89214285D02*
X110891128Y-89261904D01*
X110891128Y-89261904D02*
X110843509Y-89309523D01*
X110843509Y-89309523D02*
X110795890Y-89404761D01*
X110986366Y-88785713D02*
X110986366Y-88023809D01*
X110367319Y-87071428D02*
X110367319Y-87547618D01*
X110367319Y-87547618D02*
X110843509Y-87595237D01*
X110843509Y-87595237D02*
X110795890Y-87547618D01*
X110795890Y-87547618D02*
X110748271Y-87452380D01*
X110748271Y-87452380D02*
X110748271Y-87214285D01*
X110748271Y-87214285D02*
X110795890Y-87119047D01*
X110795890Y-87119047D02*
X110843509Y-87071428D01*
X110843509Y-87071428D02*
X110938747Y-87023809D01*
X110938747Y-87023809D02*
X111176842Y-87023809D01*
X111176842Y-87023809D02*
X111272080Y-87071428D01*
X111272080Y-87071428D02*
X111319700Y-87119047D01*
X111319700Y-87119047D02*
X111367319Y-87214285D01*
X111367319Y-87214285D02*
X111367319Y-87452380D01*
X111367319Y-87452380D02*
X111319700Y-87547618D01*
X111319700Y-87547618D02*
X111272080Y-87595237D01*
X110367319Y-86119047D02*
X110367319Y-86595237D01*
X110367319Y-86595237D02*
X110843509Y-86642856D01*
X110843509Y-86642856D02*
X110795890Y-86595237D01*
X110795890Y-86595237D02*
X110748271Y-86499999D01*
X110748271Y-86499999D02*
X110748271Y-86261904D01*
X110748271Y-86261904D02*
X110795890Y-86166666D01*
X110795890Y-86166666D02*
X110843509Y-86119047D01*
X110843509Y-86119047D02*
X110938747Y-86071428D01*
X110938747Y-86071428D02*
X111176842Y-86071428D01*
X111176842Y-86071428D02*
X111272080Y-86119047D01*
X111272080Y-86119047D02*
X111319700Y-86166666D01*
X111319700Y-86166666D02*
X111367319Y-86261904D01*
X111367319Y-86261904D02*
X111367319Y-86499999D01*
X111367319Y-86499999D02*
X111319700Y-86595237D01*
X111319700Y-86595237D02*
X111272080Y-86642856D01*
X110367319Y-85738094D02*
X110367319Y-85071428D01*
X110367319Y-85071428D02*
X111367319Y-85738094D01*
X111367319Y-85738094D02*
X111367319Y-85071428D01*
X111367319Y-84690475D02*
X110367319Y-84690475D01*
X111367319Y-84214285D02*
X110367319Y-84214285D01*
X110367319Y-84214285D02*
X111367319Y-83642857D01*
X111367319Y-83642857D02*
X110367319Y-83642857D01*
X91666666Y-134954819D02*
X91666666Y-135669104D01*
X91666666Y-135669104D02*
X91619047Y-135811961D01*
X91619047Y-135811961D02*
X91523809Y-135907200D01*
X91523809Y-135907200D02*
X91380952Y-135954819D01*
X91380952Y-135954819D02*
X91285714Y-135954819D01*
X92666666Y-135954819D02*
X92095238Y-135954819D01*
X92380952Y-135954819D02*
X92380952Y-134954819D01*
X92380952Y-134954819D02*
X92285714Y-135097676D01*
X92285714Y-135097676D02*
X92190476Y-135192914D01*
X92190476Y-135192914D02*
X92095238Y-135240533D01*
X121666665Y-136454819D02*
X121333332Y-135978628D01*
X121095237Y-136454819D02*
X121095237Y-135454819D01*
X121095237Y-135454819D02*
X121476189Y-135454819D01*
X121476189Y-135454819D02*
X121571427Y-135502438D01*
X121571427Y-135502438D02*
X121619046Y-135550057D01*
X121619046Y-135550057D02*
X121666665Y-135645295D01*
X121666665Y-135645295D02*
X121666665Y-135788152D01*
X121666665Y-135788152D02*
X121619046Y-135883390D01*
X121619046Y-135883390D02*
X121571427Y-135931009D01*
X121571427Y-135931009D02*
X121476189Y-135978628D01*
X121476189Y-135978628D02*
X121095237Y-135978628D01*
X122047618Y-136169104D02*
X122523808Y-136169104D01*
X121952380Y-136454819D02*
X122285713Y-135454819D01*
X122285713Y-135454819D02*
X122619046Y-136454819D01*
X122952380Y-136454819D02*
X122952380Y-135454819D01*
X122952380Y-135454819D02*
X123285713Y-136169104D01*
X123285713Y-136169104D02*
X123619046Y-135454819D01*
X123619046Y-135454819D02*
X123619046Y-136454819D01*
X125428570Y-136359580D02*
X125380951Y-136407200D01*
X125380951Y-136407200D02*
X125238094Y-136454819D01*
X125238094Y-136454819D02*
X125142856Y-136454819D01*
X125142856Y-136454819D02*
X124999999Y-136407200D01*
X124999999Y-136407200D02*
X124904761Y-136311961D01*
X124904761Y-136311961D02*
X124857142Y-136216723D01*
X124857142Y-136216723D02*
X124809523Y-136026247D01*
X124809523Y-136026247D02*
X124809523Y-135883390D01*
X124809523Y-135883390D02*
X124857142Y-135692914D01*
X124857142Y-135692914D02*
X124904761Y-135597676D01*
X124904761Y-135597676D02*
X124999999Y-135502438D01*
X124999999Y-135502438D02*
X125142856Y-135454819D01*
X125142856Y-135454819D02*
X125238094Y-135454819D01*
X125238094Y-135454819D02*
X125380951Y-135502438D01*
X125380951Y-135502438D02*
X125428570Y-135550057D01*
X125999999Y-136454819D02*
X125904761Y-136407200D01*
X125904761Y-136407200D02*
X125857142Y-136359580D01*
X125857142Y-136359580D02*
X125809523Y-136264342D01*
X125809523Y-136264342D02*
X125809523Y-135978628D01*
X125809523Y-135978628D02*
X125857142Y-135883390D01*
X125857142Y-135883390D02*
X125904761Y-135835771D01*
X125904761Y-135835771D02*
X125999999Y-135788152D01*
X125999999Y-135788152D02*
X126142856Y-135788152D01*
X126142856Y-135788152D02*
X126238094Y-135835771D01*
X126238094Y-135835771D02*
X126285713Y-135883390D01*
X126285713Y-135883390D02*
X126333332Y-135978628D01*
X126333332Y-135978628D02*
X126333332Y-136264342D01*
X126333332Y-136264342D02*
X126285713Y-136359580D01*
X126285713Y-136359580D02*
X126238094Y-136407200D01*
X126238094Y-136407200D02*
X126142856Y-136454819D01*
X126142856Y-136454819D02*
X125999999Y-136454819D01*
X126761904Y-135788152D02*
X126761904Y-136454819D01*
X126761904Y-135883390D02*
X126809523Y-135835771D01*
X126809523Y-135835771D02*
X126904761Y-135788152D01*
X126904761Y-135788152D02*
X127047618Y-135788152D01*
X127047618Y-135788152D02*
X127142856Y-135835771D01*
X127142856Y-135835771D02*
X127190475Y-135931009D01*
X127190475Y-135931009D02*
X127190475Y-136454819D01*
X127666666Y-135788152D02*
X127666666Y-136454819D01*
X127666666Y-135883390D02*
X127714285Y-135835771D01*
X127714285Y-135835771D02*
X127809523Y-135788152D01*
X127809523Y-135788152D02*
X127952380Y-135788152D01*
X127952380Y-135788152D02*
X128047618Y-135835771D01*
X128047618Y-135835771D02*
X128095237Y-135931009D01*
X128095237Y-135931009D02*
X128095237Y-136454819D01*
X128952380Y-136407200D02*
X128857142Y-136454819D01*
X128857142Y-136454819D02*
X128666666Y-136454819D01*
X128666666Y-136454819D02*
X128571428Y-136407200D01*
X128571428Y-136407200D02*
X128523809Y-136311961D01*
X128523809Y-136311961D02*
X128523809Y-135931009D01*
X128523809Y-135931009D02*
X128571428Y-135835771D01*
X128571428Y-135835771D02*
X128666666Y-135788152D01*
X128666666Y-135788152D02*
X128857142Y-135788152D01*
X128857142Y-135788152D02*
X128952380Y-135835771D01*
X128952380Y-135835771D02*
X128999999Y-135931009D01*
X128999999Y-135931009D02*
X128999999Y-136026247D01*
X128999999Y-136026247D02*
X128523809Y-136121485D01*
X129857142Y-136407200D02*
X129761904Y-136454819D01*
X129761904Y-136454819D02*
X129571428Y-136454819D01*
X129571428Y-136454819D02*
X129476190Y-136407200D01*
X129476190Y-136407200D02*
X129428571Y-136359580D01*
X129428571Y-136359580D02*
X129380952Y-136264342D01*
X129380952Y-136264342D02*
X129380952Y-135978628D01*
X129380952Y-135978628D02*
X129428571Y-135883390D01*
X129428571Y-135883390D02*
X129476190Y-135835771D01*
X129476190Y-135835771D02*
X129571428Y-135788152D01*
X129571428Y-135788152D02*
X129761904Y-135788152D01*
X129761904Y-135788152D02*
X129857142Y-135835771D01*
X130142857Y-135788152D02*
X130523809Y-135788152D01*
X130285714Y-135454819D02*
X130285714Y-136311961D01*
X130285714Y-136311961D02*
X130333333Y-136407200D01*
X130333333Y-136407200D02*
X130428571Y-136454819D01*
X130428571Y-136454819D02*
X130523809Y-136454819D01*
X131000000Y-136454819D02*
X130904762Y-136407200D01*
X130904762Y-136407200D02*
X130857143Y-136359580D01*
X130857143Y-136359580D02*
X130809524Y-136264342D01*
X130809524Y-136264342D02*
X130809524Y-135978628D01*
X130809524Y-135978628D02*
X130857143Y-135883390D01*
X130857143Y-135883390D02*
X130904762Y-135835771D01*
X130904762Y-135835771D02*
X131000000Y-135788152D01*
X131000000Y-135788152D02*
X131142857Y-135788152D01*
X131142857Y-135788152D02*
X131238095Y-135835771D01*
X131238095Y-135835771D02*
X131285714Y-135883390D01*
X131285714Y-135883390D02*
X131333333Y-135978628D01*
X131333333Y-135978628D02*
X131333333Y-136264342D01*
X131333333Y-136264342D02*
X131285714Y-136359580D01*
X131285714Y-136359580D02*
X131238095Y-136407200D01*
X131238095Y-136407200D02*
X131142857Y-136454819D01*
X131142857Y-136454819D02*
X131000000Y-136454819D01*
X131761905Y-136454819D02*
X131761905Y-135788152D01*
X131761905Y-135978628D02*
X131809524Y-135883390D01*
X131809524Y-135883390D02*
X131857143Y-135835771D01*
X131857143Y-135835771D02*
X131952381Y-135788152D01*
X131952381Y-135788152D02*
X132047619Y-135788152D01*
X134150595Y-77954819D02*
X134150595Y-78764342D01*
X134150595Y-78764342D02*
X134198214Y-78859580D01*
X134198214Y-78859580D02*
X134245833Y-78907200D01*
X134245833Y-78907200D02*
X134341071Y-78954819D01*
X134341071Y-78954819D02*
X134531547Y-78954819D01*
X134531547Y-78954819D02*
X134626785Y-78907200D01*
X134626785Y-78907200D02*
X134674404Y-78859580D01*
X134674404Y-78859580D02*
X134722023Y-78764342D01*
X134722023Y-78764342D02*
X134722023Y-77954819D01*
X135102976Y-77954819D02*
X135722023Y-77954819D01*
X135722023Y-77954819D02*
X135388690Y-78335771D01*
X135388690Y-78335771D02*
X135531547Y-78335771D01*
X135531547Y-78335771D02*
X135626785Y-78383390D01*
X135626785Y-78383390D02*
X135674404Y-78431009D01*
X135674404Y-78431009D02*
X135722023Y-78526247D01*
X135722023Y-78526247D02*
X135722023Y-78764342D01*
X135722023Y-78764342D02*
X135674404Y-78859580D01*
X135674404Y-78859580D02*
X135626785Y-78907200D01*
X135626785Y-78907200D02*
X135531547Y-78954819D01*
X135531547Y-78954819D02*
X135245833Y-78954819D01*
X135245833Y-78954819D02*
X135150595Y-78907200D01*
X135150595Y-78907200D02*
X135102976Y-78859580D01*
X155650595Y-77954819D02*
X155650595Y-78764342D01*
X155650595Y-78764342D02*
X155698214Y-78859580D01*
X155698214Y-78859580D02*
X155745833Y-78907200D01*
X155745833Y-78907200D02*
X155841071Y-78954819D01*
X155841071Y-78954819D02*
X156031547Y-78954819D01*
X156031547Y-78954819D02*
X156126785Y-78907200D01*
X156126785Y-78907200D02*
X156174404Y-78859580D01*
X156174404Y-78859580D02*
X156222023Y-78764342D01*
X156222023Y-78764342D02*
X156222023Y-77954819D01*
X157126785Y-78288152D02*
X157126785Y-78954819D01*
X156888690Y-77907200D02*
X156650595Y-78621485D01*
X156650595Y-78621485D02*
X157269642Y-78621485D01*
X155650595Y-100294819D02*
X155650595Y-101104342D01*
X155650595Y-101104342D02*
X155698214Y-101199580D01*
X155698214Y-101199580D02*
X155745833Y-101247200D01*
X155745833Y-101247200D02*
X155841071Y-101294819D01*
X155841071Y-101294819D02*
X156031547Y-101294819D01*
X156031547Y-101294819D02*
X156126785Y-101247200D01*
X156126785Y-101247200D02*
X156174404Y-101199580D01*
X156174404Y-101199580D02*
X156222023Y-101104342D01*
X156222023Y-101104342D02*
X156222023Y-100294819D01*
X156841071Y-100723390D02*
X156745833Y-100675771D01*
X156745833Y-100675771D02*
X156698214Y-100628152D01*
X156698214Y-100628152D02*
X156650595Y-100532914D01*
X156650595Y-100532914D02*
X156650595Y-100485295D01*
X156650595Y-100485295D02*
X156698214Y-100390057D01*
X156698214Y-100390057D02*
X156745833Y-100342438D01*
X156745833Y-100342438D02*
X156841071Y-100294819D01*
X156841071Y-100294819D02*
X157031547Y-100294819D01*
X157031547Y-100294819D02*
X157126785Y-100342438D01*
X157126785Y-100342438D02*
X157174404Y-100390057D01*
X157174404Y-100390057D02*
X157222023Y-100485295D01*
X157222023Y-100485295D02*
X157222023Y-100532914D01*
X157222023Y-100532914D02*
X157174404Y-100628152D01*
X157174404Y-100628152D02*
X157126785Y-100675771D01*
X157126785Y-100675771D02*
X157031547Y-100723390D01*
X157031547Y-100723390D02*
X156841071Y-100723390D01*
X156841071Y-100723390D02*
X156745833Y-100771009D01*
X156745833Y-100771009D02*
X156698214Y-100818628D01*
X156698214Y-100818628D02*
X156650595Y-100913866D01*
X156650595Y-100913866D02*
X156650595Y-101104342D01*
X156650595Y-101104342D02*
X156698214Y-101199580D01*
X156698214Y-101199580D02*
X156745833Y-101247200D01*
X156745833Y-101247200D02*
X156841071Y-101294819D01*
X156841071Y-101294819D02*
X157031547Y-101294819D01*
X157031547Y-101294819D02*
X157126785Y-101247200D01*
X157126785Y-101247200D02*
X157174404Y-101199580D01*
X157174404Y-101199580D02*
X157222023Y-101104342D01*
X157222023Y-101104342D02*
X157222023Y-100913866D01*
X157222023Y-100913866D02*
X157174404Y-100818628D01*
X157174404Y-100818628D02*
X157126785Y-100771009D01*
X157126785Y-100771009D02*
X157031547Y-100723390D01*
X176993333Y-72304819D02*
X176660000Y-71828628D01*
X176421905Y-72304819D02*
X176421905Y-71304819D01*
X176421905Y-71304819D02*
X176802857Y-71304819D01*
X176802857Y-71304819D02*
X176898095Y-71352438D01*
X176898095Y-71352438D02*
X176945714Y-71400057D01*
X176945714Y-71400057D02*
X176993333Y-71495295D01*
X176993333Y-71495295D02*
X176993333Y-71638152D01*
X176993333Y-71638152D02*
X176945714Y-71733390D01*
X176945714Y-71733390D02*
X176898095Y-71781009D01*
X176898095Y-71781009D02*
X176802857Y-71828628D01*
X176802857Y-71828628D02*
X176421905Y-71828628D01*
X177898095Y-71304819D02*
X177421905Y-71304819D01*
X177421905Y-71304819D02*
X177374286Y-71781009D01*
X177374286Y-71781009D02*
X177421905Y-71733390D01*
X177421905Y-71733390D02*
X177517143Y-71685771D01*
X177517143Y-71685771D02*
X177755238Y-71685771D01*
X177755238Y-71685771D02*
X177850476Y-71733390D01*
X177850476Y-71733390D02*
X177898095Y-71781009D01*
X177898095Y-71781009D02*
X177945714Y-71876247D01*
X177945714Y-71876247D02*
X177945714Y-72114342D01*
X177945714Y-72114342D02*
X177898095Y-72209580D01*
X177898095Y-72209580D02*
X177850476Y-72257200D01*
X177850476Y-72257200D02*
X177755238Y-72304819D01*
X177755238Y-72304819D02*
X177517143Y-72304819D01*
X177517143Y-72304819D02*
X177421905Y-72257200D01*
X177421905Y-72257200D02*
X177374286Y-72209580D01*
X177650595Y-100454819D02*
X177650595Y-101264342D01*
X177650595Y-101264342D02*
X177698214Y-101359580D01*
X177698214Y-101359580D02*
X177745833Y-101407200D01*
X177745833Y-101407200D02*
X177841071Y-101454819D01*
X177841071Y-101454819D02*
X178031547Y-101454819D01*
X178031547Y-101454819D02*
X178126785Y-101407200D01*
X178126785Y-101407200D02*
X178174404Y-101359580D01*
X178174404Y-101359580D02*
X178222023Y-101264342D01*
X178222023Y-101264342D02*
X178222023Y-100454819D01*
X178745833Y-101454819D02*
X178936309Y-101454819D01*
X178936309Y-101454819D02*
X179031547Y-101407200D01*
X179031547Y-101407200D02*
X179079166Y-101359580D01*
X179079166Y-101359580D02*
X179174404Y-101216723D01*
X179174404Y-101216723D02*
X179222023Y-101026247D01*
X179222023Y-101026247D02*
X179222023Y-100645295D01*
X179222023Y-100645295D02*
X179174404Y-100550057D01*
X179174404Y-100550057D02*
X179126785Y-100502438D01*
X179126785Y-100502438D02*
X179031547Y-100454819D01*
X179031547Y-100454819D02*
X178841071Y-100454819D01*
X178841071Y-100454819D02*
X178745833Y-100502438D01*
X178745833Y-100502438D02*
X178698214Y-100550057D01*
X178698214Y-100550057D02*
X178650595Y-100645295D01*
X178650595Y-100645295D02*
X178650595Y-100883390D01*
X178650595Y-100883390D02*
X178698214Y-100978628D01*
X178698214Y-100978628D02*
X178745833Y-101026247D01*
X178745833Y-101026247D02*
X178841071Y-101073866D01*
X178841071Y-101073866D02*
X179031547Y-101073866D01*
X179031547Y-101073866D02*
X179126785Y-101026247D01*
X179126785Y-101026247D02*
X179174404Y-100978628D01*
X179174404Y-100978628D02*
X179222023Y-100883390D01*
X74739819Y-97388094D02*
X75549342Y-97388094D01*
X75549342Y-97388094D02*
X75644580Y-97340475D01*
X75644580Y-97340475D02*
X75692200Y-97292856D01*
X75692200Y-97292856D02*
X75739819Y-97197618D01*
X75739819Y-97197618D02*
X75739819Y-97007142D01*
X75739819Y-97007142D02*
X75692200Y-96911904D01*
X75692200Y-96911904D02*
X75644580Y-96864285D01*
X75644580Y-96864285D02*
X75549342Y-96816666D01*
X75549342Y-96816666D02*
X74739819Y-96816666D01*
X75739819Y-95816666D02*
X75739819Y-96388094D01*
X75739819Y-96102380D02*
X74739819Y-96102380D01*
X74739819Y-96102380D02*
X74882676Y-96197618D01*
X74882676Y-96197618D02*
X74977914Y-96292856D01*
X74977914Y-96292856D02*
X75025533Y-96388094D01*
X75739819Y-94864285D02*
X75739819Y-95435713D01*
X75739819Y-95149999D02*
X74739819Y-95149999D01*
X74739819Y-95149999D02*
X74882676Y-95245237D01*
X74882676Y-95245237D02*
X74977914Y-95340475D01*
X74977914Y-95340475D02*
X75025533Y-95435713D01*
X85089819Y-99411904D02*
X85089819Y-98745238D01*
X85089819Y-98745238D02*
X86089819Y-99173809D01*
X85423152Y-97935714D02*
X86089819Y-97935714D01*
X85042200Y-98173809D02*
X85756485Y-98411904D01*
X85756485Y-98411904D02*
X85756485Y-97792857D01*
X86089819Y-97411904D02*
X85089819Y-97411904D01*
X85566009Y-97411904D02*
X85566009Y-96840476D01*
X86089819Y-96840476D02*
X85089819Y-96840476D01*
X85994580Y-95792857D02*
X86042200Y-95840476D01*
X86042200Y-95840476D02*
X86089819Y-95983333D01*
X86089819Y-95983333D02*
X86089819Y-96078571D01*
X86089819Y-96078571D02*
X86042200Y-96221428D01*
X86042200Y-96221428D02*
X85946961Y-96316666D01*
X85946961Y-96316666D02*
X85851723Y-96364285D01*
X85851723Y-96364285D02*
X85661247Y-96411904D01*
X85661247Y-96411904D02*
X85518390Y-96411904D01*
X85518390Y-96411904D02*
X85327914Y-96364285D01*
X85327914Y-96364285D02*
X85232676Y-96316666D01*
X85232676Y-96316666D02*
X85137438Y-96221428D01*
X85137438Y-96221428D02*
X85089819Y-96078571D01*
X85089819Y-96078571D02*
X85089819Y-95983333D01*
X85089819Y-95983333D02*
X85137438Y-95840476D01*
X85137438Y-95840476D02*
X85185057Y-95792857D01*
X85185057Y-95411904D02*
X85137438Y-95364285D01*
X85137438Y-95364285D02*
X85089819Y-95269047D01*
X85089819Y-95269047D02*
X85089819Y-95030952D01*
X85089819Y-95030952D02*
X85137438Y-94935714D01*
X85137438Y-94935714D02*
X85185057Y-94888095D01*
X85185057Y-94888095D02*
X85280295Y-94840476D01*
X85280295Y-94840476D02*
X85375533Y-94840476D01*
X85375533Y-94840476D02*
X85518390Y-94888095D01*
X85518390Y-94888095D02*
X86089819Y-95459523D01*
X86089819Y-95459523D02*
X86089819Y-94840476D01*
X85423152Y-93983333D02*
X86089819Y-93983333D01*
X85042200Y-94221428D02*
X85756485Y-94459523D01*
X85756485Y-94459523D02*
X85756485Y-93840476D01*
X85089819Y-92983333D02*
X85089819Y-93459523D01*
X85089819Y-93459523D02*
X85566009Y-93507142D01*
X85566009Y-93507142D02*
X85518390Y-93459523D01*
X85518390Y-93459523D02*
X85470771Y-93364285D01*
X85470771Y-93364285D02*
X85470771Y-93126190D01*
X85470771Y-93126190D02*
X85518390Y-93030952D01*
X85518390Y-93030952D02*
X85566009Y-92983333D01*
X85566009Y-92983333D02*
X85661247Y-92935714D01*
X85661247Y-92935714D02*
X85899342Y-92935714D01*
X85899342Y-92935714D02*
X85994580Y-92983333D01*
X85994580Y-92983333D02*
X86042200Y-93030952D01*
X86042200Y-93030952D02*
X86089819Y-93126190D01*
X86089819Y-93126190D02*
X86089819Y-93364285D01*
X86089819Y-93364285D02*
X86042200Y-93459523D01*
X86042200Y-93459523D02*
X85994580Y-93507142D01*
X188454819Y-74333333D02*
X189169104Y-74333333D01*
X189169104Y-74333333D02*
X189311961Y-74380952D01*
X189311961Y-74380952D02*
X189407200Y-74476190D01*
X189407200Y-74476190D02*
X189454819Y-74619047D01*
X189454819Y-74619047D02*
X189454819Y-74714285D01*
X189454819Y-73857142D02*
X188454819Y-73857142D01*
X188454819Y-73857142D02*
X188454819Y-73476190D01*
X188454819Y-73476190D02*
X188502438Y-73380952D01*
X188502438Y-73380952D02*
X188550057Y-73333333D01*
X188550057Y-73333333D02*
X188645295Y-73285714D01*
X188645295Y-73285714D02*
X188788152Y-73285714D01*
X188788152Y-73285714D02*
X188883390Y-73333333D01*
X188883390Y-73333333D02*
X188931009Y-73380952D01*
X188931009Y-73380952D02*
X188978628Y-73476190D01*
X188978628Y-73476190D02*
X188978628Y-73857142D01*
X189454819Y-72333333D02*
X189454819Y-72904761D01*
X189454819Y-72619047D02*
X188454819Y-72619047D01*
X188454819Y-72619047D02*
X188597676Y-72714285D01*
X188597676Y-72714285D02*
X188692914Y-72809523D01*
X188692914Y-72809523D02*
X188740533Y-72904761D01*
X134150595Y-100294819D02*
X134150595Y-101104342D01*
X134150595Y-101104342D02*
X134198214Y-101199580D01*
X134198214Y-101199580D02*
X134245833Y-101247200D01*
X134245833Y-101247200D02*
X134341071Y-101294819D01*
X134341071Y-101294819D02*
X134531547Y-101294819D01*
X134531547Y-101294819D02*
X134626785Y-101247200D01*
X134626785Y-101247200D02*
X134674404Y-101199580D01*
X134674404Y-101199580D02*
X134722023Y-101104342D01*
X134722023Y-101104342D02*
X134722023Y-100294819D01*
X135102976Y-100294819D02*
X135769642Y-100294819D01*
X135769642Y-100294819D02*
X135341071Y-101294819D01*
X177650595Y-77954819D02*
X177650595Y-78764342D01*
X177650595Y-78764342D02*
X177698214Y-78859580D01*
X177698214Y-78859580D02*
X177745833Y-78907200D01*
X177745833Y-78907200D02*
X177841071Y-78954819D01*
X177841071Y-78954819D02*
X178031547Y-78954819D01*
X178031547Y-78954819D02*
X178126785Y-78907200D01*
X178126785Y-78907200D02*
X178174404Y-78859580D01*
X178174404Y-78859580D02*
X178222023Y-78764342D01*
X178222023Y-78764342D02*
X178222023Y-77954819D01*
X179174404Y-77954819D02*
X178698214Y-77954819D01*
X178698214Y-77954819D02*
X178650595Y-78431009D01*
X178650595Y-78431009D02*
X178698214Y-78383390D01*
X178698214Y-78383390D02*
X178793452Y-78335771D01*
X178793452Y-78335771D02*
X179031547Y-78335771D01*
X179031547Y-78335771D02*
X179126785Y-78383390D01*
X179126785Y-78383390D02*
X179174404Y-78431009D01*
X179174404Y-78431009D02*
X179222023Y-78526247D01*
X179222023Y-78526247D02*
X179222023Y-78764342D01*
X179222023Y-78764342D02*
X179174404Y-78859580D01*
X179174404Y-78859580D02*
X179126785Y-78907200D01*
X179126785Y-78907200D02*
X179031547Y-78954819D01*
X179031547Y-78954819D02*
X178793452Y-78954819D01*
X178793452Y-78954819D02*
X178698214Y-78907200D01*
X178698214Y-78907200D02*
X178650595Y-78859580D01*
D11*
%TO.C,U6*%
X108222500Y-101685000D02*
X118602500Y-101685000D01*
X108222500Y-102065000D02*
X108222500Y-101685000D01*
X108222500Y-120315000D02*
X108222500Y-119935000D01*
X118602500Y-101685000D02*
X118602500Y-102065000D01*
X118602500Y-119935000D02*
X118602500Y-120315000D01*
X118602500Y-120315000D02*
X108222500Y-120315000D01*
X107582500Y-102060000D02*
X107242500Y-101590000D01*
X107922500Y-101590000D01*
X107582500Y-102060000D01*
G36*
X107582500Y-102060000D02*
G01*
X107242500Y-101590000D01*
X107922500Y-101590000D01*
X107582500Y-102060000D01*
G37*
D12*
%TO.C,TP1*%
X72750000Y-125000000D02*
G75*
G02*
X69250000Y-125000000I-1750000J0D01*
G01*
X69250000Y-125000000D02*
G75*
G02*
X72750000Y-125000000I1750000J0D01*
G01*
D11*
%TO.C,J2*%
X142420000Y-128620000D02*
X142420000Y-131380000D01*
X155230000Y-128620000D02*
X142420000Y-128620000D01*
X155230000Y-128620000D02*
X155230000Y-131380000D01*
X155230000Y-131380000D02*
X142420000Y-131380000D01*
X156500000Y-128620000D02*
X157880000Y-128620000D01*
X157880000Y-128620000D02*
X157880000Y-130000000D01*
%TO.C,U12*%
X76165000Y-115290000D02*
X76400000Y-115290000D01*
X76165000Y-123010000D02*
X76165000Y-115290000D01*
X76400000Y-123010000D02*
X76165000Y-123010000D01*
X88950000Y-115290000D02*
X89185000Y-115290000D01*
X89185000Y-115290000D02*
X89185000Y-123010000D01*
X89185000Y-123010000D02*
X88950000Y-123010000D01*
X76395000Y-123800000D02*
X75925000Y-124140000D01*
X75925000Y-123460000D01*
X76395000Y-123800000D01*
G36*
X76395000Y-123800000D02*
G01*
X75925000Y-124140000D01*
X75925000Y-123460000D01*
X76395000Y-123800000D01*
G37*
%TO.C,U1*%
X175052500Y-128390000D02*
X175627500Y-128390000D01*
X175052500Y-128965000D02*
X175052500Y-128390000D01*
X175052500Y-138610000D02*
X175052500Y-138035000D01*
X175627500Y-138610000D02*
X175052500Y-138610000D01*
X184697500Y-128390000D02*
X185272500Y-128390000D01*
X185272500Y-128390000D02*
X185272500Y-128965000D01*
X185272500Y-138035000D02*
X185272500Y-138610000D01*
X185272500Y-138610000D02*
X184697500Y-138610000D01*
X175622500Y-139250000D02*
X175152500Y-139590000D01*
X175152500Y-138910000D01*
X175622500Y-139250000D01*
G36*
X175622500Y-139250000D02*
G01*
X175152500Y-139590000D01*
X175152500Y-138910000D01*
X175622500Y-139250000D01*
G37*
%TO.C,U2*%
X108222500Y-80685000D02*
X118602500Y-80685000D01*
X108222500Y-81065000D02*
X108222500Y-80685000D01*
X108222500Y-99315000D02*
X108222500Y-98935000D01*
X118602500Y-80685000D02*
X118602500Y-81065000D01*
X118602500Y-98935000D02*
X118602500Y-99315000D01*
X118602500Y-99315000D02*
X108222500Y-99315000D01*
X107582500Y-81060000D02*
X107242500Y-80590000D01*
X107922500Y-80590000D01*
X107582500Y-81060000D01*
G36*
X107582500Y-81060000D02*
G01*
X107242500Y-80590000D01*
X107922500Y-80590000D01*
X107582500Y-81060000D01*
G37*
%TO.C,J1*%
X94250000Y-139435000D02*
X94250000Y-147565000D01*
X157750000Y-139435000D02*
X94250000Y-139435000D01*
X157750000Y-139435000D02*
X157750000Y-147565000D01*
X157750000Y-147565000D02*
X94250000Y-147565000D01*
%TO.C,U3*%
X129722500Y-80685000D02*
X140102500Y-80685000D01*
X129722500Y-81065000D02*
X129722500Y-80685000D01*
X129722500Y-99315000D02*
X129722500Y-98935000D01*
X140102500Y-80685000D02*
X140102500Y-81065000D01*
X140102500Y-98935000D02*
X140102500Y-99315000D01*
X140102500Y-99315000D02*
X129722500Y-99315000D01*
X129082500Y-81060000D02*
X128742500Y-80590000D01*
X129422500Y-80590000D01*
X129082500Y-81060000D01*
G36*
X129082500Y-81060000D02*
G01*
X128742500Y-80590000D01*
X129422500Y-80590000D01*
X129082500Y-81060000D01*
G37*
%TO.C,U4*%
X151222500Y-80685000D02*
X161602500Y-80685000D01*
X151222500Y-81065000D02*
X151222500Y-80685000D01*
X151222500Y-99315000D02*
X151222500Y-98935000D01*
X161602500Y-80685000D02*
X161602500Y-81065000D01*
X161602500Y-98935000D02*
X161602500Y-99315000D01*
X161602500Y-99315000D02*
X151222500Y-99315000D01*
X150582500Y-81060000D02*
X150242500Y-80590000D01*
X150922500Y-80590000D01*
X150582500Y-81060000D01*
G36*
X150582500Y-81060000D02*
G01*
X150242500Y-80590000D01*
X150922500Y-80590000D01*
X150582500Y-81060000D01*
G37*
%TO.C,U8*%
X151222500Y-101685000D02*
X161602500Y-101685000D01*
X151222500Y-102065000D02*
X151222500Y-101685000D01*
X151222500Y-120315000D02*
X151222500Y-119935000D01*
X161602500Y-101685000D02*
X161602500Y-102065000D01*
X161602500Y-119935000D02*
X161602500Y-120315000D01*
X161602500Y-120315000D02*
X151222500Y-120315000D01*
X150582500Y-102060000D02*
X150242500Y-101590000D01*
X150922500Y-101590000D01*
X150582500Y-102060000D01*
G36*
X150582500Y-102060000D02*
G01*
X150242500Y-101590000D01*
X150922500Y-101590000D01*
X150582500Y-102060000D01*
G37*
%TO.C,R5*%
X177432936Y-72765000D02*
X177887064Y-72765000D01*
X177432936Y-74235000D02*
X177887064Y-74235000D01*
%TO.C,U9*%
X173222500Y-101685000D02*
X183602500Y-101685000D01*
X173222500Y-102065000D02*
X173222500Y-101685000D01*
X173222500Y-120315000D02*
X173222500Y-119935000D01*
X183602500Y-101685000D02*
X183602500Y-102065000D01*
X183602500Y-119935000D02*
X183602500Y-120315000D01*
X183602500Y-120315000D02*
X173222500Y-120315000D01*
X172582500Y-102060000D02*
X172242500Y-101590000D01*
X172922500Y-101590000D01*
X172582500Y-102060000D01*
G36*
X172582500Y-102060000D02*
G01*
X172242500Y-101590000D01*
X172922500Y-101590000D01*
X172582500Y-102060000D01*
G37*
%TO.C,U11*%
X76125000Y-92290000D02*
X76360000Y-92290000D01*
X76125000Y-100010000D02*
X76125000Y-92290000D01*
X76360000Y-100010000D02*
X76125000Y-100010000D01*
X88910000Y-92290000D02*
X89145000Y-92290000D01*
X89145000Y-92290000D02*
X89145000Y-100010000D01*
X89145000Y-100010000D02*
X88910000Y-100010000D01*
X76355000Y-100800000D02*
X75885000Y-101140000D01*
X75885000Y-100460000D01*
X76355000Y-100800000D01*
G36*
X76355000Y-100800000D02*
G01*
X75885000Y-101140000D01*
X75885000Y-100460000D01*
X76355000Y-100800000D01*
G37*
%TO.C,JP1*%
X182120000Y-72120000D02*
X182120000Y-74880000D01*
X184770000Y-72120000D02*
X182120000Y-72120000D01*
X184770000Y-72120000D02*
X184770000Y-74880000D01*
X184770000Y-74880000D02*
X182120000Y-74880000D01*
X186040000Y-72120000D02*
X187420000Y-72120000D01*
X187420000Y-72120000D02*
X187420000Y-73500000D01*
%TO.C,U7*%
X129722500Y-101685000D02*
X140102500Y-101685000D01*
X129722500Y-102065000D02*
X129722500Y-101685000D01*
X129722500Y-120315000D02*
X129722500Y-119935000D01*
X140102500Y-101685000D02*
X140102500Y-102065000D01*
X140102500Y-119935000D02*
X140102500Y-120315000D01*
X140102500Y-120315000D02*
X129722500Y-120315000D01*
X129082500Y-102060000D02*
X128742500Y-101590000D01*
X129422500Y-101590000D01*
X129082500Y-102060000D01*
G36*
X129082500Y-102060000D02*
G01*
X128742500Y-101590000D01*
X129422500Y-101590000D01*
X129082500Y-102060000D01*
G37*
%TO.C,U5*%
X173222500Y-80685000D02*
X183602500Y-80685000D01*
X173222500Y-81065000D02*
X173222500Y-80685000D01*
X173222500Y-99315000D02*
X173222500Y-98935000D01*
X183602500Y-80685000D02*
X183602500Y-81065000D01*
X183602500Y-98935000D02*
X183602500Y-99315000D01*
X183602500Y-99315000D02*
X173222500Y-99315000D01*
X172582500Y-81060000D02*
X172242500Y-80590000D01*
X172922500Y-80590000D01*
X172582500Y-81060000D01*
G36*
X172582500Y-81060000D02*
G01*
X172242500Y-80590000D01*
X172922500Y-80590000D01*
X172582500Y-81060000D01*
G37*
%TD*%
M02*
