%TF.GenerationSoftware,KiCad,Pcbnew,9.0.8*%
%TF.CreationDate,2026-07-10T12:41:50-04:00*%
%TF.ProjectId,PortableRAM-8MB,506f7274-6162-46c6-9552-414d2d384d42,2.0*%
%TF.SameCoordinates,Original*%
%TF.FileFunction,Copper,L4,Bot*%
%TF.FilePolarity,Positive*%
%FSLAX46Y46*%
G04 Gerber Fmt 4.6, Leading zero omitted, Abs format (unit mm)*
G04 Created by KiCad (PCBNEW 9.0.8) date 2026-07-10 12:41:50*
%MOMM*%
%LPD*%
G01*
G04 APERTURE LIST*
G04 Aperture macros list*
%AMRoundRect*
0 Rectangle with rounded corners*
0 $1 Rounding radius*
0 $2 $3 $4 $5 $6 $7 $8 $9 X,Y pos of 4 corners*
0 Add a 4 corners polygon primitive as box body*
4,1,4,$2,$3,$4,$5,$6,$7,$8,$9,$2,$3,0*
0 Add four circle primitives for the rounded corners*
1,1,$1+$1,$2,$3*
1,1,$1+$1,$4,$5*
1,1,$1+$1,$6,$7*
1,1,$1+$1,$8,$9*
0 Add four rect primitives between the rounded corners*
20,1,$1+$1,$2,$3,$4,$5,0*
20,1,$1+$1,$4,$5,$6,$7,0*
20,1,$1+$1,$6,$7,$8,$9,0*
20,1,$1+$1,$8,$9,$2,$3,0*%
G04 Aperture macros list end*
%TA.AperFunction,ComponentPad*%
%ADD10C,2.800000*%
%TD*%
%TA.AperFunction,ComponentPad*%
%ADD11R,1.700000X1.700000*%
%TD*%
%TA.AperFunction,ComponentPad*%
%ADD12C,1.700000*%
%TD*%
%TA.AperFunction,ComponentPad*%
%ADD13R,1.060000X1.060000*%
%TD*%
%TA.AperFunction,ComponentPad*%
%ADD14C,1.060000*%
%TD*%
%TA.AperFunction,SMDPad,CuDef*%
%ADD15RoundRect,0.250000X0.250000X0.475000X-0.250000X0.475000X-0.250000X-0.475000X0.250000X-0.475000X0*%
%TD*%
%TA.AperFunction,SMDPad,CuDef*%
%ADD16RoundRect,0.250000X-0.475000X0.250000X-0.475000X-0.250000X0.475000X-0.250000X0.475000X0.250000X0*%
%TD*%
%TA.AperFunction,SMDPad,CuDef*%
%ADD17RoundRect,0.250000X0.475000X-0.250000X0.475000X0.250000X-0.475000X0.250000X-0.475000X-0.250000X0*%
%TD*%
%TA.AperFunction,SMDPad,CuDef*%
%ADD18RoundRect,0.250000X0.450000X-0.262500X0.450000X0.262500X-0.450000X0.262500X-0.450000X-0.262500X0*%
%TD*%
%TA.AperFunction,SMDPad,CuDef*%
%ADD19RoundRect,0.250000X-0.250000X-0.475000X0.250000X-0.475000X0.250000X0.475000X-0.250000X0.475000X0*%
%TD*%
%TA.AperFunction,SMDPad,CuDef*%
%ADD20RoundRect,0.250000X-0.450000X0.262500X-0.450000X-0.262500X0.450000X-0.262500X0.450000X0.262500X0*%
%TD*%
%TA.AperFunction,ViaPad*%
%ADD21C,0.600000*%
%TD*%
%TA.AperFunction,Conductor*%
%ADD22C,0.200000*%
%TD*%
G04 APERTURE END LIST*
D10*
%TO.P,TP1,1*%
%TO.N,GND*%
X71000000Y-125000000D03*
%TD*%
D11*
%TO.P,J2,1,TCK*%
%TO.N,/TCK*%
X156500000Y-130000000D03*
D12*
%TO.P,J2,2,TMS*%
%TO.N,/TMS*%
X153960000Y-130000000D03*
%TO.P,J2,3,TDI*%
%TO.N,/TDI*%
X151420000Y-130000000D03*
%TO.P,J2,4,TDO*%
%TO.N,/TDO*%
X148880000Y-130000000D03*
%TO.P,J2,5,VCC*%
%TO.N,+5V*%
X146340000Y-130000000D03*
%TO.P,J2,6,GND*%
%TO.N,GND*%
X143800000Y-130000000D03*
%TD*%
D13*
%TO.P,J1,1,Pin_1*%
%TO.N,+5V*%
X95520000Y-139565000D03*
D14*
%TO.P,J1,2,Pin_2*%
%TO.N,/A1*%
X95520000Y-147435000D03*
%TO.P,J1,3,Pin_3*%
%TO.N,/A2*%
X98060000Y-139565000D03*
%TO.P,J1,4,Pin_4*%
%TO.N,/A3*%
X98060000Y-147435000D03*
%TO.P,J1,5,Pin_5*%
%TO.N,/A4*%
X100600000Y-139565000D03*
%TO.P,J1,6,Pin_6*%
%TO.N,/A5*%
X100600000Y-147435000D03*
%TO.P,J1,7,Pin_7*%
%TO.N,/A6*%
X103140000Y-139565000D03*
%TO.P,J1,8,Pin_8*%
%TO.N,/A7*%
X103140000Y-147435000D03*
%TO.P,J1,9,Pin_9*%
%TO.N,/A8*%
X105680000Y-139565000D03*
%TO.P,J1,10,Pin_10*%
%TO.N,/A9*%
X105680000Y-147435000D03*
%TO.P,J1,11,Pin_11*%
%TO.N,/A10*%
X108220000Y-139565000D03*
%TO.P,J1,12,Pin_12*%
%TO.N,/A11*%
X108220000Y-147435000D03*
%TO.P,J1,13,Pin_13*%
%TO.N,/A12*%
X110760000Y-139565000D03*
%TO.P,J1,14,Pin_14*%
%TO.N,/A13*%
X110760000Y-147435000D03*
%TO.P,J1,15,Pin_15*%
%TO.N,/A14*%
X113300000Y-139565000D03*
%TO.P,J1,16,Pin_16*%
%TO.N,/A15*%
X113300000Y-147435000D03*
%TO.P,J1,17,Pin_17*%
%TO.N,/A16*%
X115840000Y-139565000D03*
%TO.P,J1,18,Pin_18*%
%TO.N,/A17*%
X115840000Y-147435000D03*
%TO.P,J1,19,Pin_19*%
%TO.N,/A18*%
X118380000Y-139565000D03*
%TO.P,J1,20,Pin_20*%
%TO.N,/A19*%
X118380000Y-147435000D03*
%TO.P,J1,21,Pin_21*%
%TO.N,/A20*%
X120920000Y-139565000D03*
%TO.P,J1,22,Pin_22*%
%TO.N,/A21*%
X120920000Y-147435000D03*
%TO.P,J1,23,Pin_23*%
%TO.N,/A22*%
X123460000Y-139565000D03*
%TO.P,J1,24,Pin_24*%
%TO.N,/A23*%
X123460000Y-147435000D03*
%TO.P,J1,25,Pin_25*%
%TO.N,GND*%
X126000000Y-139565000D03*
%TO.P,J1,26,Pin_26*%
X126000000Y-147435000D03*
%TO.P,J1,27,Pin_27*%
%TO.N,unconnected-(J1-Pin_27-Pad27)*%
X128540000Y-139565000D03*
%TO.P,J1,28,Pin_28*%
%TO.N,unconnected-(J1-Pin_28-Pad28)*%
X128540000Y-147435000D03*
%TO.P,J1,29,Pin_29*%
%TO.N,/RW*%
X131080000Y-139565000D03*
%TO.P,J1,30,Pin_30*%
%TO.N,/UDS*%
X131080000Y-147435000D03*
%TO.P,J1,31,Pin_31*%
%TO.N,/LDS*%
X133620000Y-139565000D03*
%TO.P,J1,32,Pin_32*%
%TO.N,unconnected-(J1-Pin_32-Pad32)*%
X133620000Y-147435000D03*
%TO.P,J1,33,Pin_33*%
%TO.N,/D0*%
X136160000Y-139565000D03*
%TO.P,J1,34,Pin_34*%
%TO.N,/D1*%
X136160000Y-147435000D03*
%TO.P,J1,35,Pin_35*%
%TO.N,/D2*%
X138700000Y-139565000D03*
%TO.P,J1,36,Pin_36*%
%TO.N,/D3*%
X138700000Y-147435000D03*
%TO.P,J1,37,Pin_37*%
%TO.N,/D4*%
X141240000Y-139565000D03*
%TO.P,J1,38,Pin_38*%
%TO.N,/D5*%
X141240000Y-147435000D03*
%TO.P,J1,39,Pin_39*%
%TO.N,/D6*%
X143780000Y-139565000D03*
%TO.P,J1,40,Pin_40*%
%TO.N,/D7*%
X143780000Y-147435000D03*
%TO.P,J1,41,Pin_41*%
%TO.N,/D8*%
X146320000Y-139565000D03*
%TO.P,J1,42,Pin_42*%
%TO.N,/D9*%
X146320000Y-147435000D03*
%TO.P,J1,43,Pin_43*%
%TO.N,/D10*%
X148860000Y-139565000D03*
%TO.P,J1,44,Pin_44*%
%TO.N,/D11*%
X148860000Y-147435000D03*
%TO.P,J1,45,Pin_45*%
%TO.N,/D12*%
X151400000Y-139565000D03*
%TO.P,J1,46,Pin_46*%
%TO.N,/D13*%
X151400000Y-147435000D03*
%TO.P,J1,47,Pin_47*%
%TO.N,/D14*%
X153940000Y-139565000D03*
%TO.P,J1,48,Pin_48*%
%TO.N,/D15*%
X153940000Y-147435000D03*
%TO.P,J1,49,Pin_49*%
%TO.N,+5V*%
X156480000Y-139565000D03*
%TO.P,J1,50,Pin_50*%
X156480000Y-147435000D03*
%TD*%
D11*
%TO.P,JP1,1,Pin_1*%
%TO.N,/SIZE8*%
X186040000Y-73500000D03*
D12*
%TO.P,JP1,2,Pin_2*%
%TO.N,GND*%
X183500000Y-73500000D03*
%TD*%
D15*
%TO.P,C19,1*%
%TO.N,+5V*%
X97450000Y-135500000D03*
%TO.P,C19,2*%
%TO.N,GND*%
X95550000Y-135500000D03*
%TD*%
D16*
%TO.P,C18,1*%
%TO.N,+5V*%
X183500000Y-132550000D03*
%TO.P,C18,2*%
%TO.N,GND*%
X183500000Y-134450000D03*
%TD*%
D15*
%TO.P,C17,1*%
%TO.N,+5V*%
X179950000Y-136500000D03*
%TO.P,C17,2*%
%TO.N,GND*%
X178050000Y-136500000D03*
%TD*%
%TO.P,C12,1*%
%TO.N,+5V*%
X75220000Y-114000000D03*
%TO.P,C12,2*%
%TO.N,GND*%
X73320000Y-114000000D03*
%TD*%
D16*
%TO.P,C1,1*%
%TO.N,+5V*%
X170412500Y-89050000D03*
%TO.P,C1,2*%
%TO.N,GND*%
X170412500Y-90950000D03*
%TD*%
D17*
%TO.P,C10,1*%
%TO.N,+5V*%
X177000000Y-133450000D03*
%TO.P,C10,2*%
%TO.N,GND*%
X177000000Y-131550000D03*
%TD*%
D16*
%TO.P,C5,1*%
%TO.N,+5V*%
X170412500Y-110050000D03*
%TO.P,C5,2*%
%TO.N,GND*%
X170412500Y-111950000D03*
%TD*%
%TO.P,C2,1*%
%TO.N,+5V*%
X148412500Y-89050000D03*
%TO.P,C2,2*%
%TO.N,GND*%
X148412500Y-90950000D03*
%TD*%
D15*
%TO.P,C13,1*%
%TO.N,+5V*%
X90450000Y-141500000D03*
%TO.P,C13,2*%
%TO.N,GND*%
X88550000Y-141500000D03*
%TD*%
%TO.P,C11,1*%
%TO.N,+5V*%
X75220000Y-91000000D03*
%TO.P,C11,2*%
%TO.N,GND*%
X73320000Y-91000000D03*
%TD*%
D16*
%TO.P,C6,1*%
%TO.N,+5V*%
X148412500Y-110050000D03*
%TO.P,C6,2*%
%TO.N,GND*%
X148412500Y-111950000D03*
%TD*%
D18*
%TO.P,R2,1*%
%TO.N,+5V*%
X181000000Y-145075000D03*
%TO.P,R2,2*%
%TO.N,/DELAY_CS*%
X181000000Y-143250000D03*
%TD*%
D16*
%TO.P,C7,1*%
%TO.N,+5V*%
X126912500Y-110050000D03*
%TO.P,C7,2*%
%TO.N,GND*%
X126912500Y-111950000D03*
%TD*%
%TO.P,C8,1*%
%TO.N,+5V*%
X105412500Y-110050000D03*
%TO.P,C8,2*%
%TO.N,GND*%
X105412500Y-111950000D03*
%TD*%
D18*
%TO.P,R4,1*%
%TO.N,+5V*%
X184000000Y-145075000D03*
%TO.P,R4,2*%
%TO.N,/SLEEP*%
X184000000Y-143250000D03*
%TD*%
D15*
%TO.P,C15,1*%
%TO.N,+5V*%
X145862500Y-100500000D03*
%TO.P,C15,2*%
%TO.N,GND*%
X143962500Y-100500000D03*
%TD*%
D19*
%TO.P,C9,1*%
%TO.N,+5V*%
X180050000Y-130000000D03*
%TO.P,C9,2*%
%TO.N,GND*%
X181950000Y-130000000D03*
%TD*%
D15*
%TO.P,C16,1*%
%TO.N,+5V*%
X101362500Y-100500000D03*
%TO.P,C16,2*%
%TO.N,GND*%
X99462500Y-100500000D03*
%TD*%
D16*
%TO.P,C4,1*%
%TO.N,+5V*%
X105412500Y-89000000D03*
%TO.P,C4,2*%
%TO.N,GND*%
X105412500Y-90900000D03*
%TD*%
D20*
%TO.P,R3,1*%
%TO.N,/AS*%
X178000000Y-143250000D03*
%TO.P,R3,2*%
%TO.N,+5V*%
X178000000Y-145075000D03*
%TD*%
D19*
%TO.P,C14,1*%
%TO.N,+5V*%
X160050000Y-147500000D03*
%TO.P,C14,2*%
%TO.N,GND*%
X161950000Y-147500000D03*
%TD*%
D16*
%TO.P,C3,1*%
%TO.N,+5V*%
X126912500Y-89050000D03*
%TO.P,C3,2*%
%TO.N,GND*%
X126912500Y-90950000D03*
%TD*%
D21*
%TO.N,GND*%
X98412500Y-100500000D03*
X182500000Y-89500000D03*
X176000000Y-131000000D03*
X184500000Y-134500000D03*
X139000000Y-89500000D03*
X127912500Y-90500000D03*
X142912500Y-100500000D03*
X72270000Y-114000000D03*
X139000000Y-110500000D03*
X88770000Y-125500000D03*
X88770000Y-102500000D03*
X160500000Y-110500000D03*
X106412500Y-90500000D03*
X160500000Y-89500000D03*
X149412500Y-111500000D03*
X87500000Y-141500000D03*
X182500000Y-110500000D03*
X163500000Y-147500000D03*
X72270000Y-91000000D03*
X183000912Y-129001604D03*
X117500000Y-89500000D03*
X94500000Y-135500000D03*
X171512500Y-111400000D03*
X178500000Y-138000000D03*
X127912500Y-111500000D03*
X171412500Y-90500000D03*
X149412500Y-90500000D03*
X106650000Y-111500000D03*
X117500000Y-110500000D03*
%TO.N,+5V*%
X139000000Y-90500000D03*
X179500000Y-138000000D03*
X139000000Y-111500000D03*
X178000000Y-146500000D03*
X91500000Y-141500000D03*
X106650000Y-110500000D03*
X160500000Y-111500000D03*
X117500000Y-84500000D03*
X184500000Y-133000000D03*
X179500000Y-129000000D03*
X175500000Y-73500000D03*
X127912500Y-110500000D03*
X139000000Y-84500000D03*
X171412500Y-89500000D03*
X117500000Y-106000000D03*
X117500000Y-90500000D03*
X75270000Y-115500000D03*
X95500000Y-137500000D03*
X182500000Y-111500000D03*
X106412500Y-89500000D03*
X176000000Y-134500000D03*
X182500000Y-105500000D03*
X146912500Y-100500000D03*
X76770000Y-89500000D03*
X171412500Y-110500000D03*
X182500000Y-138000000D03*
X149412500Y-110500000D03*
X160500000Y-90500000D03*
X181000000Y-146500000D03*
X102412500Y-100500000D03*
X182500000Y-90500000D03*
X182500000Y-84500000D03*
X127912500Y-89500000D03*
X117500000Y-111500000D03*
X149412500Y-89500000D03*
X159000000Y-147500000D03*
X184000000Y-146500000D03*
X160500000Y-105500000D03*
X160500000Y-84500000D03*
X139000000Y-106000000D03*
%TO.N,/SIZE8*%
X172500000Y-148500000D03*
X172500000Y-139500000D03*
%TO.N,/A9*%
X122080300Y-85600000D03*
X179772200Y-106600000D03*
X120447700Y-103450000D03*
X171546100Y-86200200D03*
X160701100Y-85647300D03*
X113135900Y-111280700D03*
X168989600Y-106089400D03*
X131588700Y-88583500D03*
X146986000Y-106177700D03*
X161660800Y-101600400D03*
X175857600Y-87362300D03*
%TO.N,/D9*%
X120673800Y-129513800D03*
%TO.N,/A14*%
X177703300Y-115708500D03*
X165994700Y-117985000D03*
X125266700Y-97600000D03*
X185287100Y-118600000D03*
X114777500Y-139565000D03*
X131836000Y-97415600D03*
X115468200Y-118921400D03*
X152813200Y-119102100D03*
X147235000Y-118280500D03*
X182916800Y-99005300D03*
X167280000Y-97429800D03*
%TO.N,/A4*%
X106534200Y-82400000D03*
X171643100Y-100781100D03*
X106759000Y-101995700D03*
X136843200Y-101904000D03*
X169364200Y-99804400D03*
X130607400Y-81815800D03*
X152128000Y-102474700D03*
X170213500Y-82400800D03*
X149519900Y-82400000D03*
%TO.N,/A18*%
X131814200Y-105232100D03*
X126393900Y-119123100D03*
X149049900Y-118682200D03*
X171581000Y-120110700D03*
X111171100Y-118443600D03*
X139231500Y-96800000D03*
X131145100Y-96726100D03*
X149035800Y-96800000D03*
X111408100Y-140482900D03*
X114473800Y-110428000D03*
X158213200Y-117647400D03*
X127936500Y-118680800D03*
%TO.N,/D3*%
X82183500Y-102350800D03*
%TO.N,/D11*%
X123088200Y-128508000D03*
%TO.N,/A8*%
X168253900Y-90265500D03*
X155072200Y-104095300D03*
X114403900Y-106732200D03*
X163708900Y-90352600D03*
X145198700Y-104200000D03*
X123966000Y-84171500D03*
X130652300Y-86557200D03*
X114440300Y-104380800D03*
X186912500Y-104200000D03*
X159693800Y-83534900D03*
X182308500Y-85317700D03*
%TO.N,/A10*%
X110612000Y-115764400D03*
X171541300Y-94400000D03*
X182255000Y-96216900D03*
X153234500Y-115497300D03*
X174269100Y-94400000D03*
X185558700Y-110950000D03*
X136660600Y-108733500D03*
X147792000Y-114993100D03*
X180410300Y-115037900D03*
X122955200Y-109791400D03*
%TO.N,/A11*%
X126945300Y-95200000D03*
X185281400Y-116097900D03*
X130592300Y-95200000D03*
X152126700Y-116200000D03*
X182724300Y-95201600D03*
X180407400Y-115946800D03*
X137501100Y-114987800D03*
X166364400Y-95255400D03*
X163411500Y-116571700D03*
X111828600Y-117385900D03*
X147786100Y-116200000D03*
X122614500Y-114295200D03*
%TO.N,/D2*%
X80941700Y-102339200D03*
X87467100Y-137050000D03*
%TO.N,/D4*%
X83653500Y-102350600D03*
X93386700Y-134101800D03*
%TO.N,/D6*%
X85810000Y-102345000D03*
X95114300Y-132736700D03*
%TO.N,/A13*%
X124786900Y-105354900D03*
X154772000Y-118650800D03*
X140282700Y-99753800D03*
X177947800Y-96800000D03*
X134376700Y-106910900D03*
X154035300Y-97052000D03*
X163265000Y-117855500D03*
X180401100Y-117800000D03*
X146536500Y-116537600D03*
X125354300Y-99613500D03*
X114918000Y-116380700D03*
X168410200Y-96793000D03*
%TO.N,/D13*%
X122051600Y-127654300D03*
%TO.N,/A12*%
X179140500Y-114976600D03*
X125343200Y-115833400D03*
X115184800Y-137138000D03*
X154404000Y-120756900D03*
X166746000Y-96007800D03*
X117023600Y-117959700D03*
X177122400Y-107007500D03*
X139218200Y-116875300D03*
X169368100Y-117253700D03*
%TO.N,/D0*%
X117103900Y-125229700D03*
%TO.N,/A1*%
X170618900Y-105800000D03*
X128050700Y-105800000D03*
X110274800Y-105475200D03*
X124862000Y-86036100D03*
X103971000Y-84440800D03*
X106178900Y-105509200D03*
X163466000Y-84800000D03*
X158857000Y-105910500D03*
X152118700Y-84789500D03*
%TO.N,/A16*%
X128051700Y-119725000D03*
X116271600Y-120595353D03*
X110238600Y-99942000D03*
X135916800Y-98400000D03*
X149466200Y-119400000D03*
X160137000Y-119712100D03*
X149838500Y-99211700D03*
X170619500Y-120811500D03*
%TO.N,/A19*%
X158058900Y-122116600D03*
X176405600Y-117202300D03*
X110122400Y-144954700D03*
X113374000Y-112086900D03*
X171515200Y-117599600D03*
X157528600Y-116978300D03*
X109684600Y-117259800D03*
X115018300Y-117987600D03*
X127621100Y-117000000D03*
X114933300Y-122316300D03*
X139228600Y-95850000D03*
X131123200Y-106432000D03*
X149558200Y-96000000D03*
X127773700Y-102021300D03*
%TO.N,/A3*%
X171297600Y-99992500D03*
X109626000Y-104200000D03*
X127606100Y-106588000D03*
X148505400Y-82181900D03*
X120845400Y-83387900D03*
X111410300Y-92600800D03*
X163897200Y-81574900D03*
%TO.N,/A15*%
X184717900Y-120179900D03*
X179870700Y-103908100D03*
X147477200Y-120281200D03*
X179099200Y-118240100D03*
X149284500Y-120234500D03*
X166712300Y-98400000D03*
X154419900Y-98295300D03*
X139437900Y-99007200D03*
X117135806Y-119621080D03*
X168423800Y-119784100D03*
X176921800Y-102709300D03*
%TO.N,/A5*%
X163135900Y-99724400D03*
X114043800Y-93784300D03*
X150613500Y-101698800D03*
X167348000Y-92410100D03*
X166431000Y-82310900D03*
X111501100Y-104978400D03*
X164136100Y-92365300D03*
X137103000Y-100973600D03*
X172204700Y-100208700D03*
X102484100Y-81600000D03*
X95110300Y-145602500D03*
%TO.N,/A7*%
X145684200Y-103400000D03*
X168253400Y-83334000D03*
X128041400Y-82347400D03*
X139222800Y-82400000D03*
X174091300Y-83822500D03*
X152713300Y-81941400D03*
X158892100Y-83534900D03*
X153910400Y-103570700D03*
X116045500Y-105906200D03*
%TO.N,/D5*%
X120267600Y-131304000D03*
X95812300Y-131304000D03*
X84540000Y-102350600D03*
%TO.N,/A17*%
X136932300Y-100123900D03*
X132681900Y-100177100D03*
X132478000Y-105895500D03*
X131898800Y-116938700D03*
X152682400Y-118108800D03*
X114557900Y-111252800D03*
X149016500Y-99381300D03*
X174724700Y-117549400D03*
X156814500Y-118249100D03*
X115820100Y-117754200D03*
X109625200Y-119383600D03*
X112550000Y-116996983D03*
%TO.N,/A6*%
X155242900Y-102415600D03*
X133975600Y-81579000D03*
X149526300Y-86466600D03*
X157684600Y-83534900D03*
X175452100Y-81600000D03*
X114828300Y-106019000D03*
X117597000Y-81262200D03*
%TO.N,/LDS*%
X142510100Y-146731400D03*
%TO.N,/D1*%
X120772300Y-135110600D03*
X89628200Y-105905600D03*
X98687900Y-135111000D03*
%TO.N,/A22*%
X120183500Y-133500100D03*
%TO.N,/D7*%
X100234400Y-110228800D03*
X135056800Y-137357400D03*
X100327400Y-135676100D03*
%TO.N,/A2*%
X165407100Y-84062900D03*
X170640600Y-104996600D03*
X104503600Y-83833000D03*
X134374800Y-104340600D03*
X113568000Y-83938700D03*
X157418000Y-105303500D03*
X130596000Y-83579400D03*
X152147800Y-83987700D03*
X106134400Y-104465800D03*
%TO.N,/D15*%
X129920300Y-127063800D03*
%TO.N,/TMS*%
X160802100Y-141828100D03*
%TO.N,/TDI*%
X175378300Y-139427700D03*
%TO.N,/TCK*%
X177017900Y-130424500D03*
%TO.N,/DELAY_CS*%
X180450900Y-140424600D03*
%TO.N,/AS*%
X176962500Y-140410400D03*
%TO.N,/SLEEP*%
X184971800Y-139159800D03*
%TO.N,/CE2*%
X160732500Y-106739300D03*
X184758600Y-126762500D03*
%TO.N,/CE1*%
X187074000Y-131218800D03*
X127133300Y-87206800D03*
X130830800Y-105019800D03*
%TO.N,/CE0*%
X109113900Y-103270700D03*
X109107900Y-84946800D03*
X115080100Y-113266500D03*
X179584800Y-131651300D03*
X113307100Y-124723600D03*
X174361200Y-125029000D03*
%TO.N,/WEL*%
X175394600Y-96379400D03*
X139195000Y-94400000D03*
X143436600Y-94400000D03*
X154637100Y-99824700D03*
X168352800Y-99123500D03*
X115565100Y-97397800D03*
X120824800Y-94400000D03*
%TO.N,/WEH*%
X174454500Y-115481500D03*
X130797500Y-115453600D03*
X149146900Y-115596400D03*
X177039600Y-129187700D03*
X117171000Y-114121400D03*
%TO.N,/CE3*%
X187452900Y-127172300D03*
X165899100Y-85598500D03*
X174111500Y-104952700D03*
%TO.N,/DOE*%
X174257100Y-124121900D03*
X180962500Y-126580200D03*
%TO.N,/DIR*%
X182198200Y-126575100D03*
X175096400Y-125838800D03*
%TO.N,/OE*%
X152528300Y-104244000D03*
X157876200Y-84738400D03*
X147635800Y-104259100D03*
X120269800Y-104330600D03*
X185278900Y-84000000D03*
X169380000Y-101038400D03*
X187531800Y-105550000D03*
X142214200Y-84624400D03*
X122954000Y-85595700D03*
X138963600Y-105182300D03*
%TO.N,/SD3*%
X164704600Y-99423600D03*
X120822900Y-92000000D03*
X156027900Y-98871200D03*
X143426500Y-93279000D03*
X115282700Y-96594400D03*
X165507200Y-93528000D03*
X137998700Y-92000000D03*
%TO.N,/SD0*%
X105722000Y-85083100D03*
X135536900Y-84548000D03*
X164134800Y-88000000D03*
X112284100Y-85845300D03*
X147400500Y-86696600D03*
%TO.N,/SD2*%
X143733100Y-91305500D03*
X89899300Y-94213700D03*
X139219700Y-91307000D03*
X92913000Y-91200000D03*
X120681400Y-89602700D03*
X145978600Y-86294900D03*
X115240900Y-94386100D03*
X163583400Y-93287700D03*
%TO.N,/SD4*%
X106020500Y-86242400D03*
X154388000Y-92000000D03*
X125537500Y-90215500D03*
X116667300Y-86981600D03*
X141783000Y-92000000D03*
X168658400Y-91710400D03*
X174120500Y-92000000D03*
X130604400Y-93152600D03*
%TO.N,/SD5*%
X142221400Y-93839500D03*
X174473900Y-91200000D03*
X142225800Y-90698400D03*
X114141600Y-89838300D03*
X168853400Y-90903200D03*
X154193600Y-91174300D03*
X105218700Y-86444500D03*
%TO.N,/SD1*%
X113015500Y-93032700D03*
X120266600Y-88800000D03*
X143217200Y-87343500D03*
X135915100Y-89185200D03*
X148540900Y-86696600D03*
X163815700Y-89305300D03*
%TO.N,/SD7*%
X127911200Y-87988400D03*
X105621100Y-87962100D03*
X114863600Y-88000000D03*
X142186500Y-88589100D03*
X130628100Y-90705300D03*
X174487400Y-87976700D03*
X171558000Y-87100100D03*
X153888400Y-88001600D03*
%TO.N,/SD6*%
X168911100Y-88650000D03*
X139235000Y-88650000D03*
X174459900Y-88800000D03*
X155570600Y-88800000D03*
X106538400Y-87085000D03*
X113434700Y-88800000D03*
%TO.N,/SD13*%
X167871700Y-112200000D03*
X144831000Y-112200000D03*
X121581100Y-112200000D03*
X104882500Y-118907800D03*
X177981200Y-112241900D03*
%TO.N,/SD11*%
X115823900Y-113656700D03*
X113743300Y-123333900D03*
X152528200Y-112985200D03*
X127616400Y-115510400D03*
X131250900Y-113044900D03*
X160732500Y-114727900D03*
X174300500Y-114645900D03*
%TO.N,/SD15*%
X122280200Y-108497300D03*
X147774700Y-109000000D03*
X111418300Y-111290300D03*
X103739500Y-114676000D03*
X168581100Y-109000000D03*
X135390900Y-108744300D03*
X152119800Y-109000000D03*
X178399000Y-109911400D03*
%TO.N,/SD14*%
X135873600Y-110892700D03*
X178956200Y-110488200D03*
X104873800Y-114052700D03*
X120363100Y-109377500D03*
X167436100Y-109800000D03*
%TO.N,/SD8*%
X170641900Y-106889300D03*
X163350300Y-107439700D03*
X166646900Y-106410000D03*
X109273100Y-109000000D03*
X127606500Y-107780800D03*
X149229000Y-107753200D03*
X104359600Y-110837800D03*
%TO.N,/SD12*%
X167327100Y-113000000D03*
X120768400Y-111586700D03*
X107735300Y-122325500D03*
X111325000Y-114072500D03*
X178022300Y-113043700D03*
X144900700Y-113120600D03*
%TO.N,/SD10*%
X152090800Y-112200000D03*
X128056500Y-112595300D03*
X106111800Y-114680000D03*
X117716800Y-108601200D03*
X174119400Y-112037700D03*
X116207200Y-109562600D03*
X103468600Y-113263900D03*
%TO.N,/SD9*%
X158086800Y-109800000D03*
X103290600Y-123413600D03*
X131027700Y-108342600D03*
X174115400Y-109501000D03*
X110524700Y-112364500D03*
%TD*%
D22*
%TO.N,GND*%
X171412500Y-90500000D02*
X170862500Y-90500000D01*
X178500000Y-136950000D02*
X178050000Y-136500000D01*
X73320000Y-91000000D02*
X72270000Y-91000000D01*
X105412500Y-111950000D02*
X106200000Y-111950000D01*
X149412500Y-111500000D02*
X148862500Y-111500000D01*
X95550000Y-135500000D02*
X94500000Y-135500000D01*
X99462500Y-100500000D02*
X98412500Y-100500000D01*
X127912500Y-90500000D02*
X127362500Y-90500000D01*
X182948396Y-129001604D02*
X181950000Y-130000000D01*
X143962000Y-100500000D02*
X143962500Y-100500000D01*
X170962500Y-111400000D02*
X170412500Y-111950000D01*
X170862500Y-90500000D02*
X170412500Y-90950000D01*
X176450000Y-131000000D02*
X177000000Y-131550000D01*
X127362500Y-111500000D02*
X126912500Y-111950000D01*
X176000000Y-131000000D02*
X176450000Y-131000000D01*
X148862500Y-111500000D02*
X148412500Y-111950000D01*
X183550000Y-134500000D02*
X183500000Y-134450000D01*
X171512500Y-111400000D02*
X170962500Y-111400000D01*
X106412500Y-90500000D02*
X105812500Y-90500000D01*
X148862500Y-90500000D02*
X148412500Y-90950000D01*
X161950000Y-147500000D02*
X163500000Y-147500000D01*
X127912500Y-111500000D02*
X127362500Y-111500000D01*
X183000912Y-129001604D02*
X182948396Y-129001604D01*
X178500000Y-138000000D02*
X178500000Y-136950000D01*
X149412500Y-90500000D02*
X148862500Y-90500000D01*
X184500000Y-134500000D02*
X183550000Y-134500000D01*
X73320000Y-114000000D02*
X72270000Y-114000000D01*
X143962500Y-100500000D02*
X142912500Y-100500000D01*
X105812500Y-90500000D02*
X105412500Y-90900000D01*
X88550000Y-141500000D02*
X87500000Y-141500000D01*
X127362500Y-90500000D02*
X126912500Y-90950000D01*
X106200000Y-111950000D02*
X106650000Y-111500000D01*
%TO.N,+5V*%
X95500000Y-137450000D02*
X95500000Y-137500000D01*
X127362500Y-89500000D02*
X126912500Y-89050000D01*
X170412500Y-110050000D02*
X170962500Y-110050000D01*
X176000000Y-134500000D02*
X176000000Y-134450000D01*
X145862500Y-100500000D02*
X146912500Y-100500000D01*
X105412500Y-110050000D02*
X106200000Y-110050000D01*
X179500000Y-136950000D02*
X179950000Y-136500000D01*
X127912500Y-89500000D02*
X127362500Y-89500000D01*
X105912500Y-89500000D02*
X105412500Y-89000000D01*
X101362500Y-100500000D02*
X102412500Y-100500000D01*
X184500000Y-133000000D02*
X183950000Y-133000000D01*
X170962500Y-110050000D02*
X171412500Y-110500000D01*
X75220000Y-114000000D02*
X75220000Y-115450000D01*
X149412500Y-110500000D02*
X148862500Y-110500000D01*
X170412500Y-89050000D02*
X170962500Y-89050000D01*
X106200000Y-110050000D02*
X106650000Y-110500000D01*
X179500000Y-138000000D02*
X179500000Y-136950000D01*
X178000000Y-145075000D02*
X178000000Y-146500000D01*
X75220000Y-115450000D02*
X75270000Y-115500000D01*
X97450000Y-135500000D02*
X95500000Y-137450000D01*
X127912500Y-110500000D02*
X127362500Y-110500000D01*
X160050000Y-147500000D02*
X159000000Y-147500000D01*
X127362500Y-110500000D02*
X126912500Y-110050000D01*
X148862500Y-110500000D02*
X148412500Y-110050000D01*
X183950000Y-133000000D02*
X183500000Y-132550000D01*
X179500000Y-129450000D02*
X180050000Y-130000000D01*
X181000000Y-145312500D02*
X181000000Y-146500000D01*
X184000000Y-145075000D02*
X184000000Y-146500000D01*
X149412500Y-89500000D02*
X148862500Y-89500000D01*
X148862500Y-89500000D02*
X148412500Y-89050000D01*
X170962500Y-89050000D02*
X171412500Y-89500000D01*
X106412500Y-89500000D02*
X105912500Y-89500000D01*
X181237500Y-145075000D02*
X181000000Y-145312500D01*
X75220000Y-91000000D02*
X76720000Y-89500000D01*
X76720000Y-89500000D02*
X76770000Y-89500000D01*
X176000000Y-134450000D02*
X177000000Y-133450000D01*
X179500000Y-129000000D02*
X179500000Y-129450000D01*
X90450000Y-141500000D02*
X91500000Y-141500000D01*
%TO.N,/SIZE8*%
X172500000Y-148500000D02*
X172500000Y-139500000D01*
%TO.N,/A9*%
X121675700Y-85195400D02*
X121675700Y-85112800D01*
X123064200Y-84171600D02*
X123767500Y-84874900D01*
X178326500Y-108045700D02*
X173986500Y-108045700D01*
X170392800Y-107491000D02*
X170040200Y-107138400D01*
X135431600Y-101341600D02*
X132872100Y-98782100D01*
X174695500Y-86200200D02*
X171546100Y-86200200D01*
X160701100Y-85647300D02*
X161121000Y-86067200D01*
X126386600Y-86141500D02*
X126801800Y-86141500D01*
X140782600Y-106150400D02*
X137811700Y-103179500D01*
X173431800Y-107491000D02*
X170392800Y-107491000D01*
X161121000Y-101562300D02*
X159013600Y-101562300D01*
X161622700Y-101562300D02*
X161660800Y-101600400D01*
X137811700Y-103179500D02*
X136699900Y-103179500D01*
X107360500Y-137664200D02*
X107108900Y-137412600D01*
X179772200Y-106600000D02*
X178326500Y-108045700D01*
X161121000Y-86067200D02*
X161121000Y-101562300D01*
X107108900Y-117307700D02*
X113135900Y-111280700D01*
X126901900Y-86041400D02*
X126910500Y-86041400D01*
X122616900Y-84171600D02*
X123064200Y-84171600D01*
X170040200Y-107138400D02*
X170040200Y-106915700D01*
X136699900Y-103179500D02*
X135431600Y-101911200D01*
X125120000Y-84874900D02*
X126386600Y-86141500D01*
X132872100Y-98782100D02*
X132872100Y-95433500D01*
X107108900Y-137412600D02*
X107108900Y-117307700D01*
X122080300Y-101817400D02*
X122080300Y-85600000D01*
X122080300Y-85600000D02*
X121675700Y-85195400D01*
X154425500Y-106150400D02*
X146986000Y-106150400D01*
X146986000Y-106150400D02*
X146986000Y-106177700D01*
X135431600Y-101911200D02*
X135431600Y-101341600D01*
X170040200Y-106915700D02*
X169213900Y-106089400D01*
X107360500Y-145754500D02*
X107360500Y-137664200D01*
X121675700Y-85112800D02*
X122616900Y-84171600D01*
X127636300Y-86199200D02*
X130020600Y-88583500D01*
X169213900Y-106089400D02*
X168989600Y-106089400D01*
X132872100Y-95433500D02*
X132097700Y-94659100D01*
X132097700Y-94659100D02*
X132097700Y-89092500D01*
X175857600Y-87362300D02*
X174695500Y-86200200D01*
X132097700Y-89092500D02*
X131588700Y-88583500D01*
X161121000Y-101562300D02*
X161622700Y-101562300D01*
X123767500Y-84874900D02*
X125120000Y-84874900D01*
X126910500Y-86041400D02*
X127068300Y-86199200D01*
X130020600Y-88583500D02*
X131588700Y-88583500D01*
X146986000Y-106150400D02*
X140782600Y-106150400D01*
X120447700Y-103450000D02*
X122080300Y-101817400D01*
X105680000Y-147435000D02*
X107360500Y-145754500D01*
X159013600Y-101562300D02*
X154425500Y-106150400D01*
X126801800Y-86141500D02*
X126901900Y-86041400D01*
X173986500Y-108045700D02*
X173431800Y-107491000D01*
X127068300Y-86199200D02*
X127636300Y-86199200D01*
%TO.N,/D9*%
X139531700Y-139220400D02*
X139044600Y-138733300D01*
X139531700Y-140646700D02*
X139531700Y-139220400D01*
X128068900Y-129513800D02*
X120673800Y-129513800D01*
X137288400Y-138733300D02*
X128068900Y-129513800D01*
X139044600Y-138733300D02*
X137288400Y-138733300D01*
X146320000Y-147435000D02*
X139531700Y-140646700D01*
%TO.N,/A14*%
X170770000Y-102588000D02*
X170223900Y-102041900D01*
X182982300Y-94599800D02*
X181269600Y-94599800D01*
X116421800Y-117782300D02*
X116421900Y-117782200D01*
X115219900Y-121752000D02*
X115219900Y-119001700D01*
X174107700Y-116144400D02*
X173756100Y-115792800D01*
X168889300Y-102041900D02*
X168376400Y-101529000D01*
X185287100Y-118600000D02*
X186160400Y-117726700D01*
X167874000Y-100379200D02*
X167334800Y-99840000D01*
X168376400Y-100916200D02*
X167874000Y-100413800D01*
X186160400Y-117726700D02*
X186160400Y-105450000D01*
X146274000Y-118079000D02*
X146455000Y-118260000D01*
X115535000Y-122067100D02*
X115219900Y-121752000D01*
X116421900Y-117710600D02*
X116774500Y-117358000D01*
X115420000Y-119001700D02*
X115468200Y-118953500D01*
X115219900Y-119001700D02*
X115219900Y-118984200D01*
X116774500Y-117358000D02*
X117272800Y-117358000D01*
X146455000Y-118260000D02*
X147235000Y-118260000D01*
X116069300Y-118355900D02*
X116421800Y-118003400D01*
X147414600Y-118080400D02*
X151791500Y-118080400D01*
X173756100Y-115792800D02*
X168186900Y-115792800D01*
X174142900Y-116144400D02*
X174107700Y-116144400D01*
X114777500Y-139565000D02*
X114570100Y-139357600D01*
X115535000Y-122565500D02*
X115535000Y-122067100D01*
X177614600Y-115797200D02*
X175823900Y-115797200D01*
X167874000Y-100413800D02*
X167874000Y-100379200D01*
X147235000Y-118260000D02*
X147414600Y-118080400D01*
X151791500Y-118080400D02*
X152813200Y-119102100D01*
X182916800Y-102206400D02*
X182916800Y-99005300D01*
X117272800Y-117358000D02*
X117468500Y-117553700D01*
X168376400Y-101529000D02*
X168376400Y-100916200D01*
X171555000Y-102588000D02*
X170770000Y-102588000D01*
X181269600Y-94599800D02*
X172946800Y-102922600D01*
X115219900Y-118984200D02*
X115848200Y-118355900D01*
X131351900Y-96081800D02*
X126784900Y-96081800D01*
X168186900Y-115792800D02*
X165994700Y-117985000D01*
X131836000Y-96565900D02*
X131351900Y-96081800D01*
X117468500Y-117553700D02*
X118653500Y-117553700D01*
X172946800Y-102922600D02*
X171889600Y-102922600D01*
X171889600Y-102922600D02*
X171555000Y-102588000D01*
X177703300Y-115708500D02*
X177614600Y-115797200D01*
X114570100Y-139357600D02*
X114570100Y-123926000D01*
X115182500Y-122918000D02*
X115535000Y-122565500D01*
X174143000Y-116144300D02*
X174142900Y-116144400D01*
X114746700Y-122922200D02*
X114750900Y-122918000D01*
X114750900Y-122918000D02*
X115182500Y-122918000D01*
X115219900Y-119001700D02*
X115420000Y-119001700D01*
X114746700Y-123749400D02*
X114746700Y-122922200D01*
X116421900Y-117782200D02*
X116421900Y-117710600D01*
X183609700Y-95227200D02*
X182982300Y-94599800D01*
X175476800Y-116144300D02*
X174143000Y-116144300D01*
X118653500Y-117553700D02*
X119178800Y-118079000D01*
X186160400Y-105450000D02*
X182916800Y-102206400D01*
X167334800Y-99840000D02*
X167334800Y-97484600D01*
X182916800Y-99005300D02*
X183609700Y-98312400D01*
X131836000Y-97415600D02*
X131836000Y-96565900D01*
X114570100Y-123926000D02*
X114746700Y-123749400D01*
X115468200Y-118953500D02*
X115468200Y-118921400D01*
X183609700Y-98312400D02*
X183609700Y-95227200D01*
X126784900Y-96081800D02*
X125266700Y-97600000D01*
X147235000Y-118260000D02*
X147235000Y-118280500D01*
X167334800Y-97484600D02*
X167280000Y-97429800D01*
X175823900Y-115797200D02*
X175476800Y-116144300D01*
X119178800Y-118079000D02*
X146274000Y-118079000D01*
X170223900Y-102041900D02*
X168889300Y-102041900D01*
X116421800Y-118003400D02*
X116421800Y-117782300D01*
X115848200Y-118355900D02*
X116069300Y-118355900D01*
%TO.N,/A4*%
X165486400Y-80477300D02*
X151442600Y-80477300D01*
X101231600Y-135161400D02*
X101330800Y-135260600D01*
X106759000Y-95180900D02*
X106759000Y-101995700D01*
X167857300Y-82400800D02*
X170213500Y-82400800D01*
X167633600Y-82624500D02*
X165486400Y-80477300D01*
X172445300Y-100819700D02*
X171681700Y-100819700D01*
X107211800Y-105381400D02*
X106013100Y-106580100D01*
X101708000Y-109320700D02*
X101708000Y-110512400D01*
X167633600Y-91589700D02*
X172806400Y-96762500D01*
X101073600Y-119208500D02*
X101082100Y-119217000D01*
X107211800Y-102448500D02*
X107211800Y-105381400D01*
X100871900Y-118821000D02*
X101073600Y-119022700D01*
X101330800Y-138834200D02*
X100600000Y-139565000D01*
X170258400Y-99804400D02*
X171435200Y-100981200D01*
X130607400Y-81815800D02*
X129011200Y-80219600D01*
X101231600Y-124477400D02*
X101231600Y-135161400D01*
X106759000Y-101995700D02*
X107211800Y-102448500D01*
X172806400Y-100458600D02*
X172445300Y-100819700D01*
X169364200Y-99804400D02*
X170258400Y-99804400D01*
X136843200Y-101904000D02*
X137239700Y-102300500D01*
X108714600Y-80219600D02*
X106534200Y-82400000D01*
X171443000Y-100981200D02*
X171643100Y-100781100D01*
X172806400Y-96762500D02*
X172806400Y-100458600D01*
X101082100Y-111138300D02*
X101082100Y-111796300D01*
X101082100Y-124327900D02*
X101231600Y-124477400D01*
X100871900Y-112006500D02*
X100871900Y-112070900D01*
X100775700Y-114829800D02*
X100871900Y-114926000D01*
X171681700Y-100819700D02*
X171643100Y-100781100D01*
X171435200Y-100981200D02*
X171443000Y-100981200D01*
X151953800Y-102300500D02*
X152128000Y-102474700D01*
X137239700Y-102300500D02*
X151953800Y-102300500D01*
X100832600Y-112110200D02*
X100832600Y-112279100D01*
X100871900Y-112070900D02*
X100832600Y-112110200D01*
X100832600Y-112279100D02*
X100775700Y-112336000D01*
X101082100Y-111796300D02*
X100871900Y-112006500D01*
X129011200Y-80219600D02*
X108714600Y-80219600D01*
X167633600Y-82624500D02*
X167857300Y-82400800D01*
X106013100Y-106580100D02*
X104448600Y-106580100D01*
X101082100Y-119217000D02*
X101082100Y-124327900D01*
X104448600Y-106580100D02*
X101708000Y-109320700D01*
X151442600Y-80477300D02*
X149519900Y-82400000D01*
X100871900Y-114926000D02*
X100871900Y-118821000D01*
X106534200Y-82744800D02*
X103562400Y-85716600D01*
X101708000Y-110512400D02*
X101082100Y-111138300D01*
X167633600Y-82624500D02*
X167633600Y-91589700D01*
X101073600Y-119022700D02*
X101073600Y-119208500D01*
X100775700Y-112336000D02*
X100775700Y-114829800D01*
X106534200Y-82400000D02*
X106534200Y-82744800D01*
X103562400Y-85716600D02*
X103562400Y-91984300D01*
X101330800Y-135260600D02*
X101330800Y-138834200D01*
X103562400Y-91984300D02*
X106759000Y-95180900D01*
%TO.N,/A18*%
X113800700Y-112511100D02*
X113975700Y-112336100D01*
X113800700Y-112723600D02*
X113800700Y-112511100D01*
X109021900Y-119651300D02*
X109021900Y-118653200D01*
X171581000Y-120738500D02*
X170895000Y-121424500D01*
X131145100Y-96726100D02*
X131145100Y-103313600D01*
X111408100Y-140482900D02*
X111619800Y-140271200D01*
X131814200Y-103982700D02*
X131814200Y-105232100D01*
X110286300Y-117509000D02*
X110286300Y-117388800D01*
X111619800Y-140271200D02*
X111619800Y-120465800D01*
X139231500Y-96800000D02*
X149035800Y-96800000D01*
X109021900Y-118653200D02*
X109813600Y-117861500D01*
X110286300Y-117388800D02*
X110907300Y-116767800D01*
X113689900Y-112834400D02*
X113800700Y-112723600D01*
X113737600Y-111164200D02*
X114473800Y-110428000D01*
X160998600Y-121424500D02*
X158213200Y-118639100D01*
X148849900Y-118882200D02*
X149049900Y-118682200D01*
X111171100Y-120017100D02*
X111171100Y-118443600D01*
X111027500Y-116767800D02*
X113689900Y-114105400D01*
X110907300Y-116767800D02*
X111027500Y-116767800D01*
X113975700Y-111837700D02*
X113733200Y-111595200D01*
X131145100Y-103313600D02*
X131814200Y-103982700D01*
X127936500Y-118680800D02*
X126836200Y-118680800D01*
X111619800Y-120465800D02*
X111171100Y-120017100D01*
X109813600Y-117861500D02*
X109933800Y-117861500D01*
X113737600Y-111529900D02*
X113737600Y-111164200D01*
X109387700Y-120017100D02*
X109021900Y-119651300D01*
X113975700Y-112336100D02*
X113975700Y-111837700D01*
X158213200Y-118639100D02*
X158213200Y-117647400D01*
X127936500Y-118680800D02*
X128137900Y-118882200D01*
X113733200Y-111595200D02*
X113733200Y-111534300D01*
X111171100Y-120017100D02*
X109387700Y-120017100D01*
X126836200Y-118680800D02*
X126393900Y-119123100D01*
X113733200Y-111534300D02*
X113737600Y-111529900D01*
X109933800Y-117861500D02*
X110286300Y-117509000D01*
X170895000Y-121424500D02*
X160998600Y-121424500D01*
X113689900Y-114105400D02*
X113689900Y-112834400D01*
X171581000Y-120110700D02*
X171581000Y-120738500D01*
X128137900Y-118882200D02*
X148849900Y-118882200D01*
%TO.N,/D3*%
X93628000Y-146747600D02*
X95739300Y-148858900D01*
X137276100Y-148858900D02*
X138700000Y-147435000D01*
X95739300Y-148858900D02*
X137276100Y-148858900D01*
X82183500Y-129313100D02*
X93628000Y-140757600D01*
X82183500Y-102350800D02*
X82183500Y-129313100D01*
X93628000Y-140757600D02*
X93628000Y-146747600D01*
%TO.N,/D11*%
X129387300Y-128508000D02*
X123088200Y-128508000D01*
X148860000Y-147435000D02*
X147925600Y-147435000D01*
X139933400Y-139054100D02*
X129387300Y-128508000D01*
X139933400Y-139442800D02*
X139933400Y-139054100D01*
X147925600Y-147435000D02*
X139933400Y-139442800D01*
%TO.N,/A8*%
X160781000Y-83701900D02*
X159693800Y-83701900D01*
X127701400Y-85696200D02*
X127960500Y-85955300D01*
X136594100Y-102505700D02*
X136595700Y-102505700D01*
X102077000Y-112569800D02*
X102037700Y-112609100D01*
X121232700Y-85320400D02*
X121428100Y-85515800D01*
X123966000Y-84171500D02*
X123564400Y-83769900D01*
X161702300Y-88346000D02*
X161702300Y-85791600D01*
X161283600Y-84629100D02*
X161454600Y-84458100D01*
X130652300Y-86795900D02*
X132857900Y-89001500D01*
X103314800Y-111267600D02*
X102077000Y-112505400D01*
X126635500Y-85739800D02*
X126735600Y-85639700D01*
X163708900Y-90352600D02*
X161702300Y-88346000D01*
X102037700Y-112609100D02*
X102037700Y-112778000D01*
X102478700Y-134704500D02*
X105680000Y-137905800D01*
X102077000Y-112505400D02*
X102077000Y-112569800D01*
X102037700Y-112778000D02*
X101980800Y-112834900D01*
X145198700Y-104200000D02*
X146294500Y-105295800D01*
X153871700Y-105295800D02*
X155072200Y-104095300D01*
X102278700Y-118709600D02*
X102287200Y-118718100D01*
X133259600Y-93903400D02*
X133259600Y-95253000D01*
X104947500Y-107785200D02*
X103456200Y-109276500D01*
X105680000Y-137905800D02*
X105680000Y-139565000D01*
X132857900Y-89001500D02*
X132857900Y-93501700D01*
X121428100Y-85515800D02*
X121428100Y-97393000D01*
X108399200Y-107785200D02*
X104947500Y-107785200D01*
X186912500Y-104200000D02*
X186912500Y-89921700D01*
X102077000Y-114427100D02*
X102077000Y-118322100D01*
X102077000Y-118322100D02*
X102278700Y-118523800D01*
X124984600Y-84171500D02*
X126552900Y-85739800D01*
X103456200Y-109276500D02*
X103456200Y-109844500D01*
X128111200Y-85955400D02*
X128713000Y-86557200D01*
X127960500Y-85955400D02*
X128111200Y-85955400D01*
X113059000Y-107155900D02*
X109028500Y-107155900D01*
X102278700Y-118523800D02*
X102278700Y-118709600D01*
X109028500Y-107155900D02*
X108399200Y-107785200D01*
X159693800Y-83701900D02*
X159693800Y-83534900D01*
X127960500Y-85955300D02*
X127960500Y-85955400D01*
X136241500Y-101377200D02*
X136241500Y-102153100D01*
X132857900Y-93501700D02*
X133259600Y-93903400D01*
X130652300Y-86557200D02*
X130652300Y-86795900D01*
X123564400Y-83769900D02*
X122450600Y-83769900D01*
X161283600Y-85372900D02*
X161283600Y-84629100D01*
X101980800Y-114330900D02*
X102077000Y-114427100D01*
X159693800Y-99473700D02*
X159693800Y-83701900D01*
X133259600Y-95253000D02*
X133273800Y-95267200D01*
X127234600Y-85797500D02*
X127517500Y-85797500D01*
X133273800Y-98409500D02*
X136241500Y-101377200D01*
X128713000Y-86557200D02*
X130652300Y-86557200D01*
X122450600Y-83769900D02*
X121232700Y-84987800D01*
X101980800Y-112834900D02*
X101980800Y-114330900D01*
X102287200Y-118718100D02*
X102287200Y-123829000D01*
X113200500Y-107014400D02*
X113059000Y-107155900D01*
X102287200Y-123829000D02*
X102478700Y-124020500D01*
X136867800Y-102777800D02*
X143776500Y-102777800D01*
X103314800Y-109985900D02*
X103314800Y-111267600D01*
X133273800Y-95267200D02*
X133273800Y-98409500D01*
X182308500Y-85317700D02*
X171385700Y-85317700D01*
X103456200Y-109844500D02*
X103314800Y-109985900D01*
X186912500Y-89921700D02*
X182308500Y-85317700D01*
X168253900Y-88449500D02*
X168253900Y-90265500D01*
X127517500Y-85797500D02*
X127618800Y-85696200D01*
X127618800Y-85696200D02*
X127701400Y-85696200D01*
X161702300Y-85791600D02*
X161283600Y-85372900D01*
X121232700Y-84987800D02*
X121232700Y-85320400D01*
X121428100Y-97393000D02*
X114440300Y-104380800D01*
X127076800Y-85639700D02*
X127234600Y-85797500D01*
X143776500Y-102777800D02*
X145198700Y-104200000D01*
X126735600Y-85639700D02*
X127076800Y-85639700D01*
X114403900Y-106732200D02*
X114121700Y-107014400D01*
X146294500Y-105295800D02*
X153871700Y-105295800D01*
X102478700Y-124020500D02*
X102478700Y-134704500D01*
X161454600Y-84458100D02*
X161454600Y-84375500D01*
X114121700Y-107014400D02*
X113200500Y-107014400D01*
X136241500Y-102153100D02*
X136594100Y-102505700D01*
X161454600Y-84375500D02*
X160781000Y-83701900D01*
X126552900Y-85739800D02*
X126635500Y-85739800D01*
X171385700Y-85317700D02*
X168253900Y-88449500D01*
X123966000Y-84171500D02*
X124984600Y-84171500D01*
X136595700Y-102505700D02*
X136867800Y-102777800D01*
X155072200Y-104095300D02*
X159693800Y-99473700D01*
%TO.N,/A10*%
X108196800Y-117896500D02*
X110328900Y-115764400D01*
X175990200Y-116198900D02*
X176821200Y-116198900D01*
X110328900Y-115764400D02*
X110612000Y-115764400D01*
X163993300Y-115166600D02*
X165245100Y-116418400D01*
X108220000Y-139565000D02*
X108409200Y-139375800D01*
X152730300Y-114993100D02*
X153234500Y-115497300D01*
X178268200Y-115994500D02*
X178305000Y-115957700D01*
X136660600Y-108733500D02*
X136048000Y-109346100D01*
X127979700Y-108788900D02*
X123957700Y-108788900D01*
X166140600Y-118820500D02*
X168766600Y-116194500D01*
X178305000Y-114951800D02*
X178905300Y-114351500D01*
X165979100Y-118820500D02*
X166140600Y-118820500D01*
X174309300Y-116546000D02*
X175643100Y-116546000D01*
X178268200Y-116012300D02*
X178268200Y-115994500D01*
X173589800Y-116194500D02*
X173961800Y-116566500D01*
X165245100Y-118086500D02*
X165979100Y-118820500D01*
X175643100Y-116546000D02*
X175990200Y-116198900D01*
X168766600Y-116194500D02*
X173589800Y-116194500D01*
X174288800Y-116566500D02*
X174309300Y-116546000D01*
X182255000Y-102253900D02*
X182255000Y-96216900D01*
X177915700Y-116364800D02*
X178268200Y-116012300D01*
X176821200Y-116198900D02*
X176987100Y-116364800D01*
X153234500Y-115497300D02*
X162275400Y-115497300D01*
X185558700Y-105557600D02*
X182255000Y-102253900D01*
X108196800Y-120817200D02*
X108196800Y-117896500D01*
X162606100Y-115166600D02*
X163993300Y-115166600D01*
X185558700Y-110950000D02*
X185558700Y-105557600D01*
X165245100Y-116418400D02*
X165245100Y-118086500D01*
X108409200Y-121029600D02*
X108196800Y-120817200D01*
X178905300Y-114351500D02*
X179723900Y-114351500D01*
X128536900Y-109346100D02*
X127979700Y-108788900D01*
X136048000Y-109346100D02*
X128536900Y-109346100D01*
X108409200Y-139375800D02*
X108409200Y-121029600D01*
X174269100Y-94400000D02*
X171541300Y-94400000D01*
X176987100Y-116364800D02*
X177915700Y-116364800D01*
X173961800Y-116566500D02*
X174288800Y-116566500D01*
X178305000Y-115957700D02*
X178305000Y-114951800D01*
X123957700Y-108788900D02*
X122955200Y-109791400D01*
X147792000Y-114993100D02*
X152730300Y-114993100D01*
X162275400Y-115497300D02*
X162606100Y-115166600D01*
X179723900Y-114351500D02*
X180410300Y-115037900D01*
%TO.N,/A11*%
X167070600Y-100711800D02*
X166531400Y-100172600D01*
X167299700Y-120025600D02*
X168503300Y-118822000D01*
X166531400Y-99319500D02*
X166110500Y-98898600D01*
X179621600Y-103306400D02*
X179603700Y-103324300D01*
X181653300Y-96272600D02*
X181653300Y-95967800D01*
X130501700Y-114851800D02*
X131047200Y-114851800D01*
X167573000Y-101861600D02*
X167573000Y-101248800D01*
X130442200Y-114898600D02*
X130495300Y-114845500D01*
X166112000Y-96176900D02*
X166112000Y-95507800D01*
X181036500Y-103124300D02*
X180854400Y-103306400D01*
X184957000Y-110947200D02*
X184957000Y-111199100D01*
X168503300Y-118822000D02*
X170292800Y-118822000D01*
X181036500Y-103124300D02*
X181238400Y-102922400D01*
X170437400Y-103391400D02*
X169891300Y-102845300D01*
X181653300Y-95967800D02*
X182005900Y-95615200D01*
X163881500Y-117322900D02*
X163881500Y-118426900D01*
X181036500Y-103124300D02*
X184879700Y-106967600D01*
X147786100Y-116200000D02*
X152126700Y-116200000D01*
X170294300Y-118820500D02*
X170884400Y-118820500D01*
X128268600Y-114506900D02*
X128278600Y-114496900D01*
X167070600Y-100746400D02*
X167070600Y-100711800D01*
X128278600Y-114496900D02*
X128941200Y-114496900D01*
X173681100Y-103324300D02*
X173279400Y-103726000D01*
X166110500Y-96178400D02*
X166112000Y-96176900D01*
X173279400Y-103726000D02*
X171557000Y-103726000D01*
X128941200Y-114496900D02*
X129342900Y-114898600D01*
X166110500Y-98898600D02*
X166110500Y-96178400D01*
X163411500Y-116571700D02*
X163411500Y-116852900D01*
X130495400Y-114845500D02*
X130501700Y-114851800D01*
X185281400Y-111523500D02*
X185281400Y-116097900D01*
X122614500Y-114295200D02*
X122747500Y-114428200D01*
X170884400Y-118820500D02*
X170999300Y-118705600D01*
X180854400Y-103306400D02*
X179621600Y-103306400D01*
X166112000Y-95507800D02*
X166364400Y-95255400D01*
X130495300Y-114845500D02*
X130495400Y-114845500D01*
X184879700Y-110869900D02*
X184957000Y-110947200D01*
X169891300Y-102845300D02*
X168556700Y-102845300D01*
X126880000Y-114448800D02*
X126938100Y-114506900D01*
X126945300Y-95200000D02*
X130592300Y-95200000D01*
X181238400Y-96687500D02*
X181653300Y-96272600D01*
X131047200Y-114851800D02*
X131183200Y-114987800D01*
X168556700Y-102845300D02*
X167573000Y-101861600D01*
X165459600Y-120005100D02*
X165480100Y-120025600D01*
X179603700Y-103324300D02*
X173681100Y-103324300D01*
X112021500Y-143906500D02*
X112021500Y-117578800D01*
X163881500Y-118426900D02*
X164355900Y-118901300D01*
X112021500Y-117578800D02*
X111828600Y-117385900D01*
X164355900Y-119026200D02*
X165334800Y-120005100D01*
X131183200Y-114987800D02*
X137501100Y-114987800D01*
X165334800Y-120005100D02*
X165459600Y-120005100D01*
X182310700Y-95615200D02*
X182724300Y-95201600D01*
X184957000Y-111199100D02*
X185281400Y-111523500D01*
X171222400Y-103391400D02*
X170437400Y-103391400D01*
X164355900Y-118901300D02*
X164355900Y-119026200D01*
X122747500Y-114428200D02*
X126604200Y-114428200D01*
X182005900Y-95615200D02*
X182310700Y-95615200D01*
X108493000Y-147435000D02*
X112021500Y-143906500D01*
X170999300Y-118705600D02*
X177648600Y-118705600D01*
X126604200Y-114428200D02*
X126624800Y-114448800D01*
X126938100Y-114506900D02*
X128268600Y-114506900D01*
X165480100Y-120025600D02*
X167299700Y-120025600D01*
X170292800Y-118822000D02*
X170294300Y-118820500D01*
X166531400Y-100172600D02*
X166531400Y-99319500D01*
X184879700Y-106967600D02*
X184879700Y-110869900D01*
X177648600Y-118705600D02*
X180407400Y-115946800D01*
X126624800Y-114448800D02*
X126880000Y-114448800D01*
X108220000Y-147435000D02*
X108493000Y-147435000D01*
X181238400Y-102922400D02*
X181238400Y-96687500D01*
X167573000Y-101248800D02*
X167070600Y-100746400D01*
X163411500Y-116852900D02*
X163881500Y-117322900D01*
X129342900Y-114898600D02*
X130442200Y-114898600D01*
X171557000Y-103726000D02*
X171222400Y-103391400D01*
%TO.N,/D2*%
X87467100Y-137050000D02*
X80941700Y-130524600D01*
X80941700Y-130524600D02*
X80941700Y-102339200D01*
%TO.N,/D4*%
X83653500Y-124368600D02*
X93386700Y-134101800D01*
X83653500Y-102350600D02*
X83653500Y-124368600D01*
%TO.N,/D6*%
X85810000Y-123432400D02*
X95114300Y-132736700D01*
X85810000Y-102345000D02*
X85810000Y-123432400D01*
%TO.N,/A13*%
X168410200Y-97499700D02*
X168410200Y-96793000D01*
X114145000Y-122884700D02*
X114145000Y-122253500D01*
X163265000Y-117855500D02*
X163265000Y-118503300D01*
X172491900Y-102520900D02*
X172055900Y-102520900D01*
X170936300Y-102186300D02*
X170390200Y-101640200D01*
X114000000Y-122108500D02*
X114000000Y-117298700D01*
X125354300Y-101824300D02*
X126835900Y-103305900D01*
X169447500Y-119650300D02*
X171190600Y-119650300D01*
X171721300Y-102186300D02*
X170936300Y-102186300D01*
X169055600Y-101640200D02*
X168778100Y-101362700D01*
X114168400Y-144026600D02*
X114168400Y-123759700D01*
X168670500Y-120427300D02*
X169447500Y-119650300D01*
X130563700Y-107033700D02*
X126835900Y-103305900D01*
X171190600Y-119650300D02*
X171331900Y-119509000D01*
X167736500Y-99673700D02*
X167736500Y-98173400D01*
X126835900Y-103305900D02*
X124786900Y-105354900D01*
X168778100Y-100749900D02*
X168275700Y-100247500D01*
X172055900Y-102520900D02*
X171721300Y-102186300D01*
X125354300Y-99613500D02*
X125354300Y-101824300D01*
X171331900Y-119509000D02*
X178692100Y-119509000D01*
X177947800Y-97065000D02*
X172491900Y-102520900D01*
X146536500Y-116537600D02*
X146815700Y-116816800D01*
X168275700Y-100247500D02*
X168275700Y-100212900D01*
X114345000Y-123084700D02*
X114145000Y-122884700D01*
X167736500Y-98173400D02*
X168410200Y-97499700D01*
X152938000Y-116816800D02*
X154772000Y-118650800D01*
X110760000Y-147435000D02*
X114168400Y-144026600D01*
X178692100Y-119509000D02*
X180401100Y-117800000D01*
X141658600Y-98377900D02*
X152709400Y-98377900D01*
X134253900Y-107033700D02*
X130563700Y-107033700D01*
X114168400Y-123759700D02*
X114345000Y-123583100D01*
X168275700Y-100212900D02*
X167736500Y-99673700D01*
X152709400Y-98377900D02*
X154035300Y-97052000D01*
X146815700Y-116816800D02*
X152938000Y-116816800D01*
X177947800Y-96800000D02*
X177947800Y-97065000D01*
X163265000Y-118503300D02*
X165189000Y-120427300D01*
X170390200Y-101640200D02*
X169055600Y-101640200D01*
X140282700Y-99753800D02*
X141658600Y-98377900D01*
X114000000Y-117298700D02*
X114918000Y-116380700D01*
X114345000Y-123583100D02*
X114345000Y-123084700D01*
X114145000Y-122253500D02*
X114000000Y-122108500D01*
X165189000Y-120427300D02*
X168670500Y-120427300D01*
X168778100Y-101362700D02*
X168778100Y-100749900D01*
X134376700Y-106910900D02*
X134253900Y-107033700D01*
%TO.N,/D13*%
X131839800Y-126447000D02*
X123258900Y-126447000D01*
X123258900Y-126447000D02*
X122051600Y-127654300D01*
X151400000Y-146007200D02*
X131839800Y-126447000D01*
X151400000Y-147435000D02*
X151400000Y-146007200D01*
%TO.N,/A12*%
X116823500Y-118147600D02*
X117022600Y-118147600D01*
X166668900Y-100878100D02*
X165708800Y-99918000D01*
X115936700Y-121900800D02*
X115621600Y-121585700D01*
X173310600Y-116596200D02*
X170025600Y-116596200D01*
X177122400Y-107007500D02*
X174270500Y-107007500D01*
X177874200Y-116974300D02*
X177028500Y-116974300D01*
X176654800Y-116600600D02*
X176156500Y-116600600D01*
X166610500Y-94650600D02*
X166966100Y-95006200D01*
X154170300Y-120523200D02*
X154404000Y-120756900D01*
X115621600Y-119651000D02*
X116235600Y-119037000D01*
X174475600Y-116947700D02*
X174425400Y-116997900D01*
X173712300Y-116997900D02*
X173310600Y-116596200D01*
X177028500Y-116974300D02*
X176654800Y-116600600D01*
X168390400Y-103247000D02*
X167171300Y-102027900D01*
X166118000Y-94650600D02*
X166610500Y-94650600D01*
X146608000Y-117277000D02*
X152701500Y-117277000D01*
X152701500Y-117277000D02*
X154170300Y-118745800D01*
X116235600Y-118757600D02*
X116823500Y-118169700D01*
X154170300Y-118745800D02*
X154170300Y-120523200D01*
X165710300Y-96010600D02*
X165710300Y-95058300D01*
X175809300Y-116947800D02*
X175791700Y-116947800D01*
X170271100Y-103793100D02*
X169725000Y-103247000D01*
X175791700Y-116947800D02*
X175791600Y-116947700D01*
X117022600Y-118041300D02*
X117023600Y-118041300D01*
X166668900Y-100912700D02*
X166668900Y-100878100D01*
X167171300Y-101415100D02*
X166668900Y-100912700D01*
X166966100Y-95006200D02*
X166966100Y-95787700D01*
X116235600Y-119037000D02*
X116235600Y-118757600D01*
X115936700Y-122731800D02*
X115936700Y-121900800D01*
X146470300Y-117139300D02*
X146608000Y-117277000D01*
X125343200Y-115833400D02*
X125709900Y-116200100D01*
X116823500Y-118169700D02*
X116823500Y-118147600D01*
X174270500Y-107007500D02*
X171056100Y-103793100D01*
X139218200Y-116875300D02*
X139482200Y-117139300D01*
X166966100Y-95787700D02*
X166746000Y-96007800D01*
X117023600Y-118041300D02*
X117023600Y-117959700D01*
X165710300Y-95058300D02*
X166118000Y-94650600D01*
X139482200Y-117139300D02*
X146470300Y-117139300D01*
X115620100Y-123048400D02*
X115936700Y-122731800D01*
X179140500Y-115708000D02*
X177874200Y-116974300D01*
X175791600Y-116947700D02*
X174475600Y-116947700D01*
X170025600Y-116596200D02*
X169368100Y-117253700D01*
X138543000Y-116200100D02*
X139218200Y-116875300D01*
X169725000Y-103247000D02*
X168390400Y-103247000D01*
X165708800Y-96012100D02*
X165710300Y-96010600D01*
X179140500Y-114976600D02*
X179140500Y-115708000D01*
X174425400Y-116997900D02*
X173712300Y-116997900D01*
X167171300Y-102027900D02*
X167171300Y-101415100D01*
X115621600Y-121585700D02*
X115621600Y-119651000D01*
X115184800Y-137138000D02*
X115620100Y-136702700D01*
X171056100Y-103793100D02*
X170271100Y-103793100D01*
X165708800Y-99918000D02*
X165708800Y-96012100D01*
X125709900Y-116200100D02*
X138543000Y-116200100D01*
X176156500Y-116600600D02*
X175809300Y-116947800D01*
X115620100Y-136702700D02*
X115620100Y-123048400D01*
X117022600Y-118147600D02*
X117022600Y-118041300D01*
%TO.N,/D0*%
X134552600Y-137957600D02*
X136160000Y-139565000D01*
X117103900Y-125229700D02*
X117103900Y-126863200D01*
X128198300Y-137957600D02*
X134552600Y-137957600D01*
X117103900Y-126863200D02*
X128198300Y-137957600D01*
%TO.N,/A1*%
X170574000Y-105800000D02*
X169226100Y-104452100D01*
X111750300Y-105580100D02*
X110379700Y-105580100D01*
X100680400Y-124494200D02*
X100819700Y-124633500D01*
X100836100Y-110478000D02*
X100680400Y-110633700D01*
X100680400Y-111630000D02*
X100470200Y-111840200D01*
X170618900Y-105800000D02*
X170574000Y-105800000D01*
X100374000Y-112169700D02*
X100374000Y-114996100D01*
X100470200Y-118987300D02*
X100671900Y-119189000D01*
X124045700Y-105464500D02*
X124537800Y-105956600D01*
X106178900Y-105509200D02*
X106760200Y-104927900D01*
X100430900Y-111943900D02*
X100430900Y-112112800D01*
X100430900Y-112112800D02*
X100374000Y-112169700D01*
X100819700Y-124633500D02*
X100819700Y-135317500D01*
X163466000Y-84800000D02*
X163466000Y-84114900D01*
X95921600Y-147033400D02*
X95520000Y-147435000D01*
X116553800Y-104995600D02*
X116461000Y-104902800D01*
X100836100Y-109624600D02*
X100836100Y-110478000D01*
X103738100Y-92728100D02*
X103010100Y-92000100D01*
X103010100Y-92000100D02*
X103010100Y-85401700D01*
X100470200Y-111904600D02*
X100430900Y-111943900D01*
X160315400Y-104452100D02*
X158857000Y-105910500D01*
X103738100Y-100542100D02*
X103738100Y-92728100D01*
X100470200Y-111840200D02*
X100470200Y-111904600D01*
X100470200Y-115092300D02*
X100470200Y-118987300D01*
X155417300Y-81728000D02*
X152355800Y-84789500D01*
X100819700Y-135317500D02*
X100929100Y-135426900D01*
X110379700Y-105580100D02*
X110274800Y-105475200D01*
X100671900Y-119374800D02*
X100680400Y-119383300D01*
X100374000Y-114996100D02*
X100470200Y-115092300D01*
X152355800Y-84789500D02*
X152118700Y-84789500D01*
X169226100Y-104452100D02*
X160315400Y-104452100D01*
X115537300Y-104995600D02*
X112334800Y-104995600D01*
X100929100Y-138059700D02*
X95921600Y-143067200D01*
X124537800Y-105956600D02*
X127894100Y-105956600D01*
X124045700Y-104995600D02*
X124045700Y-105464500D01*
X124045700Y-86852400D02*
X124862000Y-86036100D01*
X161079100Y-81728000D02*
X155417300Y-81728000D01*
X100680400Y-119383300D02*
X100680400Y-124494200D01*
X100671900Y-119189000D02*
X100671900Y-119374800D01*
X100929100Y-135426900D02*
X100929100Y-138059700D01*
X116461000Y-104902800D02*
X115630100Y-104902800D01*
X104951500Y-105509200D02*
X100836100Y-109624600D01*
X127894100Y-105956600D02*
X128050700Y-105800000D01*
X103010100Y-85401700D02*
X103971000Y-84440800D01*
X106760200Y-104927900D02*
X106760200Y-103564200D01*
X124045700Y-104995600D02*
X124045700Y-86852400D01*
X112334800Y-104995600D02*
X111750300Y-105580100D01*
X106760200Y-103564200D02*
X103738100Y-100542100D01*
X106178900Y-105509200D02*
X104951500Y-105509200D01*
X124045700Y-104995600D02*
X116553800Y-104995600D01*
X163466000Y-84114900D02*
X161079100Y-81728000D01*
X95921600Y-143067200D02*
X95921600Y-147033400D01*
X100680400Y-110633700D02*
X100680400Y-111630000D01*
X115630100Y-104902800D02*
X115537300Y-104995600D01*
%TO.N,/A16*%
X149406400Y-98779600D02*
X149838500Y-99211700D01*
X130784800Y-85553700D02*
X130783300Y-85552200D01*
X170602000Y-120829000D02*
X170619500Y-120811500D01*
X116023300Y-121419400D02*
X116023300Y-120524100D01*
X128376700Y-119400000D02*
X149466200Y-119400000D01*
X113777500Y-92029300D02*
X112600100Y-92029300D01*
X117405045Y-118971080D02*
X117585065Y-119151100D01*
X116428900Y-89008400D02*
X116428900Y-90106100D01*
X122218100Y-82866400D02*
X120429300Y-84655200D01*
X112012100Y-98168500D02*
X110238600Y-99942000D01*
X131114000Y-85553700D02*
X130784800Y-85553700D01*
X125911000Y-119725000D02*
X128051700Y-119725000D01*
X130783300Y-85552200D02*
X129044200Y-85552200D01*
X116338400Y-121734500D02*
X116023300Y-121419400D01*
X142248000Y-98779600D02*
X149406400Y-98779600D01*
X133661300Y-93169100D02*
X133661300Y-88668900D01*
X127992700Y-84851500D02*
X127424600Y-84851500D01*
X116023300Y-120524100D02*
X116023300Y-119851224D01*
X124164900Y-83168100D02*
X123863200Y-82866400D01*
X112012100Y-92617300D02*
X112012100Y-98168500D01*
X128051700Y-119725000D02*
X128376700Y-119400000D01*
X135975100Y-98341700D02*
X135916800Y-98400000D01*
X120429300Y-85008000D02*
X116428900Y-89008400D01*
X116094553Y-120595353D02*
X116271600Y-120595353D01*
X135975100Y-98341700D02*
X135975100Y-95482900D01*
X140667400Y-100360200D02*
X142248000Y-98779600D01*
X116428900Y-90106100D02*
X114182900Y-92352100D01*
X120429300Y-84655200D02*
X120429300Y-85008000D01*
X116023300Y-119851224D02*
X116903444Y-118971080D01*
X131823300Y-86263000D02*
X131114000Y-85553700D01*
X139875100Y-100360200D02*
X140667400Y-100360200D01*
X135975100Y-95482900D02*
X133661300Y-93169100D01*
X127424600Y-84851500D02*
X127409400Y-84836300D01*
X125337100Y-119151100D02*
X125911000Y-119725000D01*
X129044200Y-85552200D02*
X128644000Y-85152000D01*
X127407200Y-84836300D02*
X125739000Y-83168100D01*
X133661300Y-88668900D02*
X131823300Y-86830900D01*
X137856600Y-98341700D02*
X139875100Y-100360200D01*
X115840000Y-139565000D02*
X116021800Y-139383200D01*
X160137000Y-119712100D02*
X161253900Y-120829000D01*
X116338400Y-122898100D02*
X116338400Y-121734500D01*
X127409400Y-84836300D02*
X127407200Y-84836300D01*
X116903444Y-118971080D02*
X117405045Y-118971080D01*
X116021800Y-123214700D02*
X116338400Y-122898100D01*
X116021800Y-139383200D02*
X116021800Y-123214700D01*
X114182900Y-92352100D02*
X114100300Y-92352100D01*
X117585065Y-119151100D02*
X125337100Y-119151100D01*
X161253900Y-120829000D02*
X170602000Y-120829000D01*
X135975100Y-98341700D02*
X137856600Y-98341700D01*
X116023300Y-120524100D02*
X116094553Y-120595353D01*
X128293200Y-85152000D02*
X127992700Y-84851500D01*
X123863200Y-82866400D02*
X122218100Y-82866400D01*
X125739000Y-83168100D02*
X124164900Y-83168100D01*
X131823300Y-86830900D02*
X131823300Y-86263000D01*
X114100300Y-92352100D02*
X113777500Y-92029300D01*
X128644000Y-85152000D02*
X128293200Y-85152000D01*
X112600100Y-92029300D02*
X112012100Y-92617300D01*
%TO.N,/A19*%
X114500000Y-121883000D02*
X114500000Y-118505900D01*
X164211900Y-116546900D02*
X164035300Y-116370300D01*
X113105700Y-112355200D02*
X113374000Y-112086900D01*
X109548800Y-117112500D02*
X110329000Y-116332300D01*
X108598500Y-118074400D02*
X109548800Y-117124100D01*
X110329000Y-116332300D02*
X110329100Y-116332300D01*
X109548900Y-117124100D02*
X109684600Y-117259800D01*
X168337000Y-118420300D02*
X167935300Y-118822000D01*
X116152300Y-116554600D02*
X117605400Y-116554600D01*
X115018300Y-117987600D02*
X115018300Y-117688600D01*
X110861200Y-116366100D02*
X111213700Y-116013600D01*
X165646400Y-119623900D02*
X165625900Y-119603400D01*
X117793300Y-116742500D02*
X127363600Y-116742500D01*
X176405600Y-117202300D02*
X175410000Y-118197900D01*
X117605400Y-116554600D02*
X117793300Y-116742500D01*
X108598500Y-120353800D02*
X108598500Y-118074400D01*
X113105700Y-113556100D02*
X113105700Y-112355200D01*
X110362900Y-116366100D02*
X110861200Y-116366100D01*
X115018300Y-117688600D02*
X116152300Y-116554600D01*
X164035300Y-116370300D02*
X164035300Y-116344600D01*
X131123200Y-106432000D02*
X127773700Y-103082500D01*
X111213700Y-116013600D02*
X111213700Y-115448100D01*
X164757600Y-118735000D02*
X164400400Y-118377800D01*
X172113500Y-118197900D02*
X171515200Y-117599600D01*
X158058900Y-122116600D02*
X157528600Y-121586300D01*
X175410000Y-118197900D02*
X172113500Y-118197900D01*
X164757600Y-118859900D02*
X164757600Y-118735000D01*
X163050100Y-115970000D02*
X162041800Y-116978300D01*
X171515200Y-117599600D02*
X170696000Y-118418800D01*
X114500000Y-118505900D02*
X115018300Y-117987600D01*
X109928300Y-121683600D02*
X108598500Y-120353800D01*
X149408200Y-95850000D02*
X149558200Y-96000000D01*
X164035300Y-116344600D02*
X163660700Y-115970000D01*
X166568700Y-119623900D02*
X165646400Y-119623900D01*
X110122400Y-144954700D02*
X109928300Y-144760600D01*
X167935300Y-118822000D02*
X167370500Y-118822000D01*
X165625900Y-119603400D02*
X165501100Y-119603400D01*
X109548800Y-117124100D02*
X109548800Y-117112500D01*
X163660700Y-115970000D02*
X163050100Y-115970000D01*
X109548800Y-117124100D02*
X109548900Y-117124100D01*
X127773700Y-103082500D02*
X127773700Y-102021300D01*
X109928300Y-144760600D02*
X109928300Y-121683600D01*
X170128000Y-118418800D02*
X170126500Y-118420300D01*
X170126500Y-118420300D02*
X168337000Y-118420300D01*
X167370500Y-118822000D02*
X167370500Y-118822100D01*
X164400400Y-117273800D02*
X164211900Y-117085300D01*
X162041800Y-116978300D02*
X157528600Y-116978300D01*
X114933300Y-122316300D02*
X114500000Y-121883000D01*
X110329100Y-116332300D02*
X110362900Y-116366100D01*
X164400400Y-118377800D02*
X164400400Y-117273800D01*
X157528600Y-121586300D02*
X157528600Y-116978300D01*
X165501100Y-119603400D02*
X164757600Y-118859900D01*
X167370500Y-118822100D02*
X166568700Y-119623900D01*
X164211900Y-117085300D02*
X164211900Y-116546900D01*
X127363600Y-116742500D02*
X127621100Y-117000000D01*
X139228600Y-95850000D02*
X149408200Y-95850000D01*
X170696000Y-118418800D02*
X170128000Y-118418800D01*
X111213700Y-115448100D02*
X113105700Y-113556100D01*
%TO.N,/A3*%
X102576400Y-109255700D02*
X102216600Y-109615500D01*
X149800600Y-83050500D02*
X151933700Y-80917400D01*
X109626000Y-104200000D02*
X109715600Y-104110400D01*
X115796400Y-105304500D02*
X115703600Y-105397300D01*
X111460600Y-92600800D02*
X111410300Y-92600800D01*
X101177400Y-112502300D02*
X101177400Y-114663500D01*
X171297600Y-97465700D02*
X171297600Y-99992500D01*
X120027600Y-84205700D02*
X120027600Y-84684700D01*
X101177400Y-114663500D02*
X101273600Y-114759700D01*
X101732500Y-135094300D02*
X101732500Y-147500200D01*
X118613300Y-105397300D02*
X116387500Y-105397300D01*
X101273600Y-112172800D02*
X101273600Y-112237200D01*
X112601300Y-106086300D02*
X109917200Y-106086300D01*
X101273600Y-118654700D02*
X101475300Y-118856400D01*
X102216600Y-109615500D02*
X102216600Y-111229800D01*
X112433800Y-91627600D02*
X111460600Y-92600800D01*
X101732500Y-147500200D02*
X100921000Y-148311700D01*
X101475300Y-118856400D02*
X101475300Y-119042200D01*
X113290300Y-105397300D02*
X112601300Y-106086300D01*
X107966700Y-106981800D02*
X104614900Y-106981800D01*
X101475300Y-119042200D02*
X101483800Y-119050700D01*
X101273600Y-112237200D02*
X101234300Y-112276500D01*
X116027200Y-88685100D02*
X116027200Y-89939800D01*
X102216600Y-111229800D02*
X101273600Y-112172800D01*
X101234300Y-112445400D02*
X101177400Y-112502300D01*
X109626000Y-105795100D02*
X109626000Y-104200000D01*
X114100300Y-91784100D02*
X113943800Y-91627600D01*
X116294700Y-105304500D02*
X115796400Y-105304500D01*
X119804000Y-106588000D02*
X118613300Y-105397300D01*
X109917200Y-106086300D02*
X109626000Y-105795100D01*
X109626000Y-105795100D02*
X109153400Y-105795100D01*
X101234300Y-112276500D02*
X101234300Y-112445400D01*
X120027600Y-84684700D02*
X116027200Y-88685100D01*
X114182900Y-91784100D02*
X114100300Y-91784100D01*
X101483800Y-119050700D02*
X101483800Y-124161600D01*
X116387500Y-105397300D02*
X116294700Y-105304500D01*
X127606100Y-106588000D02*
X119804000Y-106588000D01*
X109715600Y-103021500D02*
X109626000Y-102931900D01*
X148505400Y-82181900D02*
X148505400Y-82265000D01*
X101483800Y-124161600D02*
X101633300Y-124311100D01*
X102576400Y-109020300D02*
X102576400Y-109255700D01*
X109153400Y-105795100D02*
X107966700Y-106981800D01*
X101273600Y-114759700D02*
X101273600Y-118654700D01*
X109626000Y-94386700D02*
X111410300Y-92602400D01*
X101633300Y-124311100D02*
X101633300Y-134995100D01*
X111410300Y-92602400D02*
X111410300Y-92600800D01*
X113943800Y-91627600D02*
X112433800Y-91627600D01*
X100921000Y-148311700D02*
X98936700Y-148311700D01*
X109626000Y-102931900D02*
X109626000Y-94386700D01*
X163239700Y-80917400D02*
X163897200Y-81574900D01*
X163897200Y-81574900D02*
X166510700Y-84188400D01*
X98936700Y-148311700D02*
X98060000Y-147435000D01*
X116027200Y-89939800D02*
X114182900Y-91784100D01*
X149290900Y-83050500D02*
X149800600Y-83050500D01*
X151933700Y-80917400D02*
X163239700Y-80917400D01*
X101633300Y-134995100D02*
X101732500Y-135094300D01*
X115703600Y-105397300D02*
X113290300Y-105397300D01*
X166510700Y-84188400D02*
X166510700Y-92678800D01*
X104614900Y-106981800D02*
X102576400Y-109020300D01*
X120845400Y-83387900D02*
X120027600Y-84205700D01*
X166510700Y-92678800D02*
X171297600Y-97465700D01*
X109715600Y-104110400D02*
X109715600Y-103021500D01*
X148505400Y-82265000D02*
X149290900Y-83050500D01*
%TO.N,/A15*%
X176921800Y-102709300D02*
X176708500Y-102922600D01*
X117894626Y-120379900D02*
X117135806Y-119621080D01*
X173113100Y-103324300D02*
X171723300Y-103324300D01*
X171050700Y-119222200D02*
X171165600Y-119107300D01*
X150764600Y-96283500D02*
X149600800Y-97447300D01*
X173514800Y-102922600D02*
X173113100Y-103324300D01*
X167472300Y-100580100D02*
X167472300Y-100545500D01*
X116469000Y-127163100D02*
X116469000Y-123335500D01*
X154119100Y-96283500D02*
X150764600Y-96283500D01*
X184478000Y-108515400D02*
X184478000Y-119940000D01*
X176708500Y-102922600D02*
X173514800Y-102922600D01*
X166933100Y-100006300D02*
X166933100Y-98620800D01*
X167974700Y-101082500D02*
X167472300Y-100580100D01*
X167472300Y-100545500D02*
X166933100Y-100006300D01*
X168723000Y-102443600D02*
X167974700Y-101695300D01*
X171723300Y-103324300D02*
X171388700Y-102989700D01*
X147477200Y-120281200D02*
X147378500Y-120379900D01*
X170057600Y-102443600D02*
X168723000Y-102443600D01*
X170459100Y-119223700D02*
X170460600Y-119222200D01*
X154637100Y-98078100D02*
X154637100Y-96801500D01*
X149600800Y-97447300D02*
X140997800Y-97447300D01*
X178232000Y-119107300D02*
X179099200Y-118240100D01*
X166933100Y-98620800D02*
X166712300Y-98400000D01*
X170460600Y-119222200D02*
X171050700Y-119222200D01*
X119246500Y-147753000D02*
X119246500Y-129940600D01*
X119246500Y-129940600D02*
X116469000Y-127163100D01*
X116740100Y-123064400D02*
X116740100Y-121046092D01*
X184478000Y-119940000D02*
X184717900Y-120179900D01*
X168984200Y-119223700D02*
X170459100Y-119223700D01*
X147477200Y-120281200D02*
X149237800Y-120281200D01*
X116921600Y-120864592D02*
X116921600Y-119835286D01*
X113300000Y-147435000D02*
X114173500Y-148308500D01*
X140997800Y-97447300D02*
X139437900Y-99007200D01*
X170603700Y-102989700D02*
X170057600Y-102443600D01*
X116740100Y-121046092D02*
X116921600Y-120864592D01*
X118691000Y-148308500D02*
X119246500Y-147753000D01*
X147378500Y-120379900D02*
X117894626Y-120379900D01*
X149237800Y-120281200D02*
X149284500Y-120234500D01*
X171165600Y-119107300D02*
X178232000Y-119107300D01*
X179870700Y-103908100D02*
X184478000Y-108515400D01*
X167974700Y-101695300D02*
X167974700Y-101082500D01*
X154637100Y-96801500D02*
X154119100Y-96283500D01*
X168423800Y-119784100D02*
X168984200Y-119223700D01*
X154419900Y-98295300D02*
X154637100Y-98078100D01*
X116469000Y-123335500D02*
X116740100Y-123064400D01*
X171388700Y-102989700D02*
X170603700Y-102989700D01*
X116921600Y-119835286D02*
X117135806Y-119621080D01*
X114173500Y-148308500D02*
X118691000Y-148308500D01*
%TO.N,/A5*%
X164136100Y-92365300D02*
X164228000Y-92457200D01*
X122831700Y-83268100D02*
X122731600Y-83368200D01*
X137828200Y-101698800D02*
X137103000Y-100973600D01*
X99323900Y-111270900D02*
X99323900Y-111282500D01*
X99177400Y-111124400D02*
X99323900Y-111270900D01*
X127826400Y-85253200D02*
X127493800Y-85253200D01*
X130947700Y-85955400D02*
X128879400Y-85955400D01*
X164228000Y-92457200D02*
X164228000Y-94068400D01*
X133675500Y-97717900D02*
X133675500Y-95100900D01*
X127376100Y-85370900D02*
X127376000Y-85370900D01*
X102484100Y-81600000D02*
X100412500Y-83671600D01*
X114340100Y-92762900D02*
X113943100Y-92762900D01*
X112788600Y-93784300D02*
X112788600Y-103690900D01*
X99265100Y-119486200D02*
X99323900Y-119545000D01*
X112788600Y-93656500D02*
X112788600Y-93784300D01*
X137103000Y-100973600D02*
X136931200Y-100973600D01*
X100412500Y-83671600D02*
X100412500Y-103499500D01*
X99168900Y-115495000D02*
X99265100Y-115591200D01*
X120831000Y-84821500D02*
X120831000Y-85252700D01*
X100412500Y-103499500D02*
X99177400Y-104734600D01*
X95110300Y-143105500D02*
X95110300Y-145602500D01*
X112413800Y-93281800D02*
X112788500Y-93656500D01*
X133259600Y-93335400D02*
X133259600Y-88835200D01*
X99265100Y-111405700D02*
X99225800Y-111445000D01*
X99323900Y-136499900D02*
X97176700Y-138647100D01*
X133661300Y-93737100D02*
X133259600Y-93335400D01*
X128477700Y-85553700D02*
X128126900Y-85553700D01*
X133259600Y-88835200D02*
X131421600Y-86997200D01*
X113943100Y-92762900D02*
X113611200Y-92431000D01*
X128126900Y-85553700D02*
X127826400Y-85253200D01*
X127240900Y-85238000D02*
X125572700Y-83569800D01*
X112766400Y-92431000D02*
X112413800Y-92783600D01*
X123998600Y-83569800D02*
X123696900Y-83268100D01*
X97176700Y-138647100D02*
X97176700Y-141039100D01*
X131421600Y-86997200D02*
X131421600Y-86429300D01*
X113611200Y-92431000D02*
X112766400Y-92431000D01*
X99177400Y-104734600D02*
X99177400Y-111124400D01*
X99225800Y-111445000D02*
X99225800Y-111613900D01*
X112788500Y-93656500D02*
X112788600Y-93656500D01*
X99225800Y-111613900D02*
X99168900Y-111670800D01*
X112788600Y-93784300D02*
X114043800Y-93784300D01*
X136931200Y-100973600D02*
X133675500Y-97717900D01*
X166912400Y-82792300D02*
X166431000Y-82310900D01*
X99323900Y-119545000D02*
X99323900Y-136499900D01*
X127243100Y-85238000D02*
X127240900Y-85238000D01*
X120831000Y-85252700D02*
X116830600Y-89253100D01*
X99168900Y-111670800D02*
X99168900Y-115495000D01*
X163135900Y-95160500D02*
X163135900Y-99724400D01*
X99265100Y-111341300D02*
X99265100Y-111405700D01*
X122731600Y-83368200D02*
X122284300Y-83368200D01*
X116830600Y-89253100D02*
X116830600Y-90272400D01*
X112788600Y-103690900D02*
X111501100Y-104978400D01*
X112413800Y-92783600D02*
X112413800Y-93281800D01*
X167348000Y-92410100D02*
X166912400Y-91974500D01*
X122284300Y-83368200D02*
X120831000Y-84821500D01*
X127493800Y-85253200D02*
X127376100Y-85370900D01*
X128879400Y-85955400D02*
X128477700Y-85553700D01*
X99265100Y-115591200D02*
X99265100Y-119486200D01*
X97176700Y-141039100D02*
X95110300Y-143105500D01*
X123696900Y-83268100D02*
X122831700Y-83268100D01*
X150613500Y-101698800D02*
X137828200Y-101698800D01*
X127376000Y-85370900D02*
X127243100Y-85238000D01*
X172204700Y-100208700D02*
X172204700Y-97266800D01*
X166912400Y-91974500D02*
X166912400Y-82792300D01*
X125572700Y-83569800D02*
X123998600Y-83569800D01*
X131421600Y-86429300D02*
X130947700Y-85955400D01*
X172204700Y-97266800D02*
X167348000Y-92410100D01*
X116830600Y-90272400D02*
X114340100Y-92762900D01*
X164228000Y-94068400D02*
X163135900Y-95160500D01*
X99323900Y-111282500D02*
X99265100Y-111341300D01*
X133675500Y-95100900D02*
X133661300Y-95086700D01*
X133661300Y-95086700D02*
X133661300Y-93737100D01*
%TO.N,/A7*%
X147162700Y-104878500D02*
X152782200Y-104878500D01*
X110590700Y-107598200D02*
X110002000Y-108186900D01*
X110002000Y-108186900D02*
X105113800Y-108186900D01*
X102382500Y-113001200D02*
X102382500Y-114164600D01*
X155310200Y-103235400D02*
X158892100Y-99653500D01*
X113366800Y-107416100D02*
X113184700Y-107598200D01*
X154245700Y-103235400D02*
X155310200Y-103235400D01*
X102880400Y-133752100D02*
X106958800Y-137830500D01*
X102382500Y-114164600D02*
X102478700Y-114260800D01*
X103757800Y-111457000D02*
X102439400Y-112775400D01*
X102439400Y-112775400D02*
X102439400Y-112944300D01*
X128784500Y-82843000D02*
X128288900Y-82347400D01*
X103857900Y-110010800D02*
X103757800Y-110110900D01*
X105113800Y-108186900D02*
X103857900Y-109442800D01*
X102688900Y-118366000D02*
X102688900Y-123662700D01*
X106958800Y-143616200D02*
X103140000Y-147435000D01*
X102688900Y-123662700D02*
X102880400Y-123854200D01*
X102439400Y-112944300D02*
X102382500Y-113001200D01*
X148911600Y-83452200D02*
X151202500Y-83452200D01*
X116045500Y-106031400D02*
X114660800Y-107416100D01*
X139222800Y-82400000D02*
X147859400Y-82400000D01*
X113184700Y-107598200D02*
X110590700Y-107598200D01*
X174091300Y-83822500D02*
X168741900Y-83822500D01*
X152782200Y-104878500D02*
X153910400Y-103750300D01*
X168741900Y-83822500D02*
X168253400Y-83334000D01*
X147859400Y-82400000D02*
X148911600Y-83452200D01*
X106958800Y-137830500D02*
X106958800Y-143616200D01*
X102880400Y-123854200D02*
X102880400Y-133752100D01*
X151202500Y-83452200D02*
X152713300Y-81941400D01*
X116045500Y-105906200D02*
X116045500Y-106031400D01*
X145684200Y-103400000D02*
X147162700Y-104878500D01*
X102478700Y-118155800D02*
X102688900Y-118366000D01*
X131201000Y-82843000D02*
X128784500Y-82843000D01*
X139222800Y-82400000D02*
X131644000Y-82400000D01*
X114660800Y-107416100D02*
X113366800Y-107416100D01*
X153910400Y-103750300D02*
X153910400Y-103570700D01*
X158892100Y-99653500D02*
X158892100Y-83534900D01*
X103857900Y-109442800D02*
X103857900Y-110010800D01*
X103757800Y-110110900D02*
X103757800Y-111457000D01*
X128288900Y-82347400D02*
X128041400Y-82347400D01*
X153910400Y-103570700D02*
X154245700Y-103235400D01*
X102478700Y-114260800D02*
X102478700Y-118155800D01*
X131644000Y-82400000D02*
X131201000Y-82843000D01*
%TO.N,/D5*%
X134386100Y-146603300D02*
X120267600Y-132484800D01*
X85181400Y-101709200D02*
X84540000Y-102350600D01*
X140408300Y-146603300D02*
X134386100Y-146603300D01*
X120267600Y-132484800D02*
X120267600Y-131304000D01*
X95812300Y-111236800D02*
X86284700Y-101709200D01*
X86284700Y-101709200D02*
X85181400Y-101709200D01*
X141240000Y-147435000D02*
X140408300Y-146603300D01*
X95812300Y-131304000D02*
X95812300Y-111236800D01*
%TO.N,/A17*%
X113004400Y-146554400D02*
X114959400Y-146554400D01*
X114104100Y-114518700D02*
X112868600Y-115754200D01*
X170980900Y-116997900D02*
X169960200Y-118018600D01*
X173608800Y-117549400D02*
X173057300Y-116997900D01*
X110437900Y-148292600D02*
X111266200Y-148292600D01*
X139435200Y-100761900D02*
X141658500Y-100761900D01*
X164843400Y-116610400D02*
X164437000Y-116204000D01*
X109906000Y-146923100D02*
X109906000Y-147760700D01*
X109906000Y-147760700D02*
X110437900Y-148292600D01*
X166402400Y-119222200D02*
X165812700Y-119222200D01*
X111616200Y-116747100D02*
X112445800Y-116747100D01*
X112868600Y-115756300D02*
X112544200Y-116080700D01*
X167365700Y-118163400D02*
X166920000Y-118609100D01*
X114414500Y-111469300D02*
X114377400Y-111506400D01*
X112550000Y-116662300D02*
X112550000Y-116996983D01*
X173057300Y-116997900D02*
X170980900Y-116997900D01*
X157621000Y-115964800D02*
X156814500Y-116771300D01*
X114377400Y-112502400D02*
X114202400Y-112677400D01*
X111193700Y-117169600D02*
X111193700Y-117169500D01*
X162376000Y-115964800D02*
X157621000Y-115964800D01*
X114414500Y-111396200D02*
X114414500Y-111469300D01*
X156814500Y-116771300D02*
X156814500Y-118249100D01*
X114202400Y-112889900D02*
X114104100Y-112988200D01*
X166920000Y-118704600D02*
X166402400Y-119222200D01*
X141658500Y-100761900D02*
X143039100Y-99381300D01*
X132538000Y-117577900D02*
X146340900Y-117577900D01*
X152252300Y-117678700D02*
X152682400Y-118108800D01*
X168025900Y-118163400D02*
X167365700Y-118163400D01*
X138797200Y-100123900D02*
X139435200Y-100761900D01*
X143039100Y-99381300D02*
X149016500Y-99381300D01*
X112445800Y-116747100D02*
X112445800Y-144383300D01*
X115820100Y-117678500D02*
X115820100Y-117754200D01*
X111266200Y-148292600D02*
X113004400Y-146554400D01*
X114104100Y-112988200D02*
X114104100Y-114518700D01*
X165812700Y-119222100D02*
X164843400Y-118252800D01*
X163827000Y-115568300D02*
X162772500Y-115568300D01*
X165812700Y-119222200D02*
X165812700Y-119222100D01*
X164437000Y-116178300D02*
X163827000Y-115568300D01*
X146340900Y-117577900D02*
X146441700Y-117678700D01*
X174724700Y-117549400D02*
X173608800Y-117549400D01*
X164437000Y-116204000D02*
X164437000Y-116178300D01*
X109625200Y-118738100D02*
X111193700Y-117169600D01*
X109625200Y-119383600D02*
X109625200Y-118738100D01*
X146441700Y-117678700D02*
X152252300Y-117678700D01*
X114202400Y-112677400D02*
X114202400Y-112889900D01*
X114557900Y-111252800D02*
X114414500Y-111396200D01*
X164843400Y-118252800D02*
X164843400Y-116610400D01*
X114377400Y-111506400D02*
X114377400Y-112502400D01*
X168170700Y-118018600D02*
X168025900Y-118163400D01*
X169960200Y-118018600D02*
X168170700Y-118018600D01*
X166920000Y-118609100D02*
X166920000Y-118704600D01*
X112544200Y-116080700D02*
X112544200Y-116648700D01*
X112868600Y-115754200D02*
X112868600Y-115756300D01*
X131160200Y-117677300D02*
X119345100Y-117677300D01*
X119345100Y-117677300D02*
X118812000Y-117144200D01*
X132681900Y-105691600D02*
X132478000Y-105895500D01*
X112445800Y-116747100D02*
X112540300Y-116652600D01*
X116542300Y-116956300D02*
X115820100Y-117678500D01*
X136932300Y-100123900D02*
X138797200Y-100123900D01*
X131898800Y-116938700D02*
X131160200Y-117677300D01*
X114959400Y-146554400D02*
X115840000Y-147435000D01*
X112544200Y-116648700D02*
X112540300Y-116652600D01*
X162772500Y-115568300D02*
X162376000Y-115964800D01*
X111193700Y-117169500D02*
X111193800Y-117169500D01*
X111193800Y-117169500D02*
X111616200Y-116747100D01*
X131898800Y-116938700D02*
X132538000Y-117577900D01*
X118812000Y-117144200D02*
X117627000Y-117144200D01*
X112445800Y-144383300D02*
X109906000Y-146923100D01*
X132681900Y-100177100D02*
X132681900Y-105691600D01*
X117627000Y-117144200D02*
X117439100Y-116956300D01*
X112540300Y-116652600D02*
X112550000Y-116662300D01*
X117439100Y-116956300D02*
X116542300Y-116956300D01*
%TO.N,/A6*%
X118201500Y-80657700D02*
X117597000Y-81262200D01*
X101675300Y-118488400D02*
X101877000Y-118690100D01*
X101675300Y-114593400D02*
X101675300Y-118488400D01*
X103054500Y-109678200D02*
X102618300Y-110114400D01*
X102134200Y-134928000D02*
X102134200Y-138559200D01*
X108831900Y-106754200D02*
X108202600Y-107383500D01*
X127367000Y-80657700D02*
X118201500Y-80657700D01*
X101885500Y-118884400D02*
X101885500Y-123995300D01*
X101877000Y-118875900D02*
X101885500Y-118884400D01*
X101877000Y-118690100D02*
X101877000Y-118875900D01*
X113627900Y-106019000D02*
X112892700Y-106754200D01*
X133975600Y-81579000D02*
X131696800Y-81579000D01*
X154781500Y-86596400D02*
X149656100Y-86596400D01*
X158478000Y-84486700D02*
X158478000Y-99180500D01*
X112892700Y-106754200D02*
X108831900Y-106754200D01*
X102618300Y-111396100D02*
X101675300Y-112339100D01*
X130857400Y-82418400D02*
X129127700Y-82418400D01*
X157684600Y-83693300D02*
X154781500Y-86596400D01*
X101636000Y-112442800D02*
X101636000Y-112611700D01*
X101675300Y-112339100D02*
X101675300Y-112403500D01*
X175452100Y-81600000D02*
X173880900Y-80028800D01*
X101636000Y-112611700D02*
X101579100Y-112668600D01*
X104781200Y-107383500D02*
X103054500Y-109110200D01*
X102134200Y-138559200D02*
X103140000Y-139565000D01*
X103054500Y-109110200D02*
X103054500Y-109678200D01*
X135525800Y-80028800D02*
X133975600Y-81579000D01*
X108202600Y-107383500D02*
X104781200Y-107383500D01*
X157684600Y-83693300D02*
X158478000Y-84486700D01*
X101675300Y-112403500D02*
X101636000Y-112442800D01*
X129127700Y-82418400D02*
X127367000Y-80657700D01*
X102077000Y-124186800D02*
X102077000Y-134870800D01*
X173880900Y-80028800D02*
X135525800Y-80028800D01*
X102618300Y-110114400D02*
X102618300Y-111396100D01*
X131696800Y-81579000D02*
X130857400Y-82418400D01*
X101579100Y-114497200D02*
X101675300Y-114593400D01*
X157684600Y-83693300D02*
X157684600Y-83534900D01*
X102077000Y-134870800D02*
X102134200Y-134928000D01*
X114828300Y-106019000D02*
X113627900Y-106019000D01*
X101579100Y-112668600D02*
X101579100Y-114497200D01*
X101885500Y-123995300D02*
X102077000Y-124186800D01*
X149656100Y-86596400D02*
X149526300Y-86466600D01*
X158478000Y-99180500D02*
X155242900Y-102415600D01*
%TO.N,/LDS*%
X133620000Y-139565000D02*
X140182900Y-146127900D01*
X140182900Y-146127900D02*
X141906600Y-146127900D01*
X141906600Y-146127900D02*
X142510100Y-146731400D01*
%TO.N,/D1*%
X98687900Y-135111000D02*
X89628200Y-126051300D01*
X135292100Y-148302900D02*
X133277700Y-148302900D01*
X124802300Y-139140600D02*
X120772300Y-135110600D01*
X124802300Y-139827500D02*
X124802300Y-139140600D01*
X136160000Y-147435000D02*
X135292100Y-148302900D01*
X133277700Y-148302900D02*
X124802300Y-139827500D01*
X89628200Y-126051300D02*
X89628200Y-105905600D01*
%TO.N,/A22*%
X120170500Y-133513100D02*
X120183500Y-133500100D01*
X123460000Y-139565000D02*
X120170500Y-136275500D01*
X120170500Y-136275500D02*
X120170500Y-133513100D01*
%TO.N,/D7*%
X100234400Y-110228800D02*
X100234400Y-111508000D01*
X135156400Y-137357400D02*
X143780000Y-145981000D01*
X99972300Y-112003400D02*
X99972300Y-115162400D01*
X100234400Y-119319500D02*
X100234400Y-135583100D01*
X100068500Y-111673900D02*
X100068500Y-111738300D01*
X100068500Y-115258600D02*
X100068500Y-119153600D01*
X100068500Y-119153600D02*
X100234400Y-119319500D01*
X100068500Y-111738300D02*
X100029200Y-111777600D01*
X100029200Y-111946500D02*
X99972300Y-112003400D01*
X100234400Y-135583100D02*
X100327400Y-135676100D01*
X100234400Y-111508000D02*
X100068500Y-111673900D01*
X99972300Y-115162400D02*
X100068500Y-115258600D01*
X143780000Y-145981000D02*
X143780000Y-147435000D01*
X135056800Y-137357400D02*
X135156400Y-137357400D01*
X100029200Y-111777600D02*
X100029200Y-111946500D01*
%TO.N,/A2*%
X118631700Y-81078600D02*
X117675200Y-82035100D01*
X164102900Y-99672700D02*
X164102900Y-94961700D01*
X99627500Y-111780200D02*
X99570600Y-111837100D01*
X156044200Y-106677300D02*
X148872600Y-106677300D01*
X164905400Y-94159200D02*
X164905400Y-92022800D01*
X152109200Y-84026300D02*
X152147800Y-83987700D01*
X170640600Y-104996600D02*
X170338600Y-104996600D01*
X162394600Y-102605400D02*
X164503700Y-100496300D01*
X102608400Y-92166400D02*
X102608400Y-84950400D01*
X130568900Y-83244700D02*
X128618100Y-83244700D01*
X164102900Y-94961700D02*
X164905400Y-94159200D01*
X103322700Y-103648500D02*
X103322700Y-92880700D01*
X157418000Y-105303500D02*
X160116100Y-102605400D01*
X99627500Y-111611300D02*
X99627500Y-111780200D01*
X165161300Y-91766900D02*
X165161300Y-84062900D01*
X99725600Y-137899400D02*
X98060000Y-139565000D01*
X99725600Y-119378700D02*
X99725600Y-137899400D01*
X148872600Y-106677300D02*
X148759400Y-106790500D01*
X168057800Y-104050400D02*
X164503700Y-100496300D01*
X164503700Y-100496300D02*
X164503700Y-100073400D01*
X143603000Y-84026300D02*
X152109200Y-84026300D01*
X99570600Y-111837100D02*
X99570600Y-115328700D01*
X104483700Y-104809500D02*
X99632600Y-109660600D01*
X125921500Y-81078600D02*
X118631700Y-81078600D01*
X164503700Y-100073400D02*
X164503600Y-100073400D01*
X99666800Y-111572000D02*
X99627500Y-111611300D01*
X169392400Y-104050400D02*
X168057800Y-104050400D01*
X99666800Y-115424900D02*
X99666800Y-119319900D01*
X162424700Y-81326300D02*
X165161300Y-84062900D01*
X115471600Y-82035100D02*
X113568000Y-83938700D01*
X117675200Y-82035100D02*
X115471600Y-82035100D01*
X128333200Y-82959800D02*
X127802700Y-82959800D01*
X148759400Y-106790500D02*
X138796900Y-106790500D01*
X99570600Y-115328700D02*
X99666800Y-115424900D01*
X170338600Y-104996600D02*
X169392400Y-104050400D01*
X152147800Y-83987700D02*
X154809200Y-81326300D01*
X99632600Y-111011600D02*
X99725600Y-111104600D01*
X99632600Y-109660600D02*
X99632600Y-111011600D01*
X127802700Y-82959800D02*
X125921500Y-81078600D01*
X136120400Y-83004600D02*
X142581300Y-83004600D01*
X154809200Y-81326300D02*
X162424700Y-81326300D01*
X164503600Y-100073400D02*
X164102900Y-99672700D01*
X130596000Y-83271800D02*
X135853200Y-83271800D01*
X160116100Y-102605400D02*
X162394600Y-102605400D01*
X130596000Y-83271800D02*
X130596000Y-83579400D01*
X130596000Y-83271800D02*
X130568900Y-83244700D01*
X142581300Y-83004600D02*
X143603000Y-84026300D01*
X103725800Y-83833000D02*
X104503600Y-83833000D01*
X138796900Y-106790500D02*
X136347000Y-104340600D01*
X105790700Y-104809500D02*
X106134400Y-104465800D01*
X128618100Y-83244700D02*
X128333200Y-82959800D01*
X99666800Y-119319900D02*
X99725600Y-119378700D01*
X104483700Y-104809500D02*
X103322700Y-103648500D01*
X136347000Y-104340600D02*
X134374800Y-104340600D01*
X157418000Y-105303500D02*
X156044200Y-106677300D01*
X99725600Y-111448800D02*
X99666800Y-111507600D01*
X102608400Y-84950400D02*
X103725800Y-83833000D01*
X165161300Y-84062900D02*
X165407100Y-84062900D01*
X103322700Y-92880700D02*
X102608400Y-92166400D01*
X99666800Y-111507600D02*
X99666800Y-111572000D01*
X135853200Y-83271800D02*
X136120400Y-83004600D01*
X104483700Y-104809500D02*
X105790700Y-104809500D01*
X99725600Y-111104600D02*
X99725600Y-111448800D01*
X164905400Y-92022800D02*
X165161300Y-91766900D01*
%TO.N,/D15*%
X147536300Y-144809200D02*
X147536300Y-144679800D01*
X153086500Y-148288500D02*
X151015600Y-148288500D01*
X147536300Y-144679800D02*
X129920300Y-127063800D01*
X153940000Y-147435000D02*
X153086500Y-148288500D01*
X151015600Y-148288500D02*
X147536300Y-144809200D01*
%TO.N,/TMS*%
X153960000Y-134986000D02*
X160802100Y-141828100D01*
X153960000Y-130000000D02*
X153960000Y-134986000D01*
%TO.N,/TDI*%
X155348300Y-129755400D02*
X155348300Y-130975000D01*
X163801000Y-139427700D02*
X171006614Y-139427700D01*
X154424200Y-128831300D02*
X155348300Y-129755400D01*
X155348300Y-130975000D02*
X163801000Y-139427700D01*
X172769239Y-138850000D02*
X173346939Y-139427700D01*
X152588700Y-128831300D02*
X154424200Y-128831300D01*
X173346939Y-139427700D02*
X175378300Y-139427700D01*
X171584314Y-138850000D02*
X172769239Y-138850000D01*
X151420000Y-130000000D02*
X152588700Y-128831300D01*
X171006614Y-139427700D02*
X171584314Y-138850000D01*
%TO.N,/TCK*%
X177017900Y-130424500D02*
X176593400Y-130000000D01*
X176593400Y-130000000D02*
X156500000Y-130000000D01*
%TO.N,/DELAY_CS*%
X180450900Y-142700900D02*
X180450900Y-140424600D01*
X181000000Y-143250000D02*
X180450900Y-142700900D01*
%TO.N,/AS*%
X178000000Y-141447900D02*
X176962500Y-140410400D01*
X178000000Y-143250000D02*
X178000000Y-141447900D01*
%TO.N,/SLEEP*%
X184000000Y-140131600D02*
X184971800Y-139159800D01*
X184000000Y-143250000D02*
X184000000Y-140131600D01*
%TO.N,/CE2*%
X163808800Y-106739300D02*
X160732500Y-106739300D01*
X181562200Y-112791400D02*
X180508700Y-111737900D01*
X173452300Y-108899200D02*
X172847500Y-108294400D01*
X169236800Y-107471000D02*
X169236800Y-107359700D01*
X180508700Y-111737900D02*
X180508700Y-111169900D01*
X169116000Y-107238900D02*
X167236900Y-107238900D01*
X167236900Y-107238900D02*
X167062400Y-107413400D01*
X180508700Y-111169900D02*
X178238000Y-108899200D01*
X170060200Y-108294400D02*
X169236800Y-107471000D01*
X184758600Y-126762500D02*
X181562200Y-123566100D01*
X167062400Y-107413400D02*
X164482900Y-107413400D01*
X178238000Y-108899200D02*
X173452300Y-108899200D01*
X164482900Y-107413400D02*
X163808800Y-106739300D01*
X172847500Y-108294400D02*
X170060200Y-108294400D01*
X169236800Y-107359700D02*
X169116000Y-107238900D01*
X181562200Y-123566100D02*
X181562200Y-112791400D01*
%TO.N,/CE1*%
X148925700Y-107192200D02*
X149038900Y-107079000D01*
X137747500Y-106309200D02*
X138630500Y-107192200D01*
X124657400Y-89682700D02*
X124657400Y-98048600D01*
X132235800Y-106510000D02*
X133926800Y-106510000D01*
X183241800Y-123823200D02*
X187074000Y-127655400D01*
X149038900Y-107079000D02*
X158615700Y-107079000D01*
X164213700Y-106118800D02*
X165106600Y-107011700D01*
X159575900Y-106118800D02*
X164213700Y-106118800D01*
X169638500Y-107304700D02*
X170226500Y-107892700D01*
X178404300Y-108497500D02*
X183241800Y-113335000D01*
X134127600Y-106309200D02*
X137747500Y-106309200D01*
X173265400Y-107892700D02*
X173870200Y-108497500D01*
X169202700Y-106728800D02*
X169638500Y-107164600D01*
X187074000Y-127655400D02*
X187074000Y-131218800D01*
X166896100Y-107011700D02*
X167179000Y-106728800D01*
X165106600Y-107011700D02*
X166896100Y-107011700D01*
X130830800Y-105105000D02*
X132235800Y-106510000D01*
X158615700Y-107079000D02*
X159575900Y-106118800D01*
X127133300Y-87206800D02*
X124657400Y-89682700D01*
X133926800Y-106510000D02*
X134127600Y-106309200D01*
X173870200Y-108497500D02*
X178404300Y-108497500D01*
X167179000Y-106728800D02*
X169202700Y-106728800D01*
X124657400Y-98048600D02*
X130830800Y-104222000D01*
X130830800Y-105019800D02*
X130830800Y-105105000D01*
X170226500Y-107892700D02*
X173265400Y-107892700D01*
X183241800Y-113335000D02*
X183241800Y-123823200D01*
X169638500Y-107164600D02*
X169638500Y-107304700D01*
X138630500Y-107192200D02*
X148925700Y-107192200D01*
X130830800Y-104222000D02*
X130830800Y-105019800D01*
%TO.N,/CE0*%
X109113900Y-103270700D02*
X109113900Y-96685100D01*
X113270300Y-115920500D02*
X113270300Y-116897029D01*
X113141600Y-121920900D02*
X113141600Y-124558100D01*
X177329300Y-128542100D02*
X176902200Y-128542100D01*
X113200000Y-116967329D02*
X113200000Y-121862500D01*
X176902200Y-128542100D02*
X174361200Y-126001100D01*
X113200000Y-121862500D02*
X113141600Y-121920900D01*
X105460300Y-84457700D02*
X108618800Y-84457700D01*
X103964100Y-85953900D02*
X105460300Y-84457700D01*
X108618800Y-84457700D02*
X109107900Y-84946800D01*
X103964100Y-91535300D02*
X103964100Y-85953900D01*
X113141600Y-124558100D02*
X113307100Y-124723600D01*
X109113900Y-96685100D02*
X103964100Y-91535300D01*
X115080100Y-114110700D02*
X113270300Y-115920500D01*
X178026200Y-129239000D02*
X177329300Y-128542100D01*
X178026200Y-130092700D02*
X178026200Y-129239000D01*
X113270300Y-116897029D02*
X113200000Y-116967329D01*
X115080100Y-113266500D02*
X115080100Y-114110700D01*
X179584800Y-131651300D02*
X178026200Y-130092700D01*
X174361200Y-126001100D02*
X174361200Y-125029000D01*
%TO.N,/WEL*%
X154285400Y-95881800D02*
X153717400Y-95881800D01*
X154637100Y-99824700D02*
X155038800Y-99423000D01*
X168179500Y-99296800D02*
X168352800Y-99123500D01*
X175394600Y-96379400D02*
X175394600Y-98440500D01*
X155038800Y-96635200D02*
X154285400Y-95881800D01*
X155038800Y-99423000D02*
X155038800Y-96635200D01*
X169041300Y-100410500D02*
X168179500Y-99548700D01*
X172452200Y-101382900D02*
X171268900Y-101382900D01*
X170722800Y-100836800D02*
X170322700Y-100836800D01*
X153717400Y-95881800D02*
X152235600Y-94400000D01*
X168179500Y-99548700D02*
X168179500Y-99296800D01*
X169896400Y-100410500D02*
X169041300Y-100410500D01*
X139195000Y-94400000D02*
X139236200Y-94441200D01*
X152235600Y-94400000D02*
X143436600Y-94400000D01*
X115565100Y-97397800D02*
X117827000Y-97397800D01*
X171268900Y-101382900D02*
X170722800Y-100836800D01*
X117827000Y-97397800D02*
X120824800Y-94400000D01*
X139236200Y-94441200D02*
X143395400Y-94441200D01*
X143395400Y-94441200D02*
X143436600Y-94400000D01*
X170322700Y-100836800D02*
X169896400Y-100410500D01*
X175394600Y-98440500D02*
X172452200Y-101382900D01*
%TO.N,/WEH*%
X126713700Y-114850500D02*
X126458500Y-114850500D01*
X130797500Y-115453600D02*
X128685300Y-115453600D01*
X155021200Y-118049100D02*
X154880300Y-118049100D01*
X176348400Y-122718400D02*
X173637300Y-122718400D01*
X126771800Y-114908600D02*
X126713700Y-114850500D01*
X126437900Y-114829900D02*
X124300000Y-114829900D01*
X130938700Y-115594800D02*
X148852600Y-115594800D01*
X126458500Y-114850500D02*
X126437900Y-114829900D01*
X149146900Y-115499500D02*
X149146900Y-115596400D01*
X173637300Y-122718400D02*
X157785400Y-122718400D01*
X155373700Y-118401600D02*
X155021200Y-118049100D01*
X128685300Y-115453600D02*
X128140300Y-114908600D01*
X155373700Y-120306700D02*
X155373700Y-118401600D01*
X180211300Y-113912100D02*
X181019000Y-114719800D01*
X152231200Y-115400000D02*
X149047400Y-115400000D01*
X117948200Y-114898600D02*
X117171000Y-114121400D01*
X149047400Y-115400000D02*
X149146900Y-115499500D01*
X154880300Y-118049100D02*
X152231200Y-115400000D01*
X178201400Y-113912100D02*
X180211300Y-113912100D01*
X124231300Y-114898600D02*
X117948200Y-114898600D01*
X148852600Y-115594800D02*
X149047400Y-115400000D01*
X176968600Y-129187700D02*
X177039600Y-129187700D01*
X176718000Y-115395500D02*
X178201400Y-113912100D01*
X174540500Y-115395500D02*
X176718000Y-115395500D01*
X181019000Y-114719800D02*
X181019000Y-118047800D01*
X124300000Y-114829900D02*
X124231300Y-114898600D01*
X157785400Y-122718400D02*
X155373700Y-120306700D01*
X174454500Y-115481500D02*
X174540500Y-115395500D01*
X128140300Y-114908600D02*
X126771800Y-114908600D01*
X173637300Y-125856400D02*
X176968600Y-129187700D01*
X181019000Y-118047800D02*
X176348400Y-122718400D01*
X173637300Y-122718400D02*
X173637300Y-125856400D01*
X130797500Y-115453600D02*
X130938700Y-115594800D01*
%TO.N,/CE3*%
X165308600Y-94892000D02*
X165708800Y-94491800D01*
X165307100Y-100118900D02*
X165307100Y-95845800D01*
X166108900Y-93777200D02*
X166108900Y-85808300D01*
X177724100Y-106758300D02*
X178485400Y-105997000D01*
X170916500Y-104338100D02*
X170248100Y-104338100D01*
X168224100Y-103648700D02*
X166769600Y-102194200D01*
X165708800Y-94177300D02*
X166108900Y-93777200D01*
X169558700Y-103648700D02*
X168224100Y-103648700D01*
X177724100Y-106758300D02*
X175918500Y-104952700D01*
X165308600Y-95844300D02*
X165308600Y-94892000D01*
X175918500Y-104952700D02*
X174111500Y-104952700D01*
X165708800Y-94491800D02*
X165708800Y-94177300D01*
X183643500Y-109571100D02*
X183643500Y-123362900D01*
X180069400Y-105997000D02*
X183643500Y-109571100D01*
X174187700Y-107609300D02*
X170916500Y-104338100D01*
X183643500Y-123362900D02*
X187452900Y-127172300D01*
X166108900Y-85808300D02*
X165899100Y-85598500D01*
X178485400Y-105997000D02*
X180069400Y-105997000D01*
X177724100Y-106758300D02*
X177724100Y-107259300D01*
X166769600Y-102194200D02*
X166769600Y-101581400D01*
X165307100Y-95845800D02*
X165308600Y-95844300D01*
X177374100Y-107609300D02*
X174187700Y-107609300D01*
X170248100Y-104338100D02*
X169558700Y-103648700D01*
X166769600Y-101581400D02*
X165307100Y-100118900D01*
X177724100Y-107259300D02*
X177374100Y-107609300D01*
%TO.N,/DOE*%
X178504200Y-124121900D02*
X174257100Y-124121900D01*
X180962500Y-126580200D02*
X178504200Y-124121900D01*
%TO.N,/DIR*%
X175096400Y-125838800D02*
X176440100Y-127182500D01*
X176440100Y-127182500D02*
X181590800Y-127182500D01*
X181590800Y-127182500D02*
X182198200Y-126575100D01*
%TO.N,/OE*%
X187531800Y-86252900D02*
X185278900Y-84000000D01*
X134910200Y-101470800D02*
X134910200Y-101974700D01*
X134910200Y-101974700D02*
X138117800Y-105182300D01*
X157876200Y-84738400D02*
X157876200Y-88179200D01*
X184011400Y-95060900D02*
X183148600Y-94198100D01*
X184011400Y-102213400D02*
X184011400Y-95060900D01*
X152528300Y-103242800D02*
X152528300Y-104244000D01*
X156632700Y-99138400D02*
X152528300Y-103242800D01*
X187531800Y-104839100D02*
X187531800Y-86252900D01*
X186637100Y-104839100D02*
X184011400Y-102213400D01*
X172620500Y-101784600D02*
X171102600Y-101784600D01*
X171102600Y-101784600D02*
X170556500Y-101238500D01*
X155323700Y-89422700D02*
X154847200Y-88946200D01*
X149637100Y-87774900D02*
X145364700Y-87774900D01*
X124953700Y-85276600D02*
X126278000Y-86600900D01*
X170556500Y-101238500D02*
X169580100Y-101238500D01*
X183148600Y-94198100D02*
X179698900Y-94198100D01*
X132470400Y-99031000D02*
X134910200Y-101470800D01*
X176104500Y-98300600D02*
X172620500Y-101784600D01*
X152528300Y-104244000D02*
X147650900Y-104244000D01*
X154847200Y-88946200D02*
X154847200Y-88076600D01*
X120418000Y-104330600D02*
X122954000Y-101794600D01*
X154170400Y-87399800D02*
X150012200Y-87399800D01*
X156632700Y-89422700D02*
X156632700Y-99138400D01*
X145364700Y-87774900D02*
X142214200Y-84624400D01*
X126278000Y-86600900D02*
X127414000Y-86600900D01*
X122954000Y-85595700D02*
X123273100Y-85276600D01*
X154847200Y-88076600D02*
X154170400Y-87399800D01*
X147650900Y-104244000D02*
X147635800Y-104259100D01*
X132470400Y-95800000D02*
X132470400Y-99031000D01*
X127414000Y-86600900D02*
X131576800Y-90763700D01*
X123273100Y-85276600D02*
X124953700Y-85276600D01*
X169580100Y-101238500D02*
X169380000Y-101038400D01*
X138117800Y-105182300D02*
X138963600Y-105182300D01*
X179698900Y-94198100D02*
X176104500Y-97792500D01*
X131576800Y-90763700D02*
X131576800Y-94906400D01*
X122954000Y-101794600D02*
X122954000Y-85595700D01*
X150012200Y-87399800D02*
X149637100Y-87774900D01*
X120269800Y-104330600D02*
X120418000Y-104330600D01*
X187531800Y-104839100D02*
X186637100Y-104839100D01*
X131576800Y-94906400D02*
X132470400Y-95800000D01*
X176104500Y-97792500D02*
X176104500Y-98300600D01*
X157876200Y-88179200D02*
X156632700Y-89422700D01*
X187531800Y-105550000D02*
X187531800Y-104839100D01*
X156632700Y-89422700D02*
X155323700Y-89422700D01*
%TO.N,/SD3*%
X164905400Y-95679500D02*
X164906900Y-95678000D01*
X116228500Y-96594400D02*
X115282700Y-96594400D01*
X164905400Y-99222800D02*
X164905400Y-95679500D01*
X156027900Y-97056300D02*
X152250600Y-93279000D01*
X164906900Y-95678000D02*
X164906900Y-94725700D01*
X139236500Y-93237800D02*
X137998700Y-92000000D01*
X143385300Y-93237800D02*
X139236500Y-93237800D01*
X143426500Y-93279000D02*
X143385300Y-93237800D01*
X164704600Y-99423600D02*
X164905400Y-99222800D01*
X165307100Y-94325500D02*
X165307100Y-93728100D01*
X120822900Y-92000000D02*
X116228500Y-96594400D01*
X164906900Y-94725700D02*
X165307100Y-94325500D01*
X156027900Y-98871200D02*
X156027900Y-97056300D01*
X152250600Y-93279000D02*
X143426500Y-93279000D01*
X165307100Y-93728100D02*
X165507200Y-93528000D01*
%TO.N,/SD0*%
X156334100Y-82531400D02*
X153072500Y-85793000D01*
X129394500Y-84198500D02*
X128842400Y-83646400D01*
X142629700Y-83621000D02*
X143217600Y-84208900D01*
X118755000Y-81523400D02*
X117841600Y-82436800D01*
X162505700Y-85258800D02*
X162189100Y-84942200D01*
X128842400Y-83646400D02*
X128060000Y-83646400D01*
X162189100Y-84942200D02*
X162189100Y-84859600D01*
X114150100Y-85845200D02*
X114150100Y-85845300D01*
X143217600Y-84208900D02*
X143217600Y-84419900D01*
X162505700Y-86370900D02*
X162505700Y-85258800D01*
X127683800Y-83408900D02*
X126237900Y-81963000D01*
X135536900Y-84198500D02*
X136310300Y-83425100D01*
X142011900Y-83425100D02*
X142207800Y-83621000D01*
X160560200Y-82898500D02*
X160193100Y-82531400D01*
X126237900Y-81963000D02*
X125734900Y-81963000D01*
X162189100Y-84859600D02*
X162299300Y-84749400D01*
X164134800Y-88000000D02*
X162505700Y-86370900D01*
X135536900Y-84198500D02*
X135536900Y-84548000D01*
X153072500Y-85793000D02*
X151512000Y-85793000D01*
X128060000Y-83646400D02*
X127822500Y-83408900D01*
X142207800Y-83621000D02*
X142629700Y-83621000D01*
X148667200Y-85429900D02*
X147400500Y-86696600D01*
X136310300Y-83425100D02*
X142011900Y-83425100D01*
X127822500Y-83408900D02*
X127683800Y-83408900D01*
X117558500Y-82436800D02*
X114150100Y-85845200D01*
X106484200Y-85845300D02*
X112284100Y-85845300D01*
X162299300Y-84749400D02*
X162299300Y-84084200D01*
X105722000Y-85083100D02*
X106484200Y-85845300D01*
X143217600Y-84419900D02*
X145694400Y-86896700D01*
X147200400Y-86896700D02*
X147400500Y-86696600D01*
X151148900Y-85429900D02*
X148667200Y-85429900D01*
X125295300Y-81523400D02*
X118755000Y-81523400D01*
X162299300Y-84084200D02*
X161113600Y-82898500D01*
X135536900Y-84198500D02*
X129394500Y-84198500D01*
X151512000Y-85793000D02*
X151148900Y-85429900D01*
X145694400Y-86896700D02*
X147200400Y-86896700D01*
X161113600Y-82898500D02*
X160560200Y-82898500D01*
X160193100Y-82531400D02*
X156334100Y-82531400D01*
X125734900Y-81963000D02*
X125295300Y-81523400D01*
X117841600Y-82436800D02*
X117558500Y-82436800D01*
X114150100Y-85845300D02*
X112284100Y-85845300D01*
%TO.N,/SD2*%
X120471300Y-89812800D02*
X120471300Y-89812900D01*
X162701000Y-83917900D02*
X162701000Y-84886100D01*
X143731600Y-91307000D02*
X143733100Y-91305500D01*
X160424300Y-82129700D02*
X160791400Y-82496800D01*
X120681400Y-89602700D02*
X120471300Y-89812800D01*
X151386600Y-84999400D02*
X151778500Y-85391300D01*
X145978600Y-86294900D02*
X147274100Y-84999400D01*
X163534400Y-92116200D02*
X163534400Y-93238700D01*
X156097100Y-82129700D02*
X160424300Y-82129700D01*
X147274100Y-84999400D02*
X151386600Y-84999400D01*
X89899300Y-94213700D02*
X92913000Y-91200000D01*
X164754800Y-86939900D02*
X164754800Y-90895800D01*
X119814100Y-89812900D02*
X115240900Y-94386100D01*
X162701000Y-84886100D02*
X164754800Y-86939900D01*
X151778500Y-85391300D02*
X152835500Y-85391300D01*
X152835500Y-85391300D02*
X156097100Y-82129700D01*
X164754800Y-90895800D02*
X163534400Y-92116200D01*
X161279900Y-82496800D02*
X162701000Y-83917900D01*
X139219700Y-91307000D02*
X143731600Y-91307000D01*
X163534400Y-93238700D02*
X163583400Y-93287700D01*
X120471300Y-89812900D02*
X119814100Y-89812900D01*
X160791400Y-82496800D02*
X161279900Y-82496800D01*
%TO.N,/SD4*%
X105453100Y-85828000D02*
X105867400Y-86242300D01*
X112267500Y-91225900D02*
X111751000Y-91742400D01*
X169173100Y-92225100D02*
X173895400Y-92225100D01*
X105867400Y-86242300D02*
X105867400Y-86242400D01*
X114110100Y-91225900D02*
X112267500Y-91225900D01*
X104365800Y-86403900D02*
X104941700Y-85828000D01*
X116667300Y-87476900D02*
X115233500Y-88910700D01*
X104745200Y-91742400D02*
X104365800Y-91363000D01*
X115233500Y-88910700D02*
X115233500Y-90165500D01*
X125537500Y-91199300D02*
X127490800Y-93152600D01*
X168658400Y-91710400D02*
X169173100Y-92225100D01*
X153729200Y-92658800D02*
X154388000Y-92000000D01*
X104365800Y-91363000D02*
X104365800Y-86403900D01*
X114110200Y-91226000D02*
X114110100Y-91225900D01*
X125537500Y-90215500D02*
X125537500Y-91199300D01*
X104941700Y-85828000D02*
X105453100Y-85828000D01*
X115233500Y-90165500D02*
X114173000Y-91226000D01*
X127490800Y-93152600D02*
X130604400Y-93152600D01*
X173895400Y-92225100D02*
X174120500Y-92000000D01*
X111751000Y-91742400D02*
X104745200Y-91742400D01*
X114173000Y-91226000D02*
X114110200Y-91226000D01*
X116667300Y-86981600D02*
X116667300Y-87476900D01*
X141783000Y-92000000D02*
X142441800Y-92658800D01*
X142441800Y-92658800D02*
X153729200Y-92658800D01*
X105867400Y-86242400D02*
X106020500Y-86242400D01*
%TO.N,/SD5*%
X132266300Y-86011500D02*
X131808500Y-85553700D01*
X127573500Y-84434600D02*
X125905300Y-82766400D01*
X105218700Y-86444500D02*
X105218700Y-86686700D01*
X116241400Y-85771100D02*
X114141600Y-87870900D01*
X138815900Y-93679200D02*
X135915600Y-90778900D01*
X169750100Y-91799900D02*
X171611900Y-91799900D01*
X154193600Y-91174300D02*
X153157000Y-92210900D01*
X135915600Y-90355200D02*
X132266300Y-86705900D01*
X145437400Y-92210900D02*
X144355800Y-91129300D01*
X127590900Y-84449800D02*
X127575700Y-84434600D01*
X131682000Y-85553700D02*
X131280300Y-85152000D01*
X128459500Y-84750300D02*
X128159000Y-84449800D01*
X172211800Y-91200000D02*
X174473900Y-91200000D01*
X130951100Y-85152000D02*
X130949600Y-85150500D01*
X144003300Y-90703800D02*
X142231200Y-90703800D01*
X120430000Y-82384500D02*
X119574300Y-83240200D01*
X116241400Y-84889900D02*
X116241400Y-85771100D01*
X129210500Y-85150500D02*
X128810300Y-84750300D01*
X142221400Y-93839500D02*
X142061100Y-93679200D01*
X171611900Y-91799900D02*
X172211800Y-91200000D01*
X127575700Y-84434600D02*
X127573500Y-84434600D01*
X128810300Y-84750300D02*
X128459500Y-84750300D01*
X130949600Y-85150500D02*
X129210500Y-85150500D01*
X131280300Y-85152000D02*
X130951100Y-85152000D01*
X142061100Y-93679200D02*
X138815900Y-93679200D01*
X125905300Y-82766400D02*
X125200600Y-82766400D01*
X105218700Y-86686700D02*
X108370300Y-89838300D01*
X131808500Y-85553700D02*
X131682000Y-85553700D01*
X135915600Y-90778900D02*
X135915600Y-90355200D01*
X144355800Y-91129300D02*
X144355800Y-91056300D01*
X108370300Y-89838300D02*
X114141600Y-89838300D01*
X114141600Y-87870900D02*
X114141600Y-89838300D01*
X142231200Y-90703800D02*
X142225800Y-90698400D01*
X168853400Y-90903200D02*
X169750100Y-91799900D01*
X132266300Y-86705900D02*
X132266300Y-86011500D01*
X124818700Y-82384500D02*
X120430000Y-82384500D01*
X144355800Y-91056300D02*
X144003300Y-90703800D01*
X119574300Y-83240200D02*
X117891100Y-83240200D01*
X117891100Y-83240200D02*
X116241400Y-84889900D01*
X125200600Y-82766400D02*
X124818700Y-82384500D01*
X128159000Y-84449800D02*
X127590900Y-84449800D01*
X153157000Y-92210900D02*
X145437400Y-92210900D01*
%TO.N,/SD1*%
X120266600Y-88800000D02*
X120050900Y-88800000D01*
X115683300Y-93167700D02*
X113150500Y-93167700D01*
X151345700Y-86194700D02*
X150984100Y-85833100D01*
X161897600Y-84250500D02*
X160947300Y-83300200D01*
X162104000Y-85425100D02*
X161703800Y-85024900D01*
X160012100Y-82933100D02*
X156995600Y-82933100D01*
X149309000Y-85833100D02*
X148540900Y-86601200D01*
X161703800Y-84776900D02*
X161897600Y-84583100D01*
X153734000Y-86194700D02*
X151345700Y-86194700D01*
X163815700Y-89305300D02*
X162104000Y-87593600D01*
X113150500Y-93167700D02*
X113015500Y-93032700D01*
X120050900Y-88800000D02*
X120050900Y-88800100D01*
X160947300Y-83300200D02*
X160379200Y-83300200D01*
X120050900Y-88800100D02*
X115683300Y-93167700D01*
X162104000Y-87593600D02*
X162104000Y-85425100D01*
X161897600Y-84583100D02*
X161897600Y-84250500D01*
X143217200Y-87343500D02*
X137756800Y-87343500D01*
X160379200Y-83300200D02*
X160012100Y-82933100D01*
X137756800Y-87343500D02*
X135915100Y-89185200D01*
X150984100Y-85833100D02*
X149309000Y-85833100D01*
X156995600Y-82933100D02*
X153734000Y-86194700D01*
X148540900Y-86601200D02*
X148540900Y-86696600D01*
X161703800Y-85024900D02*
X161703800Y-84776900D01*
%TO.N,/SD7*%
X153888400Y-88001600D02*
X150136900Y-91753100D01*
X173610800Y-87100100D02*
X174487400Y-87976700D01*
X130628100Y-90705300D02*
X127911200Y-87988400D01*
X114006800Y-90824200D02*
X114831800Y-89999200D01*
X150136900Y-91753100D02*
X145620600Y-91753100D01*
X171558000Y-87100100D02*
X173610800Y-87100100D01*
X105621100Y-87962100D02*
X105902500Y-87962100D01*
X114831800Y-88031800D02*
X114863600Y-88000000D01*
X108764600Y-90824200D02*
X114006800Y-90824200D01*
X105902500Y-87962100D02*
X108764600Y-90824200D01*
X114831800Y-89999200D02*
X114831800Y-88031800D01*
X145620600Y-91753100D02*
X142456600Y-88589100D01*
X142456600Y-88589100D02*
X142186500Y-88589100D01*
%TO.N,/SD6*%
X155570600Y-88800000D02*
X155570600Y-88231900D01*
X139235000Y-88650000D02*
X139906700Y-87978300D01*
X168911100Y-88650000D02*
X169320900Y-88240200D01*
X143433300Y-87978300D02*
X143818900Y-87592700D01*
X142815900Y-84624600D02*
X142815900Y-84375200D01*
X127757200Y-84048100D02*
X127742000Y-84032900D01*
X118127100Y-82838500D02*
X117724800Y-82838500D01*
X138394200Y-85152000D02*
X131848300Y-85152000D01*
X117724800Y-82838500D02*
X115798400Y-84764900D01*
X129376800Y-84748800D02*
X128976600Y-84348600D01*
X169320900Y-88240200D02*
X173900100Y-88240200D01*
X143818900Y-87592700D02*
X143818900Y-87094300D01*
X149845900Y-86998100D02*
X149545600Y-87298400D01*
X128625800Y-84348600D02*
X128325300Y-84048100D01*
X107701700Y-88248300D02*
X106538400Y-87085000D01*
X112883000Y-88248300D02*
X113434700Y-88800000D01*
X138394200Y-84233000D02*
X138394200Y-85152000D01*
X119002600Y-81963000D02*
X118127100Y-82838500D01*
X141876600Y-85152000D02*
X138394200Y-85152000D01*
X112883000Y-88248300D02*
X107701700Y-88248300D01*
X127742000Y-84032900D02*
X127739800Y-84032900D01*
X128325300Y-84048100D02*
X127757200Y-84048100D01*
X125568600Y-82364700D02*
X125166900Y-81963000D01*
X125166900Y-81963000D02*
X119002600Y-81963000D01*
X141951300Y-84022700D02*
X141768200Y-83839600D01*
X142463400Y-84022700D02*
X141951300Y-84022700D01*
X155570600Y-88231900D02*
X154336800Y-86998100D01*
X141768200Y-83839600D02*
X138787600Y-83839600D01*
X149545600Y-87298400D02*
X145489700Y-87298400D01*
X154336800Y-86998100D02*
X149845900Y-86998100D01*
X173900100Y-88240200D02*
X174459900Y-88800000D01*
X128976600Y-84348600D02*
X128625800Y-84348600D01*
X131445100Y-84748800D02*
X129376800Y-84748800D01*
X142815900Y-84375200D02*
X142463400Y-84022700D01*
X115798400Y-85332900D02*
X112883000Y-88248300D01*
X131848300Y-85152000D02*
X131445100Y-84748800D01*
X145489700Y-87298400D02*
X142815900Y-84624600D01*
X127739800Y-84032900D02*
X126071600Y-82364700D01*
X139906700Y-87978300D02*
X143433300Y-87978300D01*
X126071600Y-82364700D02*
X125568600Y-82364700D01*
X143818900Y-87094300D02*
X141876600Y-85152000D01*
X138787600Y-83839600D02*
X138394200Y-84233000D01*
X115798400Y-84764900D02*
X115798400Y-85332900D01*
%TO.N,/SD13*%
X159773400Y-113989600D02*
X159870800Y-113892200D01*
X121581100Y-111547100D02*
X121014000Y-110980000D01*
X121581100Y-112200000D02*
X121581100Y-111547100D01*
X177719500Y-112241900D02*
X177981200Y-112241900D01*
X130835500Y-114048400D02*
X131652900Y-114048400D01*
X130429300Y-113643400D02*
X130834200Y-114048300D01*
X176319000Y-113642400D02*
X177719500Y-112241900D01*
X119214500Y-110980000D02*
X118080000Y-112114500D01*
X126936800Y-113624800D02*
X126957400Y-113645400D01*
X131652900Y-114048400D02*
X131699700Y-114095200D01*
X169167400Y-113642400D02*
X176319000Y-113642400D01*
X136422200Y-113977400D02*
X143053600Y-113977400D01*
X113009400Y-110679000D02*
X112886800Y-110679000D01*
X167871700Y-112346700D02*
X167871700Y-112200000D01*
X146627800Y-113989600D02*
X159773400Y-113989600D01*
X114944800Y-109824800D02*
X113863600Y-109824800D01*
X121014000Y-110980000D02*
X119214500Y-110980000D01*
X127212600Y-113645400D02*
X127270700Y-113703500D01*
X144831000Y-112200000D02*
X144838200Y-112200000D01*
X144838200Y-112200000D02*
X146627800Y-113989600D01*
X167871700Y-112346700D02*
X169167400Y-113642400D01*
X126957400Y-113645400D02*
X127212600Y-113645400D01*
X159870800Y-113892200D02*
X160149400Y-113892200D01*
X130834200Y-114048300D02*
X130835400Y-114048300D01*
X121581100Y-112200000D02*
X122672900Y-113291800D01*
X131699700Y-114095200D02*
X136304400Y-114095200D01*
X111126500Y-112439300D02*
X111126500Y-112663800D01*
X117234500Y-112114500D02*
X114944800Y-109824800D01*
X118080000Y-112114500D02*
X117234500Y-112114500D01*
X127935900Y-113703500D02*
X127996000Y-113643400D01*
X143053600Y-113977400D02*
X144831000Y-112200000D01*
X112886800Y-110679000D02*
X111126500Y-112439300D01*
X113863600Y-109824800D02*
X113009400Y-110679000D01*
X125020900Y-113291800D02*
X125353900Y-113624800D01*
X161694900Y-112346700D02*
X167871700Y-112346700D01*
X127270700Y-113703500D02*
X127935900Y-113703500D01*
X136304400Y-114095200D02*
X136422200Y-113977400D01*
X122672900Y-113291800D02*
X125020900Y-113291800D01*
X130835400Y-114048300D02*
X130835500Y-114048400D01*
X111126500Y-112663800D02*
X104882500Y-118907800D01*
X127996000Y-113643400D02*
X130429300Y-113643400D01*
X160149400Y-113892200D02*
X161694900Y-112346700D01*
X125353900Y-113624800D02*
X126936800Y-113624800D01*
%TO.N,/SD11*%
X124455700Y-115342400D02*
X117509600Y-115342400D01*
X126550400Y-115510400D02*
X126271600Y-115231600D01*
X117509600Y-115342400D02*
X115823900Y-113656700D01*
X115823900Y-113935000D02*
X115823900Y-113656700D01*
X174300500Y-114645900D02*
X174218500Y-114727900D01*
X145550200Y-111192900D02*
X141493100Y-111192900D01*
X113600000Y-122274185D02*
X113600000Y-117133014D01*
X113743300Y-122417486D02*
X113600000Y-122274185D01*
X113884800Y-116848214D02*
X113884800Y-115874100D01*
X113600000Y-117133014D02*
X113884800Y-116848214D01*
X126271600Y-115231600D02*
X124566500Y-115231600D01*
X113743300Y-123333900D02*
X113743300Y-122417486D01*
X124566500Y-115231600D02*
X124455700Y-115342400D01*
X152528200Y-112985200D02*
X152327200Y-113186200D01*
X147543500Y-113186200D02*
X145550200Y-111192900D01*
X127616400Y-115510400D02*
X126550400Y-115510400D01*
X174218500Y-114727900D02*
X160732500Y-114727900D01*
X141493100Y-111192900D02*
X139641100Y-113044900D01*
X113884800Y-115874100D02*
X115823900Y-113935000D01*
X139641100Y-113044900D02*
X131250900Y-113044900D01*
X152327200Y-113186200D02*
X147543500Y-113186200D01*
%TO.N,/SD15*%
X135390900Y-108744300D02*
X135190800Y-108944400D01*
X128146000Y-108387200D02*
X122390300Y-108387200D01*
X106675400Y-115343700D02*
X104407200Y-115343700D01*
X110728800Y-111290300D02*
X106675400Y-115343700D01*
X169737300Y-112787800D02*
X175522600Y-112787800D01*
X168978300Y-109397200D02*
X168978300Y-112028800D01*
X111418300Y-111290300D02*
X110728800Y-111290300D01*
X168581100Y-109000000D02*
X168978300Y-109397200D01*
X135190800Y-108944400D02*
X128703200Y-108944400D01*
X104407200Y-115343700D02*
X103739500Y-114676000D01*
X168978300Y-112028800D02*
X169737300Y-112787800D01*
X128703200Y-108944400D02*
X128146000Y-108387200D01*
X175522600Y-112787800D02*
X178399000Y-109911400D01*
X122390300Y-108387200D02*
X122280200Y-108497300D01*
X147774700Y-109000000D02*
X152119800Y-109000000D01*
%TO.N,/SD14*%
X131500900Y-113646700D02*
X131588700Y-113558900D01*
X169584900Y-113240700D02*
X176116300Y-113240700D01*
X131588700Y-113558900D02*
X141756400Y-113558900D01*
X111192500Y-108937900D02*
X106077700Y-114052700D01*
X130649000Y-113220100D02*
X130649000Y-113293900D01*
X167436100Y-110659300D02*
X167436100Y-109800000D01*
X123807000Y-112821400D02*
X120363100Y-109377500D01*
X127739200Y-113243700D02*
X127123700Y-113243700D01*
X143720700Y-111594600D02*
X145083800Y-111594600D01*
X115593500Y-108621200D02*
X113865700Y-108621200D01*
X147077100Y-113587900D02*
X159607100Y-113587900D01*
X167436100Y-110659300D02*
X168576600Y-111799800D01*
X120363100Y-109377500D02*
X116873000Y-109377500D01*
X116873000Y-109377500D02*
X116433400Y-108937900D01*
X130649000Y-113220100D02*
X130649000Y-112795700D01*
X113865700Y-108621200D02*
X113549000Y-108937900D01*
X125520300Y-113223100D02*
X125118600Y-112821400D01*
X116433400Y-108937900D02*
X115910200Y-108937900D01*
X125118600Y-112821400D02*
X123807000Y-112821400D01*
X130649000Y-112795700D02*
X132552000Y-110892700D01*
X132552000Y-110892700D02*
X135873600Y-110892700D01*
X176116300Y-113240700D02*
X178868800Y-110488200D01*
X106077700Y-114052700D02*
X104873800Y-114052700D01*
X159607100Y-113587900D02*
X162535700Y-110659300D01*
X141756400Y-113558900D02*
X143720700Y-111594600D01*
X130649000Y-113220100D02*
X127762800Y-113220100D01*
X168576600Y-111799800D02*
X168576600Y-112232400D01*
X162535700Y-110659300D02*
X167436100Y-110659300D01*
X113549000Y-108937900D02*
X111192500Y-108937900D01*
X127762800Y-113220100D02*
X127739200Y-113243700D01*
X131001800Y-113646700D02*
X131500900Y-113646700D01*
X145083800Y-111594600D02*
X147077100Y-113587900D01*
X127123700Y-113243700D02*
X127103100Y-113223100D01*
X127103100Y-113223100D02*
X125520300Y-113223100D01*
X115910200Y-108937900D02*
X115593500Y-108621200D01*
X178868800Y-110488200D02*
X178956200Y-110488200D01*
X130649000Y-113293900D02*
X131001800Y-113646700D01*
X168576600Y-112232400D02*
X169584900Y-113240700D01*
%TO.N,/SD8*%
X127423500Y-107597800D02*
X117024500Y-107597800D01*
X163350300Y-107439700D02*
X163149400Y-107640600D01*
X104359600Y-109539300D02*
X104898900Y-109000000D01*
X127606500Y-107780800D02*
X127423500Y-107597800D01*
X149229000Y-107753200D02*
X149205800Y-107730000D01*
X169223300Y-105470700D02*
X167586200Y-105470700D01*
X117024500Y-107597800D02*
X116804500Y-107817800D01*
X109867200Y-108972300D02*
X109300800Y-108972300D01*
X104898900Y-109000000D02*
X109273100Y-109000000D01*
X113351000Y-107999900D02*
X110839600Y-107999900D01*
X149205800Y-107730000D02*
X127657300Y-107730000D01*
X127657300Y-107730000D02*
X127606500Y-107780800D01*
X116804500Y-107817800D02*
X113533100Y-107817800D01*
X110839600Y-107999900D02*
X109867200Y-108972300D01*
X104359600Y-110837800D02*
X104359600Y-109539300D01*
X149341600Y-107640600D02*
X149229000Y-107753200D01*
X170641900Y-106889300D02*
X169223300Y-105470700D01*
X109300800Y-108972300D02*
X109273100Y-109000000D01*
X163149400Y-107640600D02*
X149341600Y-107640600D01*
X167586200Y-105470700D02*
X166646900Y-106410000D01*
X113533100Y-107817800D02*
X113351000Y-107999900D01*
%TO.N,/SD12*%
X136588500Y-114379100D02*
X136470700Y-114496900D01*
X144900700Y-113120600D02*
X143642200Y-114379100D01*
X120768400Y-112319700D02*
X120768400Y-111586700D01*
X126770500Y-114026500D02*
X125187600Y-114026500D01*
X131214500Y-114451100D02*
X131213500Y-114450100D01*
X127104400Y-114105200D02*
X127046300Y-114047100D01*
X124854600Y-113693500D02*
X122142200Y-113693500D01*
X167327100Y-113000000D02*
X168371200Y-114044100D01*
X122142200Y-113693500D02*
X120768400Y-112319700D01*
X125187600Y-114026500D02*
X124854600Y-113693500D01*
X129058900Y-114046600D02*
X128160800Y-114046600D01*
X144900700Y-113120600D02*
X146171400Y-114391300D01*
X131487600Y-114451100D02*
X131214500Y-114451100D01*
X107735300Y-117662200D02*
X107735300Y-122325500D01*
X159939700Y-114391300D02*
X160037100Y-114293900D01*
X130669100Y-114450000D02*
X130667900Y-114450000D01*
X128160800Y-114046600D02*
X128102200Y-114105200D01*
X160483400Y-114126200D02*
X166200900Y-114126200D01*
X111325000Y-114072500D02*
X107735300Y-117662200D01*
X129509200Y-114496900D02*
X129058900Y-114046600D01*
X136470700Y-114496900D02*
X131533400Y-114496900D01*
X168371200Y-114044100D02*
X177021900Y-114044100D01*
X130669200Y-114450100D02*
X130669100Y-114450000D01*
X166200900Y-114126200D02*
X167327100Y-113000000D01*
X127046300Y-114047100D02*
X126791100Y-114047100D01*
X128102200Y-114105200D02*
X127104400Y-114105200D01*
X131533400Y-114496900D02*
X131487600Y-114451100D01*
X146171400Y-114391300D02*
X159939700Y-114391300D01*
X160315700Y-114293900D02*
X160483400Y-114126200D01*
X160037100Y-114293900D02*
X160315700Y-114293900D01*
X143642200Y-114379100D02*
X136588500Y-114379100D01*
X131213500Y-114450100D02*
X130669200Y-114450100D01*
X130275900Y-114496900D02*
X129509200Y-114496900D01*
X126791100Y-114047100D02*
X126770500Y-114026500D01*
X130667900Y-114450000D02*
X130580200Y-114362300D01*
X130410500Y-114362300D02*
X130275900Y-114496900D01*
X130580200Y-114362300D02*
X130410500Y-114362300D01*
X177021900Y-114044100D02*
X178022300Y-113043700D01*
%TO.N,/SD10*%
X115427100Y-109022900D02*
X114032000Y-109022900D01*
X106111800Y-114680000D02*
X104647600Y-114680000D01*
X124365200Y-111300200D02*
X123022900Y-111300200D01*
X164072900Y-108444000D02*
X164173300Y-108343600D01*
X111367200Y-109424600D02*
X106111800Y-114680000D01*
X136920300Y-109889200D02*
X144826500Y-109889200D01*
X156560900Y-112200000D02*
X160316900Y-108444000D01*
X125886400Y-112821400D02*
X124365200Y-111300200D01*
X120494400Y-108601200D02*
X117716800Y-108601200D01*
X103468600Y-113501000D02*
X103468600Y-113263900D01*
X168973400Y-108343600D02*
X169727600Y-109097800D01*
X144826500Y-109889200D02*
X147721700Y-112784400D01*
X147721700Y-112784400D02*
X151506400Y-112784400D01*
X136518600Y-110290900D02*
X136920300Y-109889200D01*
X127290000Y-112842000D02*
X127269400Y-112821400D01*
X171179500Y-109097800D02*
X174119400Y-112037700D01*
X128056500Y-112595300D02*
X127819600Y-112595300D01*
X115966800Y-109562600D02*
X115427100Y-109022900D01*
X121253200Y-109360000D02*
X120494400Y-108601200D01*
X151506400Y-112784400D02*
X152090800Y-112200000D01*
X114032000Y-109022900D02*
X113630300Y-109424600D01*
X123022900Y-111300200D02*
X121253200Y-109530500D01*
X121253200Y-109530500D02*
X121253200Y-109360000D01*
X127572900Y-112842000D02*
X127290000Y-112842000D01*
X127269400Y-112821400D02*
X125886400Y-112821400D01*
X160316900Y-108444000D02*
X164072900Y-108444000D01*
X128056500Y-112595300D02*
X130360900Y-110290900D01*
X152090800Y-112200000D02*
X156560900Y-112200000D01*
X130360900Y-110290900D02*
X136518600Y-110290900D01*
X113630300Y-109424600D02*
X111367200Y-109424600D01*
X116207200Y-109562600D02*
X115966800Y-109562600D01*
X164173300Y-108343600D02*
X168973400Y-108343600D01*
X127819600Y-112595300D02*
X127572900Y-112842000D01*
X169727600Y-109097800D02*
X171179500Y-109097800D01*
X104647600Y-114680000D02*
X103468600Y-113501000D01*
%TO.N,/SD9*%
X137608800Y-108131700D02*
X131238600Y-108131700D01*
X169893900Y-108696100D02*
X172681100Y-108696100D01*
X102841100Y-113110600D02*
X102784200Y-113167500D01*
X168838400Y-107640600D02*
X169893900Y-108696100D01*
X131238600Y-108131700D02*
X131027700Y-108342600D01*
X104589400Y-118299800D02*
X110524700Y-112364500D01*
X137849500Y-108372400D02*
X137608800Y-108131700D01*
X103225900Y-112641300D02*
X102841100Y-113026100D01*
X106654800Y-112752700D02*
X104614100Y-112752700D01*
X102880400Y-114094500D02*
X102880400Y-117889600D01*
X103290600Y-118299800D02*
X104589400Y-118299800D01*
X158416900Y-108042300D02*
X163415600Y-108042300D01*
X163416500Y-108041400D02*
X163907500Y-108041400D01*
X124650600Y-110393200D02*
X122683900Y-110393200D01*
X102841100Y-113026100D02*
X102841100Y-113110600D01*
X164133800Y-107815100D02*
X167228700Y-107815100D01*
X127813400Y-109190600D02*
X125853200Y-109190600D01*
X111005900Y-108401600D02*
X106654800Y-112752700D01*
X137849500Y-108372400D02*
X137849500Y-108446900D01*
X173486000Y-109501000D02*
X174115400Y-109501000D01*
X158086800Y-108372400D02*
X158416900Y-108042300D01*
X167403200Y-107640600D02*
X168838400Y-107640600D01*
X113517300Y-108401600D02*
X111005900Y-108401600D01*
X163415600Y-108042300D02*
X163416500Y-108041400D01*
X137849500Y-108446900D02*
X136885100Y-109411300D01*
X113699400Y-108219500D02*
X113517300Y-108401600D01*
X128370600Y-109747800D02*
X127813400Y-109190600D01*
X158086800Y-108372400D02*
X137849500Y-108372400D01*
X121654900Y-109364200D02*
X121654900Y-109108900D01*
X104614100Y-112752700D02*
X104502700Y-112641300D01*
X158086800Y-108372400D02*
X158086800Y-109800000D01*
X102784200Y-113167500D02*
X102784200Y-113998300D01*
X120545500Y-107999500D02*
X117190900Y-107999500D01*
X172681100Y-108696100D02*
X173486000Y-109501000D01*
X117190900Y-107999500D02*
X116970900Y-108219500D01*
X125853200Y-109190600D02*
X124650600Y-110393200D01*
X104502700Y-112641300D02*
X103225900Y-112641300D01*
X103290600Y-123413600D02*
X103290600Y-118299800D01*
X136550800Y-109411300D02*
X136214300Y-109747800D01*
X121654900Y-109108900D02*
X120545500Y-107999500D01*
X136214300Y-109747800D02*
X128370600Y-109747800D01*
X136885100Y-109411300D02*
X136550800Y-109411300D01*
X163907500Y-108041400D02*
X164133800Y-107815100D01*
X116970900Y-108219500D02*
X113699400Y-108219500D01*
X102880400Y-117889600D02*
X103290600Y-118299800D01*
X167228700Y-107815100D02*
X167403200Y-107640600D01*
X122683900Y-110393200D02*
X121654900Y-109364200D01*
X102784200Y-113998300D02*
X102880400Y-114094500D01*
%TD*%
M02*
